G04 #@! TF.GenerationSoftware,KiCad,Pcbnew,(5.1.5)-3*
G04 #@! TF.CreationDate,2020-06-20T22:53:25+02:00*
G04 #@! TF.ProjectId,Tester,54657374-6572-42e6-9b69-6361645f7063,rev?*
G04 #@! TF.SameCoordinates,Original*
G04 #@! TF.FileFunction,Paste,Top*
G04 #@! TF.FilePolarity,Positive*
%FSLAX46Y46*%
G04 Gerber Fmt 4.6, Leading zero omitted, Abs format (unit mm)*
G04 Created by KiCad (PCBNEW (5.1.5)-3) date 2020-06-20 22:53:25*
%MOMM*%
%LPD*%
G04 APERTURE LIST*
%ADD10C,0.100000*%
%ADD11R,0.800000X1.900000*%
G04 APERTURE END LIST*
D10*
G36*
X98650000Y-156800000D02*
G01*
X98650000Y-153200000D01*
X102950000Y-154200000D01*
X102950000Y-155800000D01*
X98650000Y-156800000D01*
G37*
G36*
X109350000Y-153200000D02*
G01*
X109350000Y-156800000D01*
X105050000Y-155800000D01*
X105050000Y-154200000D01*
X109350000Y-153200000D01*
G37*
G36*
X111150000Y-62200000D02*
G01*
X111150000Y-65800000D01*
X106850000Y-64800000D01*
X106850000Y-63200000D01*
X111150000Y-62200000D01*
G37*
G36*
X100450000Y-65800000D02*
G01*
X100450000Y-62200000D01*
X104750000Y-63200000D01*
X104750000Y-64800000D01*
X100450000Y-65800000D01*
G37*
G36*
X96524505Y-154326204D02*
G01*
X96548773Y-154329804D01*
X96572572Y-154335765D01*
X96595671Y-154344030D01*
X96617850Y-154354520D01*
X96638893Y-154367132D01*
X96658599Y-154381747D01*
X96676777Y-154398223D01*
X96693253Y-154416401D01*
X96707868Y-154436107D01*
X96720480Y-154457150D01*
X96730970Y-154479329D01*
X96739235Y-154502428D01*
X96745196Y-154526227D01*
X96748796Y-154550495D01*
X96750000Y-154574999D01*
X96750000Y-157425001D01*
X96748796Y-157449505D01*
X96745196Y-157473773D01*
X96739235Y-157497572D01*
X96730970Y-157520671D01*
X96720480Y-157542850D01*
X96707868Y-157563893D01*
X96693253Y-157583599D01*
X96676777Y-157601777D01*
X96658599Y-157618253D01*
X96638893Y-157632868D01*
X96617850Y-157645480D01*
X96595671Y-157655970D01*
X96572572Y-157664235D01*
X96548773Y-157670196D01*
X96524505Y-157673796D01*
X96500001Y-157675000D01*
X95474999Y-157675000D01*
X95450495Y-157673796D01*
X95426227Y-157670196D01*
X95402428Y-157664235D01*
X95379329Y-157655970D01*
X95357150Y-157645480D01*
X95336107Y-157632868D01*
X95316401Y-157618253D01*
X95298223Y-157601777D01*
X95281747Y-157583599D01*
X95267132Y-157563893D01*
X95254520Y-157542850D01*
X95244030Y-157520671D01*
X95235765Y-157497572D01*
X95229804Y-157473773D01*
X95226204Y-157449505D01*
X95225000Y-157425001D01*
X95225000Y-154574999D01*
X95226204Y-154550495D01*
X95229804Y-154526227D01*
X95235765Y-154502428D01*
X95244030Y-154479329D01*
X95254520Y-154457150D01*
X95267132Y-154436107D01*
X95281747Y-154416401D01*
X95298223Y-154398223D01*
X95316401Y-154381747D01*
X95336107Y-154367132D01*
X95357150Y-154354520D01*
X95379329Y-154344030D01*
X95402428Y-154335765D01*
X95426227Y-154329804D01*
X95450495Y-154326204D01*
X95474999Y-154325000D01*
X96500001Y-154325000D01*
X96524505Y-154326204D01*
G37*
G36*
X90549505Y-154326204D02*
G01*
X90573773Y-154329804D01*
X90597572Y-154335765D01*
X90620671Y-154344030D01*
X90642850Y-154354520D01*
X90663893Y-154367132D01*
X90683599Y-154381747D01*
X90701777Y-154398223D01*
X90718253Y-154416401D01*
X90732868Y-154436107D01*
X90745480Y-154457150D01*
X90755970Y-154479329D01*
X90764235Y-154502428D01*
X90770196Y-154526227D01*
X90773796Y-154550495D01*
X90775000Y-154574999D01*
X90775000Y-157425001D01*
X90773796Y-157449505D01*
X90770196Y-157473773D01*
X90764235Y-157497572D01*
X90755970Y-157520671D01*
X90745480Y-157542850D01*
X90732868Y-157563893D01*
X90718253Y-157583599D01*
X90701777Y-157601777D01*
X90683599Y-157618253D01*
X90663893Y-157632868D01*
X90642850Y-157645480D01*
X90620671Y-157655970D01*
X90597572Y-157664235D01*
X90573773Y-157670196D01*
X90549505Y-157673796D01*
X90525001Y-157675000D01*
X89499999Y-157675000D01*
X89475495Y-157673796D01*
X89451227Y-157670196D01*
X89427428Y-157664235D01*
X89404329Y-157655970D01*
X89382150Y-157645480D01*
X89361107Y-157632868D01*
X89341401Y-157618253D01*
X89323223Y-157601777D01*
X89306747Y-157583599D01*
X89292132Y-157563893D01*
X89279520Y-157542850D01*
X89269030Y-157520671D01*
X89260765Y-157497572D01*
X89254804Y-157473773D01*
X89251204Y-157449505D01*
X89250000Y-157425001D01*
X89250000Y-154574999D01*
X89251204Y-154550495D01*
X89254804Y-154526227D01*
X89260765Y-154502428D01*
X89269030Y-154479329D01*
X89279520Y-154457150D01*
X89292132Y-154436107D01*
X89306747Y-154416401D01*
X89323223Y-154398223D01*
X89341401Y-154381747D01*
X89361107Y-154367132D01*
X89382150Y-154354520D01*
X89404329Y-154344030D01*
X89427428Y-154335765D01*
X89451227Y-154329804D01*
X89475495Y-154326204D01*
X89499999Y-154325000D01*
X90525001Y-154325000D01*
X90549505Y-154326204D01*
G37*
G36*
X97524505Y-62326204D02*
G01*
X97548773Y-62329804D01*
X97572572Y-62335765D01*
X97595671Y-62344030D01*
X97617850Y-62354520D01*
X97638893Y-62367132D01*
X97658599Y-62381747D01*
X97676777Y-62398223D01*
X97693253Y-62416401D01*
X97707868Y-62436107D01*
X97720480Y-62457150D01*
X97730970Y-62479329D01*
X97739235Y-62502428D01*
X97745196Y-62526227D01*
X97748796Y-62550495D01*
X97750000Y-62574999D01*
X97750000Y-65425001D01*
X97748796Y-65449505D01*
X97745196Y-65473773D01*
X97739235Y-65497572D01*
X97730970Y-65520671D01*
X97720480Y-65542850D01*
X97707868Y-65563893D01*
X97693253Y-65583599D01*
X97676777Y-65601777D01*
X97658599Y-65618253D01*
X97638893Y-65632868D01*
X97617850Y-65645480D01*
X97595671Y-65655970D01*
X97572572Y-65664235D01*
X97548773Y-65670196D01*
X97524505Y-65673796D01*
X97500001Y-65675000D01*
X96474999Y-65675000D01*
X96450495Y-65673796D01*
X96426227Y-65670196D01*
X96402428Y-65664235D01*
X96379329Y-65655970D01*
X96357150Y-65645480D01*
X96336107Y-65632868D01*
X96316401Y-65618253D01*
X96298223Y-65601777D01*
X96281747Y-65583599D01*
X96267132Y-65563893D01*
X96254520Y-65542850D01*
X96244030Y-65520671D01*
X96235765Y-65497572D01*
X96229804Y-65473773D01*
X96226204Y-65449505D01*
X96225000Y-65425001D01*
X96225000Y-62574999D01*
X96226204Y-62550495D01*
X96229804Y-62526227D01*
X96235765Y-62502428D01*
X96244030Y-62479329D01*
X96254520Y-62457150D01*
X96267132Y-62436107D01*
X96281747Y-62416401D01*
X96298223Y-62398223D01*
X96316401Y-62381747D01*
X96336107Y-62367132D01*
X96357150Y-62354520D01*
X96379329Y-62344030D01*
X96402428Y-62335765D01*
X96426227Y-62329804D01*
X96450495Y-62326204D01*
X96474999Y-62325000D01*
X97500001Y-62325000D01*
X97524505Y-62326204D01*
G37*
G36*
X91549505Y-62326204D02*
G01*
X91573773Y-62329804D01*
X91597572Y-62335765D01*
X91620671Y-62344030D01*
X91642850Y-62354520D01*
X91663893Y-62367132D01*
X91683599Y-62381747D01*
X91701777Y-62398223D01*
X91718253Y-62416401D01*
X91732868Y-62436107D01*
X91745480Y-62457150D01*
X91755970Y-62479329D01*
X91764235Y-62502428D01*
X91770196Y-62526227D01*
X91773796Y-62550495D01*
X91775000Y-62574999D01*
X91775000Y-65425001D01*
X91773796Y-65449505D01*
X91770196Y-65473773D01*
X91764235Y-65497572D01*
X91755970Y-65520671D01*
X91745480Y-65542850D01*
X91732868Y-65563893D01*
X91718253Y-65583599D01*
X91701777Y-65601777D01*
X91683599Y-65618253D01*
X91663893Y-65632868D01*
X91642850Y-65645480D01*
X91620671Y-65655970D01*
X91597572Y-65664235D01*
X91573773Y-65670196D01*
X91549505Y-65673796D01*
X91525001Y-65675000D01*
X90499999Y-65675000D01*
X90475495Y-65673796D01*
X90451227Y-65670196D01*
X90427428Y-65664235D01*
X90404329Y-65655970D01*
X90382150Y-65645480D01*
X90361107Y-65632868D01*
X90341401Y-65618253D01*
X90323223Y-65601777D01*
X90306747Y-65583599D01*
X90292132Y-65563893D01*
X90279520Y-65542850D01*
X90269030Y-65520671D01*
X90260765Y-65497572D01*
X90254804Y-65473773D01*
X90251204Y-65449505D01*
X90250000Y-65425001D01*
X90250000Y-62574999D01*
X90251204Y-62550495D01*
X90254804Y-62526227D01*
X90260765Y-62502428D01*
X90269030Y-62479329D01*
X90279520Y-62457150D01*
X90292132Y-62436107D01*
X90306747Y-62416401D01*
X90323223Y-62398223D01*
X90341401Y-62381747D01*
X90361107Y-62367132D01*
X90382150Y-62354520D01*
X90404329Y-62344030D01*
X90427428Y-62335765D01*
X90451227Y-62329804D01*
X90475495Y-62326204D01*
X90499999Y-62325000D01*
X91525001Y-62325000D01*
X91549505Y-62326204D01*
G37*
G36*
X81512005Y-84326204D02*
G01*
X81536273Y-84329804D01*
X81560072Y-84335765D01*
X81583171Y-84344030D01*
X81605350Y-84354520D01*
X81626393Y-84367132D01*
X81646099Y-84381747D01*
X81664277Y-84398223D01*
X81680753Y-84416401D01*
X81695368Y-84436107D01*
X81707980Y-84457150D01*
X81718470Y-84479329D01*
X81726735Y-84502428D01*
X81732696Y-84526227D01*
X81736296Y-84550495D01*
X81737500Y-84574999D01*
X81737500Y-87425001D01*
X81736296Y-87449505D01*
X81732696Y-87473773D01*
X81726735Y-87497572D01*
X81718470Y-87520671D01*
X81707980Y-87542850D01*
X81695368Y-87563893D01*
X81680753Y-87583599D01*
X81664277Y-87601777D01*
X81646099Y-87618253D01*
X81626393Y-87632868D01*
X81605350Y-87645480D01*
X81583171Y-87655970D01*
X81560072Y-87664235D01*
X81536273Y-87670196D01*
X81512005Y-87673796D01*
X81487501Y-87675000D01*
X80462499Y-87675000D01*
X80437995Y-87673796D01*
X80413727Y-87670196D01*
X80389928Y-87664235D01*
X80366829Y-87655970D01*
X80344650Y-87645480D01*
X80323607Y-87632868D01*
X80303901Y-87618253D01*
X80285723Y-87601777D01*
X80269247Y-87583599D01*
X80254632Y-87563893D01*
X80242020Y-87542850D01*
X80231530Y-87520671D01*
X80223265Y-87497572D01*
X80217304Y-87473773D01*
X80213704Y-87449505D01*
X80212500Y-87425001D01*
X80212500Y-84574999D01*
X80213704Y-84550495D01*
X80217304Y-84526227D01*
X80223265Y-84502428D01*
X80231530Y-84479329D01*
X80242020Y-84457150D01*
X80254632Y-84436107D01*
X80269247Y-84416401D01*
X80285723Y-84398223D01*
X80303901Y-84381747D01*
X80323607Y-84367132D01*
X80344650Y-84354520D01*
X80366829Y-84344030D01*
X80389928Y-84335765D01*
X80413727Y-84329804D01*
X80437995Y-84326204D01*
X80462499Y-84325000D01*
X81487501Y-84325000D01*
X81512005Y-84326204D01*
G37*
G36*
X75537005Y-84326204D02*
G01*
X75561273Y-84329804D01*
X75585072Y-84335765D01*
X75608171Y-84344030D01*
X75630350Y-84354520D01*
X75651393Y-84367132D01*
X75671099Y-84381747D01*
X75689277Y-84398223D01*
X75705753Y-84416401D01*
X75720368Y-84436107D01*
X75732980Y-84457150D01*
X75743470Y-84479329D01*
X75751735Y-84502428D01*
X75757696Y-84526227D01*
X75761296Y-84550495D01*
X75762500Y-84574999D01*
X75762500Y-87425001D01*
X75761296Y-87449505D01*
X75757696Y-87473773D01*
X75751735Y-87497572D01*
X75743470Y-87520671D01*
X75732980Y-87542850D01*
X75720368Y-87563893D01*
X75705753Y-87583599D01*
X75689277Y-87601777D01*
X75671099Y-87618253D01*
X75651393Y-87632868D01*
X75630350Y-87645480D01*
X75608171Y-87655970D01*
X75585072Y-87664235D01*
X75561273Y-87670196D01*
X75537005Y-87673796D01*
X75512501Y-87675000D01*
X74487499Y-87675000D01*
X74462995Y-87673796D01*
X74438727Y-87670196D01*
X74414928Y-87664235D01*
X74391829Y-87655970D01*
X74369650Y-87645480D01*
X74348607Y-87632868D01*
X74328901Y-87618253D01*
X74310723Y-87601777D01*
X74294247Y-87583599D01*
X74279632Y-87563893D01*
X74267020Y-87542850D01*
X74256530Y-87520671D01*
X74248265Y-87497572D01*
X74242304Y-87473773D01*
X74238704Y-87449505D01*
X74237500Y-87425001D01*
X74237500Y-84574999D01*
X74238704Y-84550495D01*
X74242304Y-84526227D01*
X74248265Y-84502428D01*
X74256530Y-84479329D01*
X74267020Y-84457150D01*
X74279632Y-84436107D01*
X74294247Y-84416401D01*
X74310723Y-84398223D01*
X74328901Y-84381747D01*
X74348607Y-84367132D01*
X74369650Y-84354520D01*
X74391829Y-84344030D01*
X74414928Y-84335765D01*
X74438727Y-84329804D01*
X74462995Y-84326204D01*
X74487499Y-84325000D01*
X75512501Y-84325000D01*
X75537005Y-84326204D01*
G37*
G36*
X81512005Y-130326204D02*
G01*
X81536273Y-130329804D01*
X81560072Y-130335765D01*
X81583171Y-130344030D01*
X81605350Y-130354520D01*
X81626393Y-130367132D01*
X81646099Y-130381747D01*
X81664277Y-130398223D01*
X81680753Y-130416401D01*
X81695368Y-130436107D01*
X81707980Y-130457150D01*
X81718470Y-130479329D01*
X81726735Y-130502428D01*
X81732696Y-130526227D01*
X81736296Y-130550495D01*
X81737500Y-130574999D01*
X81737500Y-133425001D01*
X81736296Y-133449505D01*
X81732696Y-133473773D01*
X81726735Y-133497572D01*
X81718470Y-133520671D01*
X81707980Y-133542850D01*
X81695368Y-133563893D01*
X81680753Y-133583599D01*
X81664277Y-133601777D01*
X81646099Y-133618253D01*
X81626393Y-133632868D01*
X81605350Y-133645480D01*
X81583171Y-133655970D01*
X81560072Y-133664235D01*
X81536273Y-133670196D01*
X81512005Y-133673796D01*
X81487501Y-133675000D01*
X80462499Y-133675000D01*
X80437995Y-133673796D01*
X80413727Y-133670196D01*
X80389928Y-133664235D01*
X80366829Y-133655970D01*
X80344650Y-133645480D01*
X80323607Y-133632868D01*
X80303901Y-133618253D01*
X80285723Y-133601777D01*
X80269247Y-133583599D01*
X80254632Y-133563893D01*
X80242020Y-133542850D01*
X80231530Y-133520671D01*
X80223265Y-133497572D01*
X80217304Y-133473773D01*
X80213704Y-133449505D01*
X80212500Y-133425001D01*
X80212500Y-130574999D01*
X80213704Y-130550495D01*
X80217304Y-130526227D01*
X80223265Y-130502428D01*
X80231530Y-130479329D01*
X80242020Y-130457150D01*
X80254632Y-130436107D01*
X80269247Y-130416401D01*
X80285723Y-130398223D01*
X80303901Y-130381747D01*
X80323607Y-130367132D01*
X80344650Y-130354520D01*
X80366829Y-130344030D01*
X80389928Y-130335765D01*
X80413727Y-130329804D01*
X80437995Y-130326204D01*
X80462499Y-130325000D01*
X81487501Y-130325000D01*
X81512005Y-130326204D01*
G37*
G36*
X75537005Y-130326204D02*
G01*
X75561273Y-130329804D01*
X75585072Y-130335765D01*
X75608171Y-130344030D01*
X75630350Y-130354520D01*
X75651393Y-130367132D01*
X75671099Y-130381747D01*
X75689277Y-130398223D01*
X75705753Y-130416401D01*
X75720368Y-130436107D01*
X75732980Y-130457150D01*
X75743470Y-130479329D01*
X75751735Y-130502428D01*
X75757696Y-130526227D01*
X75761296Y-130550495D01*
X75762500Y-130574999D01*
X75762500Y-133425001D01*
X75761296Y-133449505D01*
X75757696Y-133473773D01*
X75751735Y-133497572D01*
X75743470Y-133520671D01*
X75732980Y-133542850D01*
X75720368Y-133563893D01*
X75705753Y-133583599D01*
X75689277Y-133601777D01*
X75671099Y-133618253D01*
X75651393Y-133632868D01*
X75630350Y-133645480D01*
X75608171Y-133655970D01*
X75585072Y-133664235D01*
X75561273Y-133670196D01*
X75537005Y-133673796D01*
X75512501Y-133675000D01*
X74487499Y-133675000D01*
X74462995Y-133673796D01*
X74438727Y-133670196D01*
X74414928Y-133664235D01*
X74391829Y-133655970D01*
X74369650Y-133645480D01*
X74348607Y-133632868D01*
X74328901Y-133618253D01*
X74310723Y-133601777D01*
X74294247Y-133583599D01*
X74279632Y-133563893D01*
X74267020Y-133542850D01*
X74256530Y-133520671D01*
X74248265Y-133497572D01*
X74242304Y-133473773D01*
X74238704Y-133449505D01*
X74237500Y-133425001D01*
X74237500Y-130574999D01*
X74238704Y-130550495D01*
X74242304Y-130526227D01*
X74248265Y-130502428D01*
X74256530Y-130479329D01*
X74267020Y-130457150D01*
X74279632Y-130436107D01*
X74294247Y-130416401D01*
X74310723Y-130398223D01*
X74328901Y-130381747D01*
X74348607Y-130367132D01*
X74369650Y-130354520D01*
X74391829Y-130344030D01*
X74414928Y-130335765D01*
X74438727Y-130329804D01*
X74462995Y-130326204D01*
X74487499Y-130325000D01*
X75512501Y-130325000D01*
X75537005Y-130326204D01*
G37*
G36*
X73974504Y-91126204D02*
G01*
X73998773Y-91129804D01*
X74022571Y-91135765D01*
X74045671Y-91144030D01*
X74067849Y-91154520D01*
X74088893Y-91167133D01*
X74108598Y-91181747D01*
X74126777Y-91198223D01*
X74143253Y-91216402D01*
X74157867Y-91236107D01*
X74170480Y-91257151D01*
X74180970Y-91279329D01*
X74189235Y-91302429D01*
X74195196Y-91326227D01*
X74198796Y-91350496D01*
X74200000Y-91375000D01*
X74200000Y-92625000D01*
X74198796Y-92649504D01*
X74195196Y-92673773D01*
X74189235Y-92697571D01*
X74180970Y-92720671D01*
X74170480Y-92742849D01*
X74157867Y-92763893D01*
X74143253Y-92783598D01*
X74126777Y-92801777D01*
X74108598Y-92818253D01*
X74088893Y-92832867D01*
X74067849Y-92845480D01*
X74045671Y-92855970D01*
X74022571Y-92864235D01*
X73998773Y-92870196D01*
X73974504Y-92873796D01*
X73950000Y-92875000D01*
X73025000Y-92875000D01*
X73000496Y-92873796D01*
X72976227Y-92870196D01*
X72952429Y-92864235D01*
X72929329Y-92855970D01*
X72907151Y-92845480D01*
X72886107Y-92832867D01*
X72866402Y-92818253D01*
X72848223Y-92801777D01*
X72831747Y-92783598D01*
X72817133Y-92763893D01*
X72804520Y-92742849D01*
X72794030Y-92720671D01*
X72785765Y-92697571D01*
X72779804Y-92673773D01*
X72776204Y-92649504D01*
X72775000Y-92625000D01*
X72775000Y-91375000D01*
X72776204Y-91350496D01*
X72779804Y-91326227D01*
X72785765Y-91302429D01*
X72794030Y-91279329D01*
X72804520Y-91257151D01*
X72817133Y-91236107D01*
X72831747Y-91216402D01*
X72848223Y-91198223D01*
X72866402Y-91181747D01*
X72886107Y-91167133D01*
X72907151Y-91154520D01*
X72929329Y-91144030D01*
X72952429Y-91135765D01*
X72976227Y-91129804D01*
X73000496Y-91126204D01*
X73025000Y-91125000D01*
X73950000Y-91125000D01*
X73974504Y-91126204D01*
G37*
G36*
X70999504Y-91126204D02*
G01*
X71023773Y-91129804D01*
X71047571Y-91135765D01*
X71070671Y-91144030D01*
X71092849Y-91154520D01*
X71113893Y-91167133D01*
X71133598Y-91181747D01*
X71151777Y-91198223D01*
X71168253Y-91216402D01*
X71182867Y-91236107D01*
X71195480Y-91257151D01*
X71205970Y-91279329D01*
X71214235Y-91302429D01*
X71220196Y-91326227D01*
X71223796Y-91350496D01*
X71225000Y-91375000D01*
X71225000Y-92625000D01*
X71223796Y-92649504D01*
X71220196Y-92673773D01*
X71214235Y-92697571D01*
X71205970Y-92720671D01*
X71195480Y-92742849D01*
X71182867Y-92763893D01*
X71168253Y-92783598D01*
X71151777Y-92801777D01*
X71133598Y-92818253D01*
X71113893Y-92832867D01*
X71092849Y-92845480D01*
X71070671Y-92855970D01*
X71047571Y-92864235D01*
X71023773Y-92870196D01*
X70999504Y-92873796D01*
X70975000Y-92875000D01*
X70050000Y-92875000D01*
X70025496Y-92873796D01*
X70001227Y-92870196D01*
X69977429Y-92864235D01*
X69954329Y-92855970D01*
X69932151Y-92845480D01*
X69911107Y-92832867D01*
X69891402Y-92818253D01*
X69873223Y-92801777D01*
X69856747Y-92783598D01*
X69842133Y-92763893D01*
X69829520Y-92742849D01*
X69819030Y-92720671D01*
X69810765Y-92697571D01*
X69804804Y-92673773D01*
X69801204Y-92649504D01*
X69800000Y-92625000D01*
X69800000Y-91375000D01*
X69801204Y-91350496D01*
X69804804Y-91326227D01*
X69810765Y-91302429D01*
X69819030Y-91279329D01*
X69829520Y-91257151D01*
X69842133Y-91236107D01*
X69856747Y-91216402D01*
X69873223Y-91198223D01*
X69891402Y-91181747D01*
X69911107Y-91167133D01*
X69932151Y-91154520D01*
X69954329Y-91144030D01*
X69977429Y-91135765D01*
X70001227Y-91129804D01*
X70025496Y-91126204D01*
X70050000Y-91125000D01*
X70975000Y-91125000D01*
X70999504Y-91126204D01*
G37*
G36*
X80487004Y-91126204D02*
G01*
X80511273Y-91129804D01*
X80535071Y-91135765D01*
X80558171Y-91144030D01*
X80580349Y-91154520D01*
X80601393Y-91167133D01*
X80621098Y-91181747D01*
X80639277Y-91198223D01*
X80655753Y-91216402D01*
X80670367Y-91236107D01*
X80682980Y-91257151D01*
X80693470Y-91279329D01*
X80701735Y-91302429D01*
X80707696Y-91326227D01*
X80711296Y-91350496D01*
X80712500Y-91375000D01*
X80712500Y-92625000D01*
X80711296Y-92649504D01*
X80707696Y-92673773D01*
X80701735Y-92697571D01*
X80693470Y-92720671D01*
X80682980Y-92742849D01*
X80670367Y-92763893D01*
X80655753Y-92783598D01*
X80639277Y-92801777D01*
X80621098Y-92818253D01*
X80601393Y-92832867D01*
X80580349Y-92845480D01*
X80558171Y-92855970D01*
X80535071Y-92864235D01*
X80511273Y-92870196D01*
X80487004Y-92873796D01*
X80462500Y-92875000D01*
X79537500Y-92875000D01*
X79512996Y-92873796D01*
X79488727Y-92870196D01*
X79464929Y-92864235D01*
X79441829Y-92855970D01*
X79419651Y-92845480D01*
X79398607Y-92832867D01*
X79378902Y-92818253D01*
X79360723Y-92801777D01*
X79344247Y-92783598D01*
X79329633Y-92763893D01*
X79317020Y-92742849D01*
X79306530Y-92720671D01*
X79298265Y-92697571D01*
X79292304Y-92673773D01*
X79288704Y-92649504D01*
X79287500Y-92625000D01*
X79287500Y-91375000D01*
X79288704Y-91350496D01*
X79292304Y-91326227D01*
X79298265Y-91302429D01*
X79306530Y-91279329D01*
X79317020Y-91257151D01*
X79329633Y-91236107D01*
X79344247Y-91216402D01*
X79360723Y-91198223D01*
X79378902Y-91181747D01*
X79398607Y-91167133D01*
X79419651Y-91154520D01*
X79441829Y-91144030D01*
X79464929Y-91135765D01*
X79488727Y-91129804D01*
X79512996Y-91126204D01*
X79537500Y-91125000D01*
X80462500Y-91125000D01*
X80487004Y-91126204D01*
G37*
G36*
X77512004Y-91126204D02*
G01*
X77536273Y-91129804D01*
X77560071Y-91135765D01*
X77583171Y-91144030D01*
X77605349Y-91154520D01*
X77626393Y-91167133D01*
X77646098Y-91181747D01*
X77664277Y-91198223D01*
X77680753Y-91216402D01*
X77695367Y-91236107D01*
X77707980Y-91257151D01*
X77718470Y-91279329D01*
X77726735Y-91302429D01*
X77732696Y-91326227D01*
X77736296Y-91350496D01*
X77737500Y-91375000D01*
X77737500Y-92625000D01*
X77736296Y-92649504D01*
X77732696Y-92673773D01*
X77726735Y-92697571D01*
X77718470Y-92720671D01*
X77707980Y-92742849D01*
X77695367Y-92763893D01*
X77680753Y-92783598D01*
X77664277Y-92801777D01*
X77646098Y-92818253D01*
X77626393Y-92832867D01*
X77605349Y-92845480D01*
X77583171Y-92855970D01*
X77560071Y-92864235D01*
X77536273Y-92870196D01*
X77512004Y-92873796D01*
X77487500Y-92875000D01*
X76562500Y-92875000D01*
X76537996Y-92873796D01*
X76513727Y-92870196D01*
X76489929Y-92864235D01*
X76466829Y-92855970D01*
X76444651Y-92845480D01*
X76423607Y-92832867D01*
X76403902Y-92818253D01*
X76385723Y-92801777D01*
X76369247Y-92783598D01*
X76354633Y-92763893D01*
X76342020Y-92742849D01*
X76331530Y-92720671D01*
X76323265Y-92697571D01*
X76317304Y-92673773D01*
X76313704Y-92649504D01*
X76312500Y-92625000D01*
X76312500Y-91375000D01*
X76313704Y-91350496D01*
X76317304Y-91326227D01*
X76323265Y-91302429D01*
X76331530Y-91279329D01*
X76342020Y-91257151D01*
X76354633Y-91236107D01*
X76369247Y-91216402D01*
X76385723Y-91198223D01*
X76403902Y-91181747D01*
X76423607Y-91167133D01*
X76444651Y-91154520D01*
X76466829Y-91144030D01*
X76489929Y-91135765D01*
X76513727Y-91129804D01*
X76537996Y-91126204D01*
X76562500Y-91125000D01*
X77487500Y-91125000D01*
X77512004Y-91126204D01*
G37*
G36*
X124487004Y-130126204D02*
G01*
X124511273Y-130129804D01*
X124535071Y-130135765D01*
X124558171Y-130144030D01*
X124580349Y-130154520D01*
X124601393Y-130167133D01*
X124621098Y-130181747D01*
X124639277Y-130198223D01*
X124655753Y-130216402D01*
X124670367Y-130236107D01*
X124682980Y-130257151D01*
X124693470Y-130279329D01*
X124701735Y-130302429D01*
X124707696Y-130326227D01*
X124711296Y-130350496D01*
X124712500Y-130375000D01*
X124712500Y-131625000D01*
X124711296Y-131649504D01*
X124707696Y-131673773D01*
X124701735Y-131697571D01*
X124693470Y-131720671D01*
X124682980Y-131742849D01*
X124670367Y-131763893D01*
X124655753Y-131783598D01*
X124639277Y-131801777D01*
X124621098Y-131818253D01*
X124601393Y-131832867D01*
X124580349Y-131845480D01*
X124558171Y-131855970D01*
X124535071Y-131864235D01*
X124511273Y-131870196D01*
X124487004Y-131873796D01*
X124462500Y-131875000D01*
X123537500Y-131875000D01*
X123512996Y-131873796D01*
X123488727Y-131870196D01*
X123464929Y-131864235D01*
X123441829Y-131855970D01*
X123419651Y-131845480D01*
X123398607Y-131832867D01*
X123378902Y-131818253D01*
X123360723Y-131801777D01*
X123344247Y-131783598D01*
X123329633Y-131763893D01*
X123317020Y-131742849D01*
X123306530Y-131720671D01*
X123298265Y-131697571D01*
X123292304Y-131673773D01*
X123288704Y-131649504D01*
X123287500Y-131625000D01*
X123287500Y-130375000D01*
X123288704Y-130350496D01*
X123292304Y-130326227D01*
X123298265Y-130302429D01*
X123306530Y-130279329D01*
X123317020Y-130257151D01*
X123329633Y-130236107D01*
X123344247Y-130216402D01*
X123360723Y-130198223D01*
X123378902Y-130181747D01*
X123398607Y-130167133D01*
X123419651Y-130154520D01*
X123441829Y-130144030D01*
X123464929Y-130135765D01*
X123488727Y-130129804D01*
X123512996Y-130126204D01*
X123537500Y-130125000D01*
X124462500Y-130125000D01*
X124487004Y-130126204D01*
G37*
G36*
X127462004Y-130126204D02*
G01*
X127486273Y-130129804D01*
X127510071Y-130135765D01*
X127533171Y-130144030D01*
X127555349Y-130154520D01*
X127576393Y-130167133D01*
X127596098Y-130181747D01*
X127614277Y-130198223D01*
X127630753Y-130216402D01*
X127645367Y-130236107D01*
X127657980Y-130257151D01*
X127668470Y-130279329D01*
X127676735Y-130302429D01*
X127682696Y-130326227D01*
X127686296Y-130350496D01*
X127687500Y-130375000D01*
X127687500Y-131625000D01*
X127686296Y-131649504D01*
X127682696Y-131673773D01*
X127676735Y-131697571D01*
X127668470Y-131720671D01*
X127657980Y-131742849D01*
X127645367Y-131763893D01*
X127630753Y-131783598D01*
X127614277Y-131801777D01*
X127596098Y-131818253D01*
X127576393Y-131832867D01*
X127555349Y-131845480D01*
X127533171Y-131855970D01*
X127510071Y-131864235D01*
X127486273Y-131870196D01*
X127462004Y-131873796D01*
X127437500Y-131875000D01*
X126512500Y-131875000D01*
X126487996Y-131873796D01*
X126463727Y-131870196D01*
X126439929Y-131864235D01*
X126416829Y-131855970D01*
X126394651Y-131845480D01*
X126373607Y-131832867D01*
X126353902Y-131818253D01*
X126335723Y-131801777D01*
X126319247Y-131783598D01*
X126304633Y-131763893D01*
X126292020Y-131742849D01*
X126281530Y-131720671D01*
X126273265Y-131697571D01*
X126267304Y-131673773D01*
X126263704Y-131649504D01*
X126262500Y-131625000D01*
X126262500Y-130375000D01*
X126263704Y-130350496D01*
X126267304Y-130326227D01*
X126273265Y-130302429D01*
X126281530Y-130279329D01*
X126292020Y-130257151D01*
X126304633Y-130236107D01*
X126319247Y-130216402D01*
X126335723Y-130198223D01*
X126353902Y-130181747D01*
X126373607Y-130167133D01*
X126394651Y-130154520D01*
X126416829Y-130144030D01*
X126439929Y-130135765D01*
X126463727Y-130129804D01*
X126487996Y-130126204D01*
X126512500Y-130125000D01*
X127437500Y-130125000D01*
X127462004Y-130126204D01*
G37*
G36*
X119487004Y-66126204D02*
G01*
X119511273Y-66129804D01*
X119535071Y-66135765D01*
X119558171Y-66144030D01*
X119580349Y-66154520D01*
X119601393Y-66167133D01*
X119621098Y-66181747D01*
X119639277Y-66198223D01*
X119655753Y-66216402D01*
X119670367Y-66236107D01*
X119682980Y-66257151D01*
X119693470Y-66279329D01*
X119701735Y-66302429D01*
X119707696Y-66326227D01*
X119711296Y-66350496D01*
X119712500Y-66375000D01*
X119712500Y-67625000D01*
X119711296Y-67649504D01*
X119707696Y-67673773D01*
X119701735Y-67697571D01*
X119693470Y-67720671D01*
X119682980Y-67742849D01*
X119670367Y-67763893D01*
X119655753Y-67783598D01*
X119639277Y-67801777D01*
X119621098Y-67818253D01*
X119601393Y-67832867D01*
X119580349Y-67845480D01*
X119558171Y-67855970D01*
X119535071Y-67864235D01*
X119511273Y-67870196D01*
X119487004Y-67873796D01*
X119462500Y-67875000D01*
X118537500Y-67875000D01*
X118512996Y-67873796D01*
X118488727Y-67870196D01*
X118464929Y-67864235D01*
X118441829Y-67855970D01*
X118419651Y-67845480D01*
X118398607Y-67832867D01*
X118378902Y-67818253D01*
X118360723Y-67801777D01*
X118344247Y-67783598D01*
X118329633Y-67763893D01*
X118317020Y-67742849D01*
X118306530Y-67720671D01*
X118298265Y-67697571D01*
X118292304Y-67673773D01*
X118288704Y-67649504D01*
X118287500Y-67625000D01*
X118287500Y-66375000D01*
X118288704Y-66350496D01*
X118292304Y-66326227D01*
X118298265Y-66302429D01*
X118306530Y-66279329D01*
X118317020Y-66257151D01*
X118329633Y-66236107D01*
X118344247Y-66216402D01*
X118360723Y-66198223D01*
X118378902Y-66181747D01*
X118398607Y-66167133D01*
X118419651Y-66154520D01*
X118441829Y-66144030D01*
X118464929Y-66135765D01*
X118488727Y-66129804D01*
X118512996Y-66126204D01*
X118537500Y-66125000D01*
X119462500Y-66125000D01*
X119487004Y-66126204D01*
G37*
G36*
X122462004Y-66126204D02*
G01*
X122486273Y-66129804D01*
X122510071Y-66135765D01*
X122533171Y-66144030D01*
X122555349Y-66154520D01*
X122576393Y-66167133D01*
X122596098Y-66181747D01*
X122614277Y-66198223D01*
X122630753Y-66216402D01*
X122645367Y-66236107D01*
X122657980Y-66257151D01*
X122668470Y-66279329D01*
X122676735Y-66302429D01*
X122682696Y-66326227D01*
X122686296Y-66350496D01*
X122687500Y-66375000D01*
X122687500Y-67625000D01*
X122686296Y-67649504D01*
X122682696Y-67673773D01*
X122676735Y-67697571D01*
X122668470Y-67720671D01*
X122657980Y-67742849D01*
X122645367Y-67763893D01*
X122630753Y-67783598D01*
X122614277Y-67801777D01*
X122596098Y-67818253D01*
X122576393Y-67832867D01*
X122555349Y-67845480D01*
X122533171Y-67855970D01*
X122510071Y-67864235D01*
X122486273Y-67870196D01*
X122462004Y-67873796D01*
X122437500Y-67875000D01*
X121512500Y-67875000D01*
X121487996Y-67873796D01*
X121463727Y-67870196D01*
X121439929Y-67864235D01*
X121416829Y-67855970D01*
X121394651Y-67845480D01*
X121373607Y-67832867D01*
X121353902Y-67818253D01*
X121335723Y-67801777D01*
X121319247Y-67783598D01*
X121304633Y-67763893D01*
X121292020Y-67742849D01*
X121281530Y-67720671D01*
X121273265Y-67697571D01*
X121267304Y-67673773D01*
X121263704Y-67649504D01*
X121262500Y-67625000D01*
X121262500Y-66375000D01*
X121263704Y-66350496D01*
X121267304Y-66326227D01*
X121273265Y-66302429D01*
X121281530Y-66279329D01*
X121292020Y-66257151D01*
X121304633Y-66236107D01*
X121319247Y-66216402D01*
X121335723Y-66198223D01*
X121353902Y-66181747D01*
X121373607Y-66167133D01*
X121394651Y-66154520D01*
X121416829Y-66144030D01*
X121439929Y-66135765D01*
X121463727Y-66129804D01*
X121487996Y-66126204D01*
X121512500Y-66125000D01*
X122437500Y-66125000D01*
X122462004Y-66126204D01*
G37*
G36*
X130487004Y-126126204D02*
G01*
X130511273Y-126129804D01*
X130535071Y-126135765D01*
X130558171Y-126144030D01*
X130580349Y-126154520D01*
X130601393Y-126167133D01*
X130621098Y-126181747D01*
X130639277Y-126198223D01*
X130655753Y-126216402D01*
X130670367Y-126236107D01*
X130682980Y-126257151D01*
X130693470Y-126279329D01*
X130701735Y-126302429D01*
X130707696Y-126326227D01*
X130711296Y-126350496D01*
X130712500Y-126375000D01*
X130712500Y-127625000D01*
X130711296Y-127649504D01*
X130707696Y-127673773D01*
X130701735Y-127697571D01*
X130693470Y-127720671D01*
X130682980Y-127742849D01*
X130670367Y-127763893D01*
X130655753Y-127783598D01*
X130639277Y-127801777D01*
X130621098Y-127818253D01*
X130601393Y-127832867D01*
X130580349Y-127845480D01*
X130558171Y-127855970D01*
X130535071Y-127864235D01*
X130511273Y-127870196D01*
X130487004Y-127873796D01*
X130462500Y-127875000D01*
X129537500Y-127875000D01*
X129512996Y-127873796D01*
X129488727Y-127870196D01*
X129464929Y-127864235D01*
X129441829Y-127855970D01*
X129419651Y-127845480D01*
X129398607Y-127832867D01*
X129378902Y-127818253D01*
X129360723Y-127801777D01*
X129344247Y-127783598D01*
X129329633Y-127763893D01*
X129317020Y-127742849D01*
X129306530Y-127720671D01*
X129298265Y-127697571D01*
X129292304Y-127673773D01*
X129288704Y-127649504D01*
X129287500Y-127625000D01*
X129287500Y-126375000D01*
X129288704Y-126350496D01*
X129292304Y-126326227D01*
X129298265Y-126302429D01*
X129306530Y-126279329D01*
X129317020Y-126257151D01*
X129329633Y-126236107D01*
X129344247Y-126216402D01*
X129360723Y-126198223D01*
X129378902Y-126181747D01*
X129398607Y-126167133D01*
X129419651Y-126154520D01*
X129441829Y-126144030D01*
X129464929Y-126135765D01*
X129488727Y-126129804D01*
X129512996Y-126126204D01*
X129537500Y-126125000D01*
X130462500Y-126125000D01*
X130487004Y-126126204D01*
G37*
G36*
X133462004Y-126126204D02*
G01*
X133486273Y-126129804D01*
X133510071Y-126135765D01*
X133533171Y-126144030D01*
X133555349Y-126154520D01*
X133576393Y-126167133D01*
X133596098Y-126181747D01*
X133614277Y-126198223D01*
X133630753Y-126216402D01*
X133645367Y-126236107D01*
X133657980Y-126257151D01*
X133668470Y-126279329D01*
X133676735Y-126302429D01*
X133682696Y-126326227D01*
X133686296Y-126350496D01*
X133687500Y-126375000D01*
X133687500Y-127625000D01*
X133686296Y-127649504D01*
X133682696Y-127673773D01*
X133676735Y-127697571D01*
X133668470Y-127720671D01*
X133657980Y-127742849D01*
X133645367Y-127763893D01*
X133630753Y-127783598D01*
X133614277Y-127801777D01*
X133596098Y-127818253D01*
X133576393Y-127832867D01*
X133555349Y-127845480D01*
X133533171Y-127855970D01*
X133510071Y-127864235D01*
X133486273Y-127870196D01*
X133462004Y-127873796D01*
X133437500Y-127875000D01*
X132512500Y-127875000D01*
X132487996Y-127873796D01*
X132463727Y-127870196D01*
X132439929Y-127864235D01*
X132416829Y-127855970D01*
X132394651Y-127845480D01*
X132373607Y-127832867D01*
X132353902Y-127818253D01*
X132335723Y-127801777D01*
X132319247Y-127783598D01*
X132304633Y-127763893D01*
X132292020Y-127742849D01*
X132281530Y-127720671D01*
X132273265Y-127697571D01*
X132267304Y-127673773D01*
X132263704Y-127649504D01*
X132262500Y-127625000D01*
X132262500Y-126375000D01*
X132263704Y-126350496D01*
X132267304Y-126326227D01*
X132273265Y-126302429D01*
X132281530Y-126279329D01*
X132292020Y-126257151D01*
X132304633Y-126236107D01*
X132319247Y-126216402D01*
X132335723Y-126198223D01*
X132353902Y-126181747D01*
X132373607Y-126167133D01*
X132394651Y-126154520D01*
X132416829Y-126144030D01*
X132439929Y-126135765D01*
X132463727Y-126129804D01*
X132487996Y-126126204D01*
X132512500Y-126125000D01*
X133437500Y-126125000D01*
X133462004Y-126126204D01*
G37*
G36*
X124487004Y-126126204D02*
G01*
X124511273Y-126129804D01*
X124535071Y-126135765D01*
X124558171Y-126144030D01*
X124580349Y-126154520D01*
X124601393Y-126167133D01*
X124621098Y-126181747D01*
X124639277Y-126198223D01*
X124655753Y-126216402D01*
X124670367Y-126236107D01*
X124682980Y-126257151D01*
X124693470Y-126279329D01*
X124701735Y-126302429D01*
X124707696Y-126326227D01*
X124711296Y-126350496D01*
X124712500Y-126375000D01*
X124712500Y-127625000D01*
X124711296Y-127649504D01*
X124707696Y-127673773D01*
X124701735Y-127697571D01*
X124693470Y-127720671D01*
X124682980Y-127742849D01*
X124670367Y-127763893D01*
X124655753Y-127783598D01*
X124639277Y-127801777D01*
X124621098Y-127818253D01*
X124601393Y-127832867D01*
X124580349Y-127845480D01*
X124558171Y-127855970D01*
X124535071Y-127864235D01*
X124511273Y-127870196D01*
X124487004Y-127873796D01*
X124462500Y-127875000D01*
X123537500Y-127875000D01*
X123512996Y-127873796D01*
X123488727Y-127870196D01*
X123464929Y-127864235D01*
X123441829Y-127855970D01*
X123419651Y-127845480D01*
X123398607Y-127832867D01*
X123378902Y-127818253D01*
X123360723Y-127801777D01*
X123344247Y-127783598D01*
X123329633Y-127763893D01*
X123317020Y-127742849D01*
X123306530Y-127720671D01*
X123298265Y-127697571D01*
X123292304Y-127673773D01*
X123288704Y-127649504D01*
X123287500Y-127625000D01*
X123287500Y-126375000D01*
X123288704Y-126350496D01*
X123292304Y-126326227D01*
X123298265Y-126302429D01*
X123306530Y-126279329D01*
X123317020Y-126257151D01*
X123329633Y-126236107D01*
X123344247Y-126216402D01*
X123360723Y-126198223D01*
X123378902Y-126181747D01*
X123398607Y-126167133D01*
X123419651Y-126154520D01*
X123441829Y-126144030D01*
X123464929Y-126135765D01*
X123488727Y-126129804D01*
X123512996Y-126126204D01*
X123537500Y-126125000D01*
X124462500Y-126125000D01*
X124487004Y-126126204D01*
G37*
G36*
X127462004Y-126126204D02*
G01*
X127486273Y-126129804D01*
X127510071Y-126135765D01*
X127533171Y-126144030D01*
X127555349Y-126154520D01*
X127576393Y-126167133D01*
X127596098Y-126181747D01*
X127614277Y-126198223D01*
X127630753Y-126216402D01*
X127645367Y-126236107D01*
X127657980Y-126257151D01*
X127668470Y-126279329D01*
X127676735Y-126302429D01*
X127682696Y-126326227D01*
X127686296Y-126350496D01*
X127687500Y-126375000D01*
X127687500Y-127625000D01*
X127686296Y-127649504D01*
X127682696Y-127673773D01*
X127676735Y-127697571D01*
X127668470Y-127720671D01*
X127657980Y-127742849D01*
X127645367Y-127763893D01*
X127630753Y-127783598D01*
X127614277Y-127801777D01*
X127596098Y-127818253D01*
X127576393Y-127832867D01*
X127555349Y-127845480D01*
X127533171Y-127855970D01*
X127510071Y-127864235D01*
X127486273Y-127870196D01*
X127462004Y-127873796D01*
X127437500Y-127875000D01*
X126512500Y-127875000D01*
X126487996Y-127873796D01*
X126463727Y-127870196D01*
X126439929Y-127864235D01*
X126416829Y-127855970D01*
X126394651Y-127845480D01*
X126373607Y-127832867D01*
X126353902Y-127818253D01*
X126335723Y-127801777D01*
X126319247Y-127783598D01*
X126304633Y-127763893D01*
X126292020Y-127742849D01*
X126281530Y-127720671D01*
X126273265Y-127697571D01*
X126267304Y-127673773D01*
X126263704Y-127649504D01*
X126262500Y-127625000D01*
X126262500Y-126375000D01*
X126263704Y-126350496D01*
X126267304Y-126326227D01*
X126273265Y-126302429D01*
X126281530Y-126279329D01*
X126292020Y-126257151D01*
X126304633Y-126236107D01*
X126319247Y-126216402D01*
X126335723Y-126198223D01*
X126353902Y-126181747D01*
X126373607Y-126167133D01*
X126394651Y-126154520D01*
X126416829Y-126144030D01*
X126439929Y-126135765D01*
X126463727Y-126129804D01*
X126487996Y-126126204D01*
X126512500Y-126125000D01*
X127437500Y-126125000D01*
X127462004Y-126126204D01*
G37*
G36*
X124487004Y-134126204D02*
G01*
X124511273Y-134129804D01*
X124535071Y-134135765D01*
X124558171Y-134144030D01*
X124580349Y-134154520D01*
X124601393Y-134167133D01*
X124621098Y-134181747D01*
X124639277Y-134198223D01*
X124655753Y-134216402D01*
X124670367Y-134236107D01*
X124682980Y-134257151D01*
X124693470Y-134279329D01*
X124701735Y-134302429D01*
X124707696Y-134326227D01*
X124711296Y-134350496D01*
X124712500Y-134375000D01*
X124712500Y-135625000D01*
X124711296Y-135649504D01*
X124707696Y-135673773D01*
X124701735Y-135697571D01*
X124693470Y-135720671D01*
X124682980Y-135742849D01*
X124670367Y-135763893D01*
X124655753Y-135783598D01*
X124639277Y-135801777D01*
X124621098Y-135818253D01*
X124601393Y-135832867D01*
X124580349Y-135845480D01*
X124558171Y-135855970D01*
X124535071Y-135864235D01*
X124511273Y-135870196D01*
X124487004Y-135873796D01*
X124462500Y-135875000D01*
X123537500Y-135875000D01*
X123512996Y-135873796D01*
X123488727Y-135870196D01*
X123464929Y-135864235D01*
X123441829Y-135855970D01*
X123419651Y-135845480D01*
X123398607Y-135832867D01*
X123378902Y-135818253D01*
X123360723Y-135801777D01*
X123344247Y-135783598D01*
X123329633Y-135763893D01*
X123317020Y-135742849D01*
X123306530Y-135720671D01*
X123298265Y-135697571D01*
X123292304Y-135673773D01*
X123288704Y-135649504D01*
X123287500Y-135625000D01*
X123287500Y-134375000D01*
X123288704Y-134350496D01*
X123292304Y-134326227D01*
X123298265Y-134302429D01*
X123306530Y-134279329D01*
X123317020Y-134257151D01*
X123329633Y-134236107D01*
X123344247Y-134216402D01*
X123360723Y-134198223D01*
X123378902Y-134181747D01*
X123398607Y-134167133D01*
X123419651Y-134154520D01*
X123441829Y-134144030D01*
X123464929Y-134135765D01*
X123488727Y-134129804D01*
X123512996Y-134126204D01*
X123537500Y-134125000D01*
X124462500Y-134125000D01*
X124487004Y-134126204D01*
G37*
G36*
X127462004Y-134126204D02*
G01*
X127486273Y-134129804D01*
X127510071Y-134135765D01*
X127533171Y-134144030D01*
X127555349Y-134154520D01*
X127576393Y-134167133D01*
X127596098Y-134181747D01*
X127614277Y-134198223D01*
X127630753Y-134216402D01*
X127645367Y-134236107D01*
X127657980Y-134257151D01*
X127668470Y-134279329D01*
X127676735Y-134302429D01*
X127682696Y-134326227D01*
X127686296Y-134350496D01*
X127687500Y-134375000D01*
X127687500Y-135625000D01*
X127686296Y-135649504D01*
X127682696Y-135673773D01*
X127676735Y-135697571D01*
X127668470Y-135720671D01*
X127657980Y-135742849D01*
X127645367Y-135763893D01*
X127630753Y-135783598D01*
X127614277Y-135801777D01*
X127596098Y-135818253D01*
X127576393Y-135832867D01*
X127555349Y-135845480D01*
X127533171Y-135855970D01*
X127510071Y-135864235D01*
X127486273Y-135870196D01*
X127462004Y-135873796D01*
X127437500Y-135875000D01*
X126512500Y-135875000D01*
X126487996Y-135873796D01*
X126463727Y-135870196D01*
X126439929Y-135864235D01*
X126416829Y-135855970D01*
X126394651Y-135845480D01*
X126373607Y-135832867D01*
X126353902Y-135818253D01*
X126335723Y-135801777D01*
X126319247Y-135783598D01*
X126304633Y-135763893D01*
X126292020Y-135742849D01*
X126281530Y-135720671D01*
X126273265Y-135697571D01*
X126267304Y-135673773D01*
X126263704Y-135649504D01*
X126262500Y-135625000D01*
X126262500Y-134375000D01*
X126263704Y-134350496D01*
X126267304Y-134326227D01*
X126273265Y-134302429D01*
X126281530Y-134279329D01*
X126292020Y-134257151D01*
X126304633Y-134236107D01*
X126319247Y-134216402D01*
X126335723Y-134198223D01*
X126353902Y-134181747D01*
X126373607Y-134167133D01*
X126394651Y-134154520D01*
X126416829Y-134144030D01*
X126439929Y-134135765D01*
X126463727Y-134129804D01*
X126487996Y-134126204D01*
X126512500Y-134125000D01*
X127437500Y-134125000D01*
X127462004Y-134126204D01*
G37*
G36*
X124487004Y-138126204D02*
G01*
X124511273Y-138129804D01*
X124535071Y-138135765D01*
X124558171Y-138144030D01*
X124580349Y-138154520D01*
X124601393Y-138167133D01*
X124621098Y-138181747D01*
X124639277Y-138198223D01*
X124655753Y-138216402D01*
X124670367Y-138236107D01*
X124682980Y-138257151D01*
X124693470Y-138279329D01*
X124701735Y-138302429D01*
X124707696Y-138326227D01*
X124711296Y-138350496D01*
X124712500Y-138375000D01*
X124712500Y-139625000D01*
X124711296Y-139649504D01*
X124707696Y-139673773D01*
X124701735Y-139697571D01*
X124693470Y-139720671D01*
X124682980Y-139742849D01*
X124670367Y-139763893D01*
X124655753Y-139783598D01*
X124639277Y-139801777D01*
X124621098Y-139818253D01*
X124601393Y-139832867D01*
X124580349Y-139845480D01*
X124558171Y-139855970D01*
X124535071Y-139864235D01*
X124511273Y-139870196D01*
X124487004Y-139873796D01*
X124462500Y-139875000D01*
X123537500Y-139875000D01*
X123512996Y-139873796D01*
X123488727Y-139870196D01*
X123464929Y-139864235D01*
X123441829Y-139855970D01*
X123419651Y-139845480D01*
X123398607Y-139832867D01*
X123378902Y-139818253D01*
X123360723Y-139801777D01*
X123344247Y-139783598D01*
X123329633Y-139763893D01*
X123317020Y-139742849D01*
X123306530Y-139720671D01*
X123298265Y-139697571D01*
X123292304Y-139673773D01*
X123288704Y-139649504D01*
X123287500Y-139625000D01*
X123287500Y-138375000D01*
X123288704Y-138350496D01*
X123292304Y-138326227D01*
X123298265Y-138302429D01*
X123306530Y-138279329D01*
X123317020Y-138257151D01*
X123329633Y-138236107D01*
X123344247Y-138216402D01*
X123360723Y-138198223D01*
X123378902Y-138181747D01*
X123398607Y-138167133D01*
X123419651Y-138154520D01*
X123441829Y-138144030D01*
X123464929Y-138135765D01*
X123488727Y-138129804D01*
X123512996Y-138126204D01*
X123537500Y-138125000D01*
X124462500Y-138125000D01*
X124487004Y-138126204D01*
G37*
G36*
X127462004Y-138126204D02*
G01*
X127486273Y-138129804D01*
X127510071Y-138135765D01*
X127533171Y-138144030D01*
X127555349Y-138154520D01*
X127576393Y-138167133D01*
X127596098Y-138181747D01*
X127614277Y-138198223D01*
X127630753Y-138216402D01*
X127645367Y-138236107D01*
X127657980Y-138257151D01*
X127668470Y-138279329D01*
X127676735Y-138302429D01*
X127682696Y-138326227D01*
X127686296Y-138350496D01*
X127687500Y-138375000D01*
X127687500Y-139625000D01*
X127686296Y-139649504D01*
X127682696Y-139673773D01*
X127676735Y-139697571D01*
X127668470Y-139720671D01*
X127657980Y-139742849D01*
X127645367Y-139763893D01*
X127630753Y-139783598D01*
X127614277Y-139801777D01*
X127596098Y-139818253D01*
X127576393Y-139832867D01*
X127555349Y-139845480D01*
X127533171Y-139855970D01*
X127510071Y-139864235D01*
X127486273Y-139870196D01*
X127462004Y-139873796D01*
X127437500Y-139875000D01*
X126512500Y-139875000D01*
X126487996Y-139873796D01*
X126463727Y-139870196D01*
X126439929Y-139864235D01*
X126416829Y-139855970D01*
X126394651Y-139845480D01*
X126373607Y-139832867D01*
X126353902Y-139818253D01*
X126335723Y-139801777D01*
X126319247Y-139783598D01*
X126304633Y-139763893D01*
X126292020Y-139742849D01*
X126281530Y-139720671D01*
X126273265Y-139697571D01*
X126267304Y-139673773D01*
X126263704Y-139649504D01*
X126262500Y-139625000D01*
X126262500Y-138375000D01*
X126263704Y-138350496D01*
X126267304Y-138326227D01*
X126273265Y-138302429D01*
X126281530Y-138279329D01*
X126292020Y-138257151D01*
X126304633Y-138236107D01*
X126319247Y-138216402D01*
X126335723Y-138198223D01*
X126353902Y-138181747D01*
X126373607Y-138167133D01*
X126394651Y-138154520D01*
X126416829Y-138144030D01*
X126439929Y-138135765D01*
X126463727Y-138129804D01*
X126487996Y-138126204D01*
X126512500Y-138125000D01*
X127437500Y-138125000D01*
X127462004Y-138126204D01*
G37*
G36*
X130487004Y-138126204D02*
G01*
X130511273Y-138129804D01*
X130535071Y-138135765D01*
X130558171Y-138144030D01*
X130580349Y-138154520D01*
X130601393Y-138167133D01*
X130621098Y-138181747D01*
X130639277Y-138198223D01*
X130655753Y-138216402D01*
X130670367Y-138236107D01*
X130682980Y-138257151D01*
X130693470Y-138279329D01*
X130701735Y-138302429D01*
X130707696Y-138326227D01*
X130711296Y-138350496D01*
X130712500Y-138375000D01*
X130712500Y-139625000D01*
X130711296Y-139649504D01*
X130707696Y-139673773D01*
X130701735Y-139697571D01*
X130693470Y-139720671D01*
X130682980Y-139742849D01*
X130670367Y-139763893D01*
X130655753Y-139783598D01*
X130639277Y-139801777D01*
X130621098Y-139818253D01*
X130601393Y-139832867D01*
X130580349Y-139845480D01*
X130558171Y-139855970D01*
X130535071Y-139864235D01*
X130511273Y-139870196D01*
X130487004Y-139873796D01*
X130462500Y-139875000D01*
X129537500Y-139875000D01*
X129512996Y-139873796D01*
X129488727Y-139870196D01*
X129464929Y-139864235D01*
X129441829Y-139855970D01*
X129419651Y-139845480D01*
X129398607Y-139832867D01*
X129378902Y-139818253D01*
X129360723Y-139801777D01*
X129344247Y-139783598D01*
X129329633Y-139763893D01*
X129317020Y-139742849D01*
X129306530Y-139720671D01*
X129298265Y-139697571D01*
X129292304Y-139673773D01*
X129288704Y-139649504D01*
X129287500Y-139625000D01*
X129287500Y-138375000D01*
X129288704Y-138350496D01*
X129292304Y-138326227D01*
X129298265Y-138302429D01*
X129306530Y-138279329D01*
X129317020Y-138257151D01*
X129329633Y-138236107D01*
X129344247Y-138216402D01*
X129360723Y-138198223D01*
X129378902Y-138181747D01*
X129398607Y-138167133D01*
X129419651Y-138154520D01*
X129441829Y-138144030D01*
X129464929Y-138135765D01*
X129488727Y-138129804D01*
X129512996Y-138126204D01*
X129537500Y-138125000D01*
X130462500Y-138125000D01*
X130487004Y-138126204D01*
G37*
G36*
X133462004Y-138126204D02*
G01*
X133486273Y-138129804D01*
X133510071Y-138135765D01*
X133533171Y-138144030D01*
X133555349Y-138154520D01*
X133576393Y-138167133D01*
X133596098Y-138181747D01*
X133614277Y-138198223D01*
X133630753Y-138216402D01*
X133645367Y-138236107D01*
X133657980Y-138257151D01*
X133668470Y-138279329D01*
X133676735Y-138302429D01*
X133682696Y-138326227D01*
X133686296Y-138350496D01*
X133687500Y-138375000D01*
X133687500Y-139625000D01*
X133686296Y-139649504D01*
X133682696Y-139673773D01*
X133676735Y-139697571D01*
X133668470Y-139720671D01*
X133657980Y-139742849D01*
X133645367Y-139763893D01*
X133630753Y-139783598D01*
X133614277Y-139801777D01*
X133596098Y-139818253D01*
X133576393Y-139832867D01*
X133555349Y-139845480D01*
X133533171Y-139855970D01*
X133510071Y-139864235D01*
X133486273Y-139870196D01*
X133462004Y-139873796D01*
X133437500Y-139875000D01*
X132512500Y-139875000D01*
X132487996Y-139873796D01*
X132463727Y-139870196D01*
X132439929Y-139864235D01*
X132416829Y-139855970D01*
X132394651Y-139845480D01*
X132373607Y-139832867D01*
X132353902Y-139818253D01*
X132335723Y-139801777D01*
X132319247Y-139783598D01*
X132304633Y-139763893D01*
X132292020Y-139742849D01*
X132281530Y-139720671D01*
X132273265Y-139697571D01*
X132267304Y-139673773D01*
X132263704Y-139649504D01*
X132262500Y-139625000D01*
X132262500Y-138375000D01*
X132263704Y-138350496D01*
X132267304Y-138326227D01*
X132273265Y-138302429D01*
X132281530Y-138279329D01*
X132292020Y-138257151D01*
X132304633Y-138236107D01*
X132319247Y-138216402D01*
X132335723Y-138198223D01*
X132353902Y-138181747D01*
X132373607Y-138167133D01*
X132394651Y-138154520D01*
X132416829Y-138144030D01*
X132439929Y-138135765D01*
X132463727Y-138129804D01*
X132487996Y-138126204D01*
X132512500Y-138125000D01*
X133437500Y-138125000D01*
X133462004Y-138126204D01*
G37*
G36*
X116987004Y-152126204D02*
G01*
X117011273Y-152129804D01*
X117035071Y-152135765D01*
X117058171Y-152144030D01*
X117080349Y-152154520D01*
X117101393Y-152167133D01*
X117121098Y-152181747D01*
X117139277Y-152198223D01*
X117155753Y-152216402D01*
X117170367Y-152236107D01*
X117182980Y-152257151D01*
X117193470Y-152279329D01*
X117201735Y-152302429D01*
X117207696Y-152326227D01*
X117211296Y-152350496D01*
X117212500Y-152375000D01*
X117212500Y-153625000D01*
X117211296Y-153649504D01*
X117207696Y-153673773D01*
X117201735Y-153697571D01*
X117193470Y-153720671D01*
X117182980Y-153742849D01*
X117170367Y-153763893D01*
X117155753Y-153783598D01*
X117139277Y-153801777D01*
X117121098Y-153818253D01*
X117101393Y-153832867D01*
X117080349Y-153845480D01*
X117058171Y-153855970D01*
X117035071Y-153864235D01*
X117011273Y-153870196D01*
X116987004Y-153873796D01*
X116962500Y-153875000D01*
X116037500Y-153875000D01*
X116012996Y-153873796D01*
X115988727Y-153870196D01*
X115964929Y-153864235D01*
X115941829Y-153855970D01*
X115919651Y-153845480D01*
X115898607Y-153832867D01*
X115878902Y-153818253D01*
X115860723Y-153801777D01*
X115844247Y-153783598D01*
X115829633Y-153763893D01*
X115817020Y-153742849D01*
X115806530Y-153720671D01*
X115798265Y-153697571D01*
X115792304Y-153673773D01*
X115788704Y-153649504D01*
X115787500Y-153625000D01*
X115787500Y-152375000D01*
X115788704Y-152350496D01*
X115792304Y-152326227D01*
X115798265Y-152302429D01*
X115806530Y-152279329D01*
X115817020Y-152257151D01*
X115829633Y-152236107D01*
X115844247Y-152216402D01*
X115860723Y-152198223D01*
X115878902Y-152181747D01*
X115898607Y-152167133D01*
X115919651Y-152154520D01*
X115941829Y-152144030D01*
X115964929Y-152135765D01*
X115988727Y-152129804D01*
X116012996Y-152126204D01*
X116037500Y-152125000D01*
X116962500Y-152125000D01*
X116987004Y-152126204D01*
G37*
G36*
X119962004Y-152126204D02*
G01*
X119986273Y-152129804D01*
X120010071Y-152135765D01*
X120033171Y-152144030D01*
X120055349Y-152154520D01*
X120076393Y-152167133D01*
X120096098Y-152181747D01*
X120114277Y-152198223D01*
X120130753Y-152216402D01*
X120145367Y-152236107D01*
X120157980Y-152257151D01*
X120168470Y-152279329D01*
X120176735Y-152302429D01*
X120182696Y-152326227D01*
X120186296Y-152350496D01*
X120187500Y-152375000D01*
X120187500Y-153625000D01*
X120186296Y-153649504D01*
X120182696Y-153673773D01*
X120176735Y-153697571D01*
X120168470Y-153720671D01*
X120157980Y-153742849D01*
X120145367Y-153763893D01*
X120130753Y-153783598D01*
X120114277Y-153801777D01*
X120096098Y-153818253D01*
X120076393Y-153832867D01*
X120055349Y-153845480D01*
X120033171Y-153855970D01*
X120010071Y-153864235D01*
X119986273Y-153870196D01*
X119962004Y-153873796D01*
X119937500Y-153875000D01*
X119012500Y-153875000D01*
X118987996Y-153873796D01*
X118963727Y-153870196D01*
X118939929Y-153864235D01*
X118916829Y-153855970D01*
X118894651Y-153845480D01*
X118873607Y-153832867D01*
X118853902Y-153818253D01*
X118835723Y-153801777D01*
X118819247Y-153783598D01*
X118804633Y-153763893D01*
X118792020Y-153742849D01*
X118781530Y-153720671D01*
X118773265Y-153697571D01*
X118767304Y-153673773D01*
X118763704Y-153649504D01*
X118762500Y-153625000D01*
X118762500Y-152375000D01*
X118763704Y-152350496D01*
X118767304Y-152326227D01*
X118773265Y-152302429D01*
X118781530Y-152279329D01*
X118792020Y-152257151D01*
X118804633Y-152236107D01*
X118819247Y-152216402D01*
X118835723Y-152198223D01*
X118853902Y-152181747D01*
X118873607Y-152167133D01*
X118894651Y-152154520D01*
X118916829Y-152144030D01*
X118939929Y-152135765D01*
X118963727Y-152129804D01*
X118987996Y-152126204D01*
X119012500Y-152125000D01*
X119937500Y-152125000D01*
X119962004Y-152126204D01*
G37*
G36*
X122987004Y-156126204D02*
G01*
X123011273Y-156129804D01*
X123035071Y-156135765D01*
X123058171Y-156144030D01*
X123080349Y-156154520D01*
X123101393Y-156167133D01*
X123121098Y-156181747D01*
X123139277Y-156198223D01*
X123155753Y-156216402D01*
X123170367Y-156236107D01*
X123182980Y-156257151D01*
X123193470Y-156279329D01*
X123201735Y-156302429D01*
X123207696Y-156326227D01*
X123211296Y-156350496D01*
X123212500Y-156375000D01*
X123212500Y-157625000D01*
X123211296Y-157649504D01*
X123207696Y-157673773D01*
X123201735Y-157697571D01*
X123193470Y-157720671D01*
X123182980Y-157742849D01*
X123170367Y-157763893D01*
X123155753Y-157783598D01*
X123139277Y-157801777D01*
X123121098Y-157818253D01*
X123101393Y-157832867D01*
X123080349Y-157845480D01*
X123058171Y-157855970D01*
X123035071Y-157864235D01*
X123011273Y-157870196D01*
X122987004Y-157873796D01*
X122962500Y-157875000D01*
X122037500Y-157875000D01*
X122012996Y-157873796D01*
X121988727Y-157870196D01*
X121964929Y-157864235D01*
X121941829Y-157855970D01*
X121919651Y-157845480D01*
X121898607Y-157832867D01*
X121878902Y-157818253D01*
X121860723Y-157801777D01*
X121844247Y-157783598D01*
X121829633Y-157763893D01*
X121817020Y-157742849D01*
X121806530Y-157720671D01*
X121798265Y-157697571D01*
X121792304Y-157673773D01*
X121788704Y-157649504D01*
X121787500Y-157625000D01*
X121787500Y-156375000D01*
X121788704Y-156350496D01*
X121792304Y-156326227D01*
X121798265Y-156302429D01*
X121806530Y-156279329D01*
X121817020Y-156257151D01*
X121829633Y-156236107D01*
X121844247Y-156216402D01*
X121860723Y-156198223D01*
X121878902Y-156181747D01*
X121898607Y-156167133D01*
X121919651Y-156154520D01*
X121941829Y-156144030D01*
X121964929Y-156135765D01*
X121988727Y-156129804D01*
X122012996Y-156126204D01*
X122037500Y-156125000D01*
X122962500Y-156125000D01*
X122987004Y-156126204D01*
G37*
G36*
X125962004Y-156126204D02*
G01*
X125986273Y-156129804D01*
X126010071Y-156135765D01*
X126033171Y-156144030D01*
X126055349Y-156154520D01*
X126076393Y-156167133D01*
X126096098Y-156181747D01*
X126114277Y-156198223D01*
X126130753Y-156216402D01*
X126145367Y-156236107D01*
X126157980Y-156257151D01*
X126168470Y-156279329D01*
X126176735Y-156302429D01*
X126182696Y-156326227D01*
X126186296Y-156350496D01*
X126187500Y-156375000D01*
X126187500Y-157625000D01*
X126186296Y-157649504D01*
X126182696Y-157673773D01*
X126176735Y-157697571D01*
X126168470Y-157720671D01*
X126157980Y-157742849D01*
X126145367Y-157763893D01*
X126130753Y-157783598D01*
X126114277Y-157801777D01*
X126096098Y-157818253D01*
X126076393Y-157832867D01*
X126055349Y-157845480D01*
X126033171Y-157855970D01*
X126010071Y-157864235D01*
X125986273Y-157870196D01*
X125962004Y-157873796D01*
X125937500Y-157875000D01*
X125012500Y-157875000D01*
X124987996Y-157873796D01*
X124963727Y-157870196D01*
X124939929Y-157864235D01*
X124916829Y-157855970D01*
X124894651Y-157845480D01*
X124873607Y-157832867D01*
X124853902Y-157818253D01*
X124835723Y-157801777D01*
X124819247Y-157783598D01*
X124804633Y-157763893D01*
X124792020Y-157742849D01*
X124781530Y-157720671D01*
X124773265Y-157697571D01*
X124767304Y-157673773D01*
X124763704Y-157649504D01*
X124762500Y-157625000D01*
X124762500Y-156375000D01*
X124763704Y-156350496D01*
X124767304Y-156326227D01*
X124773265Y-156302429D01*
X124781530Y-156279329D01*
X124792020Y-156257151D01*
X124804633Y-156236107D01*
X124819247Y-156216402D01*
X124835723Y-156198223D01*
X124853902Y-156181747D01*
X124873607Y-156167133D01*
X124894651Y-156154520D01*
X124916829Y-156144030D01*
X124939929Y-156135765D01*
X124963727Y-156129804D01*
X124987996Y-156126204D01*
X125012500Y-156125000D01*
X125937500Y-156125000D01*
X125962004Y-156126204D01*
G37*
G36*
X116987004Y-156126204D02*
G01*
X117011273Y-156129804D01*
X117035071Y-156135765D01*
X117058171Y-156144030D01*
X117080349Y-156154520D01*
X117101393Y-156167133D01*
X117121098Y-156181747D01*
X117139277Y-156198223D01*
X117155753Y-156216402D01*
X117170367Y-156236107D01*
X117182980Y-156257151D01*
X117193470Y-156279329D01*
X117201735Y-156302429D01*
X117207696Y-156326227D01*
X117211296Y-156350496D01*
X117212500Y-156375000D01*
X117212500Y-157625000D01*
X117211296Y-157649504D01*
X117207696Y-157673773D01*
X117201735Y-157697571D01*
X117193470Y-157720671D01*
X117182980Y-157742849D01*
X117170367Y-157763893D01*
X117155753Y-157783598D01*
X117139277Y-157801777D01*
X117121098Y-157818253D01*
X117101393Y-157832867D01*
X117080349Y-157845480D01*
X117058171Y-157855970D01*
X117035071Y-157864235D01*
X117011273Y-157870196D01*
X116987004Y-157873796D01*
X116962500Y-157875000D01*
X116037500Y-157875000D01*
X116012996Y-157873796D01*
X115988727Y-157870196D01*
X115964929Y-157864235D01*
X115941829Y-157855970D01*
X115919651Y-157845480D01*
X115898607Y-157832867D01*
X115878902Y-157818253D01*
X115860723Y-157801777D01*
X115844247Y-157783598D01*
X115829633Y-157763893D01*
X115817020Y-157742849D01*
X115806530Y-157720671D01*
X115798265Y-157697571D01*
X115792304Y-157673773D01*
X115788704Y-157649504D01*
X115787500Y-157625000D01*
X115787500Y-156375000D01*
X115788704Y-156350496D01*
X115792304Y-156326227D01*
X115798265Y-156302429D01*
X115806530Y-156279329D01*
X115817020Y-156257151D01*
X115829633Y-156236107D01*
X115844247Y-156216402D01*
X115860723Y-156198223D01*
X115878902Y-156181747D01*
X115898607Y-156167133D01*
X115919651Y-156154520D01*
X115941829Y-156144030D01*
X115964929Y-156135765D01*
X115988727Y-156129804D01*
X116012996Y-156126204D01*
X116037500Y-156125000D01*
X116962500Y-156125000D01*
X116987004Y-156126204D01*
G37*
G36*
X119962004Y-156126204D02*
G01*
X119986273Y-156129804D01*
X120010071Y-156135765D01*
X120033171Y-156144030D01*
X120055349Y-156154520D01*
X120076393Y-156167133D01*
X120096098Y-156181747D01*
X120114277Y-156198223D01*
X120130753Y-156216402D01*
X120145367Y-156236107D01*
X120157980Y-156257151D01*
X120168470Y-156279329D01*
X120176735Y-156302429D01*
X120182696Y-156326227D01*
X120186296Y-156350496D01*
X120187500Y-156375000D01*
X120187500Y-157625000D01*
X120186296Y-157649504D01*
X120182696Y-157673773D01*
X120176735Y-157697571D01*
X120168470Y-157720671D01*
X120157980Y-157742849D01*
X120145367Y-157763893D01*
X120130753Y-157783598D01*
X120114277Y-157801777D01*
X120096098Y-157818253D01*
X120076393Y-157832867D01*
X120055349Y-157845480D01*
X120033171Y-157855970D01*
X120010071Y-157864235D01*
X119986273Y-157870196D01*
X119962004Y-157873796D01*
X119937500Y-157875000D01*
X119012500Y-157875000D01*
X118987996Y-157873796D01*
X118963727Y-157870196D01*
X118939929Y-157864235D01*
X118916829Y-157855970D01*
X118894651Y-157845480D01*
X118873607Y-157832867D01*
X118853902Y-157818253D01*
X118835723Y-157801777D01*
X118819247Y-157783598D01*
X118804633Y-157763893D01*
X118792020Y-157742849D01*
X118781530Y-157720671D01*
X118773265Y-157697571D01*
X118767304Y-157673773D01*
X118763704Y-157649504D01*
X118762500Y-157625000D01*
X118762500Y-156375000D01*
X118763704Y-156350496D01*
X118767304Y-156326227D01*
X118773265Y-156302429D01*
X118781530Y-156279329D01*
X118792020Y-156257151D01*
X118804633Y-156236107D01*
X118819247Y-156216402D01*
X118835723Y-156198223D01*
X118853902Y-156181747D01*
X118873607Y-156167133D01*
X118894651Y-156154520D01*
X118916829Y-156144030D01*
X118939929Y-156135765D01*
X118963727Y-156129804D01*
X118987996Y-156126204D01*
X119012500Y-156125000D01*
X119937500Y-156125000D01*
X119962004Y-156126204D01*
G37*
G36*
X130512004Y-91126204D02*
G01*
X130536273Y-91129804D01*
X130560071Y-91135765D01*
X130583171Y-91144030D01*
X130605349Y-91154520D01*
X130626393Y-91167133D01*
X130646098Y-91181747D01*
X130664277Y-91198223D01*
X130680753Y-91216402D01*
X130695367Y-91236107D01*
X130707980Y-91257151D01*
X130718470Y-91279329D01*
X130726735Y-91302429D01*
X130732696Y-91326227D01*
X130736296Y-91350496D01*
X130737500Y-91375000D01*
X130737500Y-92625000D01*
X130736296Y-92649504D01*
X130732696Y-92673773D01*
X130726735Y-92697571D01*
X130718470Y-92720671D01*
X130707980Y-92742849D01*
X130695367Y-92763893D01*
X130680753Y-92783598D01*
X130664277Y-92801777D01*
X130646098Y-92818253D01*
X130626393Y-92832867D01*
X130605349Y-92845480D01*
X130583171Y-92855970D01*
X130560071Y-92864235D01*
X130536273Y-92870196D01*
X130512004Y-92873796D01*
X130487500Y-92875000D01*
X129562500Y-92875000D01*
X129537996Y-92873796D01*
X129513727Y-92870196D01*
X129489929Y-92864235D01*
X129466829Y-92855970D01*
X129444651Y-92845480D01*
X129423607Y-92832867D01*
X129403902Y-92818253D01*
X129385723Y-92801777D01*
X129369247Y-92783598D01*
X129354633Y-92763893D01*
X129342020Y-92742849D01*
X129331530Y-92720671D01*
X129323265Y-92697571D01*
X129317304Y-92673773D01*
X129313704Y-92649504D01*
X129312500Y-92625000D01*
X129312500Y-91375000D01*
X129313704Y-91350496D01*
X129317304Y-91326227D01*
X129323265Y-91302429D01*
X129331530Y-91279329D01*
X129342020Y-91257151D01*
X129354633Y-91236107D01*
X129369247Y-91216402D01*
X129385723Y-91198223D01*
X129403902Y-91181747D01*
X129423607Y-91167133D01*
X129444651Y-91154520D01*
X129466829Y-91144030D01*
X129489929Y-91135765D01*
X129513727Y-91129804D01*
X129537996Y-91126204D01*
X129562500Y-91125000D01*
X130487500Y-91125000D01*
X130512004Y-91126204D01*
G37*
G36*
X133487004Y-91126204D02*
G01*
X133511273Y-91129804D01*
X133535071Y-91135765D01*
X133558171Y-91144030D01*
X133580349Y-91154520D01*
X133601393Y-91167133D01*
X133621098Y-91181747D01*
X133639277Y-91198223D01*
X133655753Y-91216402D01*
X133670367Y-91236107D01*
X133682980Y-91257151D01*
X133693470Y-91279329D01*
X133701735Y-91302429D01*
X133707696Y-91326227D01*
X133711296Y-91350496D01*
X133712500Y-91375000D01*
X133712500Y-92625000D01*
X133711296Y-92649504D01*
X133707696Y-92673773D01*
X133701735Y-92697571D01*
X133693470Y-92720671D01*
X133682980Y-92742849D01*
X133670367Y-92763893D01*
X133655753Y-92783598D01*
X133639277Y-92801777D01*
X133621098Y-92818253D01*
X133601393Y-92832867D01*
X133580349Y-92845480D01*
X133558171Y-92855970D01*
X133535071Y-92864235D01*
X133511273Y-92870196D01*
X133487004Y-92873796D01*
X133462500Y-92875000D01*
X132537500Y-92875000D01*
X132512996Y-92873796D01*
X132488727Y-92870196D01*
X132464929Y-92864235D01*
X132441829Y-92855970D01*
X132419651Y-92845480D01*
X132398607Y-92832867D01*
X132378902Y-92818253D01*
X132360723Y-92801777D01*
X132344247Y-92783598D01*
X132329633Y-92763893D01*
X132317020Y-92742849D01*
X132306530Y-92720671D01*
X132298265Y-92697571D01*
X132292304Y-92673773D01*
X132288704Y-92649504D01*
X132287500Y-92625000D01*
X132287500Y-91375000D01*
X132288704Y-91350496D01*
X132292304Y-91326227D01*
X132298265Y-91302429D01*
X132306530Y-91279329D01*
X132317020Y-91257151D01*
X132329633Y-91236107D01*
X132344247Y-91216402D01*
X132360723Y-91198223D01*
X132378902Y-91181747D01*
X132398607Y-91167133D01*
X132419651Y-91154520D01*
X132441829Y-91144030D01*
X132464929Y-91135765D01*
X132488727Y-91129804D01*
X132512996Y-91126204D01*
X132537500Y-91125000D01*
X133462500Y-91125000D01*
X133487004Y-91126204D01*
G37*
G36*
X124487004Y-91126204D02*
G01*
X124511273Y-91129804D01*
X124535071Y-91135765D01*
X124558171Y-91144030D01*
X124580349Y-91154520D01*
X124601393Y-91167133D01*
X124621098Y-91181747D01*
X124639277Y-91198223D01*
X124655753Y-91216402D01*
X124670367Y-91236107D01*
X124682980Y-91257151D01*
X124693470Y-91279329D01*
X124701735Y-91302429D01*
X124707696Y-91326227D01*
X124711296Y-91350496D01*
X124712500Y-91375000D01*
X124712500Y-92625000D01*
X124711296Y-92649504D01*
X124707696Y-92673773D01*
X124701735Y-92697571D01*
X124693470Y-92720671D01*
X124682980Y-92742849D01*
X124670367Y-92763893D01*
X124655753Y-92783598D01*
X124639277Y-92801777D01*
X124621098Y-92818253D01*
X124601393Y-92832867D01*
X124580349Y-92845480D01*
X124558171Y-92855970D01*
X124535071Y-92864235D01*
X124511273Y-92870196D01*
X124487004Y-92873796D01*
X124462500Y-92875000D01*
X123537500Y-92875000D01*
X123512996Y-92873796D01*
X123488727Y-92870196D01*
X123464929Y-92864235D01*
X123441829Y-92855970D01*
X123419651Y-92845480D01*
X123398607Y-92832867D01*
X123378902Y-92818253D01*
X123360723Y-92801777D01*
X123344247Y-92783598D01*
X123329633Y-92763893D01*
X123317020Y-92742849D01*
X123306530Y-92720671D01*
X123298265Y-92697571D01*
X123292304Y-92673773D01*
X123288704Y-92649504D01*
X123287500Y-92625000D01*
X123287500Y-91375000D01*
X123288704Y-91350496D01*
X123292304Y-91326227D01*
X123298265Y-91302429D01*
X123306530Y-91279329D01*
X123317020Y-91257151D01*
X123329633Y-91236107D01*
X123344247Y-91216402D01*
X123360723Y-91198223D01*
X123378902Y-91181747D01*
X123398607Y-91167133D01*
X123419651Y-91154520D01*
X123441829Y-91144030D01*
X123464929Y-91135765D01*
X123488727Y-91129804D01*
X123512996Y-91126204D01*
X123537500Y-91125000D01*
X124462500Y-91125000D01*
X124487004Y-91126204D01*
G37*
G36*
X127462004Y-91126204D02*
G01*
X127486273Y-91129804D01*
X127510071Y-91135765D01*
X127533171Y-91144030D01*
X127555349Y-91154520D01*
X127576393Y-91167133D01*
X127596098Y-91181747D01*
X127614277Y-91198223D01*
X127630753Y-91216402D01*
X127645367Y-91236107D01*
X127657980Y-91257151D01*
X127668470Y-91279329D01*
X127676735Y-91302429D01*
X127682696Y-91326227D01*
X127686296Y-91350496D01*
X127687500Y-91375000D01*
X127687500Y-92625000D01*
X127686296Y-92649504D01*
X127682696Y-92673773D01*
X127676735Y-92697571D01*
X127668470Y-92720671D01*
X127657980Y-92742849D01*
X127645367Y-92763893D01*
X127630753Y-92783598D01*
X127614277Y-92801777D01*
X127596098Y-92818253D01*
X127576393Y-92832867D01*
X127555349Y-92845480D01*
X127533171Y-92855970D01*
X127510071Y-92864235D01*
X127486273Y-92870196D01*
X127462004Y-92873796D01*
X127437500Y-92875000D01*
X126512500Y-92875000D01*
X126487996Y-92873796D01*
X126463727Y-92870196D01*
X126439929Y-92864235D01*
X126416829Y-92855970D01*
X126394651Y-92845480D01*
X126373607Y-92832867D01*
X126353902Y-92818253D01*
X126335723Y-92801777D01*
X126319247Y-92783598D01*
X126304633Y-92763893D01*
X126292020Y-92742849D01*
X126281530Y-92720671D01*
X126273265Y-92697571D01*
X126267304Y-92673773D01*
X126263704Y-92649504D01*
X126262500Y-92625000D01*
X126262500Y-91375000D01*
X126263704Y-91350496D01*
X126267304Y-91326227D01*
X126273265Y-91302429D01*
X126281530Y-91279329D01*
X126292020Y-91257151D01*
X126304633Y-91236107D01*
X126319247Y-91216402D01*
X126335723Y-91198223D01*
X126353902Y-91181747D01*
X126373607Y-91167133D01*
X126394651Y-91154520D01*
X126416829Y-91144030D01*
X126439929Y-91135765D01*
X126463727Y-91129804D01*
X126487996Y-91126204D01*
X126512500Y-91125000D01*
X127437500Y-91125000D01*
X127462004Y-91126204D01*
G37*
G36*
X124487004Y-87126204D02*
G01*
X124511273Y-87129804D01*
X124535071Y-87135765D01*
X124558171Y-87144030D01*
X124580349Y-87154520D01*
X124601393Y-87167133D01*
X124621098Y-87181747D01*
X124639277Y-87198223D01*
X124655753Y-87216402D01*
X124670367Y-87236107D01*
X124682980Y-87257151D01*
X124693470Y-87279329D01*
X124701735Y-87302429D01*
X124707696Y-87326227D01*
X124711296Y-87350496D01*
X124712500Y-87375000D01*
X124712500Y-88625000D01*
X124711296Y-88649504D01*
X124707696Y-88673773D01*
X124701735Y-88697571D01*
X124693470Y-88720671D01*
X124682980Y-88742849D01*
X124670367Y-88763893D01*
X124655753Y-88783598D01*
X124639277Y-88801777D01*
X124621098Y-88818253D01*
X124601393Y-88832867D01*
X124580349Y-88845480D01*
X124558171Y-88855970D01*
X124535071Y-88864235D01*
X124511273Y-88870196D01*
X124487004Y-88873796D01*
X124462500Y-88875000D01*
X123537500Y-88875000D01*
X123512996Y-88873796D01*
X123488727Y-88870196D01*
X123464929Y-88864235D01*
X123441829Y-88855970D01*
X123419651Y-88845480D01*
X123398607Y-88832867D01*
X123378902Y-88818253D01*
X123360723Y-88801777D01*
X123344247Y-88783598D01*
X123329633Y-88763893D01*
X123317020Y-88742849D01*
X123306530Y-88720671D01*
X123298265Y-88697571D01*
X123292304Y-88673773D01*
X123288704Y-88649504D01*
X123287500Y-88625000D01*
X123287500Y-87375000D01*
X123288704Y-87350496D01*
X123292304Y-87326227D01*
X123298265Y-87302429D01*
X123306530Y-87279329D01*
X123317020Y-87257151D01*
X123329633Y-87236107D01*
X123344247Y-87216402D01*
X123360723Y-87198223D01*
X123378902Y-87181747D01*
X123398607Y-87167133D01*
X123419651Y-87154520D01*
X123441829Y-87144030D01*
X123464929Y-87135765D01*
X123488727Y-87129804D01*
X123512996Y-87126204D01*
X123537500Y-87125000D01*
X124462500Y-87125000D01*
X124487004Y-87126204D01*
G37*
G36*
X127462004Y-87126204D02*
G01*
X127486273Y-87129804D01*
X127510071Y-87135765D01*
X127533171Y-87144030D01*
X127555349Y-87154520D01*
X127576393Y-87167133D01*
X127596098Y-87181747D01*
X127614277Y-87198223D01*
X127630753Y-87216402D01*
X127645367Y-87236107D01*
X127657980Y-87257151D01*
X127668470Y-87279329D01*
X127676735Y-87302429D01*
X127682696Y-87326227D01*
X127686296Y-87350496D01*
X127687500Y-87375000D01*
X127687500Y-88625000D01*
X127686296Y-88649504D01*
X127682696Y-88673773D01*
X127676735Y-88697571D01*
X127668470Y-88720671D01*
X127657980Y-88742849D01*
X127645367Y-88763893D01*
X127630753Y-88783598D01*
X127614277Y-88801777D01*
X127596098Y-88818253D01*
X127576393Y-88832867D01*
X127555349Y-88845480D01*
X127533171Y-88855970D01*
X127510071Y-88864235D01*
X127486273Y-88870196D01*
X127462004Y-88873796D01*
X127437500Y-88875000D01*
X126512500Y-88875000D01*
X126487996Y-88873796D01*
X126463727Y-88870196D01*
X126439929Y-88864235D01*
X126416829Y-88855970D01*
X126394651Y-88845480D01*
X126373607Y-88832867D01*
X126353902Y-88818253D01*
X126335723Y-88801777D01*
X126319247Y-88783598D01*
X126304633Y-88763893D01*
X126292020Y-88742849D01*
X126281530Y-88720671D01*
X126273265Y-88697571D01*
X126267304Y-88673773D01*
X126263704Y-88649504D01*
X126262500Y-88625000D01*
X126262500Y-87375000D01*
X126263704Y-87350496D01*
X126267304Y-87326227D01*
X126273265Y-87302429D01*
X126281530Y-87279329D01*
X126292020Y-87257151D01*
X126304633Y-87236107D01*
X126319247Y-87216402D01*
X126335723Y-87198223D01*
X126353902Y-87181747D01*
X126373607Y-87167133D01*
X126394651Y-87154520D01*
X126416829Y-87144030D01*
X126439929Y-87135765D01*
X126463727Y-87129804D01*
X126487996Y-87126204D01*
X126512500Y-87125000D01*
X127437500Y-87125000D01*
X127462004Y-87126204D01*
G37*
G36*
X130487004Y-83126204D02*
G01*
X130511273Y-83129804D01*
X130535071Y-83135765D01*
X130558171Y-83144030D01*
X130580349Y-83154520D01*
X130601393Y-83167133D01*
X130621098Y-83181747D01*
X130639277Y-83198223D01*
X130655753Y-83216402D01*
X130670367Y-83236107D01*
X130682980Y-83257151D01*
X130693470Y-83279329D01*
X130701735Y-83302429D01*
X130707696Y-83326227D01*
X130711296Y-83350496D01*
X130712500Y-83375000D01*
X130712500Y-84625000D01*
X130711296Y-84649504D01*
X130707696Y-84673773D01*
X130701735Y-84697571D01*
X130693470Y-84720671D01*
X130682980Y-84742849D01*
X130670367Y-84763893D01*
X130655753Y-84783598D01*
X130639277Y-84801777D01*
X130621098Y-84818253D01*
X130601393Y-84832867D01*
X130580349Y-84845480D01*
X130558171Y-84855970D01*
X130535071Y-84864235D01*
X130511273Y-84870196D01*
X130487004Y-84873796D01*
X130462500Y-84875000D01*
X129537500Y-84875000D01*
X129512996Y-84873796D01*
X129488727Y-84870196D01*
X129464929Y-84864235D01*
X129441829Y-84855970D01*
X129419651Y-84845480D01*
X129398607Y-84832867D01*
X129378902Y-84818253D01*
X129360723Y-84801777D01*
X129344247Y-84783598D01*
X129329633Y-84763893D01*
X129317020Y-84742849D01*
X129306530Y-84720671D01*
X129298265Y-84697571D01*
X129292304Y-84673773D01*
X129288704Y-84649504D01*
X129287500Y-84625000D01*
X129287500Y-83375000D01*
X129288704Y-83350496D01*
X129292304Y-83326227D01*
X129298265Y-83302429D01*
X129306530Y-83279329D01*
X129317020Y-83257151D01*
X129329633Y-83236107D01*
X129344247Y-83216402D01*
X129360723Y-83198223D01*
X129378902Y-83181747D01*
X129398607Y-83167133D01*
X129419651Y-83154520D01*
X129441829Y-83144030D01*
X129464929Y-83135765D01*
X129488727Y-83129804D01*
X129512996Y-83126204D01*
X129537500Y-83125000D01*
X130462500Y-83125000D01*
X130487004Y-83126204D01*
G37*
G36*
X133462004Y-83126204D02*
G01*
X133486273Y-83129804D01*
X133510071Y-83135765D01*
X133533171Y-83144030D01*
X133555349Y-83154520D01*
X133576393Y-83167133D01*
X133596098Y-83181747D01*
X133614277Y-83198223D01*
X133630753Y-83216402D01*
X133645367Y-83236107D01*
X133657980Y-83257151D01*
X133668470Y-83279329D01*
X133676735Y-83302429D01*
X133682696Y-83326227D01*
X133686296Y-83350496D01*
X133687500Y-83375000D01*
X133687500Y-84625000D01*
X133686296Y-84649504D01*
X133682696Y-84673773D01*
X133676735Y-84697571D01*
X133668470Y-84720671D01*
X133657980Y-84742849D01*
X133645367Y-84763893D01*
X133630753Y-84783598D01*
X133614277Y-84801777D01*
X133596098Y-84818253D01*
X133576393Y-84832867D01*
X133555349Y-84845480D01*
X133533171Y-84855970D01*
X133510071Y-84864235D01*
X133486273Y-84870196D01*
X133462004Y-84873796D01*
X133437500Y-84875000D01*
X132512500Y-84875000D01*
X132487996Y-84873796D01*
X132463727Y-84870196D01*
X132439929Y-84864235D01*
X132416829Y-84855970D01*
X132394651Y-84845480D01*
X132373607Y-84832867D01*
X132353902Y-84818253D01*
X132335723Y-84801777D01*
X132319247Y-84783598D01*
X132304633Y-84763893D01*
X132292020Y-84742849D01*
X132281530Y-84720671D01*
X132273265Y-84697571D01*
X132267304Y-84673773D01*
X132263704Y-84649504D01*
X132262500Y-84625000D01*
X132262500Y-83375000D01*
X132263704Y-83350496D01*
X132267304Y-83326227D01*
X132273265Y-83302429D01*
X132281530Y-83279329D01*
X132292020Y-83257151D01*
X132304633Y-83236107D01*
X132319247Y-83216402D01*
X132335723Y-83198223D01*
X132353902Y-83181747D01*
X132373607Y-83167133D01*
X132394651Y-83154520D01*
X132416829Y-83144030D01*
X132439929Y-83135765D01*
X132463727Y-83129804D01*
X132487996Y-83126204D01*
X132512500Y-83125000D01*
X133437500Y-83125000D01*
X133462004Y-83126204D01*
G37*
G36*
X124487004Y-83126204D02*
G01*
X124511273Y-83129804D01*
X124535071Y-83135765D01*
X124558171Y-83144030D01*
X124580349Y-83154520D01*
X124601393Y-83167133D01*
X124621098Y-83181747D01*
X124639277Y-83198223D01*
X124655753Y-83216402D01*
X124670367Y-83236107D01*
X124682980Y-83257151D01*
X124693470Y-83279329D01*
X124701735Y-83302429D01*
X124707696Y-83326227D01*
X124711296Y-83350496D01*
X124712500Y-83375000D01*
X124712500Y-84625000D01*
X124711296Y-84649504D01*
X124707696Y-84673773D01*
X124701735Y-84697571D01*
X124693470Y-84720671D01*
X124682980Y-84742849D01*
X124670367Y-84763893D01*
X124655753Y-84783598D01*
X124639277Y-84801777D01*
X124621098Y-84818253D01*
X124601393Y-84832867D01*
X124580349Y-84845480D01*
X124558171Y-84855970D01*
X124535071Y-84864235D01*
X124511273Y-84870196D01*
X124487004Y-84873796D01*
X124462500Y-84875000D01*
X123537500Y-84875000D01*
X123512996Y-84873796D01*
X123488727Y-84870196D01*
X123464929Y-84864235D01*
X123441829Y-84855970D01*
X123419651Y-84845480D01*
X123398607Y-84832867D01*
X123378902Y-84818253D01*
X123360723Y-84801777D01*
X123344247Y-84783598D01*
X123329633Y-84763893D01*
X123317020Y-84742849D01*
X123306530Y-84720671D01*
X123298265Y-84697571D01*
X123292304Y-84673773D01*
X123288704Y-84649504D01*
X123287500Y-84625000D01*
X123287500Y-83375000D01*
X123288704Y-83350496D01*
X123292304Y-83326227D01*
X123298265Y-83302429D01*
X123306530Y-83279329D01*
X123317020Y-83257151D01*
X123329633Y-83236107D01*
X123344247Y-83216402D01*
X123360723Y-83198223D01*
X123378902Y-83181747D01*
X123398607Y-83167133D01*
X123419651Y-83154520D01*
X123441829Y-83144030D01*
X123464929Y-83135765D01*
X123488727Y-83129804D01*
X123512996Y-83126204D01*
X123537500Y-83125000D01*
X124462500Y-83125000D01*
X124487004Y-83126204D01*
G37*
G36*
X127462004Y-83126204D02*
G01*
X127486273Y-83129804D01*
X127510071Y-83135765D01*
X127533171Y-83144030D01*
X127555349Y-83154520D01*
X127576393Y-83167133D01*
X127596098Y-83181747D01*
X127614277Y-83198223D01*
X127630753Y-83216402D01*
X127645367Y-83236107D01*
X127657980Y-83257151D01*
X127668470Y-83279329D01*
X127676735Y-83302429D01*
X127682696Y-83326227D01*
X127686296Y-83350496D01*
X127687500Y-83375000D01*
X127687500Y-84625000D01*
X127686296Y-84649504D01*
X127682696Y-84673773D01*
X127676735Y-84697571D01*
X127668470Y-84720671D01*
X127657980Y-84742849D01*
X127645367Y-84763893D01*
X127630753Y-84783598D01*
X127614277Y-84801777D01*
X127596098Y-84818253D01*
X127576393Y-84832867D01*
X127555349Y-84845480D01*
X127533171Y-84855970D01*
X127510071Y-84864235D01*
X127486273Y-84870196D01*
X127462004Y-84873796D01*
X127437500Y-84875000D01*
X126512500Y-84875000D01*
X126487996Y-84873796D01*
X126463727Y-84870196D01*
X126439929Y-84864235D01*
X126416829Y-84855970D01*
X126394651Y-84845480D01*
X126373607Y-84832867D01*
X126353902Y-84818253D01*
X126335723Y-84801777D01*
X126319247Y-84783598D01*
X126304633Y-84763893D01*
X126292020Y-84742849D01*
X126281530Y-84720671D01*
X126273265Y-84697571D01*
X126267304Y-84673773D01*
X126263704Y-84649504D01*
X126262500Y-84625000D01*
X126262500Y-83375000D01*
X126263704Y-83350496D01*
X126267304Y-83326227D01*
X126273265Y-83302429D01*
X126281530Y-83279329D01*
X126292020Y-83257151D01*
X126304633Y-83236107D01*
X126319247Y-83216402D01*
X126335723Y-83198223D01*
X126353902Y-83181747D01*
X126373607Y-83167133D01*
X126394651Y-83154520D01*
X126416829Y-83144030D01*
X126439929Y-83135765D01*
X126463727Y-83129804D01*
X126487996Y-83126204D01*
X126512500Y-83125000D01*
X127437500Y-83125000D01*
X127462004Y-83126204D01*
G37*
G36*
X125487004Y-62126204D02*
G01*
X125511273Y-62129804D01*
X125535071Y-62135765D01*
X125558171Y-62144030D01*
X125580349Y-62154520D01*
X125601393Y-62167133D01*
X125621098Y-62181747D01*
X125639277Y-62198223D01*
X125655753Y-62216402D01*
X125670367Y-62236107D01*
X125682980Y-62257151D01*
X125693470Y-62279329D01*
X125701735Y-62302429D01*
X125707696Y-62326227D01*
X125711296Y-62350496D01*
X125712500Y-62375000D01*
X125712500Y-63625000D01*
X125711296Y-63649504D01*
X125707696Y-63673773D01*
X125701735Y-63697571D01*
X125693470Y-63720671D01*
X125682980Y-63742849D01*
X125670367Y-63763893D01*
X125655753Y-63783598D01*
X125639277Y-63801777D01*
X125621098Y-63818253D01*
X125601393Y-63832867D01*
X125580349Y-63845480D01*
X125558171Y-63855970D01*
X125535071Y-63864235D01*
X125511273Y-63870196D01*
X125487004Y-63873796D01*
X125462500Y-63875000D01*
X124537500Y-63875000D01*
X124512996Y-63873796D01*
X124488727Y-63870196D01*
X124464929Y-63864235D01*
X124441829Y-63855970D01*
X124419651Y-63845480D01*
X124398607Y-63832867D01*
X124378902Y-63818253D01*
X124360723Y-63801777D01*
X124344247Y-63783598D01*
X124329633Y-63763893D01*
X124317020Y-63742849D01*
X124306530Y-63720671D01*
X124298265Y-63697571D01*
X124292304Y-63673773D01*
X124288704Y-63649504D01*
X124287500Y-63625000D01*
X124287500Y-62375000D01*
X124288704Y-62350496D01*
X124292304Y-62326227D01*
X124298265Y-62302429D01*
X124306530Y-62279329D01*
X124317020Y-62257151D01*
X124329633Y-62236107D01*
X124344247Y-62216402D01*
X124360723Y-62198223D01*
X124378902Y-62181747D01*
X124398607Y-62167133D01*
X124419651Y-62154520D01*
X124441829Y-62144030D01*
X124464929Y-62135765D01*
X124488727Y-62129804D01*
X124512996Y-62126204D01*
X124537500Y-62125000D01*
X125462500Y-62125000D01*
X125487004Y-62126204D01*
G37*
G36*
X128462004Y-62126204D02*
G01*
X128486273Y-62129804D01*
X128510071Y-62135765D01*
X128533171Y-62144030D01*
X128555349Y-62154520D01*
X128576393Y-62167133D01*
X128596098Y-62181747D01*
X128614277Y-62198223D01*
X128630753Y-62216402D01*
X128645367Y-62236107D01*
X128657980Y-62257151D01*
X128668470Y-62279329D01*
X128676735Y-62302429D01*
X128682696Y-62326227D01*
X128686296Y-62350496D01*
X128687500Y-62375000D01*
X128687500Y-63625000D01*
X128686296Y-63649504D01*
X128682696Y-63673773D01*
X128676735Y-63697571D01*
X128668470Y-63720671D01*
X128657980Y-63742849D01*
X128645367Y-63763893D01*
X128630753Y-63783598D01*
X128614277Y-63801777D01*
X128596098Y-63818253D01*
X128576393Y-63832867D01*
X128555349Y-63845480D01*
X128533171Y-63855970D01*
X128510071Y-63864235D01*
X128486273Y-63870196D01*
X128462004Y-63873796D01*
X128437500Y-63875000D01*
X127512500Y-63875000D01*
X127487996Y-63873796D01*
X127463727Y-63870196D01*
X127439929Y-63864235D01*
X127416829Y-63855970D01*
X127394651Y-63845480D01*
X127373607Y-63832867D01*
X127353902Y-63818253D01*
X127335723Y-63801777D01*
X127319247Y-63783598D01*
X127304633Y-63763893D01*
X127292020Y-63742849D01*
X127281530Y-63720671D01*
X127273265Y-63697571D01*
X127267304Y-63673773D01*
X127263704Y-63649504D01*
X127262500Y-63625000D01*
X127262500Y-62375000D01*
X127263704Y-62350496D01*
X127267304Y-62326227D01*
X127273265Y-62302429D01*
X127281530Y-62279329D01*
X127292020Y-62257151D01*
X127304633Y-62236107D01*
X127319247Y-62216402D01*
X127335723Y-62198223D01*
X127353902Y-62181747D01*
X127373607Y-62167133D01*
X127394651Y-62154520D01*
X127416829Y-62144030D01*
X127439929Y-62135765D01*
X127463727Y-62129804D01*
X127487996Y-62126204D01*
X127512500Y-62125000D01*
X128437500Y-62125000D01*
X128462004Y-62126204D01*
G37*
G36*
X119487004Y-62126204D02*
G01*
X119511273Y-62129804D01*
X119535071Y-62135765D01*
X119558171Y-62144030D01*
X119580349Y-62154520D01*
X119601393Y-62167133D01*
X119621098Y-62181747D01*
X119639277Y-62198223D01*
X119655753Y-62216402D01*
X119670367Y-62236107D01*
X119682980Y-62257151D01*
X119693470Y-62279329D01*
X119701735Y-62302429D01*
X119707696Y-62326227D01*
X119711296Y-62350496D01*
X119712500Y-62375000D01*
X119712500Y-63625000D01*
X119711296Y-63649504D01*
X119707696Y-63673773D01*
X119701735Y-63697571D01*
X119693470Y-63720671D01*
X119682980Y-63742849D01*
X119670367Y-63763893D01*
X119655753Y-63783598D01*
X119639277Y-63801777D01*
X119621098Y-63818253D01*
X119601393Y-63832867D01*
X119580349Y-63845480D01*
X119558171Y-63855970D01*
X119535071Y-63864235D01*
X119511273Y-63870196D01*
X119487004Y-63873796D01*
X119462500Y-63875000D01*
X118537500Y-63875000D01*
X118512996Y-63873796D01*
X118488727Y-63870196D01*
X118464929Y-63864235D01*
X118441829Y-63855970D01*
X118419651Y-63845480D01*
X118398607Y-63832867D01*
X118378902Y-63818253D01*
X118360723Y-63801777D01*
X118344247Y-63783598D01*
X118329633Y-63763893D01*
X118317020Y-63742849D01*
X118306530Y-63720671D01*
X118298265Y-63697571D01*
X118292304Y-63673773D01*
X118288704Y-63649504D01*
X118287500Y-63625000D01*
X118287500Y-62375000D01*
X118288704Y-62350496D01*
X118292304Y-62326227D01*
X118298265Y-62302429D01*
X118306530Y-62279329D01*
X118317020Y-62257151D01*
X118329633Y-62236107D01*
X118344247Y-62216402D01*
X118360723Y-62198223D01*
X118378902Y-62181747D01*
X118398607Y-62167133D01*
X118419651Y-62154520D01*
X118441829Y-62144030D01*
X118464929Y-62135765D01*
X118488727Y-62129804D01*
X118512996Y-62126204D01*
X118537500Y-62125000D01*
X119462500Y-62125000D01*
X119487004Y-62126204D01*
G37*
G36*
X122462004Y-62126204D02*
G01*
X122486273Y-62129804D01*
X122510071Y-62135765D01*
X122533171Y-62144030D01*
X122555349Y-62154520D01*
X122576393Y-62167133D01*
X122596098Y-62181747D01*
X122614277Y-62198223D01*
X122630753Y-62216402D01*
X122645367Y-62236107D01*
X122657980Y-62257151D01*
X122668470Y-62279329D01*
X122676735Y-62302429D01*
X122682696Y-62326227D01*
X122686296Y-62350496D01*
X122687500Y-62375000D01*
X122687500Y-63625000D01*
X122686296Y-63649504D01*
X122682696Y-63673773D01*
X122676735Y-63697571D01*
X122668470Y-63720671D01*
X122657980Y-63742849D01*
X122645367Y-63763893D01*
X122630753Y-63783598D01*
X122614277Y-63801777D01*
X122596098Y-63818253D01*
X122576393Y-63832867D01*
X122555349Y-63845480D01*
X122533171Y-63855970D01*
X122510071Y-63864235D01*
X122486273Y-63870196D01*
X122462004Y-63873796D01*
X122437500Y-63875000D01*
X121512500Y-63875000D01*
X121487996Y-63873796D01*
X121463727Y-63870196D01*
X121439929Y-63864235D01*
X121416829Y-63855970D01*
X121394651Y-63845480D01*
X121373607Y-63832867D01*
X121353902Y-63818253D01*
X121335723Y-63801777D01*
X121319247Y-63783598D01*
X121304633Y-63763893D01*
X121292020Y-63742849D01*
X121281530Y-63720671D01*
X121273265Y-63697571D01*
X121267304Y-63673773D01*
X121263704Y-63649504D01*
X121262500Y-63625000D01*
X121262500Y-62375000D01*
X121263704Y-62350496D01*
X121267304Y-62326227D01*
X121273265Y-62302429D01*
X121281530Y-62279329D01*
X121292020Y-62257151D01*
X121304633Y-62236107D01*
X121319247Y-62216402D01*
X121335723Y-62198223D01*
X121353902Y-62181747D01*
X121373607Y-62167133D01*
X121394651Y-62154520D01*
X121416829Y-62144030D01*
X121439929Y-62135765D01*
X121463727Y-62129804D01*
X121487996Y-62126204D01*
X121512500Y-62125000D01*
X122437500Y-62125000D01*
X122462004Y-62126204D01*
G37*
G36*
X130487004Y-130126204D02*
G01*
X130511273Y-130129804D01*
X130535071Y-130135765D01*
X130558171Y-130144030D01*
X130580349Y-130154520D01*
X130601393Y-130167133D01*
X130621098Y-130181747D01*
X130639277Y-130198223D01*
X130655753Y-130216402D01*
X130670367Y-130236107D01*
X130682980Y-130257151D01*
X130693470Y-130279329D01*
X130701735Y-130302429D01*
X130707696Y-130326227D01*
X130711296Y-130350496D01*
X130712500Y-130375000D01*
X130712500Y-131625000D01*
X130711296Y-131649504D01*
X130707696Y-131673773D01*
X130701735Y-131697571D01*
X130693470Y-131720671D01*
X130682980Y-131742849D01*
X130670367Y-131763893D01*
X130655753Y-131783598D01*
X130639277Y-131801777D01*
X130621098Y-131818253D01*
X130601393Y-131832867D01*
X130580349Y-131845480D01*
X130558171Y-131855970D01*
X130535071Y-131864235D01*
X130511273Y-131870196D01*
X130487004Y-131873796D01*
X130462500Y-131875000D01*
X129537500Y-131875000D01*
X129512996Y-131873796D01*
X129488727Y-131870196D01*
X129464929Y-131864235D01*
X129441829Y-131855970D01*
X129419651Y-131845480D01*
X129398607Y-131832867D01*
X129378902Y-131818253D01*
X129360723Y-131801777D01*
X129344247Y-131783598D01*
X129329633Y-131763893D01*
X129317020Y-131742849D01*
X129306530Y-131720671D01*
X129298265Y-131697571D01*
X129292304Y-131673773D01*
X129288704Y-131649504D01*
X129287500Y-131625000D01*
X129287500Y-130375000D01*
X129288704Y-130350496D01*
X129292304Y-130326227D01*
X129298265Y-130302429D01*
X129306530Y-130279329D01*
X129317020Y-130257151D01*
X129329633Y-130236107D01*
X129344247Y-130216402D01*
X129360723Y-130198223D01*
X129378902Y-130181747D01*
X129398607Y-130167133D01*
X129419651Y-130154520D01*
X129441829Y-130144030D01*
X129464929Y-130135765D01*
X129488727Y-130129804D01*
X129512996Y-130126204D01*
X129537500Y-130125000D01*
X130462500Y-130125000D01*
X130487004Y-130126204D01*
G37*
G36*
X133462004Y-130126204D02*
G01*
X133486273Y-130129804D01*
X133510071Y-130135765D01*
X133533171Y-130144030D01*
X133555349Y-130154520D01*
X133576393Y-130167133D01*
X133596098Y-130181747D01*
X133614277Y-130198223D01*
X133630753Y-130216402D01*
X133645367Y-130236107D01*
X133657980Y-130257151D01*
X133668470Y-130279329D01*
X133676735Y-130302429D01*
X133682696Y-130326227D01*
X133686296Y-130350496D01*
X133687500Y-130375000D01*
X133687500Y-131625000D01*
X133686296Y-131649504D01*
X133682696Y-131673773D01*
X133676735Y-131697571D01*
X133668470Y-131720671D01*
X133657980Y-131742849D01*
X133645367Y-131763893D01*
X133630753Y-131783598D01*
X133614277Y-131801777D01*
X133596098Y-131818253D01*
X133576393Y-131832867D01*
X133555349Y-131845480D01*
X133533171Y-131855970D01*
X133510071Y-131864235D01*
X133486273Y-131870196D01*
X133462004Y-131873796D01*
X133437500Y-131875000D01*
X132512500Y-131875000D01*
X132487996Y-131873796D01*
X132463727Y-131870196D01*
X132439929Y-131864235D01*
X132416829Y-131855970D01*
X132394651Y-131845480D01*
X132373607Y-131832867D01*
X132353902Y-131818253D01*
X132335723Y-131801777D01*
X132319247Y-131783598D01*
X132304633Y-131763893D01*
X132292020Y-131742849D01*
X132281530Y-131720671D01*
X132273265Y-131697571D01*
X132267304Y-131673773D01*
X132263704Y-131649504D01*
X132262500Y-131625000D01*
X132262500Y-130375000D01*
X132263704Y-130350496D01*
X132267304Y-130326227D01*
X132273265Y-130302429D01*
X132281530Y-130279329D01*
X132292020Y-130257151D01*
X132304633Y-130236107D01*
X132319247Y-130216402D01*
X132335723Y-130198223D01*
X132353902Y-130181747D01*
X132373607Y-130167133D01*
X132394651Y-130154520D01*
X132416829Y-130144030D01*
X132439929Y-130135765D01*
X132463727Y-130129804D01*
X132487996Y-130126204D01*
X132512500Y-130125000D01*
X133437500Y-130125000D01*
X133462004Y-130126204D01*
G37*
G36*
X125512004Y-66126204D02*
G01*
X125536273Y-66129804D01*
X125560071Y-66135765D01*
X125583171Y-66144030D01*
X125605349Y-66154520D01*
X125626393Y-66167133D01*
X125646098Y-66181747D01*
X125664277Y-66198223D01*
X125680753Y-66216402D01*
X125695367Y-66236107D01*
X125707980Y-66257151D01*
X125718470Y-66279329D01*
X125726735Y-66302429D01*
X125732696Y-66326227D01*
X125736296Y-66350496D01*
X125737500Y-66375000D01*
X125737500Y-67625000D01*
X125736296Y-67649504D01*
X125732696Y-67673773D01*
X125726735Y-67697571D01*
X125718470Y-67720671D01*
X125707980Y-67742849D01*
X125695367Y-67763893D01*
X125680753Y-67783598D01*
X125664277Y-67801777D01*
X125646098Y-67818253D01*
X125626393Y-67832867D01*
X125605349Y-67845480D01*
X125583171Y-67855970D01*
X125560071Y-67864235D01*
X125536273Y-67870196D01*
X125512004Y-67873796D01*
X125487500Y-67875000D01*
X124562500Y-67875000D01*
X124537996Y-67873796D01*
X124513727Y-67870196D01*
X124489929Y-67864235D01*
X124466829Y-67855970D01*
X124444651Y-67845480D01*
X124423607Y-67832867D01*
X124403902Y-67818253D01*
X124385723Y-67801777D01*
X124369247Y-67783598D01*
X124354633Y-67763893D01*
X124342020Y-67742849D01*
X124331530Y-67720671D01*
X124323265Y-67697571D01*
X124317304Y-67673773D01*
X124313704Y-67649504D01*
X124312500Y-67625000D01*
X124312500Y-66375000D01*
X124313704Y-66350496D01*
X124317304Y-66326227D01*
X124323265Y-66302429D01*
X124331530Y-66279329D01*
X124342020Y-66257151D01*
X124354633Y-66236107D01*
X124369247Y-66216402D01*
X124385723Y-66198223D01*
X124403902Y-66181747D01*
X124423607Y-66167133D01*
X124444651Y-66154520D01*
X124466829Y-66144030D01*
X124489929Y-66135765D01*
X124513727Y-66129804D01*
X124537996Y-66126204D01*
X124562500Y-66125000D01*
X125487500Y-66125000D01*
X125512004Y-66126204D01*
G37*
G36*
X128487004Y-66126204D02*
G01*
X128511273Y-66129804D01*
X128535071Y-66135765D01*
X128558171Y-66144030D01*
X128580349Y-66154520D01*
X128601393Y-66167133D01*
X128621098Y-66181747D01*
X128639277Y-66198223D01*
X128655753Y-66216402D01*
X128670367Y-66236107D01*
X128682980Y-66257151D01*
X128693470Y-66279329D01*
X128701735Y-66302429D01*
X128707696Y-66326227D01*
X128711296Y-66350496D01*
X128712500Y-66375000D01*
X128712500Y-67625000D01*
X128711296Y-67649504D01*
X128707696Y-67673773D01*
X128701735Y-67697571D01*
X128693470Y-67720671D01*
X128682980Y-67742849D01*
X128670367Y-67763893D01*
X128655753Y-67783598D01*
X128639277Y-67801777D01*
X128621098Y-67818253D01*
X128601393Y-67832867D01*
X128580349Y-67845480D01*
X128558171Y-67855970D01*
X128535071Y-67864235D01*
X128511273Y-67870196D01*
X128487004Y-67873796D01*
X128462500Y-67875000D01*
X127537500Y-67875000D01*
X127512996Y-67873796D01*
X127488727Y-67870196D01*
X127464929Y-67864235D01*
X127441829Y-67855970D01*
X127419651Y-67845480D01*
X127398607Y-67832867D01*
X127378902Y-67818253D01*
X127360723Y-67801777D01*
X127344247Y-67783598D01*
X127329633Y-67763893D01*
X127317020Y-67742849D01*
X127306530Y-67720671D01*
X127298265Y-67697571D01*
X127292304Y-67673773D01*
X127288704Y-67649504D01*
X127287500Y-67625000D01*
X127287500Y-66375000D01*
X127288704Y-66350496D01*
X127292304Y-66326227D01*
X127298265Y-66302429D01*
X127306530Y-66279329D01*
X127317020Y-66257151D01*
X127329633Y-66236107D01*
X127344247Y-66216402D01*
X127360723Y-66198223D01*
X127378902Y-66181747D01*
X127398607Y-66167133D01*
X127419651Y-66154520D01*
X127441829Y-66144030D01*
X127464929Y-66135765D01*
X127488727Y-66129804D01*
X127512996Y-66126204D01*
X127537500Y-66125000D01*
X128462500Y-66125000D01*
X128487004Y-66126204D01*
G37*
G36*
X124487004Y-79126204D02*
G01*
X124511273Y-79129804D01*
X124535071Y-79135765D01*
X124558171Y-79144030D01*
X124580349Y-79154520D01*
X124601393Y-79167133D01*
X124621098Y-79181747D01*
X124639277Y-79198223D01*
X124655753Y-79216402D01*
X124670367Y-79236107D01*
X124682980Y-79257151D01*
X124693470Y-79279329D01*
X124701735Y-79302429D01*
X124707696Y-79326227D01*
X124711296Y-79350496D01*
X124712500Y-79375000D01*
X124712500Y-80625000D01*
X124711296Y-80649504D01*
X124707696Y-80673773D01*
X124701735Y-80697571D01*
X124693470Y-80720671D01*
X124682980Y-80742849D01*
X124670367Y-80763893D01*
X124655753Y-80783598D01*
X124639277Y-80801777D01*
X124621098Y-80818253D01*
X124601393Y-80832867D01*
X124580349Y-80845480D01*
X124558171Y-80855970D01*
X124535071Y-80864235D01*
X124511273Y-80870196D01*
X124487004Y-80873796D01*
X124462500Y-80875000D01*
X123537500Y-80875000D01*
X123512996Y-80873796D01*
X123488727Y-80870196D01*
X123464929Y-80864235D01*
X123441829Y-80855970D01*
X123419651Y-80845480D01*
X123398607Y-80832867D01*
X123378902Y-80818253D01*
X123360723Y-80801777D01*
X123344247Y-80783598D01*
X123329633Y-80763893D01*
X123317020Y-80742849D01*
X123306530Y-80720671D01*
X123298265Y-80697571D01*
X123292304Y-80673773D01*
X123288704Y-80649504D01*
X123287500Y-80625000D01*
X123287500Y-79375000D01*
X123288704Y-79350496D01*
X123292304Y-79326227D01*
X123298265Y-79302429D01*
X123306530Y-79279329D01*
X123317020Y-79257151D01*
X123329633Y-79236107D01*
X123344247Y-79216402D01*
X123360723Y-79198223D01*
X123378902Y-79181747D01*
X123398607Y-79167133D01*
X123419651Y-79154520D01*
X123441829Y-79144030D01*
X123464929Y-79135765D01*
X123488727Y-79129804D01*
X123512996Y-79126204D01*
X123537500Y-79125000D01*
X124462500Y-79125000D01*
X124487004Y-79126204D01*
G37*
G36*
X127462004Y-79126204D02*
G01*
X127486273Y-79129804D01*
X127510071Y-79135765D01*
X127533171Y-79144030D01*
X127555349Y-79154520D01*
X127576393Y-79167133D01*
X127596098Y-79181747D01*
X127614277Y-79198223D01*
X127630753Y-79216402D01*
X127645367Y-79236107D01*
X127657980Y-79257151D01*
X127668470Y-79279329D01*
X127676735Y-79302429D01*
X127682696Y-79326227D01*
X127686296Y-79350496D01*
X127687500Y-79375000D01*
X127687500Y-80625000D01*
X127686296Y-80649504D01*
X127682696Y-80673773D01*
X127676735Y-80697571D01*
X127668470Y-80720671D01*
X127657980Y-80742849D01*
X127645367Y-80763893D01*
X127630753Y-80783598D01*
X127614277Y-80801777D01*
X127596098Y-80818253D01*
X127576393Y-80832867D01*
X127555349Y-80845480D01*
X127533171Y-80855970D01*
X127510071Y-80864235D01*
X127486273Y-80870196D01*
X127462004Y-80873796D01*
X127437500Y-80875000D01*
X126512500Y-80875000D01*
X126487996Y-80873796D01*
X126463727Y-80870196D01*
X126439929Y-80864235D01*
X126416829Y-80855970D01*
X126394651Y-80845480D01*
X126373607Y-80832867D01*
X126353902Y-80818253D01*
X126335723Y-80801777D01*
X126319247Y-80783598D01*
X126304633Y-80763893D01*
X126292020Y-80742849D01*
X126281530Y-80720671D01*
X126273265Y-80697571D01*
X126267304Y-80673773D01*
X126263704Y-80649504D01*
X126262500Y-80625000D01*
X126262500Y-79375000D01*
X126263704Y-79350496D01*
X126267304Y-79326227D01*
X126273265Y-79302429D01*
X126281530Y-79279329D01*
X126292020Y-79257151D01*
X126304633Y-79236107D01*
X126319247Y-79216402D01*
X126335723Y-79198223D01*
X126353902Y-79181747D01*
X126373607Y-79167133D01*
X126394651Y-79154520D01*
X126416829Y-79144030D01*
X126439929Y-79135765D01*
X126463727Y-79129804D01*
X126487996Y-79126204D01*
X126512500Y-79125000D01*
X127437500Y-79125000D01*
X127462004Y-79126204D01*
G37*
D11*
X71000000Y-127500000D03*
X70050000Y-124500000D03*
X71950000Y-124500000D03*
X75000000Y-124500000D03*
X75950000Y-127500000D03*
X74050000Y-127500000D03*
M02*
