G04 #@! TF.GenerationSoftware,KiCad,Pcbnew,(5.1.5)-3*
G04 #@! TF.CreationDate,2020-06-20T22:53:26+02:00*
G04 #@! TF.ProjectId,Tester,54657374-6572-42e6-9b69-6361645f7063,rev?*
G04 #@! TF.SameCoordinates,Original*
G04 #@! TF.FileFunction,Legend,Top*
G04 #@! TF.FilePolarity,Positive*
%FSLAX46Y46*%
G04 Gerber Fmt 4.6, Leading zero omitted, Abs format (unit mm)*
G04 Created by KiCad (PCBNEW (5.1.5)-3) date 2020-06-20 22:53:26*
%MOMM*%
%LPD*%
G04 APERTURE LIST*
%ADD10C,0.120000*%
%ADD11C,0.150000*%
G04 APERTURE END LIST*
D10*
X139879000Y-60430000D02*
X149420000Y-60430000D01*
X139879000Y-77570000D02*
X149420000Y-77570000D01*
X139879000Y-60430000D02*
X139879000Y-77570000D01*
X149420000Y-60430000D02*
X149420000Y-77570000D01*
X149420000Y-65380000D02*
X155420000Y-65380000D01*
X149420000Y-72620000D02*
X155420000Y-72620000D01*
X149420000Y-65380000D02*
X149420000Y-72620000D01*
X155420000Y-65380000D02*
X155420000Y-72620000D01*
X155420000Y-66880000D02*
X199420000Y-66880000D01*
X155420000Y-71120000D02*
X199420000Y-71120000D01*
X155420000Y-66880000D02*
X155420000Y-71120000D01*
X199420000Y-66880000D02*
X199420000Y-71120000D01*
X137730000Y-97550000D02*
X140270000Y-97550000D01*
X149660000Y-100850000D02*
X147400000Y-100850000D01*
X149660000Y-98570000D02*
X147800000Y-98570000D01*
X149660000Y-121670000D02*
X149660000Y-98570000D01*
X104160000Y-121670000D02*
X149660000Y-121670000D01*
X104160000Y-98570000D02*
X104160000Y-121670000D01*
X142900000Y-98570000D02*
X104160000Y-98570000D01*
X146250000Y-99300000D02*
G75*
G03X146250000Y-99300000I-900000J0D01*
G01*
X147900000Y-99300000D02*
G75*
G03X147900000Y-99300000I-2550000J0D01*
G01*
X149860000Y-95860000D02*
X149860000Y-94860000D01*
X148620000Y-95860000D02*
X149860000Y-95860000D01*
X135850000Y-81000000D02*
X138349000Y-81000000D01*
X135850000Y-82000000D02*
X138349000Y-82000000D01*
X138349000Y-82000000D02*
X138349000Y-81000000D01*
X135850000Y-82000000D02*
X135850000Y-81000000D01*
X143200000Y-79500000D02*
X144200000Y-79500000D01*
X143200000Y-83500000D02*
X144200000Y-83500000D01*
X144200000Y-80770000D02*
X144200000Y-79500000D01*
X144200000Y-83500000D02*
X144200000Y-83230000D01*
X143200000Y-83500000D02*
X143200000Y-79500000D01*
X135500000Y-79000000D02*
X149500000Y-79000000D01*
X135500000Y-84000000D02*
X149500000Y-84000000D01*
X149500000Y-84000000D02*
X149500000Y-79000000D01*
X135500000Y-84000000D02*
X135500000Y-79000000D01*
X144900000Y-79500000D02*
X148200000Y-79500000D01*
X144900000Y-83500000D02*
X148200000Y-83500000D01*
X148200000Y-83500000D02*
X148200000Y-79500000D01*
X144900000Y-80770000D02*
X144900000Y-79500000D01*
X144900000Y-83500000D02*
X144900000Y-83230000D01*
X135850000Y-86000000D02*
X138349000Y-86000000D01*
X135850000Y-87000000D02*
X138349000Y-87000000D01*
X138349000Y-87000000D02*
X138349000Y-86000000D01*
X135850000Y-87000000D02*
X135850000Y-86000000D01*
X143200000Y-84500000D02*
X144200000Y-84500000D01*
X143200000Y-88500000D02*
X144200000Y-88500000D01*
X144200000Y-85770000D02*
X144200000Y-84500000D01*
X144200000Y-88500000D02*
X144200000Y-88230000D01*
X143200000Y-88500000D02*
X143200000Y-84500000D01*
X135500000Y-84000000D02*
X149500000Y-84000000D01*
X135500000Y-89000000D02*
X149500000Y-89000000D01*
X149500000Y-89000000D02*
X149500000Y-84000000D01*
X135500000Y-89000000D02*
X135500000Y-84000000D01*
X144900000Y-84500000D02*
X148200000Y-84500000D01*
X144900000Y-88500000D02*
X148200000Y-88500000D01*
X148200000Y-88500000D02*
X148200000Y-84500000D01*
X144900000Y-85770000D02*
X144900000Y-84500000D01*
X144900000Y-88500000D02*
X144900000Y-88230000D01*
X135850000Y-91000000D02*
X138349000Y-91000000D01*
X135850000Y-92000000D02*
X138349000Y-92000000D01*
X138349000Y-92000000D02*
X138349000Y-91000000D01*
X135850000Y-92000000D02*
X135850000Y-91000000D01*
X143200000Y-89500000D02*
X144200000Y-89500000D01*
X143200000Y-93500000D02*
X144200000Y-93500000D01*
X144200000Y-90770000D02*
X144200000Y-89500000D01*
X144200000Y-93500000D02*
X144200000Y-93230000D01*
X143200000Y-93500000D02*
X143200000Y-89500000D01*
X135500000Y-89000000D02*
X149500000Y-89000000D01*
X135500000Y-94000000D02*
X149500000Y-94000000D01*
X149500000Y-94000000D02*
X149500000Y-89000000D01*
X135500000Y-94000000D02*
X135500000Y-89000000D01*
X144900000Y-89500000D02*
X148200000Y-89500000D01*
X144900000Y-93500000D02*
X148200000Y-93500000D01*
X148200000Y-93500000D02*
X148200000Y-89500000D01*
X144900000Y-90770000D02*
X144900000Y-89500000D01*
X144900000Y-93500000D02*
X144900000Y-93230000D01*
X135380000Y-78080000D02*
X149620000Y-78080000D01*
X135380000Y-95620000D02*
X149620000Y-95620000D01*
X149620000Y-95620000D02*
X149620000Y-78080000D01*
X135380000Y-95620000D02*
X135380000Y-78080000D01*
X140000000Y-80770000D02*
X140000000Y-78080000D01*
X140000000Y-85770000D02*
X140000000Y-83230000D01*
X140000000Y-90770000D02*
X140000000Y-88230000D01*
X140000000Y-95620000D02*
X140000000Y-93230000D01*
X142800000Y-95620000D02*
X142800000Y-78080000D01*
X148500000Y-95620000D02*
X148500000Y-78080000D01*
X149860000Y-141860000D02*
X149860000Y-140860000D01*
X148620000Y-141860000D02*
X149860000Y-141860000D01*
X135850000Y-127000000D02*
X138349000Y-127000000D01*
X135850000Y-128000000D02*
X138349000Y-128000000D01*
X138349000Y-128000000D02*
X138349000Y-127000000D01*
X135850000Y-128000000D02*
X135850000Y-127000000D01*
X143200000Y-125500000D02*
X144200000Y-125500000D01*
X143200000Y-129500000D02*
X144200000Y-129500000D01*
X144200000Y-126770000D02*
X144200000Y-125500000D01*
X144200000Y-129500000D02*
X144200000Y-129230000D01*
X143200000Y-129500000D02*
X143200000Y-125500000D01*
X135500000Y-125000000D02*
X149500000Y-125000000D01*
X135500000Y-130000000D02*
X149500000Y-130000000D01*
X149500000Y-130000000D02*
X149500000Y-125000000D01*
X135500000Y-130000000D02*
X135500000Y-125000000D01*
X144900000Y-125500000D02*
X148200000Y-125500000D01*
X144900000Y-129500000D02*
X148200000Y-129500000D01*
X148200000Y-129500000D02*
X148200000Y-125500000D01*
X144900000Y-126770000D02*
X144900000Y-125500000D01*
X144900000Y-129500000D02*
X144900000Y-129230000D01*
X135850000Y-132000000D02*
X138349000Y-132000000D01*
X135850000Y-133000000D02*
X138349000Y-133000000D01*
X138349000Y-133000000D02*
X138349000Y-132000000D01*
X135850000Y-133000000D02*
X135850000Y-132000000D01*
X143200000Y-130500000D02*
X144200000Y-130500000D01*
X143200000Y-134500000D02*
X144200000Y-134500000D01*
X144200000Y-131770000D02*
X144200000Y-130500000D01*
X144200000Y-134500000D02*
X144200000Y-134230000D01*
X143200000Y-134500000D02*
X143200000Y-130500000D01*
X135500000Y-130000000D02*
X149500000Y-130000000D01*
X135500000Y-135000000D02*
X149500000Y-135000000D01*
X149500000Y-135000000D02*
X149500000Y-130000000D01*
X135500000Y-135000000D02*
X135500000Y-130000000D01*
X144900000Y-130500000D02*
X148200000Y-130500000D01*
X144900000Y-134500000D02*
X148200000Y-134500000D01*
X148200000Y-134500000D02*
X148200000Y-130500000D01*
X144900000Y-131770000D02*
X144900000Y-130500000D01*
X144900000Y-134500000D02*
X144900000Y-134230000D01*
X135850000Y-137000000D02*
X138349000Y-137000000D01*
X135850000Y-138000000D02*
X138349000Y-138000000D01*
X138349000Y-138000000D02*
X138349000Y-137000000D01*
X135850000Y-138000000D02*
X135850000Y-137000000D01*
X143200000Y-135500000D02*
X144200000Y-135500000D01*
X143200000Y-139500000D02*
X144200000Y-139500000D01*
X144200000Y-136770000D02*
X144200000Y-135500000D01*
X144200000Y-139500000D02*
X144200000Y-139230000D01*
X143200000Y-139500000D02*
X143200000Y-135500000D01*
X135500000Y-135000000D02*
X149500000Y-135000000D01*
X135500000Y-140000000D02*
X149500000Y-140000000D01*
X149500000Y-140000000D02*
X149500000Y-135000000D01*
X135500000Y-140000000D02*
X135500000Y-135000000D01*
X144900000Y-135500000D02*
X148200000Y-135500000D01*
X144900000Y-139500000D02*
X148200000Y-139500000D01*
X148200000Y-139500000D02*
X148200000Y-135500000D01*
X144900000Y-136770000D02*
X144900000Y-135500000D01*
X144900000Y-139500000D02*
X144900000Y-139230000D01*
X135380000Y-124080000D02*
X149620000Y-124080000D01*
X135380000Y-141620000D02*
X149620000Y-141620000D01*
X149620000Y-141620000D02*
X149620000Y-124080000D01*
X135380000Y-141620000D02*
X135380000Y-124080000D01*
X140000000Y-126770000D02*
X140000000Y-124080000D01*
X140000000Y-131770000D02*
X140000000Y-129230000D01*
X140000000Y-136770000D02*
X140000000Y-134230000D01*
X140000000Y-141620000D02*
X140000000Y-139230000D01*
X142800000Y-141620000D02*
X142800000Y-124080000D01*
X148500000Y-141620000D02*
X148500000Y-124080000D01*
X109500000Y-158250000D02*
X99600000Y-158250000D01*
X109500000Y-151750000D02*
X99600000Y-151750000D01*
X109500000Y-151750000D02*
X109500000Y-158250000D01*
X100300000Y-60750000D02*
X110200000Y-60750000D01*
X100300000Y-67250000D02*
X110200000Y-67250000D01*
X100300000Y-67250000D02*
X100300000Y-60750000D01*
X89600000Y-150000000D02*
X92400000Y-150000000D01*
X92400000Y-150000000D02*
X92400000Y-152000000D01*
X92400000Y-152000000D02*
X89600000Y-152000000D01*
X89600000Y-152000000D02*
X89600000Y-150000000D01*
X90600000Y-68000000D02*
X93400000Y-68000000D01*
X93400000Y-68000000D02*
X93400000Y-70000000D01*
X93400000Y-70000000D02*
X90600000Y-70000000D01*
X90600000Y-70000000D02*
X90600000Y-68000000D01*
X139879000Y-142430000D02*
X149420000Y-142430000D01*
X139879000Y-159570000D02*
X149420000Y-159570000D01*
X139879000Y-142430000D02*
X139879000Y-159570000D01*
X149420000Y-142430000D02*
X149420000Y-159570000D01*
X149420000Y-147380000D02*
X155420000Y-147380000D01*
X149420000Y-154620000D02*
X155420000Y-154620000D01*
X149420000Y-147380000D02*
X149420000Y-154620000D01*
X155420000Y-147380000D02*
X155420000Y-154620000D01*
X155420000Y-148880000D02*
X199420000Y-148880000D01*
X155420000Y-153120000D02*
X199420000Y-153120000D01*
X155420000Y-148880000D02*
X155420000Y-153120000D01*
X199420000Y-148880000D02*
X199420000Y-153120000D01*
X90947936Y-157710000D02*
X95052064Y-157710000D01*
X90947936Y-154290000D02*
X95052064Y-154290000D01*
X91947936Y-65710000D02*
X96052064Y-65710000D01*
X91947936Y-62290000D02*
X96052064Y-62290000D01*
X75935436Y-87710000D02*
X80039564Y-87710000D01*
X75935436Y-84290000D02*
X80039564Y-84290000D01*
X75935436Y-133710000D02*
X80039564Y-133710000D01*
X75935436Y-130290000D02*
X80039564Y-130290000D01*
X87750000Y-158750000D02*
X68750000Y-158750000D01*
X68750000Y-158750000D02*
X68750000Y-137250000D01*
X68750000Y-137250000D02*
X87750000Y-137250000D01*
X87750000Y-137250000D02*
X87750000Y-158750000D01*
X87750000Y-81750000D02*
X68750000Y-81750000D01*
X68750000Y-81750000D02*
X68750000Y-60250000D01*
X68750000Y-60250000D02*
X87750000Y-60250000D01*
X87750000Y-60250000D02*
X87750000Y-81750000D01*
X94480803Y-109824999D02*
G75*
G03X94480803Y-109824999I-13215000J0D01*
G01*
X117215000Y-137000000D02*
G75*
G03X117215000Y-137000000I-13215000J0D01*
G01*
X117215000Y-82000000D02*
G75*
G03X117215000Y-82000000I-13215000J0D01*
G01*
X71397936Y-92910000D02*
X72602064Y-92910000D01*
X71397936Y-91090000D02*
X72602064Y-91090000D01*
X77910436Y-92910000D02*
X79114564Y-92910000D01*
X77910436Y-91090000D02*
X79114564Y-91090000D01*
X126089564Y-130090000D02*
X124885436Y-130090000D01*
X126089564Y-131910000D02*
X124885436Y-131910000D01*
X121089564Y-66090000D02*
X119885436Y-66090000D01*
X121089564Y-67910000D02*
X119885436Y-67910000D01*
X132089564Y-126090000D02*
X130885436Y-126090000D01*
X132089564Y-127910000D02*
X130885436Y-127910000D01*
X126089564Y-126090000D02*
X124885436Y-126090000D01*
X126089564Y-127910000D02*
X124885436Y-127910000D01*
X126089564Y-134090000D02*
X124885436Y-134090000D01*
X126089564Y-135910000D02*
X124885436Y-135910000D01*
X126089564Y-138090000D02*
X124885436Y-138090000D01*
X126089564Y-139910000D02*
X124885436Y-139910000D01*
X132089564Y-138090000D02*
X130885436Y-138090000D01*
X132089564Y-139910000D02*
X130885436Y-139910000D01*
X118589564Y-152090000D02*
X117385436Y-152090000D01*
X118589564Y-153910000D02*
X117385436Y-153910000D01*
X124589564Y-156090000D02*
X123385436Y-156090000D01*
X124589564Y-157910000D02*
X123385436Y-157910000D01*
X118589564Y-156090000D02*
X117385436Y-156090000D01*
X118589564Y-157910000D02*
X117385436Y-157910000D01*
X132114564Y-91090000D02*
X130910436Y-91090000D01*
X132114564Y-92910000D02*
X130910436Y-92910000D01*
X126089564Y-91090000D02*
X124885436Y-91090000D01*
X126089564Y-92910000D02*
X124885436Y-92910000D01*
X126089564Y-87090000D02*
X124885436Y-87090000D01*
X126089564Y-88910000D02*
X124885436Y-88910000D01*
X132089564Y-83090000D02*
X130885436Y-83090000D01*
X132089564Y-84910000D02*
X130885436Y-84910000D01*
X126089564Y-83090000D02*
X124885436Y-83090000D01*
X126089564Y-84910000D02*
X124885436Y-84910000D01*
X127089564Y-62090000D02*
X125885436Y-62090000D01*
X127089564Y-63910000D02*
X125885436Y-63910000D01*
X121089564Y-62090000D02*
X119885436Y-62090000D01*
X121089564Y-63910000D02*
X119885436Y-63910000D01*
X132089564Y-130090000D02*
X130885436Y-130090000D01*
X132089564Y-131910000D02*
X130885436Y-131910000D01*
X127114564Y-66090000D02*
X125910436Y-66090000D01*
X127114564Y-67910000D02*
X125910436Y-67910000D01*
X126089564Y-79090000D02*
X124885436Y-79090000D01*
X126089564Y-80910000D02*
X124885436Y-80910000D01*
X50500000Y-120000000D02*
X51500000Y-119000000D01*
X50500000Y-120000000D02*
X51500000Y-121000000D01*
X65300000Y-127500000D02*
X50300000Y-127500000D01*
X65300000Y-112500000D02*
X65300000Y-127500000D01*
X50300000Y-112500000D02*
X65300000Y-112500000D01*
X50300000Y-127500000D02*
X50300000Y-112500000D01*
X50580000Y-135920000D02*
X51580000Y-134920000D01*
X50580000Y-135920000D02*
X51580000Y-136920000D01*
X65380000Y-143420000D02*
X50380000Y-143420000D01*
X65380000Y-128420000D02*
X65380000Y-143420000D01*
X50380000Y-128420000D02*
X65380000Y-128420000D01*
X50380000Y-143420000D02*
X50380000Y-128420000D01*
X50500000Y-84000000D02*
X51500000Y-83000000D01*
X50500000Y-84000000D02*
X51500000Y-85000000D01*
X65300000Y-91500000D02*
X50300000Y-91500000D01*
X65300000Y-76500000D02*
X65300000Y-91500000D01*
X50300000Y-76500000D02*
X65300000Y-76500000D01*
X50300000Y-91500000D02*
X50300000Y-76500000D01*
X50500000Y-100000000D02*
X51500000Y-99000000D01*
X50500000Y-100000000D02*
X51500000Y-101000000D01*
X65300000Y-107500000D02*
X50300000Y-107500000D01*
X65300000Y-92500000D02*
X65300000Y-107500000D01*
X50300000Y-92500000D02*
X65300000Y-92500000D01*
X50300000Y-107500000D02*
X50300000Y-92500000D01*
X50500000Y-152000000D02*
X51500000Y-151000000D01*
X50500000Y-152000000D02*
X51500000Y-153000000D01*
X65300000Y-159500000D02*
X50300000Y-159500000D01*
X65300000Y-144500000D02*
X65300000Y-159500000D01*
X50300000Y-144500000D02*
X65300000Y-144500000D01*
X50300000Y-159500000D02*
X50300000Y-144500000D01*
X50500000Y-68000000D02*
X51500000Y-67000000D01*
X50500000Y-68000000D02*
X51500000Y-69000000D01*
X65300000Y-75500000D02*
X50300000Y-75500000D01*
X65300000Y-60500000D02*
X65300000Y-75500000D01*
X50300000Y-60500000D02*
X65300000Y-60500000D01*
X50300000Y-75500000D02*
X50300000Y-60500000D01*
X69420000Y-126760000D02*
X69420000Y-125300000D01*
X72580000Y-126760000D02*
X72580000Y-123600000D01*
X72580000Y-126760000D02*
X71650000Y-126760000D01*
X69420000Y-126760000D02*
X70350000Y-126760000D01*
X76580000Y-125240000D02*
X76580000Y-126700000D01*
X73420000Y-125240000D02*
X73420000Y-128400000D01*
X73420000Y-125240000D02*
X74350000Y-125240000D01*
X76580000Y-125240000D02*
X75650000Y-125240000D01*
D11*
X135904761Y-70452380D02*
X135571428Y-69976190D01*
X135333333Y-70452380D02*
X135333333Y-69452380D01*
X135714285Y-69452380D01*
X135809523Y-69500000D01*
X135857142Y-69547619D01*
X135904761Y-69642857D01*
X135904761Y-69785714D01*
X135857142Y-69880952D01*
X135809523Y-69928571D01*
X135714285Y-69976190D01*
X135333333Y-69976190D01*
X136190476Y-69452380D02*
X136523809Y-70452380D01*
X136857142Y-69452380D01*
X137142857Y-69547619D02*
X137190476Y-69500000D01*
X137285714Y-69452380D01*
X137523809Y-69452380D01*
X137619047Y-69500000D01*
X137666666Y-69547619D01*
X137714285Y-69642857D01*
X137714285Y-69738095D01*
X137666666Y-69880952D01*
X137095238Y-70452380D01*
X137714285Y-70452380D01*
X150012380Y-110453333D02*
X150726666Y-110453333D01*
X150869523Y-110500952D01*
X150964761Y-110596190D01*
X151012380Y-110739047D01*
X151012380Y-110834285D01*
X150012380Y-110072380D02*
X150012380Y-109405714D01*
X151012380Y-109834285D01*
X133832380Y-87183333D02*
X134546666Y-87183333D01*
X134689523Y-87230952D01*
X134784761Y-87326190D01*
X134832380Y-87469047D01*
X134832380Y-87564285D01*
X134832380Y-86659523D02*
X134832380Y-86469047D01*
X134784761Y-86373809D01*
X134737142Y-86326190D01*
X134594285Y-86230952D01*
X134403809Y-86183333D01*
X134022857Y-86183333D01*
X133927619Y-86230952D01*
X133880000Y-86278571D01*
X133832380Y-86373809D01*
X133832380Y-86564285D01*
X133880000Y-86659523D01*
X133927619Y-86707142D01*
X134022857Y-86754761D01*
X134260952Y-86754761D01*
X134356190Y-86707142D01*
X134403809Y-86659523D01*
X134451428Y-86564285D01*
X134451428Y-86373809D01*
X134403809Y-86278571D01*
X134356190Y-86230952D01*
X134260952Y-86183333D01*
X133832380Y-133183333D02*
X134546666Y-133183333D01*
X134689523Y-133230952D01*
X134784761Y-133326190D01*
X134832380Y-133469047D01*
X134832380Y-133564285D01*
X134260952Y-132564285D02*
X134213333Y-132659523D01*
X134165714Y-132707142D01*
X134070476Y-132754761D01*
X134022857Y-132754761D01*
X133927619Y-132707142D01*
X133880000Y-132659523D01*
X133832380Y-132564285D01*
X133832380Y-132373809D01*
X133880000Y-132278571D01*
X133927619Y-132230952D01*
X134022857Y-132183333D01*
X134070476Y-132183333D01*
X134165714Y-132230952D01*
X134213333Y-132278571D01*
X134260952Y-132373809D01*
X134260952Y-132564285D01*
X134308571Y-132659523D01*
X134356190Y-132707142D01*
X134451428Y-132754761D01*
X134641904Y-132754761D01*
X134737142Y-132707142D01*
X134784761Y-132659523D01*
X134832380Y-132564285D01*
X134832380Y-132373809D01*
X134784761Y-132278571D01*
X134737142Y-132230952D01*
X134641904Y-132183333D01*
X134451428Y-132183333D01*
X134356190Y-132230952D01*
X134308571Y-132278571D01*
X134260952Y-132373809D01*
X103261904Y-159552380D02*
X103261904Y-158552380D01*
X103500000Y-158552380D01*
X103642857Y-158600000D01*
X103738095Y-158695238D01*
X103785714Y-158790476D01*
X103833333Y-158980952D01*
X103833333Y-159123809D01*
X103785714Y-159314285D01*
X103738095Y-159409523D01*
X103642857Y-159504761D01*
X103500000Y-159552380D01*
X103261904Y-159552380D01*
X104690476Y-158885714D02*
X104690476Y-159552380D01*
X104452380Y-158504761D02*
X104214285Y-159219047D01*
X104833333Y-159219047D01*
X112261904Y-61952380D02*
X112261904Y-60952380D01*
X112500000Y-60952380D01*
X112642857Y-61000000D01*
X112738095Y-61095238D01*
X112785714Y-61190476D01*
X112833333Y-61380952D01*
X112833333Y-61523809D01*
X112785714Y-61714285D01*
X112738095Y-61809523D01*
X112642857Y-61904761D01*
X112500000Y-61952380D01*
X112261904Y-61952380D01*
X113166666Y-60952380D02*
X113785714Y-60952380D01*
X113452380Y-61333333D01*
X113595238Y-61333333D01*
X113690476Y-61380952D01*
X113738095Y-61428571D01*
X113785714Y-61523809D01*
X113785714Y-61761904D01*
X113738095Y-61857142D01*
X113690476Y-61904761D01*
X113595238Y-61952380D01*
X113309523Y-61952380D01*
X113214285Y-61904761D01*
X113166666Y-61857142D01*
X90166666Y-148652380D02*
X90166666Y-149366666D01*
X90119047Y-149509523D01*
X90023809Y-149604761D01*
X89880952Y-149652380D01*
X89785714Y-149652380D01*
X90642857Y-149652380D02*
X90642857Y-148652380D01*
X91023809Y-148652380D01*
X91119047Y-148700000D01*
X91166666Y-148747619D01*
X91214285Y-148842857D01*
X91214285Y-148985714D01*
X91166666Y-149080952D01*
X91119047Y-149128571D01*
X91023809Y-149176190D01*
X90642857Y-149176190D01*
X91595238Y-148747619D02*
X91642857Y-148700000D01*
X91738095Y-148652380D01*
X91976190Y-148652380D01*
X92071428Y-148700000D01*
X92119047Y-148747619D01*
X92166666Y-148842857D01*
X92166666Y-148938095D01*
X92119047Y-149080952D01*
X91547619Y-149652380D01*
X92166666Y-149652380D01*
X91166666Y-66652380D02*
X91166666Y-67366666D01*
X91119047Y-67509523D01*
X91023809Y-67604761D01*
X90880952Y-67652380D01*
X90785714Y-67652380D01*
X91642857Y-67652380D02*
X91642857Y-66652380D01*
X92023809Y-66652380D01*
X92119047Y-66700000D01*
X92166666Y-66747619D01*
X92214285Y-66842857D01*
X92214285Y-66985714D01*
X92166666Y-67080952D01*
X92119047Y-67128571D01*
X92023809Y-67176190D01*
X91642857Y-67176190D01*
X93166666Y-67652380D02*
X92595238Y-67652380D01*
X92880952Y-67652380D02*
X92880952Y-66652380D01*
X92785714Y-66795238D01*
X92690476Y-66890476D01*
X92595238Y-66938095D01*
X135904761Y-150452380D02*
X135571428Y-149976190D01*
X135333333Y-150452380D02*
X135333333Y-149452380D01*
X135714285Y-149452380D01*
X135809523Y-149500000D01*
X135857142Y-149547619D01*
X135904761Y-149642857D01*
X135904761Y-149785714D01*
X135857142Y-149880952D01*
X135809523Y-149928571D01*
X135714285Y-149976190D01*
X135333333Y-149976190D01*
X136190476Y-149452380D02*
X136523809Y-150452380D01*
X136857142Y-149452380D01*
X137714285Y-150452380D02*
X137142857Y-150452380D01*
X137428571Y-150452380D02*
X137428571Y-149452380D01*
X137333333Y-149595238D01*
X137238095Y-149690476D01*
X137142857Y-149738095D01*
X92357142Y-153832380D02*
X92023809Y-153356190D01*
X91785714Y-153832380D02*
X91785714Y-152832380D01*
X92166666Y-152832380D01*
X92261904Y-152880000D01*
X92309523Y-152927619D01*
X92357142Y-153022857D01*
X92357142Y-153165714D01*
X92309523Y-153260952D01*
X92261904Y-153308571D01*
X92166666Y-153356190D01*
X91785714Y-153356190D01*
X92738095Y-152927619D02*
X92785714Y-152880000D01*
X92880952Y-152832380D01*
X93119047Y-152832380D01*
X93214285Y-152880000D01*
X93261904Y-152927619D01*
X93309523Y-153022857D01*
X93309523Y-153118095D01*
X93261904Y-153260952D01*
X92690476Y-153832380D01*
X93309523Y-153832380D01*
X94166666Y-152832380D02*
X93976190Y-152832380D01*
X93880952Y-152880000D01*
X93833333Y-152927619D01*
X93738095Y-153070476D01*
X93690476Y-153260952D01*
X93690476Y-153641904D01*
X93738095Y-153737142D01*
X93785714Y-153784761D01*
X93880952Y-153832380D01*
X94071428Y-153832380D01*
X94166666Y-153784761D01*
X94214285Y-153737142D01*
X94261904Y-153641904D01*
X94261904Y-153403809D01*
X94214285Y-153308571D01*
X94166666Y-153260952D01*
X94071428Y-153213333D01*
X93880952Y-153213333D01*
X93785714Y-153260952D01*
X93738095Y-153308571D01*
X93690476Y-153403809D01*
X93357142Y-61832380D02*
X93023809Y-61356190D01*
X92785714Y-61832380D02*
X92785714Y-60832380D01*
X93166666Y-60832380D01*
X93261904Y-60880000D01*
X93309523Y-60927619D01*
X93357142Y-61022857D01*
X93357142Y-61165714D01*
X93309523Y-61260952D01*
X93261904Y-61308571D01*
X93166666Y-61356190D01*
X92785714Y-61356190D01*
X93738095Y-60927619D02*
X93785714Y-60880000D01*
X93880952Y-60832380D01*
X94119047Y-60832380D01*
X94214285Y-60880000D01*
X94261904Y-60927619D01*
X94309523Y-61022857D01*
X94309523Y-61118095D01*
X94261904Y-61260952D01*
X93690476Y-61832380D01*
X94309523Y-61832380D01*
X95214285Y-60832380D02*
X94738095Y-60832380D01*
X94690476Y-61308571D01*
X94738095Y-61260952D01*
X94833333Y-61213333D01*
X95071428Y-61213333D01*
X95166666Y-61260952D01*
X95214285Y-61308571D01*
X95261904Y-61403809D01*
X95261904Y-61641904D01*
X95214285Y-61737142D01*
X95166666Y-61784761D01*
X95071428Y-61832380D01*
X94833333Y-61832380D01*
X94738095Y-61784761D01*
X94690476Y-61737142D01*
X77344642Y-83832380D02*
X77011309Y-83356190D01*
X76773214Y-83832380D02*
X76773214Y-82832380D01*
X77154166Y-82832380D01*
X77249404Y-82880000D01*
X77297023Y-82927619D01*
X77344642Y-83022857D01*
X77344642Y-83165714D01*
X77297023Y-83260952D01*
X77249404Y-83308571D01*
X77154166Y-83356190D01*
X76773214Y-83356190D01*
X77725595Y-82927619D02*
X77773214Y-82880000D01*
X77868452Y-82832380D01*
X78106547Y-82832380D01*
X78201785Y-82880000D01*
X78249404Y-82927619D01*
X78297023Y-83022857D01*
X78297023Y-83118095D01*
X78249404Y-83260952D01*
X77677976Y-83832380D01*
X78297023Y-83832380D01*
X78630357Y-82832380D02*
X79249404Y-82832380D01*
X78916071Y-83213333D01*
X79058928Y-83213333D01*
X79154166Y-83260952D01*
X79201785Y-83308571D01*
X79249404Y-83403809D01*
X79249404Y-83641904D01*
X79201785Y-83737142D01*
X79154166Y-83784761D01*
X79058928Y-83832380D01*
X78773214Y-83832380D01*
X78677976Y-83784761D01*
X78630357Y-83737142D01*
X77344642Y-129832380D02*
X77011309Y-129356190D01*
X76773214Y-129832380D02*
X76773214Y-128832380D01*
X77154166Y-128832380D01*
X77249404Y-128880000D01*
X77297023Y-128927619D01*
X77344642Y-129022857D01*
X77344642Y-129165714D01*
X77297023Y-129260952D01*
X77249404Y-129308571D01*
X77154166Y-129356190D01*
X76773214Y-129356190D01*
X77725595Y-128927619D02*
X77773214Y-128880000D01*
X77868452Y-128832380D01*
X78106547Y-128832380D01*
X78201785Y-128880000D01*
X78249404Y-128927619D01*
X78297023Y-129022857D01*
X78297023Y-129118095D01*
X78249404Y-129260952D01*
X77677976Y-129832380D01*
X78297023Y-129832380D01*
X79154166Y-129165714D02*
X79154166Y-129832380D01*
X78916071Y-128784761D02*
X78677976Y-129499047D01*
X79297023Y-129499047D01*
X78738095Y-148452380D02*
X79309523Y-148452380D01*
X79023809Y-149452380D02*
X79023809Y-148452380D01*
X79595238Y-148547619D02*
X79642857Y-148500000D01*
X79738095Y-148452380D01*
X79976190Y-148452380D01*
X80071428Y-148500000D01*
X80119047Y-148547619D01*
X80166666Y-148642857D01*
X80166666Y-148738095D01*
X80119047Y-148880952D01*
X79547619Y-149452380D01*
X80166666Y-149452380D01*
X77238095Y-71452380D02*
X77809523Y-71452380D01*
X77523809Y-72452380D02*
X77523809Y-71452380D01*
X78666666Y-72452380D02*
X78095238Y-72452380D01*
X78380952Y-72452380D02*
X78380952Y-71452380D01*
X78285714Y-71595238D01*
X78190476Y-71690476D01*
X78095238Y-71738095D01*
X66780564Y-111158332D02*
X66828183Y-111015475D01*
X66828183Y-110777379D01*
X66780564Y-110682141D01*
X66732945Y-110634522D01*
X66637707Y-110586903D01*
X66542469Y-110586903D01*
X66447231Y-110634522D01*
X66399612Y-110682141D01*
X66351993Y-110777379D01*
X66304374Y-110967856D01*
X66256755Y-111063094D01*
X66209136Y-111110713D01*
X66113898Y-111158332D01*
X66018660Y-111158332D01*
X65923422Y-111110713D01*
X65875803Y-111063094D01*
X65828183Y-110967856D01*
X65828183Y-110729760D01*
X65875803Y-110586903D01*
X65828183Y-110253570D02*
X66828183Y-110015475D01*
X66113898Y-109824999D01*
X66828183Y-109634522D01*
X65828183Y-109396427D01*
X65828183Y-109110713D02*
X65828183Y-108491665D01*
X66209136Y-108824999D01*
X66209136Y-108682141D01*
X66256755Y-108586903D01*
X66304374Y-108539284D01*
X66399612Y-108491665D01*
X66637707Y-108491665D01*
X66732945Y-108539284D01*
X66780564Y-108586903D01*
X66828183Y-108682141D01*
X66828183Y-108967856D01*
X66780564Y-109063094D01*
X66732945Y-109110713D01*
X89514761Y-138333333D02*
X89562380Y-138190476D01*
X89562380Y-137952380D01*
X89514761Y-137857142D01*
X89467142Y-137809523D01*
X89371904Y-137761904D01*
X89276666Y-137761904D01*
X89181428Y-137809523D01*
X89133809Y-137857142D01*
X89086190Y-137952380D01*
X89038571Y-138142857D01*
X88990952Y-138238095D01*
X88943333Y-138285714D01*
X88848095Y-138333333D01*
X88752857Y-138333333D01*
X88657619Y-138285714D01*
X88610000Y-138238095D01*
X88562380Y-138142857D01*
X88562380Y-137904761D01*
X88610000Y-137761904D01*
X88562380Y-137428571D02*
X89562380Y-137190476D01*
X88848095Y-137000000D01*
X89562380Y-136809523D01*
X88562380Y-136571428D01*
X88657619Y-136238095D02*
X88610000Y-136190476D01*
X88562380Y-136095238D01*
X88562380Y-135857142D01*
X88610000Y-135761904D01*
X88657619Y-135714285D01*
X88752857Y-135666666D01*
X88848095Y-135666666D01*
X88990952Y-135714285D01*
X89562380Y-136285714D01*
X89562380Y-135666666D01*
X89514761Y-83333333D02*
X89562380Y-83190476D01*
X89562380Y-82952380D01*
X89514761Y-82857142D01*
X89467142Y-82809523D01*
X89371904Y-82761904D01*
X89276666Y-82761904D01*
X89181428Y-82809523D01*
X89133809Y-82857142D01*
X89086190Y-82952380D01*
X89038571Y-83142857D01*
X88990952Y-83238095D01*
X88943333Y-83285714D01*
X88848095Y-83333333D01*
X88752857Y-83333333D01*
X88657619Y-83285714D01*
X88610000Y-83238095D01*
X88562380Y-83142857D01*
X88562380Y-82904761D01*
X88610000Y-82761904D01*
X88562380Y-82428571D02*
X89562380Y-82190476D01*
X88848095Y-82000000D01*
X89562380Y-81809523D01*
X88562380Y-81571428D01*
X89562380Y-80666666D02*
X89562380Y-81238095D01*
X89562380Y-80952380D02*
X88562380Y-80952380D01*
X88705238Y-81047619D01*
X88800476Y-81142857D01*
X88848095Y-81238095D01*
X71357142Y-90632380D02*
X71023809Y-90156190D01*
X70785714Y-90632380D02*
X70785714Y-89632380D01*
X71166666Y-89632380D01*
X71261904Y-89680000D01*
X71309523Y-89727619D01*
X71357142Y-89822857D01*
X71357142Y-89965714D01*
X71309523Y-90060952D01*
X71261904Y-90108571D01*
X71166666Y-90156190D01*
X70785714Y-90156190D01*
X71738095Y-89727619D02*
X71785714Y-89680000D01*
X71880952Y-89632380D01*
X72119047Y-89632380D01*
X72214285Y-89680000D01*
X72261904Y-89727619D01*
X72309523Y-89822857D01*
X72309523Y-89918095D01*
X72261904Y-90060952D01*
X71690476Y-90632380D01*
X72309523Y-90632380D01*
X72690476Y-89727619D02*
X72738095Y-89680000D01*
X72833333Y-89632380D01*
X73071428Y-89632380D01*
X73166666Y-89680000D01*
X73214285Y-89727619D01*
X73261904Y-89822857D01*
X73261904Y-89918095D01*
X73214285Y-90060952D01*
X72642857Y-90632380D01*
X73261904Y-90632380D01*
X77869642Y-90632380D02*
X77536309Y-90156190D01*
X77298214Y-90632380D02*
X77298214Y-89632380D01*
X77679166Y-89632380D01*
X77774404Y-89680000D01*
X77822023Y-89727619D01*
X77869642Y-89822857D01*
X77869642Y-89965714D01*
X77822023Y-90060952D01*
X77774404Y-90108571D01*
X77679166Y-90156190D01*
X77298214Y-90156190D01*
X78250595Y-89727619D02*
X78298214Y-89680000D01*
X78393452Y-89632380D01*
X78631547Y-89632380D01*
X78726785Y-89680000D01*
X78774404Y-89727619D01*
X78822023Y-89822857D01*
X78822023Y-89918095D01*
X78774404Y-90060952D01*
X78202976Y-90632380D01*
X78822023Y-90632380D01*
X79774404Y-90632380D02*
X79202976Y-90632380D01*
X79488690Y-90632380D02*
X79488690Y-89632380D01*
X79393452Y-89775238D01*
X79298214Y-89870476D01*
X79202976Y-89918095D01*
X124844642Y-133272380D02*
X124511309Y-132796190D01*
X124273214Y-133272380D02*
X124273214Y-132272380D01*
X124654166Y-132272380D01*
X124749404Y-132320000D01*
X124797023Y-132367619D01*
X124844642Y-132462857D01*
X124844642Y-132605714D01*
X124797023Y-132700952D01*
X124749404Y-132748571D01*
X124654166Y-132796190D01*
X124273214Y-132796190D01*
X125225595Y-132367619D02*
X125273214Y-132320000D01*
X125368452Y-132272380D01*
X125606547Y-132272380D01*
X125701785Y-132320000D01*
X125749404Y-132367619D01*
X125797023Y-132462857D01*
X125797023Y-132558095D01*
X125749404Y-132700952D01*
X125177976Y-133272380D01*
X125797023Y-133272380D01*
X126416071Y-132272380D02*
X126511309Y-132272380D01*
X126606547Y-132320000D01*
X126654166Y-132367619D01*
X126701785Y-132462857D01*
X126749404Y-132653333D01*
X126749404Y-132891428D01*
X126701785Y-133081904D01*
X126654166Y-133177142D01*
X126606547Y-133224761D01*
X126511309Y-133272380D01*
X126416071Y-133272380D01*
X126320833Y-133224761D01*
X126273214Y-133177142D01*
X126225595Y-133081904D01*
X126177976Y-132891428D01*
X126177976Y-132653333D01*
X126225595Y-132462857D01*
X126273214Y-132367619D01*
X126320833Y-132320000D01*
X126416071Y-132272380D01*
X119844642Y-69272380D02*
X119511309Y-68796190D01*
X119273214Y-69272380D02*
X119273214Y-68272380D01*
X119654166Y-68272380D01*
X119749404Y-68320000D01*
X119797023Y-68367619D01*
X119844642Y-68462857D01*
X119844642Y-68605714D01*
X119797023Y-68700952D01*
X119749404Y-68748571D01*
X119654166Y-68796190D01*
X119273214Y-68796190D01*
X120797023Y-69272380D02*
X120225595Y-69272380D01*
X120511309Y-69272380D02*
X120511309Y-68272380D01*
X120416071Y-68415238D01*
X120320833Y-68510476D01*
X120225595Y-68558095D01*
X121273214Y-69272380D02*
X121463690Y-69272380D01*
X121558928Y-69224761D01*
X121606547Y-69177142D01*
X121701785Y-69034285D01*
X121749404Y-68843809D01*
X121749404Y-68462857D01*
X121701785Y-68367619D01*
X121654166Y-68320000D01*
X121558928Y-68272380D01*
X121368452Y-68272380D01*
X121273214Y-68320000D01*
X121225595Y-68367619D01*
X121177976Y-68462857D01*
X121177976Y-68700952D01*
X121225595Y-68796190D01*
X121273214Y-68843809D01*
X121368452Y-68891428D01*
X121558928Y-68891428D01*
X121654166Y-68843809D01*
X121701785Y-68796190D01*
X121749404Y-68700952D01*
X130844642Y-129272380D02*
X130511309Y-128796190D01*
X130273214Y-129272380D02*
X130273214Y-128272380D01*
X130654166Y-128272380D01*
X130749404Y-128320000D01*
X130797023Y-128367619D01*
X130844642Y-128462857D01*
X130844642Y-128605714D01*
X130797023Y-128700952D01*
X130749404Y-128748571D01*
X130654166Y-128796190D01*
X130273214Y-128796190D01*
X131797023Y-129272380D02*
X131225595Y-129272380D01*
X131511309Y-129272380D02*
X131511309Y-128272380D01*
X131416071Y-128415238D01*
X131320833Y-128510476D01*
X131225595Y-128558095D01*
X132368452Y-128700952D02*
X132273214Y-128653333D01*
X132225595Y-128605714D01*
X132177976Y-128510476D01*
X132177976Y-128462857D01*
X132225595Y-128367619D01*
X132273214Y-128320000D01*
X132368452Y-128272380D01*
X132558928Y-128272380D01*
X132654166Y-128320000D01*
X132701785Y-128367619D01*
X132749404Y-128462857D01*
X132749404Y-128510476D01*
X132701785Y-128605714D01*
X132654166Y-128653333D01*
X132558928Y-128700952D01*
X132368452Y-128700952D01*
X132273214Y-128748571D01*
X132225595Y-128796190D01*
X132177976Y-128891428D01*
X132177976Y-129081904D01*
X132225595Y-129177142D01*
X132273214Y-129224761D01*
X132368452Y-129272380D01*
X132558928Y-129272380D01*
X132654166Y-129224761D01*
X132701785Y-129177142D01*
X132749404Y-129081904D01*
X132749404Y-128891428D01*
X132701785Y-128796190D01*
X132654166Y-128748571D01*
X132558928Y-128700952D01*
X124844642Y-129272380D02*
X124511309Y-128796190D01*
X124273214Y-129272380D02*
X124273214Y-128272380D01*
X124654166Y-128272380D01*
X124749404Y-128320000D01*
X124797023Y-128367619D01*
X124844642Y-128462857D01*
X124844642Y-128605714D01*
X124797023Y-128700952D01*
X124749404Y-128748571D01*
X124654166Y-128796190D01*
X124273214Y-128796190D01*
X125797023Y-129272380D02*
X125225595Y-129272380D01*
X125511309Y-129272380D02*
X125511309Y-128272380D01*
X125416071Y-128415238D01*
X125320833Y-128510476D01*
X125225595Y-128558095D01*
X126130357Y-128272380D02*
X126797023Y-128272380D01*
X126368452Y-129272380D01*
X124844642Y-137272380D02*
X124511309Y-136796190D01*
X124273214Y-137272380D02*
X124273214Y-136272380D01*
X124654166Y-136272380D01*
X124749404Y-136320000D01*
X124797023Y-136367619D01*
X124844642Y-136462857D01*
X124844642Y-136605714D01*
X124797023Y-136700952D01*
X124749404Y-136748571D01*
X124654166Y-136796190D01*
X124273214Y-136796190D01*
X125797023Y-137272380D02*
X125225595Y-137272380D01*
X125511309Y-137272380D02*
X125511309Y-136272380D01*
X125416071Y-136415238D01*
X125320833Y-136510476D01*
X125225595Y-136558095D01*
X126654166Y-136272380D02*
X126463690Y-136272380D01*
X126368452Y-136320000D01*
X126320833Y-136367619D01*
X126225595Y-136510476D01*
X126177976Y-136700952D01*
X126177976Y-137081904D01*
X126225595Y-137177142D01*
X126273214Y-137224761D01*
X126368452Y-137272380D01*
X126558928Y-137272380D01*
X126654166Y-137224761D01*
X126701785Y-137177142D01*
X126749404Y-137081904D01*
X126749404Y-136843809D01*
X126701785Y-136748571D01*
X126654166Y-136700952D01*
X126558928Y-136653333D01*
X126368452Y-136653333D01*
X126273214Y-136700952D01*
X126225595Y-136748571D01*
X126177976Y-136843809D01*
X124844642Y-141272380D02*
X124511309Y-140796190D01*
X124273214Y-141272380D02*
X124273214Y-140272380D01*
X124654166Y-140272380D01*
X124749404Y-140320000D01*
X124797023Y-140367619D01*
X124844642Y-140462857D01*
X124844642Y-140605714D01*
X124797023Y-140700952D01*
X124749404Y-140748571D01*
X124654166Y-140796190D01*
X124273214Y-140796190D01*
X125797023Y-141272380D02*
X125225595Y-141272380D01*
X125511309Y-141272380D02*
X125511309Y-140272380D01*
X125416071Y-140415238D01*
X125320833Y-140510476D01*
X125225595Y-140558095D01*
X126701785Y-140272380D02*
X126225595Y-140272380D01*
X126177976Y-140748571D01*
X126225595Y-140700952D01*
X126320833Y-140653333D01*
X126558928Y-140653333D01*
X126654166Y-140700952D01*
X126701785Y-140748571D01*
X126749404Y-140843809D01*
X126749404Y-141081904D01*
X126701785Y-141177142D01*
X126654166Y-141224761D01*
X126558928Y-141272380D01*
X126320833Y-141272380D01*
X126225595Y-141224761D01*
X126177976Y-141177142D01*
X130844642Y-141272380D02*
X130511309Y-140796190D01*
X130273214Y-141272380D02*
X130273214Y-140272380D01*
X130654166Y-140272380D01*
X130749404Y-140320000D01*
X130797023Y-140367619D01*
X130844642Y-140462857D01*
X130844642Y-140605714D01*
X130797023Y-140700952D01*
X130749404Y-140748571D01*
X130654166Y-140796190D01*
X130273214Y-140796190D01*
X131797023Y-141272380D02*
X131225595Y-141272380D01*
X131511309Y-141272380D02*
X131511309Y-140272380D01*
X131416071Y-140415238D01*
X131320833Y-140510476D01*
X131225595Y-140558095D01*
X132654166Y-140605714D02*
X132654166Y-141272380D01*
X132416071Y-140224761D02*
X132177976Y-140939047D01*
X132797023Y-140939047D01*
X117344642Y-155272380D02*
X117011309Y-154796190D01*
X116773214Y-155272380D02*
X116773214Y-154272380D01*
X117154166Y-154272380D01*
X117249404Y-154320000D01*
X117297023Y-154367619D01*
X117344642Y-154462857D01*
X117344642Y-154605714D01*
X117297023Y-154700952D01*
X117249404Y-154748571D01*
X117154166Y-154796190D01*
X116773214Y-154796190D01*
X118297023Y-155272380D02*
X117725595Y-155272380D01*
X118011309Y-155272380D02*
X118011309Y-154272380D01*
X117916071Y-154415238D01*
X117820833Y-154510476D01*
X117725595Y-154558095D01*
X118630357Y-154272380D02*
X119249404Y-154272380D01*
X118916071Y-154653333D01*
X119058928Y-154653333D01*
X119154166Y-154700952D01*
X119201785Y-154748571D01*
X119249404Y-154843809D01*
X119249404Y-155081904D01*
X119201785Y-155177142D01*
X119154166Y-155224761D01*
X119058928Y-155272380D01*
X118773214Y-155272380D01*
X118677976Y-155224761D01*
X118630357Y-155177142D01*
X123344642Y-159272380D02*
X123011309Y-158796190D01*
X122773214Y-159272380D02*
X122773214Y-158272380D01*
X123154166Y-158272380D01*
X123249404Y-158320000D01*
X123297023Y-158367619D01*
X123344642Y-158462857D01*
X123344642Y-158605714D01*
X123297023Y-158700952D01*
X123249404Y-158748571D01*
X123154166Y-158796190D01*
X122773214Y-158796190D01*
X124297023Y-159272380D02*
X123725595Y-159272380D01*
X124011309Y-159272380D02*
X124011309Y-158272380D01*
X123916071Y-158415238D01*
X123820833Y-158510476D01*
X123725595Y-158558095D01*
X124677976Y-158367619D02*
X124725595Y-158320000D01*
X124820833Y-158272380D01*
X125058928Y-158272380D01*
X125154166Y-158320000D01*
X125201785Y-158367619D01*
X125249404Y-158462857D01*
X125249404Y-158558095D01*
X125201785Y-158700952D01*
X124630357Y-159272380D01*
X125249404Y-159272380D01*
X117344642Y-159272380D02*
X117011309Y-158796190D01*
X116773214Y-159272380D02*
X116773214Y-158272380D01*
X117154166Y-158272380D01*
X117249404Y-158320000D01*
X117297023Y-158367619D01*
X117344642Y-158462857D01*
X117344642Y-158605714D01*
X117297023Y-158700952D01*
X117249404Y-158748571D01*
X117154166Y-158796190D01*
X116773214Y-158796190D01*
X118297023Y-159272380D02*
X117725595Y-159272380D01*
X118011309Y-159272380D02*
X118011309Y-158272380D01*
X117916071Y-158415238D01*
X117820833Y-158510476D01*
X117725595Y-158558095D01*
X119249404Y-159272380D02*
X118677976Y-159272380D01*
X118963690Y-159272380D02*
X118963690Y-158272380D01*
X118868452Y-158415238D01*
X118773214Y-158510476D01*
X118677976Y-158558095D01*
X130869642Y-94272380D02*
X130536309Y-93796190D01*
X130298214Y-94272380D02*
X130298214Y-93272380D01*
X130679166Y-93272380D01*
X130774404Y-93320000D01*
X130822023Y-93367619D01*
X130869642Y-93462857D01*
X130869642Y-93605714D01*
X130822023Y-93700952D01*
X130774404Y-93748571D01*
X130679166Y-93796190D01*
X130298214Y-93796190D01*
X131822023Y-94272380D02*
X131250595Y-94272380D01*
X131536309Y-94272380D02*
X131536309Y-93272380D01*
X131441071Y-93415238D01*
X131345833Y-93510476D01*
X131250595Y-93558095D01*
X132441071Y-93272380D02*
X132536309Y-93272380D01*
X132631547Y-93320000D01*
X132679166Y-93367619D01*
X132726785Y-93462857D01*
X132774404Y-93653333D01*
X132774404Y-93891428D01*
X132726785Y-94081904D01*
X132679166Y-94177142D01*
X132631547Y-94224761D01*
X132536309Y-94272380D01*
X132441071Y-94272380D01*
X132345833Y-94224761D01*
X132298214Y-94177142D01*
X132250595Y-94081904D01*
X132202976Y-93891428D01*
X132202976Y-93653333D01*
X132250595Y-93462857D01*
X132298214Y-93367619D01*
X132345833Y-93320000D01*
X132441071Y-93272380D01*
X125320833Y-94272380D02*
X124987500Y-93796190D01*
X124749404Y-94272380D02*
X124749404Y-93272380D01*
X125130357Y-93272380D01*
X125225595Y-93320000D01*
X125273214Y-93367619D01*
X125320833Y-93462857D01*
X125320833Y-93605714D01*
X125273214Y-93700952D01*
X125225595Y-93748571D01*
X125130357Y-93796190D01*
X124749404Y-93796190D01*
X125797023Y-94272380D02*
X125987500Y-94272380D01*
X126082738Y-94224761D01*
X126130357Y-94177142D01*
X126225595Y-94034285D01*
X126273214Y-93843809D01*
X126273214Y-93462857D01*
X126225595Y-93367619D01*
X126177976Y-93320000D01*
X126082738Y-93272380D01*
X125892261Y-93272380D01*
X125797023Y-93320000D01*
X125749404Y-93367619D01*
X125701785Y-93462857D01*
X125701785Y-93700952D01*
X125749404Y-93796190D01*
X125797023Y-93843809D01*
X125892261Y-93891428D01*
X126082738Y-93891428D01*
X126177976Y-93843809D01*
X126225595Y-93796190D01*
X126273214Y-93700952D01*
X125320833Y-90272380D02*
X124987500Y-89796190D01*
X124749404Y-90272380D02*
X124749404Y-89272380D01*
X125130357Y-89272380D01*
X125225595Y-89320000D01*
X125273214Y-89367619D01*
X125320833Y-89462857D01*
X125320833Y-89605714D01*
X125273214Y-89700952D01*
X125225595Y-89748571D01*
X125130357Y-89796190D01*
X124749404Y-89796190D01*
X125892261Y-89700952D02*
X125797023Y-89653333D01*
X125749404Y-89605714D01*
X125701785Y-89510476D01*
X125701785Y-89462857D01*
X125749404Y-89367619D01*
X125797023Y-89320000D01*
X125892261Y-89272380D01*
X126082738Y-89272380D01*
X126177976Y-89320000D01*
X126225595Y-89367619D01*
X126273214Y-89462857D01*
X126273214Y-89510476D01*
X126225595Y-89605714D01*
X126177976Y-89653333D01*
X126082738Y-89700952D01*
X125892261Y-89700952D01*
X125797023Y-89748571D01*
X125749404Y-89796190D01*
X125701785Y-89891428D01*
X125701785Y-90081904D01*
X125749404Y-90177142D01*
X125797023Y-90224761D01*
X125892261Y-90272380D01*
X126082738Y-90272380D01*
X126177976Y-90224761D01*
X126225595Y-90177142D01*
X126273214Y-90081904D01*
X126273214Y-89891428D01*
X126225595Y-89796190D01*
X126177976Y-89748571D01*
X126082738Y-89700952D01*
X131320833Y-86272380D02*
X130987500Y-85796190D01*
X130749404Y-86272380D02*
X130749404Y-85272380D01*
X131130357Y-85272380D01*
X131225595Y-85320000D01*
X131273214Y-85367619D01*
X131320833Y-85462857D01*
X131320833Y-85605714D01*
X131273214Y-85700952D01*
X131225595Y-85748571D01*
X131130357Y-85796190D01*
X130749404Y-85796190D01*
X132177976Y-85272380D02*
X131987500Y-85272380D01*
X131892261Y-85320000D01*
X131844642Y-85367619D01*
X131749404Y-85510476D01*
X131701785Y-85700952D01*
X131701785Y-86081904D01*
X131749404Y-86177142D01*
X131797023Y-86224761D01*
X131892261Y-86272380D01*
X132082738Y-86272380D01*
X132177976Y-86224761D01*
X132225595Y-86177142D01*
X132273214Y-86081904D01*
X132273214Y-85843809D01*
X132225595Y-85748571D01*
X132177976Y-85700952D01*
X132082738Y-85653333D01*
X131892261Y-85653333D01*
X131797023Y-85700952D01*
X131749404Y-85748571D01*
X131701785Y-85843809D01*
X125320833Y-86272380D02*
X124987500Y-85796190D01*
X124749404Y-86272380D02*
X124749404Y-85272380D01*
X125130357Y-85272380D01*
X125225595Y-85320000D01*
X125273214Y-85367619D01*
X125320833Y-85462857D01*
X125320833Y-85605714D01*
X125273214Y-85700952D01*
X125225595Y-85748571D01*
X125130357Y-85796190D01*
X124749404Y-85796190D01*
X126225595Y-85272380D02*
X125749404Y-85272380D01*
X125701785Y-85748571D01*
X125749404Y-85700952D01*
X125844642Y-85653333D01*
X126082738Y-85653333D01*
X126177976Y-85700952D01*
X126225595Y-85748571D01*
X126273214Y-85843809D01*
X126273214Y-86081904D01*
X126225595Y-86177142D01*
X126177976Y-86224761D01*
X126082738Y-86272380D01*
X125844642Y-86272380D01*
X125749404Y-86224761D01*
X125701785Y-86177142D01*
X126320833Y-65272380D02*
X125987500Y-64796190D01*
X125749404Y-65272380D02*
X125749404Y-64272380D01*
X126130357Y-64272380D01*
X126225595Y-64320000D01*
X126273214Y-64367619D01*
X126320833Y-64462857D01*
X126320833Y-64605714D01*
X126273214Y-64700952D01*
X126225595Y-64748571D01*
X126130357Y-64796190D01*
X125749404Y-64796190D01*
X127177976Y-64605714D02*
X127177976Y-65272380D01*
X126939880Y-64224761D02*
X126701785Y-64939047D01*
X127320833Y-64939047D01*
X120320833Y-65272380D02*
X119987500Y-64796190D01*
X119749404Y-65272380D02*
X119749404Y-64272380D01*
X120130357Y-64272380D01*
X120225595Y-64320000D01*
X120273214Y-64367619D01*
X120320833Y-64462857D01*
X120320833Y-64605714D01*
X120273214Y-64700952D01*
X120225595Y-64748571D01*
X120130357Y-64796190D01*
X119749404Y-64796190D01*
X120654166Y-64272380D02*
X121273214Y-64272380D01*
X120939880Y-64653333D01*
X121082738Y-64653333D01*
X121177976Y-64700952D01*
X121225595Y-64748571D01*
X121273214Y-64843809D01*
X121273214Y-65081904D01*
X121225595Y-65177142D01*
X121177976Y-65224761D01*
X121082738Y-65272380D01*
X120797023Y-65272380D01*
X120701785Y-65224761D01*
X120654166Y-65177142D01*
X131320833Y-133272380D02*
X130987500Y-132796190D01*
X130749404Y-133272380D02*
X130749404Y-132272380D01*
X131130357Y-132272380D01*
X131225595Y-132320000D01*
X131273214Y-132367619D01*
X131320833Y-132462857D01*
X131320833Y-132605714D01*
X131273214Y-132700952D01*
X131225595Y-132748571D01*
X131130357Y-132796190D01*
X130749404Y-132796190D01*
X131701785Y-132367619D02*
X131749404Y-132320000D01*
X131844642Y-132272380D01*
X132082738Y-132272380D01*
X132177976Y-132320000D01*
X132225595Y-132367619D01*
X132273214Y-132462857D01*
X132273214Y-132558095D01*
X132225595Y-132700952D01*
X131654166Y-133272380D01*
X132273214Y-133272380D01*
X126345833Y-69272380D02*
X126012500Y-68796190D01*
X125774404Y-69272380D02*
X125774404Y-68272380D01*
X126155357Y-68272380D01*
X126250595Y-68320000D01*
X126298214Y-68367619D01*
X126345833Y-68462857D01*
X126345833Y-68605714D01*
X126298214Y-68700952D01*
X126250595Y-68748571D01*
X126155357Y-68796190D01*
X125774404Y-68796190D01*
X127298214Y-69272380D02*
X126726785Y-69272380D01*
X127012500Y-69272380D02*
X127012500Y-68272380D01*
X126917261Y-68415238D01*
X126822023Y-68510476D01*
X126726785Y-68558095D01*
X125320833Y-82272380D02*
X124987500Y-81796190D01*
X124749404Y-82272380D02*
X124749404Y-81272380D01*
X125130357Y-81272380D01*
X125225595Y-81320000D01*
X125273214Y-81367619D01*
X125320833Y-81462857D01*
X125320833Y-81605714D01*
X125273214Y-81700952D01*
X125225595Y-81748571D01*
X125130357Y-81796190D01*
X124749404Y-81796190D01*
X125654166Y-81272380D02*
X126320833Y-81272380D01*
X125892261Y-82272380D01*
X66452380Y-120333333D02*
X67166666Y-120333333D01*
X67309523Y-120380952D01*
X67404761Y-120476190D01*
X67452380Y-120619047D01*
X67452380Y-120714285D01*
X66452380Y-119428571D02*
X66452380Y-119619047D01*
X66500000Y-119714285D01*
X66547619Y-119761904D01*
X66690476Y-119857142D01*
X66880952Y-119904761D01*
X67261904Y-119904761D01*
X67357142Y-119857142D01*
X67404761Y-119809523D01*
X67452380Y-119714285D01*
X67452380Y-119523809D01*
X67404761Y-119428571D01*
X67357142Y-119380952D01*
X67261904Y-119333333D01*
X67023809Y-119333333D01*
X66928571Y-119380952D01*
X66880952Y-119428571D01*
X66833333Y-119523809D01*
X66833333Y-119714285D01*
X66880952Y-119809523D01*
X66928571Y-119857142D01*
X67023809Y-119904761D01*
X66532380Y-136253333D02*
X67246666Y-136253333D01*
X67389523Y-136300952D01*
X67484761Y-136396190D01*
X67532380Y-136539047D01*
X67532380Y-136634285D01*
X66532380Y-135300952D02*
X66532380Y-135777142D01*
X67008571Y-135824761D01*
X66960952Y-135777142D01*
X66913333Y-135681904D01*
X66913333Y-135443809D01*
X66960952Y-135348571D01*
X67008571Y-135300952D01*
X67103809Y-135253333D01*
X67341904Y-135253333D01*
X67437142Y-135300952D01*
X67484761Y-135348571D01*
X67532380Y-135443809D01*
X67532380Y-135681904D01*
X67484761Y-135777142D01*
X67437142Y-135824761D01*
X66452380Y-84333333D02*
X67166666Y-84333333D01*
X67309523Y-84380952D01*
X67404761Y-84476190D01*
X67452380Y-84619047D01*
X67452380Y-84714285D01*
X66785714Y-83428571D02*
X67452380Y-83428571D01*
X66404761Y-83666666D02*
X67119047Y-83904761D01*
X67119047Y-83285714D01*
X66452380Y-100333333D02*
X67166666Y-100333333D01*
X67309523Y-100380952D01*
X67404761Y-100476190D01*
X67452380Y-100619047D01*
X67452380Y-100714285D01*
X66452380Y-99952380D02*
X66452380Y-99333333D01*
X66833333Y-99666666D01*
X66833333Y-99523809D01*
X66880952Y-99428571D01*
X66928571Y-99380952D01*
X67023809Y-99333333D01*
X67261904Y-99333333D01*
X67357142Y-99380952D01*
X67404761Y-99428571D01*
X67452380Y-99523809D01*
X67452380Y-99809523D01*
X67404761Y-99904761D01*
X67357142Y-99952380D01*
X66452380Y-152333333D02*
X67166666Y-152333333D01*
X67309523Y-152380952D01*
X67404761Y-152476190D01*
X67452380Y-152619047D01*
X67452380Y-152714285D01*
X66547619Y-151904761D02*
X66500000Y-151857142D01*
X66452380Y-151761904D01*
X66452380Y-151523809D01*
X66500000Y-151428571D01*
X66547619Y-151380952D01*
X66642857Y-151333333D01*
X66738095Y-151333333D01*
X66880952Y-151380952D01*
X67452380Y-151952380D01*
X67452380Y-151333333D01*
X66452380Y-68333333D02*
X67166666Y-68333333D01*
X67309523Y-68380952D01*
X67404761Y-68476190D01*
X67452380Y-68619047D01*
X67452380Y-68714285D01*
X67452380Y-67333333D02*
X67452380Y-67904761D01*
X67452380Y-67619047D02*
X66452380Y-67619047D01*
X66595238Y-67714285D01*
X66690476Y-67809523D01*
X66738095Y-67904761D01*
X78452380Y-126738095D02*
X77452380Y-126738095D01*
X77452380Y-126500000D01*
X77500000Y-126357142D01*
X77595238Y-126261904D01*
X77690476Y-126214285D01*
X77880952Y-126166666D01*
X78023809Y-126166666D01*
X78214285Y-126214285D01*
X78309523Y-126261904D01*
X78404761Y-126357142D01*
X78452380Y-126500000D01*
X78452380Y-126738095D01*
X77547619Y-125785714D02*
X77500000Y-125738095D01*
X77452380Y-125642857D01*
X77452380Y-125404761D01*
X77500000Y-125309523D01*
X77547619Y-125261904D01*
X77642857Y-125214285D01*
X77738095Y-125214285D01*
X77880952Y-125261904D01*
X78452380Y-125833333D01*
X78452380Y-125214285D01*
X68452380Y-126738095D02*
X67452380Y-126738095D01*
X67452380Y-126500000D01*
X67500000Y-126357142D01*
X67595238Y-126261904D01*
X67690476Y-126214285D01*
X67880952Y-126166666D01*
X68023809Y-126166666D01*
X68214285Y-126214285D01*
X68309523Y-126261904D01*
X68404761Y-126357142D01*
X68452380Y-126500000D01*
X68452380Y-126738095D01*
X68452380Y-125214285D02*
X68452380Y-125785714D01*
X68452380Y-125500000D02*
X67452380Y-125500000D01*
X67595238Y-125595238D01*
X67690476Y-125690476D01*
X67738095Y-125785714D01*
M02*
