G04 #@! TF.GenerationSoftware,KiCad,Pcbnew,(5.1.5)-3*
G04 #@! TF.CreationDate,2020-06-20T22:53:26+02:00*
G04 #@! TF.ProjectId,Tester,54657374-6572-42e6-9b69-6361645f7063,rev?*
G04 #@! TF.SameCoordinates,Original*
G04 #@! TF.FileFunction,Soldermask,Top*
G04 #@! TF.FilePolarity,Negative*
%FSLAX46Y46*%
G04 Gerber Fmt 4.6, Leading zero omitted, Abs format (unit mm)*
G04 Created by KiCad (PCBNEW (5.1.5)-3) date 2020-06-20 22:53:26*
%MOMM*%
%LPD*%
G04 APERTURE LIST*
%ADD10C,0.100000*%
G04 APERTURE END LIST*
D10*
G36*
X59846669Y-155287686D02*
G01*
X60023058Y-155305059D01*
X60362548Y-155408042D01*
X60362550Y-155408043D01*
X60675422Y-155575277D01*
X60949661Y-155800339D01*
X61174723Y-156074578D01*
X61317607Y-156341895D01*
X61341958Y-156387452D01*
X61444941Y-156726942D01*
X61479714Y-157080000D01*
X61444941Y-157433058D01*
X61345575Y-157760624D01*
X61341957Y-157772550D01*
X61174723Y-158085422D01*
X60949661Y-158359661D01*
X60675422Y-158584723D01*
X60362550Y-158751957D01*
X60362548Y-158751958D01*
X60023058Y-158854941D01*
X59846669Y-158872314D01*
X59758476Y-158881000D01*
X56081524Y-158881000D01*
X55993331Y-158872314D01*
X55816942Y-158854941D01*
X55477452Y-158751958D01*
X55477450Y-158751957D01*
X55164578Y-158584723D01*
X54890339Y-158359661D01*
X54665277Y-158085422D01*
X54498043Y-157772550D01*
X54494425Y-157760624D01*
X54395059Y-157433058D01*
X54360286Y-157080000D01*
X54395059Y-156726942D01*
X54498042Y-156387452D01*
X54522393Y-156341895D01*
X54665277Y-156074578D01*
X54890339Y-155800339D01*
X55164578Y-155575277D01*
X55477450Y-155408043D01*
X55477452Y-155408042D01*
X55816942Y-155305059D01*
X55993331Y-155287686D01*
X56081524Y-155279000D01*
X59758476Y-155279000D01*
X59846669Y-155287686D01*
G37*
G36*
X126088062Y-156078181D02*
G01*
X126122981Y-156088774D01*
X126155163Y-156105976D01*
X126183373Y-156129127D01*
X126206524Y-156157337D01*
X126223726Y-156189519D01*
X126234319Y-156224438D01*
X126238500Y-156266895D01*
X126238500Y-157733105D01*
X126234319Y-157775562D01*
X126223726Y-157810481D01*
X126206524Y-157842663D01*
X126183373Y-157870873D01*
X126155163Y-157894024D01*
X126122981Y-157911226D01*
X126088062Y-157921819D01*
X126045605Y-157926000D01*
X124904395Y-157926000D01*
X124861938Y-157921819D01*
X124827019Y-157911226D01*
X124794837Y-157894024D01*
X124766627Y-157870873D01*
X124743476Y-157842663D01*
X124726274Y-157810481D01*
X124715681Y-157775562D01*
X124711500Y-157733105D01*
X124711500Y-156266895D01*
X124715681Y-156224438D01*
X124726274Y-156189519D01*
X124743476Y-156157337D01*
X124766627Y-156129127D01*
X124794837Y-156105976D01*
X124827019Y-156088774D01*
X124861938Y-156078181D01*
X124904395Y-156074000D01*
X126045605Y-156074000D01*
X126088062Y-156078181D01*
G37*
G36*
X120088062Y-156078181D02*
G01*
X120122981Y-156088774D01*
X120155163Y-156105976D01*
X120183373Y-156129127D01*
X120206524Y-156157337D01*
X120223726Y-156189519D01*
X120234319Y-156224438D01*
X120238500Y-156266895D01*
X120238500Y-157733105D01*
X120234319Y-157775562D01*
X120223726Y-157810481D01*
X120206524Y-157842663D01*
X120183373Y-157870873D01*
X120155163Y-157894024D01*
X120122981Y-157911226D01*
X120088062Y-157921819D01*
X120045605Y-157926000D01*
X118904395Y-157926000D01*
X118861938Y-157921819D01*
X118827019Y-157911226D01*
X118794837Y-157894024D01*
X118766627Y-157870873D01*
X118743476Y-157842663D01*
X118726274Y-157810481D01*
X118715681Y-157775562D01*
X118711500Y-157733105D01*
X118711500Y-156266895D01*
X118715681Y-156224438D01*
X118726274Y-156189519D01*
X118743476Y-156157337D01*
X118766627Y-156129127D01*
X118794837Y-156105976D01*
X118827019Y-156088774D01*
X118861938Y-156078181D01*
X118904395Y-156074000D01*
X120045605Y-156074000D01*
X120088062Y-156078181D01*
G37*
G36*
X123113062Y-156078181D02*
G01*
X123147981Y-156088774D01*
X123180163Y-156105976D01*
X123208373Y-156129127D01*
X123231524Y-156157337D01*
X123248726Y-156189519D01*
X123259319Y-156224438D01*
X123263500Y-156266895D01*
X123263500Y-157733105D01*
X123259319Y-157775562D01*
X123248726Y-157810481D01*
X123231524Y-157842663D01*
X123208373Y-157870873D01*
X123180163Y-157894024D01*
X123147981Y-157911226D01*
X123113062Y-157921819D01*
X123070605Y-157926000D01*
X121929395Y-157926000D01*
X121886938Y-157921819D01*
X121852019Y-157911226D01*
X121819837Y-157894024D01*
X121791627Y-157870873D01*
X121768476Y-157842663D01*
X121751274Y-157810481D01*
X121740681Y-157775562D01*
X121736500Y-157733105D01*
X121736500Y-156266895D01*
X121740681Y-156224438D01*
X121751274Y-156189519D01*
X121768476Y-156157337D01*
X121791627Y-156129127D01*
X121819837Y-156105976D01*
X121852019Y-156088774D01*
X121886938Y-156078181D01*
X121929395Y-156074000D01*
X123070605Y-156074000D01*
X123113062Y-156078181D01*
G37*
G36*
X117113062Y-156078181D02*
G01*
X117147981Y-156088774D01*
X117180163Y-156105976D01*
X117208373Y-156129127D01*
X117231524Y-156157337D01*
X117248726Y-156189519D01*
X117259319Y-156224438D01*
X117263500Y-156266895D01*
X117263500Y-157733105D01*
X117259319Y-157775562D01*
X117248726Y-157810481D01*
X117231524Y-157842663D01*
X117208373Y-157870873D01*
X117180163Y-157894024D01*
X117147981Y-157911226D01*
X117113062Y-157921819D01*
X117070605Y-157926000D01*
X115929395Y-157926000D01*
X115886938Y-157921819D01*
X115852019Y-157911226D01*
X115819837Y-157894024D01*
X115791627Y-157870873D01*
X115768476Y-157842663D01*
X115751274Y-157810481D01*
X115740681Y-157775562D01*
X115736500Y-157733105D01*
X115736500Y-156266895D01*
X115740681Y-156224438D01*
X115751274Y-156189519D01*
X115768476Y-156157337D01*
X115791627Y-156129127D01*
X115819837Y-156105976D01*
X115852019Y-156088774D01*
X115886938Y-156078181D01*
X115929395Y-156074000D01*
X117070605Y-156074000D01*
X117113062Y-156078181D01*
G37*
G36*
X96653820Y-154278103D02*
G01*
X96687985Y-154288467D01*
X96719464Y-154305293D01*
X96747060Y-154327940D01*
X96769707Y-154355536D01*
X96786533Y-154387015D01*
X96796897Y-154421180D01*
X96801000Y-154462842D01*
X96801000Y-157537158D01*
X96796897Y-157578820D01*
X96786533Y-157612985D01*
X96769707Y-157644464D01*
X96747060Y-157672060D01*
X96719464Y-157694707D01*
X96687985Y-157711533D01*
X96653820Y-157721897D01*
X96612158Y-157726000D01*
X95362842Y-157726000D01*
X95321180Y-157721897D01*
X95287015Y-157711533D01*
X95255536Y-157694707D01*
X95227940Y-157672060D01*
X95205293Y-157644464D01*
X95188467Y-157612985D01*
X95178103Y-157578820D01*
X95174000Y-157537158D01*
X95174000Y-154462842D01*
X95178103Y-154421180D01*
X95188467Y-154387015D01*
X95205293Y-154355536D01*
X95227940Y-154327940D01*
X95255536Y-154305293D01*
X95287015Y-154288467D01*
X95321180Y-154278103D01*
X95362842Y-154274000D01*
X96612158Y-154274000D01*
X96653820Y-154278103D01*
G37*
G36*
X90678820Y-154278103D02*
G01*
X90712985Y-154288467D01*
X90744464Y-154305293D01*
X90772060Y-154327940D01*
X90794707Y-154355536D01*
X90811533Y-154387015D01*
X90821897Y-154421180D01*
X90826000Y-154462842D01*
X90826000Y-157537158D01*
X90821897Y-157578820D01*
X90811533Y-157612985D01*
X90794707Y-157644464D01*
X90772060Y-157672060D01*
X90744464Y-157694707D01*
X90712985Y-157711533D01*
X90678820Y-157721897D01*
X90637158Y-157726000D01*
X89387842Y-157726000D01*
X89346180Y-157721897D01*
X89312015Y-157711533D01*
X89280536Y-157694707D01*
X89252940Y-157672060D01*
X89230293Y-157644464D01*
X89213467Y-157612985D01*
X89203103Y-157578820D01*
X89199000Y-157537158D01*
X89199000Y-154462842D01*
X89203103Y-154421180D01*
X89213467Y-154387015D01*
X89230293Y-154355536D01*
X89252940Y-154327940D01*
X89280536Y-154305293D01*
X89312015Y-154288467D01*
X89346180Y-154278103D01*
X89387842Y-154274000D01*
X90637158Y-154274000D01*
X90678820Y-154278103D01*
G37*
G36*
X143238205Y-154802461D02*
G01*
X143356153Y-154825922D01*
X143448194Y-154864047D01*
X143578359Y-154917963D01*
X143778342Y-155051587D01*
X143948413Y-155221658D01*
X144082037Y-155421641D01*
X144135953Y-155551806D01*
X144145676Y-155575278D01*
X144174078Y-155643848D01*
X144221000Y-155879741D01*
X144221000Y-156120259D01*
X144174078Y-156356152D01*
X144082037Y-156578359D01*
X143948413Y-156778342D01*
X143778342Y-156948413D01*
X143578359Y-157082037D01*
X143448194Y-157135953D01*
X143356153Y-157174078D01*
X143120259Y-157221000D01*
X142879741Y-157221000D01*
X142643847Y-157174078D01*
X142551806Y-157135953D01*
X142421641Y-157082037D01*
X142221658Y-156948413D01*
X142051587Y-156778342D01*
X141917963Y-156578359D01*
X141825922Y-156356152D01*
X141779000Y-156120259D01*
X141779000Y-155879741D01*
X141825922Y-155643848D01*
X141854325Y-155575278D01*
X141864047Y-155551806D01*
X141917963Y-155421641D01*
X142051587Y-155221658D01*
X142221658Y-155051587D01*
X142421641Y-154917963D01*
X142551806Y-154864047D01*
X142643847Y-154825922D01*
X142761795Y-154802461D01*
X142879741Y-154779000D01*
X143120259Y-154779000D01*
X143238205Y-154802461D01*
G37*
G36*
X133238205Y-154802461D02*
G01*
X133356153Y-154825922D01*
X133448194Y-154864047D01*
X133578359Y-154917963D01*
X133778342Y-155051587D01*
X133948413Y-155221658D01*
X134082037Y-155421641D01*
X134135953Y-155551806D01*
X134145676Y-155575278D01*
X134174078Y-155643848D01*
X134221000Y-155879741D01*
X134221000Y-156120259D01*
X134174078Y-156356152D01*
X134082037Y-156578359D01*
X133948413Y-156778342D01*
X133778342Y-156948413D01*
X133578359Y-157082037D01*
X133448194Y-157135953D01*
X133356153Y-157174078D01*
X133120259Y-157221000D01*
X132879741Y-157221000D01*
X132643847Y-157174078D01*
X132551806Y-157135953D01*
X132421641Y-157082037D01*
X132221658Y-156948413D01*
X132051587Y-156778342D01*
X131917963Y-156578359D01*
X131825922Y-156356152D01*
X131779000Y-156120259D01*
X131779000Y-155879741D01*
X131825922Y-155643848D01*
X131854325Y-155575278D01*
X131864047Y-155551806D01*
X131917963Y-155421641D01*
X132051587Y-155221658D01*
X132221658Y-155051587D01*
X132421641Y-154917963D01*
X132551806Y-154864047D01*
X132643847Y-154825922D01*
X132761795Y-154802461D01*
X132879741Y-154779000D01*
X133120259Y-154779000D01*
X133238205Y-154802461D01*
G37*
G36*
X103001000Y-154159499D02*
G01*
X103001000Y-155840501D01*
X98599000Y-156864222D01*
X98599000Y-153135778D01*
X103001000Y-154159499D01*
G37*
G36*
X109401000Y-156864222D02*
G01*
X104999000Y-155840501D01*
X104999000Y-154159499D01*
X109401000Y-153135778D01*
X109401000Y-156864222D01*
G37*
G36*
X63616823Y-153701313D02*
G01*
X63777242Y-153749976D01*
X63833102Y-153779834D01*
X63925078Y-153828996D01*
X64054659Y-153935341D01*
X64161004Y-154064922D01*
X64161005Y-154064924D01*
X64240024Y-154212758D01*
X64288687Y-154373177D01*
X64305117Y-154540000D01*
X64288687Y-154706823D01*
X64240024Y-154867242D01*
X64212913Y-154917963D01*
X64161004Y-155015078D01*
X64054659Y-155144659D01*
X63925078Y-155251004D01*
X63925076Y-155251005D01*
X63777242Y-155330024D01*
X63616823Y-155378687D01*
X63491804Y-155391000D01*
X62508196Y-155391000D01*
X62383177Y-155378687D01*
X62222758Y-155330024D01*
X62074924Y-155251005D01*
X62074922Y-155251004D01*
X61945341Y-155144659D01*
X61838996Y-155015078D01*
X61787087Y-154917963D01*
X61759976Y-154867242D01*
X61711313Y-154706823D01*
X61694883Y-154540000D01*
X61711313Y-154373177D01*
X61759976Y-154212758D01*
X61838995Y-154064924D01*
X61838996Y-154064922D01*
X61945341Y-153935341D01*
X62074922Y-153828996D01*
X62166898Y-153779834D01*
X62222758Y-153749976D01*
X62383177Y-153701313D01*
X62508196Y-153689000D01*
X63491804Y-153689000D01*
X63616823Y-153701313D01*
G37*
G36*
X120088062Y-152078181D02*
G01*
X120122981Y-152088774D01*
X120155163Y-152105976D01*
X120183373Y-152129127D01*
X120206524Y-152157337D01*
X120223726Y-152189519D01*
X120234319Y-152224438D01*
X120238500Y-152266895D01*
X120238500Y-153733105D01*
X120234319Y-153775562D01*
X120223726Y-153810481D01*
X120206524Y-153842663D01*
X120183373Y-153870873D01*
X120155163Y-153894024D01*
X120122981Y-153911226D01*
X120088062Y-153921819D01*
X120045605Y-153926000D01*
X118904395Y-153926000D01*
X118861938Y-153921819D01*
X118827019Y-153911226D01*
X118794837Y-153894024D01*
X118766627Y-153870873D01*
X118743476Y-153842663D01*
X118726274Y-153810481D01*
X118715681Y-153775562D01*
X118711500Y-153733105D01*
X118711500Y-152266895D01*
X118715681Y-152224438D01*
X118726274Y-152189519D01*
X118743476Y-152157337D01*
X118766627Y-152129127D01*
X118794837Y-152105976D01*
X118827019Y-152088774D01*
X118861938Y-152078181D01*
X118904395Y-152074000D01*
X120045605Y-152074000D01*
X120088062Y-152078181D01*
G37*
G36*
X117113062Y-152078181D02*
G01*
X117147981Y-152088774D01*
X117180163Y-152105976D01*
X117208373Y-152129127D01*
X117231524Y-152157337D01*
X117248726Y-152189519D01*
X117259319Y-152224438D01*
X117263500Y-152266895D01*
X117263500Y-153733105D01*
X117259319Y-153775562D01*
X117248726Y-153810481D01*
X117231524Y-153842663D01*
X117208373Y-153870873D01*
X117180163Y-153894024D01*
X117147981Y-153911226D01*
X117113062Y-153921819D01*
X117070605Y-153926000D01*
X115929395Y-153926000D01*
X115886938Y-153921819D01*
X115852019Y-153911226D01*
X115819837Y-153894024D01*
X115791627Y-153870873D01*
X115768476Y-153842663D01*
X115751274Y-153810481D01*
X115740681Y-153775562D01*
X115736500Y-153733105D01*
X115736500Y-152266895D01*
X115740681Y-152224438D01*
X115751274Y-152189519D01*
X115768476Y-152157337D01*
X115791627Y-152129127D01*
X115819837Y-152105976D01*
X115852019Y-152088774D01*
X115886938Y-152078181D01*
X115929395Y-152074000D01*
X117070605Y-152074000D01*
X117113062Y-152078181D01*
G37*
G36*
X72811000Y-153811000D02*
G01*
X71189000Y-153811000D01*
X71189000Y-152189000D01*
X72811000Y-152189000D01*
X72811000Y-153811000D01*
G37*
G36*
X84736560Y-152220166D02*
G01*
X84884153Y-152281301D01*
X84952908Y-152327242D01*
X85016982Y-152370055D01*
X85129945Y-152483018D01*
X85218700Y-152615849D01*
X85279834Y-152763440D01*
X85311000Y-152920122D01*
X85311000Y-153079878D01*
X85279834Y-153236560D01*
X85218699Y-153384153D01*
X85129945Y-153516982D01*
X85016982Y-153629945D01*
X84884153Y-153718699D01*
X84884152Y-153718700D01*
X84884151Y-153718700D01*
X84736560Y-153779834D01*
X84579878Y-153811000D01*
X84420122Y-153811000D01*
X84263440Y-153779834D01*
X84115849Y-153718700D01*
X84115848Y-153718700D01*
X84115847Y-153718699D01*
X83983018Y-153629945D01*
X83870055Y-153516982D01*
X83781301Y-153384153D01*
X83720166Y-153236560D01*
X83689000Y-153079878D01*
X83689000Y-152920122D01*
X83720166Y-152763440D01*
X83781300Y-152615849D01*
X83870055Y-152483018D01*
X83983018Y-152370055D01*
X84047092Y-152327242D01*
X84115847Y-152281301D01*
X84263440Y-152220166D01*
X84420122Y-152189000D01*
X84579878Y-152189000D01*
X84736560Y-152220166D01*
G37*
G36*
X63616823Y-151161313D02*
G01*
X63777242Y-151209976D01*
X63909906Y-151280886D01*
X63925078Y-151288996D01*
X64054659Y-151395341D01*
X64161004Y-151524922D01*
X64161005Y-151524924D01*
X64240024Y-151672758D01*
X64288687Y-151833177D01*
X64305117Y-152000000D01*
X64288687Y-152166823D01*
X64240024Y-152327242D01*
X64217140Y-152370055D01*
X64161004Y-152475078D01*
X64054659Y-152604659D01*
X63925078Y-152711004D01*
X63925076Y-152711005D01*
X63777242Y-152790024D01*
X63616823Y-152838687D01*
X63491804Y-152851000D01*
X62508196Y-152851000D01*
X62383177Y-152838687D01*
X62222758Y-152790024D01*
X62074924Y-152711005D01*
X62074922Y-152711004D01*
X61945341Y-152604659D01*
X61838996Y-152475078D01*
X61782860Y-152370055D01*
X61759976Y-152327242D01*
X61711313Y-152166823D01*
X61694883Y-152000000D01*
X61711313Y-151833177D01*
X61759976Y-151672758D01*
X61838995Y-151524924D01*
X61838996Y-151524922D01*
X61945341Y-151395341D01*
X62074922Y-151288996D01*
X62090094Y-151280886D01*
X62222758Y-151209976D01*
X62383177Y-151161313D01*
X62508196Y-151149000D01*
X63491804Y-151149000D01*
X63616823Y-151161313D01*
G37*
G36*
X143238205Y-149802461D02*
G01*
X143356153Y-149825922D01*
X143448194Y-149864047D01*
X143578359Y-149917963D01*
X143778342Y-150051587D01*
X143948413Y-150221658D01*
X144082037Y-150421641D01*
X144135953Y-150551806D01*
X144174078Y-150643847D01*
X144221000Y-150879742D01*
X144221000Y-151120258D01*
X144174078Y-151356153D01*
X144135953Y-151448194D01*
X144082037Y-151578359D01*
X143948413Y-151778342D01*
X143778342Y-151948413D01*
X143578359Y-152082037D01*
X143488765Y-152119148D01*
X143356153Y-152174078D01*
X143281134Y-152189000D01*
X143120259Y-152221000D01*
X142879741Y-152221000D01*
X142718866Y-152189000D01*
X142643847Y-152174078D01*
X142511235Y-152119148D01*
X142421641Y-152082037D01*
X142221658Y-151948413D01*
X142051587Y-151778342D01*
X141917963Y-151578359D01*
X141864047Y-151448194D01*
X141825922Y-151356153D01*
X141779000Y-151120258D01*
X141779000Y-150879742D01*
X141825922Y-150643847D01*
X141864047Y-150551806D01*
X141917963Y-150421641D01*
X142051587Y-150221658D01*
X142221658Y-150051587D01*
X142421641Y-149917963D01*
X142551806Y-149864047D01*
X142643847Y-149825922D01*
X142761795Y-149802461D01*
X142879741Y-149779000D01*
X143120259Y-149779000D01*
X143238205Y-149802461D01*
G37*
G36*
X90784999Y-150199737D02*
G01*
X90794608Y-150202652D01*
X90803472Y-150207390D01*
X90811212Y-150213742D01*
X90811213Y-150213743D01*
X90811237Y-150213763D01*
X90817640Y-150221573D01*
X90817677Y-150221628D01*
X90825480Y-150231147D01*
X90825511Y-150231122D01*
X90836853Y-150244972D01*
X90855779Y-150260537D01*
X90877377Y-150272111D01*
X90900819Y-150279249D01*
X90925202Y-150281676D01*
X90949591Y-150279300D01*
X90973047Y-150272211D01*
X90994670Y-150260682D01*
X91013628Y-150245157D01*
X91029193Y-150226231D01*
X91031029Y-150223175D01*
X91032418Y-150221486D01*
X91032419Y-150221484D01*
X91038801Y-150213725D01*
X91046573Y-150207360D01*
X91046575Y-150207358D01*
X91055399Y-150202654D01*
X91055438Y-150202633D01*
X91065055Y-150199727D01*
X91065085Y-150199718D01*
X91081113Y-150198148D01*
X92218860Y-150198148D01*
X92234999Y-150199737D01*
X92244608Y-150202652D01*
X92253472Y-150207390D01*
X92261237Y-150213763D01*
X92267610Y-150221528D01*
X92272348Y-150230392D01*
X92275263Y-150240001D01*
X92276852Y-150256140D01*
X92276852Y-151743860D01*
X92275263Y-151759999D01*
X92272348Y-151769608D01*
X92267610Y-151778472D01*
X92261237Y-151786237D01*
X92253472Y-151792610D01*
X92244608Y-151797348D01*
X92234999Y-151800263D01*
X92218860Y-151801852D01*
X91081140Y-151801852D01*
X91065001Y-151800263D01*
X91055392Y-151797348D01*
X91046528Y-151792610D01*
X91038763Y-151786237D01*
X91028116Y-151773263D01*
X91021947Y-151764032D01*
X91004619Y-151746706D01*
X90984244Y-151733093D01*
X90961605Y-151723717D01*
X90937572Y-151718937D01*
X90913068Y-151718938D01*
X90889035Y-151723720D01*
X90866396Y-151733098D01*
X90846022Y-151746713D01*
X90828696Y-151764041D01*
X90821825Y-151773317D01*
X90817640Y-151778427D01*
X90811275Y-151786199D01*
X90803516Y-151792581D01*
X90794661Y-151797326D01*
X90791623Y-151798251D01*
X90785085Y-151800242D01*
X90785082Y-151800242D01*
X90785050Y-151800252D01*
X90775000Y-151801247D01*
X90774935Y-151801247D01*
X90768825Y-151801852D01*
X89781140Y-151801852D01*
X89765001Y-151800263D01*
X89755392Y-151797348D01*
X89746528Y-151792610D01*
X89738763Y-151786237D01*
X89732390Y-151778472D01*
X89727652Y-151769608D01*
X89724737Y-151759999D01*
X89723148Y-151743860D01*
X89723148Y-150256140D01*
X89724737Y-150240001D01*
X89727652Y-150230392D01*
X89732390Y-150221528D01*
X89738763Y-150213763D01*
X89746528Y-150207390D01*
X89755392Y-150202652D01*
X89765001Y-150199737D01*
X89781140Y-150198148D01*
X90768860Y-150198148D01*
X90784999Y-150199737D01*
G37*
G36*
X107175476Y-146200578D02*
G01*
X107325301Y-146230380D01*
X107607565Y-146347297D01*
X107861596Y-146517035D01*
X108077632Y-146733071D01*
X108247370Y-146987102D01*
X108364287Y-147269366D01*
X108423891Y-147569016D01*
X108423891Y-147874536D01*
X108364287Y-148174186D01*
X108247370Y-148456450D01*
X108077632Y-148710481D01*
X107861596Y-148926517D01*
X107607565Y-149096255D01*
X107325301Y-149213172D01*
X107175476Y-149242974D01*
X107025652Y-149272776D01*
X106720130Y-149272776D01*
X106570306Y-149242974D01*
X106420481Y-149213172D01*
X106138217Y-149096255D01*
X105884186Y-148926517D01*
X105668150Y-148710481D01*
X105498412Y-148456450D01*
X105381495Y-148174186D01*
X105321891Y-147874536D01*
X105321891Y-147569016D01*
X105381495Y-147269366D01*
X105498412Y-146987102D01*
X105668150Y-146733071D01*
X105884186Y-146517035D01*
X106138217Y-146347297D01*
X106420481Y-146230380D01*
X106570306Y-146200578D01*
X106720130Y-146170776D01*
X107025652Y-146170776D01*
X107175476Y-146200578D01*
G37*
G36*
X101429694Y-146200578D02*
G01*
X101579519Y-146230380D01*
X101861783Y-146347297D01*
X102115814Y-146517035D01*
X102331850Y-146733071D01*
X102501588Y-146987102D01*
X102618505Y-147269366D01*
X102678109Y-147569016D01*
X102678109Y-147874536D01*
X102618505Y-148174186D01*
X102501588Y-148456450D01*
X102331850Y-148710481D01*
X102115814Y-148926517D01*
X101861783Y-149096255D01*
X101579519Y-149213172D01*
X101429694Y-149242974D01*
X101279870Y-149272776D01*
X100974348Y-149272776D01*
X100824524Y-149242974D01*
X100674699Y-149213172D01*
X100392435Y-149096255D01*
X100138404Y-148926517D01*
X99922368Y-148710481D01*
X99752630Y-148456450D01*
X99635713Y-148174186D01*
X99576109Y-147874536D01*
X99576109Y-147569016D01*
X99635713Y-147269366D01*
X99752630Y-146987102D01*
X99922368Y-146733071D01*
X100138404Y-146517035D01*
X100392435Y-146347297D01*
X100674699Y-146230380D01*
X100824524Y-146200578D01*
X100974348Y-146170776D01*
X101279870Y-146170776D01*
X101429694Y-146200578D01*
G37*
G36*
X59846669Y-145127686D02*
G01*
X60023058Y-145145059D01*
X60362548Y-145248042D01*
X60362550Y-145248043D01*
X60675422Y-145415277D01*
X60949661Y-145640339D01*
X61174723Y-145914578D01*
X61284662Y-146120259D01*
X61341958Y-146227452D01*
X61444941Y-146566942D01*
X61479714Y-146920000D01*
X61444941Y-147273058D01*
X61355163Y-147569016D01*
X61341957Y-147612550D01*
X61174723Y-147925422D01*
X60949661Y-148199661D01*
X60675422Y-148424723D01*
X60362550Y-148591957D01*
X60362548Y-148591958D01*
X60023058Y-148694941D01*
X59865287Y-148710480D01*
X59758476Y-148721000D01*
X56081524Y-148721000D01*
X55974713Y-148710480D01*
X55816942Y-148694941D01*
X55477452Y-148591958D01*
X55477450Y-148591957D01*
X55164578Y-148424723D01*
X54890339Y-148199661D01*
X54665277Y-147925422D01*
X54498043Y-147612550D01*
X54484837Y-147569016D01*
X54395059Y-147273058D01*
X54360286Y-146920000D01*
X54395059Y-146566942D01*
X54498042Y-146227452D01*
X54555338Y-146120259D01*
X54665277Y-145914578D01*
X54890339Y-145640339D01*
X55164578Y-145415277D01*
X55477450Y-145248043D01*
X55477452Y-145248042D01*
X55816942Y-145145059D01*
X55993331Y-145127686D01*
X56081524Y-145119000D01*
X59758476Y-145119000D01*
X59846669Y-145127686D01*
G37*
G36*
X143356153Y-144825922D02*
G01*
X143448194Y-144864047D01*
X143578359Y-144917963D01*
X143778342Y-145051587D01*
X143948413Y-145221658D01*
X144082037Y-145421641D01*
X144174078Y-145643848D01*
X144221000Y-145879741D01*
X144221000Y-146120259D01*
X144200491Y-146223364D01*
X144175840Y-146347297D01*
X144174078Y-146356152D01*
X144082037Y-146578359D01*
X143948413Y-146778342D01*
X143778342Y-146948413D01*
X143578359Y-147082037D01*
X143448194Y-147135953D01*
X143356153Y-147174078D01*
X143120259Y-147221000D01*
X142879741Y-147221000D01*
X142643847Y-147174078D01*
X142551806Y-147135953D01*
X142421641Y-147082037D01*
X142221658Y-146948413D01*
X142051587Y-146778342D01*
X141917963Y-146578359D01*
X141825922Y-146356152D01*
X141824161Y-146347297D01*
X141799509Y-146223364D01*
X141779000Y-146120259D01*
X141779000Y-145879741D01*
X141825922Y-145643848D01*
X141917963Y-145421641D01*
X142051587Y-145221658D01*
X142221658Y-145051587D01*
X142421641Y-144917963D01*
X142551806Y-144864047D01*
X142643847Y-144825922D01*
X142879741Y-144779000D01*
X143120259Y-144779000D01*
X143356153Y-144825922D01*
G37*
G36*
X133356153Y-144825922D02*
G01*
X133448194Y-144864047D01*
X133578359Y-144917963D01*
X133778342Y-145051587D01*
X133948413Y-145221658D01*
X134082037Y-145421641D01*
X134174078Y-145643848D01*
X134221000Y-145879741D01*
X134221000Y-146120259D01*
X134200491Y-146223364D01*
X134175840Y-146347297D01*
X134174078Y-146356152D01*
X134082037Y-146578359D01*
X133948413Y-146778342D01*
X133778342Y-146948413D01*
X133578359Y-147082037D01*
X133448194Y-147135953D01*
X133356153Y-147174078D01*
X133120259Y-147221000D01*
X132879741Y-147221000D01*
X132643847Y-147174078D01*
X132551806Y-147135953D01*
X132421641Y-147082037D01*
X132221658Y-146948413D01*
X132051587Y-146778342D01*
X131917963Y-146578359D01*
X131825922Y-146356152D01*
X131824161Y-146347297D01*
X131799509Y-146223364D01*
X131779000Y-146120259D01*
X131779000Y-145879741D01*
X131825922Y-145643848D01*
X131917963Y-145421641D01*
X132051587Y-145221658D01*
X132221658Y-145051587D01*
X132421641Y-144917963D01*
X132551806Y-144864047D01*
X132643847Y-144825922D01*
X132879741Y-144779000D01*
X133120259Y-144779000D01*
X133356153Y-144825922D01*
G37*
G36*
X96453700Y-143327687D02*
G01*
X96603525Y-143357489D01*
X96885789Y-143474406D01*
X97139820Y-143644144D01*
X97355856Y-143860180D01*
X97525594Y-144114211D01*
X97642511Y-144396475D01*
X97702115Y-144696125D01*
X97702115Y-145001645D01*
X97642511Y-145301295D01*
X97525594Y-145583559D01*
X97355856Y-145837590D01*
X97139820Y-146053626D01*
X96885789Y-146223364D01*
X96603525Y-146340281D01*
X96453700Y-146370083D01*
X96303876Y-146399885D01*
X95998354Y-146399885D01*
X95848530Y-146370083D01*
X95698705Y-146340281D01*
X95416441Y-146223364D01*
X95162410Y-146053626D01*
X94946374Y-145837590D01*
X94776636Y-145583559D01*
X94659719Y-145301295D01*
X94600115Y-145001645D01*
X94600115Y-144696125D01*
X94659719Y-144396475D01*
X94776636Y-144114211D01*
X94946374Y-143860180D01*
X95162410Y-143644144D01*
X95416441Y-143474406D01*
X95698705Y-143357489D01*
X95848530Y-143327687D01*
X95998354Y-143297885D01*
X96303876Y-143297885D01*
X96453700Y-143327687D01*
G37*
G36*
X112151470Y-143327687D02*
G01*
X112301295Y-143357489D01*
X112583559Y-143474406D01*
X112837590Y-143644144D01*
X113053626Y-143860180D01*
X113223364Y-144114211D01*
X113340281Y-144396475D01*
X113399885Y-144696125D01*
X113399885Y-145001645D01*
X113340281Y-145301295D01*
X113223364Y-145583559D01*
X113053626Y-145837590D01*
X112837590Y-146053626D01*
X112583559Y-146223364D01*
X112301295Y-146340281D01*
X112151470Y-146370083D01*
X112001646Y-146399885D01*
X111696124Y-146399885D01*
X111546300Y-146370083D01*
X111396475Y-146340281D01*
X111114211Y-146223364D01*
X110860180Y-146053626D01*
X110644144Y-145837590D01*
X110474406Y-145583559D01*
X110357489Y-145301295D01*
X110297885Y-145001645D01*
X110297885Y-144696125D01*
X110357489Y-144396475D01*
X110474406Y-144114211D01*
X110644144Y-143860180D01*
X110860180Y-143644144D01*
X111114211Y-143474406D01*
X111396475Y-143357489D01*
X111546300Y-143327687D01*
X111696124Y-143297885D01*
X112001646Y-143297885D01*
X112151470Y-143327687D01*
G37*
G36*
X72236560Y-142220166D02*
G01*
X72384153Y-142281301D01*
X72516982Y-142370055D01*
X72629945Y-142483018D01*
X72718699Y-142615847D01*
X72779834Y-142763440D01*
X72811000Y-142920123D01*
X72811000Y-143079877D01*
X72779834Y-143236560D01*
X72718699Y-143384153D01*
X72629945Y-143516982D01*
X72516982Y-143629945D01*
X72384153Y-143718699D01*
X72384152Y-143718700D01*
X72384151Y-143718700D01*
X72236560Y-143779834D01*
X72079878Y-143811000D01*
X71920122Y-143811000D01*
X71763440Y-143779834D01*
X71615849Y-143718700D01*
X71615848Y-143718700D01*
X71615847Y-143718699D01*
X71483018Y-143629945D01*
X71370055Y-143516982D01*
X71281301Y-143384153D01*
X71220166Y-143236560D01*
X71189000Y-143079877D01*
X71189000Y-142920123D01*
X71220166Y-142763440D01*
X71281301Y-142615847D01*
X71370055Y-142483018D01*
X71483018Y-142370055D01*
X71615847Y-142281301D01*
X71763440Y-142220166D01*
X71920122Y-142189000D01*
X72079878Y-142189000D01*
X72236560Y-142220166D01*
G37*
G36*
X84736560Y-142220166D02*
G01*
X84884153Y-142281301D01*
X85016982Y-142370055D01*
X85129945Y-142483018D01*
X85218699Y-142615847D01*
X85279834Y-142763440D01*
X85311000Y-142920123D01*
X85311000Y-143079877D01*
X85279834Y-143236560D01*
X85218699Y-143384153D01*
X85129945Y-143516982D01*
X85016982Y-143629945D01*
X84884153Y-143718699D01*
X84884152Y-143718700D01*
X84884151Y-143718700D01*
X84736560Y-143779834D01*
X84579878Y-143811000D01*
X84420122Y-143811000D01*
X84263440Y-143779834D01*
X84115849Y-143718700D01*
X84115848Y-143718700D01*
X84115847Y-143718699D01*
X83983018Y-143629945D01*
X83870055Y-143516982D01*
X83781301Y-143384153D01*
X83720166Y-143236560D01*
X83689000Y-143079877D01*
X83689000Y-142920123D01*
X83720166Y-142763440D01*
X83781301Y-142615847D01*
X83870055Y-142483018D01*
X83983018Y-142370055D01*
X84115847Y-142281301D01*
X84263440Y-142220166D01*
X84420122Y-142189000D01*
X84579878Y-142189000D01*
X84736560Y-142220166D01*
G37*
G36*
X59926669Y-139207686D02*
G01*
X60103058Y-139225059D01*
X60442548Y-139328042D01*
X60442550Y-139328043D01*
X60755422Y-139495277D01*
X61029661Y-139720339D01*
X61254723Y-139994578D01*
X61271332Y-140025652D01*
X61421958Y-140307452D01*
X61524941Y-140646942D01*
X61559714Y-141000000D01*
X61524941Y-141353058D01*
X61503454Y-141423891D01*
X61421957Y-141692550D01*
X61254723Y-142005422D01*
X61029661Y-142279661D01*
X60755422Y-142504723D01*
X60547524Y-142615847D01*
X60442548Y-142671958D01*
X60103058Y-142774941D01*
X59926669Y-142792314D01*
X59838476Y-142801000D01*
X56161524Y-142801000D01*
X56073331Y-142792314D01*
X55896942Y-142774941D01*
X55557452Y-142671958D01*
X55452476Y-142615847D01*
X55244578Y-142504723D01*
X54970339Y-142279661D01*
X54745277Y-142005422D01*
X54578043Y-141692550D01*
X54496546Y-141423891D01*
X54475059Y-141353058D01*
X54440286Y-141000000D01*
X54475059Y-140646942D01*
X54578042Y-140307452D01*
X54728668Y-140025652D01*
X54745277Y-139994578D01*
X54970339Y-139720339D01*
X55244578Y-139495277D01*
X55557450Y-139328043D01*
X55557452Y-139328042D01*
X55896942Y-139225059D01*
X56073331Y-139207686D01*
X56161524Y-139199000D01*
X59838476Y-139199000D01*
X59926669Y-139207686D01*
G37*
G36*
X93531551Y-138341895D02*
G01*
X93730634Y-138381495D01*
X94012898Y-138498412D01*
X94266929Y-138668150D01*
X94482965Y-138884186D01*
X94652703Y-139138217D01*
X94769620Y-139420481D01*
X94829224Y-139720131D01*
X94829224Y-140025651D01*
X94769620Y-140325301D01*
X94652703Y-140607565D01*
X94482965Y-140861596D01*
X94266929Y-141077632D01*
X94012898Y-141247370D01*
X93730634Y-141364287D01*
X93580809Y-141394089D01*
X93430985Y-141423891D01*
X93125463Y-141423891D01*
X92975639Y-141394089D01*
X92825814Y-141364287D01*
X92543550Y-141247370D01*
X92289519Y-141077632D01*
X92073483Y-140861596D01*
X91903745Y-140607565D01*
X91786828Y-140325301D01*
X91727224Y-140025651D01*
X91727224Y-139720131D01*
X91786828Y-139420481D01*
X91903745Y-139138217D01*
X92073483Y-138884186D01*
X92289519Y-138668150D01*
X92543550Y-138498412D01*
X92825814Y-138381495D01*
X93024897Y-138341895D01*
X93125463Y-138321891D01*
X93430985Y-138321891D01*
X93531551Y-138341895D01*
G37*
G36*
X114975103Y-138341895D02*
G01*
X115174186Y-138381495D01*
X115456450Y-138498412D01*
X115710481Y-138668150D01*
X115926517Y-138884186D01*
X116096255Y-139138217D01*
X116213172Y-139420481D01*
X116272776Y-139720131D01*
X116272776Y-140025651D01*
X116213172Y-140325301D01*
X116096255Y-140607565D01*
X115926517Y-140861596D01*
X115710481Y-141077632D01*
X115456450Y-141247370D01*
X115174186Y-141364287D01*
X115024361Y-141394089D01*
X114874537Y-141423891D01*
X114569015Y-141423891D01*
X114419191Y-141394089D01*
X114269366Y-141364287D01*
X113987102Y-141247370D01*
X113733071Y-141077632D01*
X113517035Y-140861596D01*
X113347297Y-140607565D01*
X113230380Y-140325301D01*
X113170776Y-140025651D01*
X113170776Y-139720131D01*
X113230380Y-139420481D01*
X113347297Y-139138217D01*
X113517035Y-138884186D01*
X113733071Y-138668150D01*
X113987102Y-138498412D01*
X114269366Y-138381495D01*
X114468449Y-138341895D01*
X114569015Y-138321891D01*
X114874537Y-138321891D01*
X114975103Y-138341895D01*
G37*
G36*
X101580224Y-138201163D02*
G01*
X101730049Y-138230965D01*
X102012313Y-138347882D01*
X102266344Y-138517620D01*
X102482380Y-138733656D01*
X102652118Y-138987687D01*
X102769035Y-139269951D01*
X102828639Y-139569601D01*
X102828639Y-139875121D01*
X102769035Y-140174771D01*
X102652118Y-140457035D01*
X102482380Y-140711066D01*
X102266344Y-140927102D01*
X102012313Y-141096840D01*
X101730049Y-141213757D01*
X101580224Y-141243559D01*
X101430400Y-141273361D01*
X101124878Y-141273361D01*
X100975054Y-141243559D01*
X100825229Y-141213757D01*
X100542965Y-141096840D01*
X100288934Y-140927102D01*
X100072898Y-140711066D01*
X99903160Y-140457035D01*
X99786243Y-140174771D01*
X99726639Y-139875121D01*
X99726639Y-139569601D01*
X99786243Y-139269951D01*
X99903160Y-138987687D01*
X100072898Y-138733656D01*
X100288934Y-138517620D01*
X100542965Y-138347882D01*
X100825229Y-138230965D01*
X100975054Y-138201163D01*
X101124878Y-138171361D01*
X101430400Y-138171361D01*
X101580224Y-138201163D01*
G37*
G36*
X130613062Y-138078181D02*
G01*
X130647981Y-138088774D01*
X130680163Y-138105976D01*
X130708373Y-138129127D01*
X130731524Y-138157337D01*
X130748726Y-138189519D01*
X130759319Y-138224438D01*
X130763500Y-138266895D01*
X130763500Y-139733105D01*
X130759319Y-139775562D01*
X130748726Y-139810481D01*
X130731524Y-139842663D01*
X130708373Y-139870873D01*
X130680163Y-139894024D01*
X130647981Y-139911226D01*
X130613062Y-139921819D01*
X130570605Y-139926000D01*
X129429395Y-139926000D01*
X129386938Y-139921819D01*
X129352019Y-139911226D01*
X129319837Y-139894024D01*
X129291627Y-139870873D01*
X129268476Y-139842663D01*
X129251274Y-139810481D01*
X129240681Y-139775562D01*
X129236500Y-139733105D01*
X129236500Y-138266895D01*
X129240681Y-138224438D01*
X129251274Y-138189519D01*
X129268476Y-138157337D01*
X129291627Y-138129127D01*
X129319837Y-138105976D01*
X129352019Y-138088774D01*
X129386938Y-138078181D01*
X129429395Y-138074000D01*
X130570605Y-138074000D01*
X130613062Y-138078181D01*
G37*
G36*
X127588062Y-138078181D02*
G01*
X127622981Y-138088774D01*
X127655163Y-138105976D01*
X127683373Y-138129127D01*
X127706524Y-138157337D01*
X127723726Y-138189519D01*
X127734319Y-138224438D01*
X127738500Y-138266895D01*
X127738500Y-139733105D01*
X127734319Y-139775562D01*
X127723726Y-139810481D01*
X127706524Y-139842663D01*
X127683373Y-139870873D01*
X127655163Y-139894024D01*
X127622981Y-139911226D01*
X127588062Y-139921819D01*
X127545605Y-139926000D01*
X126404395Y-139926000D01*
X126361938Y-139921819D01*
X126327019Y-139911226D01*
X126294837Y-139894024D01*
X126266627Y-139870873D01*
X126243476Y-139842663D01*
X126226274Y-139810481D01*
X126215681Y-139775562D01*
X126211500Y-139733105D01*
X126211500Y-138266895D01*
X126215681Y-138224438D01*
X126226274Y-138189519D01*
X126243476Y-138157337D01*
X126266627Y-138129127D01*
X126294837Y-138105976D01*
X126327019Y-138088774D01*
X126361938Y-138078181D01*
X126404395Y-138074000D01*
X127545605Y-138074000D01*
X127588062Y-138078181D01*
G37*
G36*
X133588062Y-138078181D02*
G01*
X133622981Y-138088774D01*
X133655163Y-138105976D01*
X133683373Y-138129127D01*
X133706524Y-138157337D01*
X133723726Y-138189519D01*
X133734319Y-138224438D01*
X133738500Y-138266895D01*
X133738500Y-139733105D01*
X133734319Y-139775562D01*
X133723726Y-139810481D01*
X133706524Y-139842663D01*
X133683373Y-139870873D01*
X133655163Y-139894024D01*
X133622981Y-139911226D01*
X133588062Y-139921819D01*
X133545605Y-139926000D01*
X132404395Y-139926000D01*
X132361938Y-139921819D01*
X132327019Y-139911226D01*
X132294837Y-139894024D01*
X132266627Y-139870873D01*
X132243476Y-139842663D01*
X132226274Y-139810481D01*
X132215681Y-139775562D01*
X132211500Y-139733105D01*
X132211500Y-138266895D01*
X132215681Y-138224438D01*
X132226274Y-138189519D01*
X132243476Y-138157337D01*
X132266627Y-138129127D01*
X132294837Y-138105976D01*
X132327019Y-138088774D01*
X132361938Y-138078181D01*
X132404395Y-138074000D01*
X133545605Y-138074000D01*
X133588062Y-138078181D01*
G37*
G36*
X124613062Y-138078181D02*
G01*
X124647981Y-138088774D01*
X124680163Y-138105976D01*
X124708373Y-138129127D01*
X124731524Y-138157337D01*
X124748726Y-138189519D01*
X124759319Y-138224438D01*
X124763500Y-138266895D01*
X124763500Y-139733105D01*
X124759319Y-139775562D01*
X124748726Y-139810481D01*
X124731524Y-139842663D01*
X124708373Y-139870873D01*
X124680163Y-139894024D01*
X124647981Y-139911226D01*
X124613062Y-139921819D01*
X124570605Y-139926000D01*
X123429395Y-139926000D01*
X123386938Y-139921819D01*
X123352019Y-139911226D01*
X123319837Y-139894024D01*
X123291627Y-139870873D01*
X123268476Y-139842663D01*
X123251274Y-139810481D01*
X123240681Y-139775562D01*
X123236500Y-139733105D01*
X123236500Y-138266895D01*
X123240681Y-138224438D01*
X123251274Y-138189519D01*
X123268476Y-138157337D01*
X123291627Y-138129127D01*
X123319837Y-138105976D01*
X123352019Y-138088774D01*
X123386938Y-138078181D01*
X123429395Y-138074000D01*
X124570605Y-138074000D01*
X124613062Y-138078181D01*
G37*
G36*
X63696823Y-137621313D02*
G01*
X63857242Y-137669976D01*
X63989906Y-137740886D01*
X64005078Y-137748996D01*
X64134659Y-137855341D01*
X64241004Y-137984922D01*
X64241005Y-137984924D01*
X64320024Y-138132758D01*
X64368687Y-138293177D01*
X64385117Y-138460000D01*
X64368687Y-138626823D01*
X64320024Y-138787242D01*
X64312670Y-138801000D01*
X64241004Y-138935078D01*
X64134659Y-139064659D01*
X64005078Y-139171004D01*
X64005076Y-139171005D01*
X63857242Y-139250024D01*
X63696823Y-139298687D01*
X63571804Y-139311000D01*
X62588196Y-139311000D01*
X62463177Y-139298687D01*
X62302758Y-139250024D01*
X62154924Y-139171005D01*
X62154922Y-139171004D01*
X62025341Y-139064659D01*
X61918996Y-138935078D01*
X61847330Y-138801000D01*
X61839976Y-138787242D01*
X61791313Y-138626823D01*
X61774883Y-138460000D01*
X61791313Y-138293177D01*
X61839976Y-138132758D01*
X61918995Y-137984924D01*
X61918996Y-137984922D01*
X62025341Y-137855341D01*
X62154922Y-137748996D01*
X62170094Y-137740886D01*
X62302758Y-137669976D01*
X62463177Y-137621313D01*
X62588196Y-137609000D01*
X63571804Y-137609000D01*
X63696823Y-137621313D01*
G37*
G36*
X147051000Y-138801000D02*
G01*
X143949000Y-138801000D01*
X143949000Y-137199000D01*
X147051000Y-137199000D01*
X147051000Y-138801000D01*
G37*
G36*
X142051000Y-138801000D02*
G01*
X138949000Y-138801000D01*
X138949000Y-137199000D01*
X142051000Y-137199000D01*
X142051000Y-138801000D01*
G37*
G36*
X63696823Y-135081313D02*
G01*
X63857242Y-135129976D01*
X63989906Y-135200886D01*
X64005078Y-135208996D01*
X64134659Y-135315341D01*
X64241004Y-135444922D01*
X64241005Y-135444924D01*
X64320024Y-135592758D01*
X64368687Y-135753177D01*
X64385117Y-135920000D01*
X64368687Y-136086823D01*
X64320024Y-136247242D01*
X64249114Y-136379906D01*
X64241004Y-136395078D01*
X64134659Y-136524659D01*
X64005078Y-136631004D01*
X64005076Y-136631005D01*
X63857242Y-136710024D01*
X63696823Y-136758687D01*
X63571804Y-136771000D01*
X62588196Y-136771000D01*
X62463177Y-136758687D01*
X62302758Y-136710024D01*
X62154924Y-136631005D01*
X62154922Y-136631004D01*
X62025341Y-136524659D01*
X61918996Y-136395078D01*
X61910886Y-136379906D01*
X61839976Y-136247242D01*
X61791313Y-136086823D01*
X61774883Y-135920000D01*
X61791313Y-135753177D01*
X61839976Y-135592758D01*
X61918995Y-135444924D01*
X61918996Y-135444922D01*
X62025341Y-135315341D01*
X62154922Y-135208996D01*
X62170094Y-135200886D01*
X62302758Y-135129976D01*
X62463177Y-135081313D01*
X62588196Y-135069000D01*
X63571804Y-135069000D01*
X63696823Y-135081313D01*
G37*
G36*
X124613062Y-134078181D02*
G01*
X124647981Y-134088774D01*
X124680163Y-134105976D01*
X124708373Y-134129127D01*
X124731524Y-134157337D01*
X124748726Y-134189519D01*
X124759319Y-134224438D01*
X124763500Y-134266895D01*
X124763500Y-135733105D01*
X124759319Y-135775562D01*
X124748726Y-135810481D01*
X124731524Y-135842663D01*
X124708373Y-135870873D01*
X124680163Y-135894024D01*
X124647981Y-135911226D01*
X124613062Y-135921819D01*
X124570605Y-135926000D01*
X123429395Y-135926000D01*
X123386938Y-135921819D01*
X123352019Y-135911226D01*
X123319837Y-135894024D01*
X123291627Y-135870873D01*
X123268476Y-135842663D01*
X123251274Y-135810481D01*
X123240681Y-135775562D01*
X123236500Y-135733105D01*
X123236500Y-134266895D01*
X123240681Y-134224438D01*
X123251274Y-134189519D01*
X123268476Y-134157337D01*
X123291627Y-134129127D01*
X123319837Y-134105976D01*
X123352019Y-134088774D01*
X123386938Y-134078181D01*
X123429395Y-134074000D01*
X124570605Y-134074000D01*
X124613062Y-134078181D01*
G37*
G36*
X127588062Y-134078181D02*
G01*
X127622981Y-134088774D01*
X127655163Y-134105976D01*
X127683373Y-134129127D01*
X127706524Y-134157337D01*
X127723726Y-134189519D01*
X127734319Y-134224438D01*
X127738500Y-134266895D01*
X127738500Y-135733105D01*
X127734319Y-135775562D01*
X127723726Y-135810481D01*
X127706524Y-135842663D01*
X127683373Y-135870873D01*
X127655163Y-135894024D01*
X127622981Y-135911226D01*
X127588062Y-135921819D01*
X127545605Y-135926000D01*
X126404395Y-135926000D01*
X126361938Y-135921819D01*
X126327019Y-135911226D01*
X126294837Y-135894024D01*
X126266627Y-135870873D01*
X126243476Y-135842663D01*
X126226274Y-135810481D01*
X126215681Y-135775562D01*
X126211500Y-135733105D01*
X126211500Y-134266895D01*
X126215681Y-134224438D01*
X126226274Y-134189519D01*
X126243476Y-134157337D01*
X126266627Y-134129127D01*
X126294837Y-134105976D01*
X126327019Y-134088774D01*
X126361938Y-134078181D01*
X126404395Y-134074000D01*
X127545605Y-134074000D01*
X127588062Y-134078181D01*
G37*
G36*
X107005787Y-132752630D02*
G01*
X107174771Y-132786243D01*
X107457035Y-132903160D01*
X107711066Y-133072898D01*
X107927102Y-133288934D01*
X108096840Y-133542965D01*
X108213757Y-133825229D01*
X108273361Y-134124879D01*
X108273361Y-134430399D01*
X108213757Y-134730049D01*
X108096840Y-135012313D01*
X107927102Y-135266344D01*
X107711066Y-135482380D01*
X107457035Y-135652118D01*
X107174771Y-135769035D01*
X107024946Y-135798837D01*
X106875122Y-135828639D01*
X106569600Y-135828639D01*
X106419776Y-135798837D01*
X106269951Y-135769035D01*
X105987687Y-135652118D01*
X105733656Y-135482380D01*
X105517620Y-135266344D01*
X105347882Y-135012313D01*
X105230965Y-134730049D01*
X105171361Y-134430399D01*
X105171361Y-134124879D01*
X105230965Y-133825229D01*
X105347882Y-133542965D01*
X105517620Y-133288934D01*
X105733656Y-133072898D01*
X105987687Y-132903160D01*
X106269951Y-132786243D01*
X106438935Y-132752630D01*
X106569600Y-132726639D01*
X106875122Y-132726639D01*
X107005787Y-132752630D01*
G37*
G36*
X93580809Y-132605911D02*
G01*
X93730634Y-132635713D01*
X94012898Y-132752630D01*
X94266929Y-132922368D01*
X94482965Y-133138404D01*
X94652703Y-133392435D01*
X94769620Y-133674699D01*
X94829224Y-133974349D01*
X94829224Y-134279869D01*
X94769620Y-134579519D01*
X94652703Y-134861783D01*
X94482965Y-135115814D01*
X94266929Y-135331850D01*
X94012898Y-135501588D01*
X93730634Y-135618505D01*
X93580809Y-135648307D01*
X93430985Y-135678109D01*
X93125463Y-135678109D01*
X92975639Y-135648307D01*
X92825814Y-135618505D01*
X92543550Y-135501588D01*
X92289519Y-135331850D01*
X92073483Y-135115814D01*
X91903745Y-134861783D01*
X91786828Y-134579519D01*
X91727224Y-134279869D01*
X91727224Y-133974349D01*
X91786828Y-133674699D01*
X91903745Y-133392435D01*
X92073483Y-133138404D01*
X92289519Y-132922368D01*
X92543550Y-132752630D01*
X92825814Y-132635713D01*
X92975639Y-132605911D01*
X93125463Y-132576109D01*
X93430985Y-132576109D01*
X93580809Y-132605911D01*
G37*
G36*
X115024361Y-132605911D02*
G01*
X115174186Y-132635713D01*
X115456450Y-132752630D01*
X115710481Y-132922368D01*
X115926517Y-133138404D01*
X116096255Y-133392435D01*
X116213172Y-133674699D01*
X116272776Y-133974349D01*
X116272776Y-134279869D01*
X116213172Y-134579519D01*
X116096255Y-134861783D01*
X115926517Y-135115814D01*
X115710481Y-135331850D01*
X115456450Y-135501588D01*
X115174186Y-135618505D01*
X115024361Y-135648307D01*
X114874537Y-135678109D01*
X114569015Y-135678109D01*
X114419191Y-135648307D01*
X114269366Y-135618505D01*
X113987102Y-135501588D01*
X113733071Y-135331850D01*
X113517035Y-135115814D01*
X113347297Y-134861783D01*
X113230380Y-134579519D01*
X113170776Y-134279869D01*
X113170776Y-133974349D01*
X113230380Y-133674699D01*
X113347297Y-133392435D01*
X113517035Y-133138404D01*
X113733071Y-132922368D01*
X113987102Y-132752630D01*
X114269366Y-132635713D01*
X114419191Y-132605911D01*
X114569015Y-132576109D01*
X114874537Y-132576109D01*
X115024361Y-132605911D01*
G37*
G36*
X146328571Y-132202863D02*
G01*
X146407023Y-132210590D01*
X146507682Y-132241125D01*
X146558013Y-132256392D01*
X146697165Y-132330771D01*
X146819133Y-132430867D01*
X146919229Y-132552835D01*
X146993608Y-132691987D01*
X146993608Y-132691988D01*
X147039410Y-132842977D01*
X147054875Y-133000000D01*
X147039410Y-133157023D01*
X147008875Y-133257682D01*
X146993608Y-133308013D01*
X146919229Y-133447165D01*
X146819133Y-133569133D01*
X146697165Y-133669229D01*
X146558013Y-133743608D01*
X146507682Y-133758875D01*
X146407023Y-133789410D01*
X146328571Y-133797137D01*
X146289346Y-133801000D01*
X144710654Y-133801000D01*
X144671429Y-133797137D01*
X144592977Y-133789410D01*
X144492318Y-133758875D01*
X144441987Y-133743608D01*
X144302835Y-133669229D01*
X144180867Y-133569133D01*
X144080771Y-133447165D01*
X144006392Y-133308013D01*
X143991125Y-133257682D01*
X143960590Y-133157023D01*
X143945125Y-133000000D01*
X143960590Y-132842977D01*
X144006392Y-132691988D01*
X144006392Y-132691987D01*
X144080771Y-132552835D01*
X144180867Y-132430867D01*
X144302835Y-132330771D01*
X144441987Y-132256392D01*
X144492318Y-132241125D01*
X144592977Y-132210590D01*
X144671429Y-132202863D01*
X144710654Y-132199000D01*
X146289346Y-132199000D01*
X146328571Y-132202863D01*
G37*
G36*
X141328571Y-132202863D02*
G01*
X141407023Y-132210590D01*
X141507682Y-132241125D01*
X141558013Y-132256392D01*
X141697165Y-132330771D01*
X141819133Y-132430867D01*
X141919229Y-132552835D01*
X141993608Y-132691987D01*
X141993608Y-132691988D01*
X142039410Y-132842977D01*
X142054875Y-133000000D01*
X142039410Y-133157023D01*
X142008875Y-133257682D01*
X141993608Y-133308013D01*
X141919229Y-133447165D01*
X141819133Y-133569133D01*
X141697165Y-133669229D01*
X141558013Y-133743608D01*
X141507682Y-133758875D01*
X141407023Y-133789410D01*
X141328571Y-133797137D01*
X141289346Y-133801000D01*
X139710654Y-133801000D01*
X139671429Y-133797137D01*
X139592977Y-133789410D01*
X139492318Y-133758875D01*
X139441987Y-133743608D01*
X139302835Y-133669229D01*
X139180867Y-133569133D01*
X139080771Y-133447165D01*
X139006392Y-133308013D01*
X138991125Y-133257682D01*
X138960590Y-133157023D01*
X138945125Y-133000000D01*
X138960590Y-132842977D01*
X139006392Y-132691988D01*
X139006392Y-132691987D01*
X139080771Y-132552835D01*
X139180867Y-132430867D01*
X139302835Y-132330771D01*
X139441987Y-132256392D01*
X139492318Y-132241125D01*
X139592977Y-132210590D01*
X139671429Y-132202863D01*
X139710654Y-132199000D01*
X141289346Y-132199000D01*
X141328571Y-132202863D01*
G37*
G36*
X75666320Y-130278103D02*
G01*
X75700485Y-130288467D01*
X75731964Y-130305293D01*
X75759560Y-130327940D01*
X75782207Y-130355536D01*
X75799033Y-130387015D01*
X75809397Y-130421180D01*
X75813500Y-130462842D01*
X75813500Y-133537158D01*
X75809397Y-133578820D01*
X75799033Y-133612985D01*
X75782207Y-133644464D01*
X75759560Y-133672060D01*
X75731964Y-133694707D01*
X75700485Y-133711533D01*
X75666320Y-133721897D01*
X75624658Y-133726000D01*
X74375342Y-133726000D01*
X74333680Y-133721897D01*
X74299515Y-133711533D01*
X74268036Y-133694707D01*
X74240440Y-133672060D01*
X74217793Y-133644464D01*
X74200967Y-133612985D01*
X74190603Y-133578820D01*
X74186500Y-133537158D01*
X74186500Y-130462842D01*
X74190603Y-130421180D01*
X74200967Y-130387015D01*
X74217793Y-130355536D01*
X74240440Y-130327940D01*
X74268036Y-130305293D01*
X74299515Y-130288467D01*
X74333680Y-130278103D01*
X74375342Y-130274000D01*
X75624658Y-130274000D01*
X75666320Y-130278103D01*
G37*
G36*
X81641320Y-130278103D02*
G01*
X81675485Y-130288467D01*
X81706964Y-130305293D01*
X81734560Y-130327940D01*
X81757207Y-130355536D01*
X81774033Y-130387015D01*
X81784397Y-130421180D01*
X81788500Y-130462842D01*
X81788500Y-133537158D01*
X81784397Y-133578820D01*
X81774033Y-133612985D01*
X81757207Y-133644464D01*
X81734560Y-133672060D01*
X81706964Y-133694707D01*
X81675485Y-133711533D01*
X81641320Y-133721897D01*
X81599658Y-133726000D01*
X80350342Y-133726000D01*
X80308680Y-133721897D01*
X80274515Y-133711533D01*
X80243036Y-133694707D01*
X80215440Y-133672060D01*
X80192793Y-133644464D01*
X80175967Y-133612985D01*
X80165603Y-133578820D01*
X80161500Y-133537158D01*
X80161500Y-130462842D01*
X80165603Y-130421180D01*
X80175967Y-130387015D01*
X80192793Y-130355536D01*
X80215440Y-130327940D01*
X80243036Y-130305293D01*
X80274515Y-130288467D01*
X80308680Y-130278103D01*
X80350342Y-130274000D01*
X81599658Y-130274000D01*
X81641320Y-130278103D01*
G37*
G36*
X59926669Y-129047686D02*
G01*
X60103058Y-129065059D01*
X60442548Y-129168042D01*
X60442550Y-129168043D01*
X60755422Y-129335277D01*
X61029661Y-129560339D01*
X61254723Y-129834578D01*
X61282096Y-129885789D01*
X61421958Y-130147452D01*
X61524941Y-130486942D01*
X61559714Y-130840000D01*
X61524941Y-131193058D01*
X61421958Y-131532548D01*
X61421957Y-131532550D01*
X61254723Y-131845422D01*
X61029661Y-132119661D01*
X60755422Y-132344723D01*
X60594258Y-132430867D01*
X60442548Y-132511958D01*
X60103058Y-132614941D01*
X59926669Y-132632314D01*
X59838476Y-132641000D01*
X56161524Y-132641000D01*
X56073331Y-132632314D01*
X55896942Y-132614941D01*
X55557452Y-132511958D01*
X55405742Y-132430867D01*
X55244578Y-132344723D01*
X54970339Y-132119661D01*
X54745277Y-131845422D01*
X54578043Y-131532550D01*
X54578042Y-131532548D01*
X54475059Y-131193058D01*
X54440286Y-130840000D01*
X54475059Y-130486942D01*
X54578042Y-130147452D01*
X54717904Y-129885789D01*
X54745277Y-129834578D01*
X54970339Y-129560339D01*
X55244578Y-129335277D01*
X55557450Y-129168043D01*
X55557452Y-129168042D01*
X55896942Y-129065059D01*
X56073331Y-129047686D01*
X56161524Y-129039000D01*
X59838476Y-129039000D01*
X59926669Y-129047686D01*
G37*
G36*
X124613062Y-130078181D02*
G01*
X124647981Y-130088774D01*
X124680163Y-130105976D01*
X124708373Y-130129127D01*
X124731524Y-130157337D01*
X124748726Y-130189519D01*
X124759319Y-130224438D01*
X124763500Y-130266895D01*
X124763500Y-131733105D01*
X124759319Y-131775562D01*
X124748726Y-131810481D01*
X124731524Y-131842663D01*
X124708373Y-131870873D01*
X124680163Y-131894024D01*
X124647981Y-131911226D01*
X124613062Y-131921819D01*
X124570605Y-131926000D01*
X123429395Y-131926000D01*
X123386938Y-131921819D01*
X123352019Y-131911226D01*
X123319837Y-131894024D01*
X123291627Y-131870873D01*
X123268476Y-131842663D01*
X123251274Y-131810481D01*
X123240681Y-131775562D01*
X123236500Y-131733105D01*
X123236500Y-130266895D01*
X123240681Y-130224438D01*
X123251274Y-130189519D01*
X123268476Y-130157337D01*
X123291627Y-130129127D01*
X123319837Y-130105976D01*
X123352019Y-130088774D01*
X123386938Y-130078181D01*
X123429395Y-130074000D01*
X124570605Y-130074000D01*
X124613062Y-130078181D01*
G37*
G36*
X127588062Y-130078181D02*
G01*
X127622981Y-130088774D01*
X127655163Y-130105976D01*
X127683373Y-130129127D01*
X127706524Y-130157337D01*
X127723726Y-130189519D01*
X127734319Y-130224438D01*
X127738500Y-130266895D01*
X127738500Y-131733105D01*
X127734319Y-131775562D01*
X127723726Y-131810481D01*
X127706524Y-131842663D01*
X127683373Y-131870873D01*
X127655163Y-131894024D01*
X127622981Y-131911226D01*
X127588062Y-131921819D01*
X127545605Y-131926000D01*
X126404395Y-131926000D01*
X126361938Y-131921819D01*
X126327019Y-131911226D01*
X126294837Y-131894024D01*
X126266627Y-131870873D01*
X126243476Y-131842663D01*
X126226274Y-131810481D01*
X126215681Y-131775562D01*
X126211500Y-131733105D01*
X126211500Y-130266895D01*
X126215681Y-130224438D01*
X126226274Y-130189519D01*
X126243476Y-130157337D01*
X126266627Y-130129127D01*
X126294837Y-130105976D01*
X126327019Y-130088774D01*
X126361938Y-130078181D01*
X126404395Y-130074000D01*
X127545605Y-130074000D01*
X127588062Y-130078181D01*
G37*
G36*
X133588062Y-130078181D02*
G01*
X133622981Y-130088774D01*
X133655163Y-130105976D01*
X133683373Y-130129127D01*
X133706524Y-130157337D01*
X133723726Y-130189519D01*
X133734319Y-130224438D01*
X133738500Y-130266895D01*
X133738500Y-131733105D01*
X133734319Y-131775562D01*
X133723726Y-131810481D01*
X133706524Y-131842663D01*
X133683373Y-131870873D01*
X133655163Y-131894024D01*
X133622981Y-131911226D01*
X133588062Y-131921819D01*
X133545605Y-131926000D01*
X132404395Y-131926000D01*
X132361938Y-131921819D01*
X132327019Y-131911226D01*
X132294837Y-131894024D01*
X132266627Y-131870873D01*
X132243476Y-131842663D01*
X132226274Y-131810481D01*
X132215681Y-131775562D01*
X132211500Y-131733105D01*
X132211500Y-130266895D01*
X132215681Y-130224438D01*
X132226274Y-130189519D01*
X132243476Y-130157337D01*
X132266627Y-130129127D01*
X132294837Y-130105976D01*
X132327019Y-130088774D01*
X132361938Y-130078181D01*
X132404395Y-130074000D01*
X133545605Y-130074000D01*
X133588062Y-130078181D01*
G37*
G36*
X130613062Y-130078181D02*
G01*
X130647981Y-130088774D01*
X130680163Y-130105976D01*
X130708373Y-130129127D01*
X130731524Y-130157337D01*
X130748726Y-130189519D01*
X130759319Y-130224438D01*
X130763500Y-130266895D01*
X130763500Y-131733105D01*
X130759319Y-131775562D01*
X130748726Y-131810481D01*
X130731524Y-131842663D01*
X130708373Y-131870873D01*
X130680163Y-131894024D01*
X130647981Y-131911226D01*
X130613062Y-131921819D01*
X130570605Y-131926000D01*
X129429395Y-131926000D01*
X129386938Y-131921819D01*
X129352019Y-131911226D01*
X129319837Y-131894024D01*
X129291627Y-131870873D01*
X129268476Y-131842663D01*
X129251274Y-131810481D01*
X129240681Y-131775562D01*
X129236500Y-131733105D01*
X129236500Y-130266895D01*
X129240681Y-130224438D01*
X129251274Y-130189519D01*
X129268476Y-130157337D01*
X129291627Y-130129127D01*
X129319837Y-130105976D01*
X129352019Y-130088774D01*
X129386938Y-130078181D01*
X129429395Y-130074000D01*
X130570605Y-130074000D01*
X130613062Y-130078181D01*
G37*
G36*
X112151470Y-127629917D02*
G01*
X112301295Y-127659719D01*
X112583559Y-127776636D01*
X112837590Y-127946374D01*
X113053626Y-128162410D01*
X113223364Y-128416441D01*
X113340281Y-128698705D01*
X113399885Y-128998355D01*
X113399885Y-129303875D01*
X113340281Y-129603525D01*
X113223364Y-129885789D01*
X113053626Y-130139820D01*
X112837590Y-130355856D01*
X112583559Y-130525594D01*
X112301295Y-130642511D01*
X112151470Y-130672313D01*
X112001646Y-130702115D01*
X111696124Y-130702115D01*
X111546300Y-130672313D01*
X111396475Y-130642511D01*
X111114211Y-130525594D01*
X110860180Y-130355856D01*
X110644144Y-130139820D01*
X110474406Y-129885789D01*
X110357489Y-129603525D01*
X110297885Y-129303875D01*
X110297885Y-128998355D01*
X110357489Y-128698705D01*
X110474406Y-128416441D01*
X110644144Y-128162410D01*
X110860180Y-127946374D01*
X111114211Y-127776636D01*
X111396475Y-127659719D01*
X111546300Y-127629917D01*
X111696124Y-127600115D01*
X112001646Y-127600115D01*
X112151470Y-127629917D01*
G37*
G36*
X96453700Y-127629917D02*
G01*
X96603525Y-127659719D01*
X96885789Y-127776636D01*
X97139820Y-127946374D01*
X97355856Y-128162410D01*
X97525594Y-128416441D01*
X97642511Y-128698705D01*
X97702115Y-128998355D01*
X97702115Y-129303875D01*
X97642511Y-129603525D01*
X97525594Y-129885789D01*
X97355856Y-130139820D01*
X97139820Y-130355856D01*
X96885789Y-130525594D01*
X96603525Y-130642511D01*
X96453700Y-130672313D01*
X96303876Y-130702115D01*
X95998354Y-130702115D01*
X95848530Y-130672313D01*
X95698705Y-130642511D01*
X95416441Y-130525594D01*
X95162410Y-130355856D01*
X94946374Y-130139820D01*
X94776636Y-129885789D01*
X94659719Y-129603525D01*
X94600115Y-129303875D01*
X94600115Y-128998355D01*
X94659719Y-128698705D01*
X94776636Y-128416441D01*
X94946374Y-128162410D01*
X95162410Y-127946374D01*
X95416441Y-127776636D01*
X95698705Y-127659719D01*
X95848530Y-127629917D01*
X95998354Y-127600115D01*
X96303876Y-127600115D01*
X96453700Y-127629917D01*
G37*
G36*
X141328571Y-127202863D02*
G01*
X141407023Y-127210590D01*
X141507682Y-127241125D01*
X141558013Y-127256392D01*
X141697165Y-127330771D01*
X141819133Y-127430867D01*
X141919229Y-127552835D01*
X141993608Y-127691987D01*
X141993608Y-127691988D01*
X142039410Y-127842977D01*
X142054875Y-128000000D01*
X142039410Y-128157023D01*
X142008875Y-128257682D01*
X141993608Y-128308013D01*
X141919229Y-128447165D01*
X141819133Y-128569133D01*
X141697165Y-128669229D01*
X141558013Y-128743608D01*
X141507682Y-128758875D01*
X141407023Y-128789410D01*
X141328571Y-128797137D01*
X141289346Y-128801000D01*
X139710654Y-128801000D01*
X139671429Y-128797137D01*
X139592977Y-128789410D01*
X139492318Y-128758875D01*
X139441987Y-128743608D01*
X139302835Y-128669229D01*
X139180867Y-128569133D01*
X139080771Y-128447165D01*
X139006392Y-128308013D01*
X138991125Y-128257682D01*
X138960590Y-128157023D01*
X138945125Y-128000000D01*
X138960590Y-127842977D01*
X139006392Y-127691988D01*
X139006392Y-127691987D01*
X139080771Y-127552835D01*
X139180867Y-127430867D01*
X139302835Y-127330771D01*
X139441987Y-127256392D01*
X139492318Y-127241125D01*
X139592977Y-127210590D01*
X139671429Y-127202863D01*
X139710654Y-127199000D01*
X141289346Y-127199000D01*
X141328571Y-127202863D01*
G37*
G36*
X146328571Y-127202863D02*
G01*
X146407023Y-127210590D01*
X146507682Y-127241125D01*
X146558013Y-127256392D01*
X146697165Y-127330771D01*
X146819133Y-127430867D01*
X146919229Y-127552835D01*
X146993608Y-127691987D01*
X146993608Y-127691988D01*
X147039410Y-127842977D01*
X147054875Y-128000000D01*
X147039410Y-128157023D01*
X147008875Y-128257682D01*
X146993608Y-128308013D01*
X146919229Y-128447165D01*
X146819133Y-128569133D01*
X146697165Y-128669229D01*
X146558013Y-128743608D01*
X146507682Y-128758875D01*
X146407023Y-128789410D01*
X146328571Y-128797137D01*
X146289346Y-128801000D01*
X144710654Y-128801000D01*
X144671429Y-128797137D01*
X144592977Y-128789410D01*
X144492318Y-128758875D01*
X144441987Y-128743608D01*
X144302835Y-128669229D01*
X144180867Y-128569133D01*
X144080771Y-128447165D01*
X144006392Y-128308013D01*
X143991125Y-128257682D01*
X143960590Y-128157023D01*
X143945125Y-128000000D01*
X143960590Y-127842977D01*
X144006392Y-127691988D01*
X144006392Y-127691987D01*
X144080771Y-127552835D01*
X144180867Y-127430867D01*
X144302835Y-127330771D01*
X144441987Y-127256392D01*
X144492318Y-127241125D01*
X144592977Y-127210590D01*
X144671429Y-127202863D01*
X144710654Y-127199000D01*
X146289346Y-127199000D01*
X146328571Y-127202863D01*
G37*
G36*
X71451000Y-128501000D02*
G01*
X70549000Y-128501000D01*
X70549000Y-126499000D01*
X71451000Y-126499000D01*
X71451000Y-128501000D01*
G37*
G36*
X74501000Y-128501000D02*
G01*
X73599000Y-128501000D01*
X73599000Y-126499000D01*
X74501000Y-126499000D01*
X74501000Y-128501000D01*
G37*
G36*
X76401000Y-128501000D02*
G01*
X75499000Y-128501000D01*
X75499000Y-126499000D01*
X76401000Y-126499000D01*
X76401000Y-128501000D01*
G37*
G36*
X130613062Y-126078181D02*
G01*
X130647981Y-126088774D01*
X130680163Y-126105976D01*
X130708373Y-126129127D01*
X130731524Y-126157337D01*
X130748726Y-126189519D01*
X130759319Y-126224438D01*
X130763500Y-126266895D01*
X130763500Y-127733105D01*
X130759319Y-127775562D01*
X130748726Y-127810481D01*
X130731524Y-127842663D01*
X130708373Y-127870873D01*
X130680163Y-127894024D01*
X130647981Y-127911226D01*
X130613062Y-127921819D01*
X130570605Y-127926000D01*
X129429395Y-127926000D01*
X129386938Y-127921819D01*
X129352019Y-127911226D01*
X129319837Y-127894024D01*
X129291627Y-127870873D01*
X129268476Y-127842663D01*
X129251274Y-127810481D01*
X129240681Y-127775562D01*
X129236500Y-127733105D01*
X129236500Y-126266895D01*
X129240681Y-126224438D01*
X129251274Y-126189519D01*
X129268476Y-126157337D01*
X129291627Y-126129127D01*
X129319837Y-126105976D01*
X129352019Y-126088774D01*
X129386938Y-126078181D01*
X129429395Y-126074000D01*
X130570605Y-126074000D01*
X130613062Y-126078181D01*
G37*
G36*
X133588062Y-126078181D02*
G01*
X133622981Y-126088774D01*
X133655163Y-126105976D01*
X133683373Y-126129127D01*
X133706524Y-126157337D01*
X133723726Y-126189519D01*
X133734319Y-126224438D01*
X133738500Y-126266895D01*
X133738500Y-127733105D01*
X133734319Y-127775562D01*
X133723726Y-127810481D01*
X133706524Y-127842663D01*
X133683373Y-127870873D01*
X133655163Y-127894024D01*
X133622981Y-127911226D01*
X133588062Y-127921819D01*
X133545605Y-127926000D01*
X132404395Y-127926000D01*
X132361938Y-127921819D01*
X132327019Y-127911226D01*
X132294837Y-127894024D01*
X132266627Y-127870873D01*
X132243476Y-127842663D01*
X132226274Y-127810481D01*
X132215681Y-127775562D01*
X132211500Y-127733105D01*
X132211500Y-126266895D01*
X132215681Y-126224438D01*
X132226274Y-126189519D01*
X132243476Y-126157337D01*
X132266627Y-126129127D01*
X132294837Y-126105976D01*
X132327019Y-126088774D01*
X132361938Y-126078181D01*
X132404395Y-126074000D01*
X133545605Y-126074000D01*
X133588062Y-126078181D01*
G37*
G36*
X127588062Y-126078181D02*
G01*
X127622981Y-126088774D01*
X127655163Y-126105976D01*
X127683373Y-126129127D01*
X127706524Y-126157337D01*
X127723726Y-126189519D01*
X127734319Y-126224438D01*
X127738500Y-126266895D01*
X127738500Y-127733105D01*
X127734319Y-127775562D01*
X127723726Y-127810481D01*
X127706524Y-127842663D01*
X127683373Y-127870873D01*
X127655163Y-127894024D01*
X127622981Y-127911226D01*
X127588062Y-127921819D01*
X127545605Y-127926000D01*
X126404395Y-127926000D01*
X126361938Y-127921819D01*
X126327019Y-127911226D01*
X126294837Y-127894024D01*
X126266627Y-127870873D01*
X126243476Y-127842663D01*
X126226274Y-127810481D01*
X126215681Y-127775562D01*
X126211500Y-127733105D01*
X126211500Y-126266895D01*
X126215681Y-126224438D01*
X126226274Y-126189519D01*
X126243476Y-126157337D01*
X126266627Y-126129127D01*
X126294837Y-126105976D01*
X126327019Y-126088774D01*
X126361938Y-126078181D01*
X126404395Y-126074000D01*
X127545605Y-126074000D01*
X127588062Y-126078181D01*
G37*
G36*
X124613062Y-126078181D02*
G01*
X124647981Y-126088774D01*
X124680163Y-126105976D01*
X124708373Y-126129127D01*
X124731524Y-126157337D01*
X124748726Y-126189519D01*
X124759319Y-126224438D01*
X124763500Y-126266895D01*
X124763500Y-127733105D01*
X124759319Y-127775562D01*
X124748726Y-127810481D01*
X124731524Y-127842663D01*
X124708373Y-127870873D01*
X124680163Y-127894024D01*
X124647981Y-127911226D01*
X124613062Y-127921819D01*
X124570605Y-127926000D01*
X123429395Y-127926000D01*
X123386938Y-127921819D01*
X123352019Y-127911226D01*
X123319837Y-127894024D01*
X123291627Y-127870873D01*
X123268476Y-127842663D01*
X123251274Y-127810481D01*
X123240681Y-127775562D01*
X123236500Y-127733105D01*
X123236500Y-126266895D01*
X123240681Y-126224438D01*
X123251274Y-126189519D01*
X123268476Y-126157337D01*
X123291627Y-126129127D01*
X123319837Y-126105976D01*
X123352019Y-126088774D01*
X123386938Y-126078181D01*
X123429395Y-126074000D01*
X124570605Y-126074000D01*
X124613062Y-126078181D01*
G37*
G36*
X101429694Y-124757026D02*
G01*
X101579519Y-124786828D01*
X101861783Y-124903745D01*
X102115814Y-125073483D01*
X102331850Y-125289519D01*
X102501588Y-125543550D01*
X102596442Y-125772550D01*
X102618505Y-125825815D01*
X102671929Y-126094392D01*
X102678109Y-126125464D01*
X102678109Y-126430984D01*
X102618505Y-126730634D01*
X102501588Y-127012898D01*
X102331850Y-127266929D01*
X102115814Y-127482965D01*
X101861783Y-127652703D01*
X101579519Y-127769620D01*
X101429694Y-127799422D01*
X101279870Y-127829224D01*
X100974348Y-127829224D01*
X100824524Y-127799422D01*
X100674699Y-127769620D01*
X100392435Y-127652703D01*
X100138404Y-127482965D01*
X99922368Y-127266929D01*
X99752630Y-127012898D01*
X99635713Y-126730634D01*
X99576109Y-126430984D01*
X99576109Y-126125464D01*
X99582290Y-126094392D01*
X99635713Y-125825815D01*
X99657776Y-125772550D01*
X99752630Y-125543550D01*
X99922368Y-125289519D01*
X100138404Y-125073483D01*
X100392435Y-124903745D01*
X100674699Y-124786828D01*
X100824524Y-124757026D01*
X100974348Y-124727224D01*
X101279870Y-124727224D01*
X101429694Y-124757026D01*
G37*
G36*
X107175476Y-124757026D02*
G01*
X107325301Y-124786828D01*
X107607565Y-124903745D01*
X107861596Y-125073483D01*
X108077632Y-125289519D01*
X108247370Y-125543550D01*
X108342224Y-125772550D01*
X108364287Y-125825815D01*
X108417711Y-126094392D01*
X108423891Y-126125464D01*
X108423891Y-126430984D01*
X108364287Y-126730634D01*
X108247370Y-127012898D01*
X108077632Y-127266929D01*
X107861596Y-127482965D01*
X107607565Y-127652703D01*
X107325301Y-127769620D01*
X107175476Y-127799422D01*
X107025652Y-127829224D01*
X106720130Y-127829224D01*
X106570306Y-127799422D01*
X106420481Y-127769620D01*
X106138217Y-127652703D01*
X105884186Y-127482965D01*
X105668150Y-127266929D01*
X105498412Y-127012898D01*
X105381495Y-126730634D01*
X105321891Y-126430984D01*
X105321891Y-126125464D01*
X105328072Y-126094392D01*
X105381495Y-125825815D01*
X105403558Y-125772550D01*
X105498412Y-125543550D01*
X105668150Y-125289519D01*
X105884186Y-125073483D01*
X106138217Y-124903745D01*
X106420481Y-124786828D01*
X106570306Y-124757026D01*
X106720130Y-124727224D01*
X107025652Y-124727224D01*
X107175476Y-124757026D01*
G37*
G36*
X59846669Y-123287686D02*
G01*
X60023058Y-123305059D01*
X60362548Y-123408042D01*
X60362550Y-123408043D01*
X60675422Y-123575277D01*
X60675424Y-123575278D01*
X60675423Y-123575278D01*
X60949661Y-123800339D01*
X61174722Y-124074577D01*
X61341958Y-124387452D01*
X61444941Y-124726942D01*
X61479714Y-125080000D01*
X61444941Y-125433058D01*
X61411423Y-125543552D01*
X61341957Y-125772550D01*
X61174723Y-126085422D01*
X60949661Y-126359661D01*
X60675422Y-126584723D01*
X60402444Y-126730633D01*
X60362548Y-126751958D01*
X60023058Y-126854941D01*
X59846669Y-126872314D01*
X59758476Y-126881000D01*
X56081524Y-126881000D01*
X55993331Y-126872314D01*
X55816942Y-126854941D01*
X55477452Y-126751958D01*
X55437556Y-126730633D01*
X55164578Y-126584723D01*
X54890339Y-126359661D01*
X54665277Y-126085422D01*
X54498043Y-125772550D01*
X54428577Y-125543552D01*
X54395059Y-125433058D01*
X54360286Y-125080000D01*
X54395059Y-124726942D01*
X54498042Y-124387452D01*
X54665278Y-124074577D01*
X54890339Y-123800339D01*
X55164577Y-123575278D01*
X55164576Y-123575278D01*
X55164578Y-123575277D01*
X55477450Y-123408043D01*
X55477452Y-123408042D01*
X55816942Y-123305059D01*
X55993331Y-123287686D01*
X56081524Y-123279000D01*
X59758476Y-123279000D01*
X59846669Y-123287686D01*
G37*
G36*
X70501000Y-125501000D02*
G01*
X69599000Y-125501000D01*
X69599000Y-123499000D01*
X70501000Y-123499000D01*
X70501000Y-125501000D01*
G37*
G36*
X75451000Y-125501000D02*
G01*
X74549000Y-125501000D01*
X74549000Y-123499000D01*
X75451000Y-123499000D01*
X75451000Y-125501000D01*
G37*
G36*
X72401000Y-125501000D02*
G01*
X71499000Y-125501000D01*
X71499000Y-123499000D01*
X72401000Y-123499000D01*
X72401000Y-125501000D01*
G37*
G36*
X63616823Y-121701313D02*
G01*
X63777242Y-121749976D01*
X63909906Y-121820886D01*
X63925078Y-121828996D01*
X64054659Y-121935341D01*
X64161004Y-122064922D01*
X64161005Y-122064924D01*
X64240024Y-122212758D01*
X64288687Y-122373177D01*
X64305117Y-122540000D01*
X64288687Y-122706823D01*
X64240024Y-122867242D01*
X64169114Y-122999906D01*
X64161004Y-123015078D01*
X64054659Y-123144659D01*
X63925078Y-123251004D01*
X63925076Y-123251005D01*
X63777242Y-123330024D01*
X63616823Y-123378687D01*
X63491804Y-123391000D01*
X62508196Y-123391000D01*
X62383177Y-123378687D01*
X62222758Y-123330024D01*
X62074924Y-123251005D01*
X62074922Y-123251004D01*
X61945341Y-123144659D01*
X61838996Y-123015078D01*
X61830886Y-122999906D01*
X61759976Y-122867242D01*
X61711313Y-122706823D01*
X61694883Y-122540000D01*
X61711313Y-122373177D01*
X61759976Y-122212758D01*
X61838995Y-122064924D01*
X61838996Y-122064922D01*
X61945341Y-121935341D01*
X62074922Y-121828996D01*
X62090094Y-121820886D01*
X62222758Y-121749976D01*
X62383177Y-121701313D01*
X62508196Y-121689000D01*
X63491804Y-121689000D01*
X63616823Y-121701313D01*
G37*
G36*
X84441279Y-119025577D02*
G01*
X84591104Y-119055379D01*
X84873368Y-119172296D01*
X85127399Y-119342034D01*
X85343435Y-119558070D01*
X85513173Y-119812101D01*
X85630090Y-120094365D01*
X85630090Y-120094366D01*
X85689694Y-120394014D01*
X85689694Y-120699536D01*
X85662015Y-120838686D01*
X85630090Y-120999185D01*
X85513173Y-121281449D01*
X85343435Y-121535480D01*
X85127399Y-121751516D01*
X84873368Y-121921254D01*
X84591104Y-122038171D01*
X84456617Y-122064922D01*
X84291455Y-122097775D01*
X83985933Y-122097775D01*
X83820771Y-122064922D01*
X83686284Y-122038171D01*
X83404020Y-121921254D01*
X83149989Y-121751516D01*
X82933953Y-121535480D01*
X82764215Y-121281449D01*
X82647298Y-120999185D01*
X82615373Y-120838686D01*
X82587694Y-120699536D01*
X82587694Y-120394014D01*
X82647298Y-120094366D01*
X82647298Y-120094365D01*
X82764215Y-119812101D01*
X82933953Y-119558070D01*
X83149989Y-119342034D01*
X83404020Y-119172296D01*
X83686284Y-119055379D01*
X83836109Y-119025577D01*
X83985933Y-118995775D01*
X84291455Y-118995775D01*
X84441279Y-119025577D01*
G37*
G36*
X78695497Y-119025577D02*
G01*
X78845322Y-119055379D01*
X79127586Y-119172296D01*
X79381617Y-119342034D01*
X79597653Y-119558070D01*
X79767391Y-119812101D01*
X79884308Y-120094365D01*
X79884308Y-120094366D01*
X79943912Y-120394014D01*
X79943912Y-120699536D01*
X79916233Y-120838686D01*
X79884308Y-120999185D01*
X79767391Y-121281449D01*
X79597653Y-121535480D01*
X79381617Y-121751516D01*
X79127586Y-121921254D01*
X78845322Y-122038171D01*
X78710835Y-122064922D01*
X78545673Y-122097775D01*
X78240151Y-122097775D01*
X78074989Y-122064922D01*
X77940502Y-122038171D01*
X77658238Y-121921254D01*
X77404207Y-121751516D01*
X77188171Y-121535480D01*
X77018433Y-121281449D01*
X76901516Y-120999185D01*
X76869591Y-120838686D01*
X76841912Y-120699536D01*
X76841912Y-120394014D01*
X76901516Y-120094366D01*
X76901516Y-120094365D01*
X77018433Y-119812101D01*
X77188171Y-119558070D01*
X77404207Y-119342034D01*
X77658238Y-119172296D01*
X77940502Y-119055379D01*
X78090327Y-119025577D01*
X78240151Y-118995775D01*
X78545673Y-118995775D01*
X78695497Y-119025577D01*
G37*
G36*
X63616823Y-119161313D02*
G01*
X63777242Y-119209976D01*
X63909906Y-119280886D01*
X63925078Y-119288996D01*
X64054659Y-119395341D01*
X64161004Y-119524922D01*
X64161005Y-119524924D01*
X64240024Y-119672758D01*
X64288687Y-119833177D01*
X64305117Y-120000000D01*
X64288687Y-120166823D01*
X64240024Y-120327242D01*
X64204333Y-120394015D01*
X64161004Y-120475078D01*
X64054659Y-120604659D01*
X63925078Y-120711004D01*
X63925076Y-120711005D01*
X63777242Y-120790024D01*
X63616823Y-120838687D01*
X63491804Y-120851000D01*
X62508196Y-120851000D01*
X62383177Y-120838687D01*
X62222758Y-120790024D01*
X62074924Y-120711005D01*
X62074922Y-120711004D01*
X61945341Y-120604659D01*
X61838996Y-120475078D01*
X61795667Y-120394015D01*
X61759976Y-120327242D01*
X61711313Y-120166823D01*
X61694883Y-120000000D01*
X61711313Y-119833177D01*
X61759976Y-119672758D01*
X61838995Y-119524924D01*
X61838996Y-119524922D01*
X61945341Y-119395341D01*
X62074922Y-119288996D01*
X62090094Y-119280886D01*
X62222758Y-119209976D01*
X62383177Y-119161313D01*
X62508196Y-119149000D01*
X63491804Y-119149000D01*
X63616823Y-119161313D01*
G37*
G36*
X73719503Y-116152686D02*
G01*
X73869328Y-116182488D01*
X74151592Y-116299405D01*
X74405623Y-116469143D01*
X74621659Y-116685179D01*
X74791397Y-116939210D01*
X74908314Y-117221474D01*
X74967918Y-117521124D01*
X74967918Y-117826644D01*
X74908314Y-118126294D01*
X74791397Y-118408558D01*
X74621659Y-118662589D01*
X74405623Y-118878625D01*
X74151592Y-119048363D01*
X73869328Y-119165280D01*
X73719503Y-119195082D01*
X73569679Y-119224884D01*
X73264157Y-119224884D01*
X73114333Y-119195082D01*
X72964508Y-119165280D01*
X72682244Y-119048363D01*
X72428213Y-118878625D01*
X72212177Y-118662589D01*
X72042439Y-118408558D01*
X71925522Y-118126294D01*
X71865918Y-117826644D01*
X71865918Y-117521124D01*
X71925522Y-117221474D01*
X72042439Y-116939210D01*
X72212177Y-116685179D01*
X72428213Y-116469143D01*
X72682244Y-116299405D01*
X72964508Y-116182488D01*
X73114333Y-116152686D01*
X73264157Y-116122884D01*
X73569679Y-116122884D01*
X73719503Y-116152686D01*
G37*
G36*
X89417273Y-116152686D02*
G01*
X89567098Y-116182488D01*
X89849362Y-116299405D01*
X90103393Y-116469143D01*
X90319429Y-116685179D01*
X90489167Y-116939210D01*
X90606084Y-117221474D01*
X90665688Y-117521124D01*
X90665688Y-117826644D01*
X90606084Y-118126294D01*
X90489167Y-118408558D01*
X90319429Y-118662589D01*
X90103393Y-118878625D01*
X89849362Y-119048363D01*
X89567098Y-119165280D01*
X89417273Y-119195082D01*
X89267449Y-119224884D01*
X88961927Y-119224884D01*
X88812103Y-119195082D01*
X88662278Y-119165280D01*
X88380014Y-119048363D01*
X88125983Y-118878625D01*
X87909947Y-118662589D01*
X87740209Y-118408558D01*
X87623292Y-118126294D01*
X87563688Y-117826644D01*
X87563688Y-117521124D01*
X87623292Y-117221474D01*
X87740209Y-116939210D01*
X87909947Y-116685179D01*
X88125983Y-116469143D01*
X88380014Y-116299405D01*
X88662278Y-116182488D01*
X88812103Y-116152686D01*
X88961927Y-116122884D01*
X89267449Y-116122884D01*
X89417273Y-116152686D01*
G37*
G36*
X116291142Y-116700156D02*
G01*
X116436476Y-116744243D01*
X116436479Y-116744244D01*
X116570416Y-116815835D01*
X116687817Y-116912183D01*
X116784165Y-117029584D01*
X116855756Y-117163521D01*
X116855757Y-117163524D01*
X116899844Y-117308858D01*
X116911000Y-117422128D01*
X116911000Y-118057872D01*
X116899844Y-118171142D01*
X116855757Y-118316475D01*
X116855756Y-118316479D01*
X116784165Y-118450416D01*
X116784164Y-118450417D01*
X116687817Y-118567817D01*
X116588268Y-118649514D01*
X116570415Y-118664165D01*
X116436478Y-118735756D01*
X116436475Y-118735757D01*
X116291141Y-118779844D01*
X116140000Y-118794730D01*
X115988858Y-118779844D01*
X115843524Y-118735757D01*
X115843521Y-118735756D01*
X115709584Y-118664165D01*
X115688531Y-118646887D01*
X115592183Y-118567817D01*
X115495836Y-118450416D01*
X115424245Y-118316479D01*
X115424244Y-118316478D01*
X115424243Y-118316475D01*
X115380156Y-118171141D01*
X115369000Y-118057871D01*
X115369000Y-117422128D01*
X115380156Y-117308858D01*
X115424243Y-117163524D01*
X115424243Y-117163523D01*
X115495837Y-117029582D01*
X115592184Y-116912183D01*
X115709585Y-116815835D01*
X115843522Y-116744244D01*
X115843525Y-116744243D01*
X115988859Y-116700156D01*
X116140000Y-116685270D01*
X116291142Y-116700156D01*
G37*
G36*
X123911142Y-116700156D02*
G01*
X124056476Y-116744243D01*
X124056479Y-116744244D01*
X124190416Y-116815835D01*
X124307817Y-116912183D01*
X124404165Y-117029584D01*
X124475756Y-117163521D01*
X124475757Y-117163524D01*
X124519844Y-117308858D01*
X124531000Y-117422128D01*
X124531000Y-118057872D01*
X124519844Y-118171142D01*
X124475757Y-118316475D01*
X124475756Y-118316479D01*
X124404165Y-118450416D01*
X124404164Y-118450417D01*
X124307817Y-118567817D01*
X124208268Y-118649514D01*
X124190415Y-118664165D01*
X124056478Y-118735756D01*
X124056475Y-118735757D01*
X123911141Y-118779844D01*
X123760000Y-118794730D01*
X123608858Y-118779844D01*
X123463524Y-118735757D01*
X123463521Y-118735756D01*
X123329584Y-118664165D01*
X123308531Y-118646887D01*
X123212183Y-118567817D01*
X123115836Y-118450416D01*
X123044245Y-118316479D01*
X123044244Y-118316478D01*
X123044243Y-118316475D01*
X123000156Y-118171141D01*
X122989000Y-118057871D01*
X122989000Y-117422128D01*
X123000156Y-117308858D01*
X123044243Y-117163524D01*
X123044243Y-117163523D01*
X123115837Y-117029582D01*
X123212184Y-116912183D01*
X123329585Y-116815835D01*
X123463522Y-116744244D01*
X123463525Y-116744243D01*
X123608859Y-116700156D01*
X123760000Y-116685270D01*
X123911142Y-116700156D01*
G37*
G36*
X126451142Y-116700156D02*
G01*
X126596476Y-116744243D01*
X126596479Y-116744244D01*
X126730416Y-116815835D01*
X126847817Y-116912183D01*
X126944165Y-117029584D01*
X127015756Y-117163521D01*
X127015757Y-117163524D01*
X127059844Y-117308858D01*
X127071000Y-117422128D01*
X127071000Y-118057872D01*
X127059844Y-118171142D01*
X127015757Y-118316475D01*
X127015756Y-118316479D01*
X126944165Y-118450416D01*
X126944164Y-118450417D01*
X126847817Y-118567817D01*
X126748268Y-118649514D01*
X126730415Y-118664165D01*
X126596478Y-118735756D01*
X126596475Y-118735757D01*
X126451141Y-118779844D01*
X126300000Y-118794730D01*
X126148858Y-118779844D01*
X126003524Y-118735757D01*
X126003521Y-118735756D01*
X125869584Y-118664165D01*
X125848531Y-118646887D01*
X125752183Y-118567817D01*
X125655836Y-118450416D01*
X125584245Y-118316479D01*
X125584244Y-118316478D01*
X125584243Y-118316475D01*
X125540156Y-118171141D01*
X125529000Y-118057871D01*
X125529000Y-117422128D01*
X125540156Y-117308858D01*
X125584243Y-117163524D01*
X125584243Y-117163523D01*
X125655837Y-117029582D01*
X125752184Y-116912183D01*
X125869585Y-116815835D01*
X126003522Y-116744244D01*
X126003525Y-116744243D01*
X126148859Y-116700156D01*
X126300000Y-116685270D01*
X126451142Y-116700156D01*
G37*
G36*
X121371142Y-116700156D02*
G01*
X121516476Y-116744243D01*
X121516479Y-116744244D01*
X121650416Y-116815835D01*
X121767817Y-116912183D01*
X121864165Y-117029584D01*
X121935756Y-117163521D01*
X121935757Y-117163524D01*
X121979844Y-117308858D01*
X121991000Y-117422128D01*
X121991000Y-118057872D01*
X121979844Y-118171142D01*
X121935757Y-118316475D01*
X121935756Y-118316479D01*
X121864165Y-118450416D01*
X121864164Y-118450417D01*
X121767817Y-118567817D01*
X121668268Y-118649514D01*
X121650415Y-118664165D01*
X121516478Y-118735756D01*
X121516475Y-118735757D01*
X121371141Y-118779844D01*
X121220000Y-118794730D01*
X121068858Y-118779844D01*
X120923524Y-118735757D01*
X120923521Y-118735756D01*
X120789584Y-118664165D01*
X120768531Y-118646887D01*
X120672183Y-118567817D01*
X120575836Y-118450416D01*
X120504245Y-118316479D01*
X120504244Y-118316478D01*
X120504243Y-118316475D01*
X120460156Y-118171141D01*
X120449000Y-118057871D01*
X120449000Y-117422128D01*
X120460156Y-117308858D01*
X120504243Y-117163524D01*
X120504243Y-117163523D01*
X120575837Y-117029582D01*
X120672184Y-116912183D01*
X120789585Y-116815835D01*
X120923522Y-116744244D01*
X120923525Y-116744243D01*
X121068859Y-116700156D01*
X121220000Y-116685270D01*
X121371142Y-116700156D01*
G37*
G36*
X128991142Y-116700156D02*
G01*
X129136476Y-116744243D01*
X129136479Y-116744244D01*
X129270416Y-116815835D01*
X129387817Y-116912183D01*
X129484165Y-117029584D01*
X129555756Y-117163521D01*
X129555757Y-117163524D01*
X129599844Y-117308858D01*
X129611000Y-117422128D01*
X129611000Y-118057872D01*
X129599844Y-118171142D01*
X129555757Y-118316475D01*
X129555756Y-118316479D01*
X129484165Y-118450416D01*
X129484164Y-118450417D01*
X129387817Y-118567817D01*
X129288268Y-118649514D01*
X129270415Y-118664165D01*
X129136478Y-118735756D01*
X129136475Y-118735757D01*
X128991141Y-118779844D01*
X128840000Y-118794730D01*
X128688858Y-118779844D01*
X128543524Y-118735757D01*
X128543521Y-118735756D01*
X128409584Y-118664165D01*
X128388531Y-118646887D01*
X128292183Y-118567817D01*
X128195836Y-118450416D01*
X128124245Y-118316479D01*
X128124244Y-118316478D01*
X128124243Y-118316475D01*
X128080156Y-118171141D01*
X128069000Y-118057871D01*
X128069000Y-117422128D01*
X128080156Y-117308858D01*
X128124243Y-117163524D01*
X128124243Y-117163523D01*
X128195837Y-117029582D01*
X128292184Y-116912183D01*
X128409585Y-116815835D01*
X128543522Y-116744244D01*
X128543525Y-116744243D01*
X128688859Y-116700156D01*
X128840000Y-116685270D01*
X128991142Y-116700156D01*
G37*
G36*
X111211142Y-116700156D02*
G01*
X111356476Y-116744243D01*
X111356479Y-116744244D01*
X111490416Y-116815835D01*
X111607817Y-116912183D01*
X111704165Y-117029584D01*
X111775756Y-117163521D01*
X111775757Y-117163524D01*
X111819844Y-117308858D01*
X111831000Y-117422128D01*
X111831000Y-118057872D01*
X111819844Y-118171142D01*
X111775757Y-118316475D01*
X111775756Y-118316479D01*
X111704165Y-118450416D01*
X111704164Y-118450417D01*
X111607817Y-118567817D01*
X111508268Y-118649514D01*
X111490415Y-118664165D01*
X111356478Y-118735756D01*
X111356475Y-118735757D01*
X111211141Y-118779844D01*
X111060000Y-118794730D01*
X110908858Y-118779844D01*
X110763524Y-118735757D01*
X110763521Y-118735756D01*
X110629584Y-118664165D01*
X110608531Y-118646887D01*
X110512183Y-118567817D01*
X110415836Y-118450416D01*
X110344245Y-118316479D01*
X110344244Y-118316478D01*
X110344243Y-118316475D01*
X110300156Y-118171141D01*
X110289000Y-118057871D01*
X110289000Y-117422128D01*
X110300156Y-117308858D01*
X110344243Y-117163524D01*
X110344243Y-117163523D01*
X110415837Y-117029582D01*
X110512184Y-116912183D01*
X110629585Y-116815835D01*
X110763522Y-116744244D01*
X110763525Y-116744243D01*
X110908859Y-116700156D01*
X111060000Y-116685270D01*
X111211142Y-116700156D01*
G37*
G36*
X118831142Y-116700156D02*
G01*
X118976476Y-116744243D01*
X118976479Y-116744244D01*
X119110416Y-116815835D01*
X119227817Y-116912183D01*
X119324165Y-117029584D01*
X119395756Y-117163521D01*
X119395757Y-117163524D01*
X119439844Y-117308858D01*
X119451000Y-117422128D01*
X119451000Y-118057872D01*
X119439844Y-118171142D01*
X119395757Y-118316475D01*
X119395756Y-118316479D01*
X119324165Y-118450416D01*
X119324164Y-118450417D01*
X119227817Y-118567817D01*
X119128268Y-118649514D01*
X119110415Y-118664165D01*
X118976478Y-118735756D01*
X118976475Y-118735757D01*
X118831141Y-118779844D01*
X118680000Y-118794730D01*
X118528858Y-118779844D01*
X118383524Y-118735757D01*
X118383521Y-118735756D01*
X118249584Y-118664165D01*
X118228531Y-118646887D01*
X118132183Y-118567817D01*
X118035836Y-118450416D01*
X117964245Y-118316479D01*
X117964244Y-118316478D01*
X117964243Y-118316475D01*
X117920156Y-118171141D01*
X117909000Y-118057871D01*
X117909000Y-117422128D01*
X117920156Y-117308858D01*
X117964243Y-117163524D01*
X117964243Y-117163523D01*
X118035837Y-117029582D01*
X118132184Y-116912183D01*
X118249585Y-116815835D01*
X118383522Y-116744244D01*
X118383525Y-116744243D01*
X118528859Y-116700156D01*
X118680000Y-116685270D01*
X118831142Y-116700156D01*
G37*
G36*
X139151142Y-116700156D02*
G01*
X139296476Y-116744243D01*
X139296479Y-116744244D01*
X139430416Y-116815835D01*
X139547817Y-116912183D01*
X139644165Y-117029584D01*
X139715756Y-117163521D01*
X139715757Y-117163524D01*
X139759844Y-117308858D01*
X139771000Y-117422128D01*
X139771000Y-118057872D01*
X139759844Y-118171142D01*
X139715757Y-118316475D01*
X139715756Y-118316479D01*
X139644165Y-118450416D01*
X139644164Y-118450417D01*
X139547817Y-118567817D01*
X139448268Y-118649514D01*
X139430415Y-118664165D01*
X139296478Y-118735756D01*
X139296475Y-118735757D01*
X139151141Y-118779844D01*
X139000000Y-118794730D01*
X138848858Y-118779844D01*
X138703524Y-118735757D01*
X138703521Y-118735756D01*
X138569584Y-118664165D01*
X138548531Y-118646887D01*
X138452183Y-118567817D01*
X138355836Y-118450416D01*
X138284245Y-118316479D01*
X138284244Y-118316478D01*
X138284243Y-118316475D01*
X138240156Y-118171141D01*
X138229000Y-118057871D01*
X138229000Y-117422128D01*
X138240156Y-117308858D01*
X138284243Y-117163524D01*
X138284243Y-117163523D01*
X138355837Y-117029582D01*
X138452184Y-116912183D01*
X138569585Y-116815835D01*
X138703522Y-116744244D01*
X138703525Y-116744243D01*
X138848859Y-116700156D01*
X139000000Y-116685270D01*
X139151142Y-116700156D01*
G37*
G36*
X136611142Y-116700156D02*
G01*
X136756476Y-116744243D01*
X136756479Y-116744244D01*
X136890416Y-116815835D01*
X137007817Y-116912183D01*
X137104165Y-117029584D01*
X137175756Y-117163521D01*
X137175757Y-117163524D01*
X137219844Y-117308858D01*
X137231000Y-117422128D01*
X137231000Y-118057872D01*
X137219844Y-118171142D01*
X137175757Y-118316475D01*
X137175756Y-118316479D01*
X137104165Y-118450416D01*
X137104164Y-118450417D01*
X137007817Y-118567817D01*
X136908268Y-118649514D01*
X136890415Y-118664165D01*
X136756478Y-118735756D01*
X136756475Y-118735757D01*
X136611141Y-118779844D01*
X136460000Y-118794730D01*
X136308858Y-118779844D01*
X136163524Y-118735757D01*
X136163521Y-118735756D01*
X136029584Y-118664165D01*
X136008531Y-118646887D01*
X135912183Y-118567817D01*
X135815836Y-118450416D01*
X135744245Y-118316479D01*
X135744244Y-118316478D01*
X135744243Y-118316475D01*
X135700156Y-118171141D01*
X135689000Y-118057871D01*
X135689000Y-117422128D01*
X135700156Y-117308858D01*
X135744243Y-117163524D01*
X135744243Y-117163523D01*
X135815837Y-117029582D01*
X135912184Y-116912183D01*
X136029585Y-116815835D01*
X136163522Y-116744244D01*
X136163525Y-116744243D01*
X136308859Y-116700156D01*
X136460000Y-116685270D01*
X136611142Y-116700156D01*
G37*
G36*
X113751142Y-116700156D02*
G01*
X113896476Y-116744243D01*
X113896479Y-116744244D01*
X114030416Y-116815835D01*
X114147817Y-116912183D01*
X114244165Y-117029584D01*
X114315756Y-117163521D01*
X114315757Y-117163524D01*
X114359844Y-117308858D01*
X114371000Y-117422128D01*
X114371000Y-118057872D01*
X114359844Y-118171142D01*
X114315757Y-118316475D01*
X114315756Y-118316479D01*
X114244165Y-118450416D01*
X114244164Y-118450417D01*
X114147817Y-118567817D01*
X114048268Y-118649514D01*
X114030415Y-118664165D01*
X113896478Y-118735756D01*
X113896475Y-118735757D01*
X113751141Y-118779844D01*
X113600000Y-118794730D01*
X113448858Y-118779844D01*
X113303524Y-118735757D01*
X113303521Y-118735756D01*
X113169584Y-118664165D01*
X113148531Y-118646887D01*
X113052183Y-118567817D01*
X112955836Y-118450416D01*
X112884245Y-118316479D01*
X112884244Y-118316478D01*
X112884243Y-118316475D01*
X112840156Y-118171141D01*
X112829000Y-118057871D01*
X112829000Y-117422128D01*
X112840156Y-117308858D01*
X112884243Y-117163524D01*
X112884243Y-117163523D01*
X112955837Y-117029582D01*
X113052184Y-116912183D01*
X113169585Y-116815835D01*
X113303522Y-116744244D01*
X113303525Y-116744243D01*
X113448859Y-116700156D01*
X113600000Y-116685270D01*
X113751142Y-116700156D01*
G37*
G36*
X134071142Y-116700156D02*
G01*
X134216476Y-116744243D01*
X134216479Y-116744244D01*
X134350416Y-116815835D01*
X134467817Y-116912183D01*
X134564165Y-117029584D01*
X134635756Y-117163521D01*
X134635757Y-117163524D01*
X134679844Y-117308858D01*
X134691000Y-117422128D01*
X134691000Y-118057872D01*
X134679844Y-118171142D01*
X134635757Y-118316475D01*
X134635756Y-118316479D01*
X134564165Y-118450416D01*
X134564164Y-118450417D01*
X134467817Y-118567817D01*
X134368268Y-118649514D01*
X134350415Y-118664165D01*
X134216478Y-118735756D01*
X134216475Y-118735757D01*
X134071141Y-118779844D01*
X133920000Y-118794730D01*
X133768858Y-118779844D01*
X133623524Y-118735757D01*
X133623521Y-118735756D01*
X133489584Y-118664165D01*
X133468531Y-118646887D01*
X133372183Y-118567817D01*
X133275836Y-118450416D01*
X133204245Y-118316479D01*
X133204244Y-118316478D01*
X133204243Y-118316475D01*
X133160156Y-118171141D01*
X133149000Y-118057871D01*
X133149000Y-117422128D01*
X133160156Y-117308858D01*
X133204243Y-117163524D01*
X133204243Y-117163523D01*
X133275837Y-117029582D01*
X133372184Y-116912183D01*
X133489585Y-116815835D01*
X133623522Y-116744244D01*
X133623525Y-116744243D01*
X133768859Y-116700156D01*
X133920000Y-116685270D01*
X134071142Y-116700156D01*
G37*
G36*
X131531142Y-116700156D02*
G01*
X131676476Y-116744243D01*
X131676479Y-116744244D01*
X131810416Y-116815835D01*
X131927817Y-116912183D01*
X132024165Y-117029584D01*
X132095756Y-117163521D01*
X132095757Y-117163524D01*
X132139844Y-117308858D01*
X132151000Y-117422128D01*
X132151000Y-118057872D01*
X132139844Y-118171142D01*
X132095757Y-118316475D01*
X132095756Y-118316479D01*
X132024165Y-118450416D01*
X132024164Y-118450417D01*
X131927817Y-118567817D01*
X131828268Y-118649514D01*
X131810415Y-118664165D01*
X131676478Y-118735756D01*
X131676475Y-118735757D01*
X131531141Y-118779844D01*
X131380000Y-118794730D01*
X131228858Y-118779844D01*
X131083524Y-118735757D01*
X131083521Y-118735756D01*
X130949584Y-118664165D01*
X130928531Y-118646887D01*
X130832183Y-118567817D01*
X130735836Y-118450416D01*
X130664245Y-118316479D01*
X130664244Y-118316478D01*
X130664243Y-118316475D01*
X130620156Y-118171141D01*
X130609000Y-118057871D01*
X130609000Y-117422128D01*
X130620156Y-117308858D01*
X130664243Y-117163524D01*
X130664243Y-117163523D01*
X130735837Y-117029582D01*
X130832184Y-116912183D01*
X130949585Y-116815835D01*
X131083522Y-116744244D01*
X131083525Y-116744243D01*
X131228859Y-116700156D01*
X131380000Y-116685270D01*
X131531142Y-116700156D01*
G37*
G36*
X59846669Y-113127686D02*
G01*
X60023058Y-113145059D01*
X60362548Y-113248042D01*
X60362550Y-113248043D01*
X60675422Y-113415277D01*
X60949661Y-113640339D01*
X61164918Y-113902630D01*
X61174722Y-113914577D01*
X61341958Y-114227452D01*
X61444941Y-114566942D01*
X61479714Y-114920000D01*
X61444941Y-115273058D01*
X61341958Y-115612548D01*
X61341957Y-115612550D01*
X61174723Y-115925422D01*
X60949661Y-116199661D01*
X60675422Y-116424723D01*
X60592318Y-116469143D01*
X60362548Y-116591958D01*
X60023058Y-116694941D01*
X59846669Y-116712314D01*
X59758476Y-116721000D01*
X56081524Y-116721000D01*
X55993331Y-116712314D01*
X55816942Y-116694941D01*
X55477452Y-116591958D01*
X55247682Y-116469143D01*
X55164578Y-116424723D01*
X54890339Y-116199661D01*
X54665277Y-115925422D01*
X54498043Y-115612550D01*
X54498042Y-115612548D01*
X54395059Y-115273058D01*
X54360286Y-114920000D01*
X54395059Y-114566942D01*
X54498042Y-114227452D01*
X54665278Y-113914577D01*
X54675083Y-113902630D01*
X54890339Y-113640339D01*
X55164578Y-113415277D01*
X55477450Y-113248043D01*
X55477452Y-113248042D01*
X55816942Y-113145059D01*
X55993331Y-113127686D01*
X56081524Y-113119000D01*
X59758476Y-113119000D01*
X59846669Y-113127686D01*
G37*
G36*
X81568388Y-112153801D02*
G01*
X81718213Y-112183603D01*
X82000477Y-112300520D01*
X82254508Y-112470258D01*
X82470544Y-112686294D01*
X82640282Y-112940325D01*
X82757199Y-113222589D01*
X82816803Y-113522239D01*
X82816803Y-113827759D01*
X82757199Y-114127409D01*
X82640282Y-114409673D01*
X82470544Y-114663704D01*
X82254508Y-114879740D01*
X82000477Y-115049478D01*
X81718213Y-115166395D01*
X81568388Y-115196197D01*
X81418564Y-115225999D01*
X81113042Y-115225999D01*
X80963218Y-115196197D01*
X80813393Y-115166395D01*
X80531129Y-115049478D01*
X80277098Y-114879740D01*
X80061062Y-114663704D01*
X79891324Y-114409673D01*
X79774407Y-114127409D01*
X79714803Y-113827759D01*
X79714803Y-113522239D01*
X79774407Y-113222589D01*
X79891324Y-112940325D01*
X80061062Y-112686294D01*
X80277098Y-112470258D01*
X80531129Y-112300520D01*
X80813393Y-112183603D01*
X80963218Y-112153801D01*
X81113042Y-112123999D01*
X81418564Y-112123999D01*
X81568388Y-112153801D01*
G37*
G36*
X70846612Y-111176692D02*
G01*
X70996437Y-111206494D01*
X71278701Y-111323411D01*
X71532732Y-111493149D01*
X71748768Y-111709185D01*
X71918506Y-111963216D01*
X72035423Y-112245480D01*
X72095027Y-112545130D01*
X72095027Y-112850650D01*
X72035423Y-113150300D01*
X71918506Y-113432564D01*
X71748768Y-113686595D01*
X71532732Y-113902631D01*
X71278701Y-114072369D01*
X70996437Y-114189286D01*
X70846612Y-114219088D01*
X70696788Y-114248890D01*
X70391266Y-114248890D01*
X70241442Y-114219088D01*
X70091617Y-114189286D01*
X69809353Y-114072369D01*
X69555322Y-113902631D01*
X69339286Y-113686595D01*
X69169548Y-113432564D01*
X69052631Y-113150300D01*
X68993027Y-112850650D01*
X68993027Y-112545130D01*
X69052631Y-112245480D01*
X69169548Y-111963216D01*
X69339286Y-111709185D01*
X69555322Y-111493149D01*
X69809353Y-111323411D01*
X70091617Y-111206494D01*
X70241442Y-111176692D01*
X70391266Y-111146890D01*
X70696788Y-111146890D01*
X70846612Y-111176692D01*
G37*
G36*
X92290164Y-111176692D02*
G01*
X92439989Y-111206494D01*
X92722253Y-111323411D01*
X92976284Y-111493149D01*
X93192320Y-111709185D01*
X93362058Y-111963216D01*
X93478975Y-112245480D01*
X93538579Y-112545130D01*
X93538579Y-112850650D01*
X93478975Y-113150300D01*
X93362058Y-113432564D01*
X93192320Y-113686595D01*
X92976284Y-113902631D01*
X92722253Y-114072369D01*
X92439989Y-114189286D01*
X92290164Y-114219088D01*
X92140340Y-114248890D01*
X91834818Y-114248890D01*
X91684994Y-114219088D01*
X91535169Y-114189286D01*
X91252905Y-114072369D01*
X90998874Y-113902631D01*
X90782838Y-113686595D01*
X90613100Y-113432564D01*
X90496183Y-113150300D01*
X90436579Y-112850650D01*
X90436579Y-112545130D01*
X90496183Y-112245480D01*
X90613100Y-111963216D01*
X90782838Y-111709185D01*
X90998874Y-111493149D01*
X91252905Y-111323411D01*
X91535169Y-111206494D01*
X91684994Y-111176692D01*
X91834818Y-111146890D01*
X92140340Y-111146890D01*
X92290164Y-111176692D01*
G37*
G36*
X84806357Y-106359661D02*
G01*
X85052410Y-106408604D01*
X85334674Y-106525521D01*
X85588705Y-106695259D01*
X85804741Y-106911295D01*
X85974479Y-107165326D01*
X86073555Y-107404518D01*
X86091396Y-107447591D01*
X86151000Y-107747239D01*
X86151000Y-108052761D01*
X86121198Y-108202585D01*
X86091396Y-108352410D01*
X85974479Y-108634674D01*
X85804741Y-108888705D01*
X85588705Y-109104741D01*
X85334674Y-109274479D01*
X85052410Y-109391396D01*
X84902585Y-109421198D01*
X84752761Y-109451000D01*
X84447239Y-109451000D01*
X84297415Y-109421198D01*
X84147590Y-109391396D01*
X83865326Y-109274479D01*
X83611295Y-109104741D01*
X83395259Y-108888705D01*
X83225521Y-108634674D01*
X83108604Y-108352410D01*
X83078802Y-108202585D01*
X83049000Y-108052761D01*
X83049000Y-107747239D01*
X83108604Y-107447591D01*
X83126445Y-107404518D01*
X83225521Y-107165326D01*
X83395259Y-106911295D01*
X83611295Y-106695259D01*
X83865326Y-106525521D01*
X84147590Y-106408604D01*
X84393643Y-106359661D01*
X84447239Y-106349000D01*
X84752761Y-106349000D01*
X84806357Y-106359661D01*
G37*
G36*
X78137963Y-106359661D02*
G01*
X78384016Y-106408604D01*
X78666280Y-106525521D01*
X78920311Y-106695259D01*
X79136347Y-106911295D01*
X79306085Y-107165326D01*
X79405161Y-107404518D01*
X79423002Y-107447591D01*
X79482606Y-107747239D01*
X79482606Y-108052761D01*
X79452804Y-108202585D01*
X79423002Y-108352410D01*
X79306085Y-108634674D01*
X79136347Y-108888705D01*
X78920311Y-109104741D01*
X78666280Y-109274479D01*
X78384016Y-109391396D01*
X78234191Y-109421198D01*
X78084367Y-109451000D01*
X77778845Y-109451000D01*
X77629021Y-109421198D01*
X77479196Y-109391396D01*
X77196932Y-109274479D01*
X76942901Y-109104741D01*
X76726865Y-108888705D01*
X76557127Y-108634674D01*
X76440210Y-108352410D01*
X76410408Y-108202585D01*
X76380606Y-108052761D01*
X76380606Y-107747239D01*
X76440210Y-107447591D01*
X76458051Y-107404518D01*
X76557127Y-107165326D01*
X76726865Y-106911295D01*
X76942901Y-106695259D01*
X77196932Y-106525521D01*
X77479196Y-106408604D01*
X77725249Y-106359661D01*
X77778845Y-106349000D01*
X78084367Y-106349000D01*
X78137963Y-106359661D01*
G37*
G36*
X92290164Y-105430910D02*
G01*
X92439989Y-105460712D01*
X92722253Y-105577629D01*
X92976284Y-105747367D01*
X93192320Y-105963403D01*
X93362058Y-106217434D01*
X93478975Y-106499698D01*
X93495887Y-106584722D01*
X93517875Y-106695259D01*
X93538579Y-106799348D01*
X93538579Y-107104868D01*
X93478975Y-107404518D01*
X93362058Y-107686782D01*
X93192320Y-107940813D01*
X92976284Y-108156849D01*
X92722253Y-108326587D01*
X92439989Y-108443504D01*
X92290164Y-108473306D01*
X92140340Y-108503108D01*
X91834818Y-108503108D01*
X91684994Y-108473306D01*
X91535169Y-108443504D01*
X91252905Y-108326587D01*
X90998874Y-108156849D01*
X90782838Y-107940813D01*
X90613100Y-107686782D01*
X90496183Y-107404518D01*
X90436579Y-107104868D01*
X90436579Y-106799348D01*
X90457284Y-106695259D01*
X90479271Y-106584722D01*
X90496183Y-106499698D01*
X90613100Y-106217434D01*
X90782838Y-105963403D01*
X90998874Y-105747367D01*
X91252905Y-105577629D01*
X91535169Y-105460712D01*
X91684994Y-105430910D01*
X91834818Y-105401108D01*
X92140340Y-105401108D01*
X92290164Y-105430910D01*
G37*
G36*
X70846612Y-105430910D02*
G01*
X70996437Y-105460712D01*
X71278701Y-105577629D01*
X71532732Y-105747367D01*
X71748768Y-105963403D01*
X71918506Y-106217434D01*
X72035423Y-106499698D01*
X72052335Y-106584722D01*
X72074323Y-106695259D01*
X72095027Y-106799348D01*
X72095027Y-107104868D01*
X72035423Y-107404518D01*
X71918506Y-107686782D01*
X71748768Y-107940813D01*
X71532732Y-108156849D01*
X71278701Y-108326587D01*
X70996437Y-108443504D01*
X70846612Y-108473306D01*
X70696788Y-108503108D01*
X70391266Y-108503108D01*
X70241442Y-108473306D01*
X70091617Y-108443504D01*
X69809353Y-108326587D01*
X69555322Y-108156849D01*
X69339286Y-107940813D01*
X69169548Y-107686782D01*
X69052631Y-107404518D01*
X68993027Y-107104868D01*
X68993027Y-106799348D01*
X69013732Y-106695259D01*
X69035719Y-106584722D01*
X69052631Y-106499698D01*
X69169548Y-106217434D01*
X69339286Y-105963403D01*
X69555322Y-105747367D01*
X69809353Y-105577629D01*
X70091617Y-105460712D01*
X70241442Y-105430910D01*
X70391266Y-105401108D01*
X70696788Y-105401108D01*
X70846612Y-105430910D01*
G37*
G36*
X59846669Y-103287686D02*
G01*
X60023058Y-103305059D01*
X60362548Y-103408042D01*
X60362550Y-103408043D01*
X60675422Y-103575277D01*
X60675424Y-103575278D01*
X60675423Y-103575278D01*
X60949661Y-103800339D01*
X61174722Y-104074577D01*
X61341958Y-104387452D01*
X61444941Y-104726942D01*
X61479714Y-105080000D01*
X61444941Y-105433058D01*
X61349596Y-105747368D01*
X61341957Y-105772550D01*
X61174723Y-106085422D01*
X60949661Y-106359661D01*
X60675422Y-106584723D01*
X60468624Y-106695259D01*
X60362548Y-106751958D01*
X60023058Y-106854941D01*
X59846669Y-106872314D01*
X59758476Y-106881000D01*
X56081524Y-106881000D01*
X55993331Y-106872314D01*
X55816942Y-106854941D01*
X55477452Y-106751958D01*
X55371376Y-106695259D01*
X55164578Y-106584723D01*
X54890339Y-106359661D01*
X54665277Y-106085422D01*
X54498043Y-105772550D01*
X54490404Y-105747368D01*
X54395059Y-105433058D01*
X54360286Y-105080000D01*
X54395059Y-104726942D01*
X54498042Y-104387452D01*
X54665278Y-104074577D01*
X54890339Y-103800339D01*
X55164577Y-103575278D01*
X55164576Y-103575278D01*
X55164578Y-103575277D01*
X55477450Y-103408043D01*
X55477452Y-103408042D01*
X55816942Y-103305059D01*
X55993331Y-103287686D01*
X56081524Y-103279000D01*
X59758476Y-103279000D01*
X59846669Y-103287686D01*
G37*
G36*
X111211142Y-101460156D02*
G01*
X111356476Y-101504243D01*
X111356479Y-101504244D01*
X111490416Y-101575835D01*
X111607817Y-101672183D01*
X111704165Y-101789584D01*
X111775756Y-101923521D01*
X111775757Y-101923524D01*
X111819844Y-102068858D01*
X111831000Y-102182128D01*
X111831000Y-102817872D01*
X111819844Y-102931142D01*
X111794382Y-103015078D01*
X111775756Y-103076479D01*
X111704165Y-103210416D01*
X111704164Y-103210417D01*
X111607817Y-103327817D01*
X111530827Y-103391000D01*
X111490415Y-103424165D01*
X111356478Y-103495756D01*
X111356475Y-103495757D01*
X111211141Y-103539844D01*
X111060000Y-103554730D01*
X110908858Y-103539844D01*
X110763524Y-103495757D01*
X110763521Y-103495756D01*
X110629584Y-103424165D01*
X110574169Y-103378687D01*
X110512183Y-103327817D01*
X110415836Y-103210416D01*
X110400035Y-103180855D01*
X110344244Y-103076478D01*
X110344243Y-103076475D01*
X110300156Y-102931141D01*
X110289000Y-102817871D01*
X110289000Y-102182128D01*
X110300156Y-102068858D01*
X110344243Y-101923524D01*
X110344243Y-101923523D01*
X110415837Y-101789582D01*
X110512184Y-101672183D01*
X110629585Y-101575835D01*
X110763522Y-101504244D01*
X110763525Y-101504243D01*
X110908859Y-101460156D01*
X111060000Y-101445270D01*
X111211142Y-101460156D01*
G37*
G36*
X121371142Y-101460156D02*
G01*
X121516476Y-101504243D01*
X121516479Y-101504244D01*
X121650416Y-101575835D01*
X121767817Y-101672183D01*
X121864165Y-101789584D01*
X121935756Y-101923521D01*
X121935757Y-101923524D01*
X121979844Y-102068858D01*
X121991000Y-102182128D01*
X121991000Y-102817872D01*
X121979844Y-102931142D01*
X121954382Y-103015078D01*
X121935756Y-103076479D01*
X121864165Y-103210416D01*
X121864164Y-103210417D01*
X121767817Y-103327817D01*
X121690827Y-103391000D01*
X121650415Y-103424165D01*
X121516478Y-103495756D01*
X121516475Y-103495757D01*
X121371141Y-103539844D01*
X121220000Y-103554730D01*
X121068858Y-103539844D01*
X120923524Y-103495757D01*
X120923521Y-103495756D01*
X120789584Y-103424165D01*
X120734169Y-103378687D01*
X120672183Y-103327817D01*
X120575836Y-103210416D01*
X120560035Y-103180855D01*
X120504244Y-103076478D01*
X120504243Y-103076475D01*
X120460156Y-102931141D01*
X120449000Y-102817871D01*
X120449000Y-102182128D01*
X120460156Y-102068858D01*
X120504243Y-101923524D01*
X120504243Y-101923523D01*
X120575837Y-101789582D01*
X120672184Y-101672183D01*
X120789585Y-101575835D01*
X120923522Y-101504244D01*
X120923525Y-101504243D01*
X121068859Y-101460156D01*
X121220000Y-101445270D01*
X121371142Y-101460156D01*
G37*
G36*
X131531142Y-101460156D02*
G01*
X131676476Y-101504243D01*
X131676479Y-101504244D01*
X131810416Y-101575835D01*
X131927817Y-101672183D01*
X132024165Y-101789584D01*
X132095756Y-101923521D01*
X132095757Y-101923524D01*
X132139844Y-102068858D01*
X132151000Y-102182128D01*
X132151000Y-102817872D01*
X132139844Y-102931142D01*
X132114382Y-103015078D01*
X132095756Y-103076479D01*
X132024165Y-103210416D01*
X132024164Y-103210417D01*
X131927817Y-103327817D01*
X131850827Y-103391000D01*
X131810415Y-103424165D01*
X131676478Y-103495756D01*
X131676475Y-103495757D01*
X131531141Y-103539844D01*
X131380000Y-103554730D01*
X131228858Y-103539844D01*
X131083524Y-103495757D01*
X131083521Y-103495756D01*
X130949584Y-103424165D01*
X130894169Y-103378687D01*
X130832183Y-103327817D01*
X130735836Y-103210416D01*
X130720035Y-103180855D01*
X130664244Y-103076478D01*
X130664243Y-103076475D01*
X130620156Y-102931141D01*
X130609000Y-102817871D01*
X130609000Y-102182128D01*
X130620156Y-102068858D01*
X130664243Y-101923524D01*
X130664243Y-101923523D01*
X130735837Y-101789582D01*
X130832184Y-101672183D01*
X130949585Y-101575835D01*
X131083522Y-101504244D01*
X131083525Y-101504243D01*
X131228859Y-101460156D01*
X131380000Y-101445270D01*
X131531142Y-101460156D01*
G37*
G36*
X136611142Y-101460156D02*
G01*
X136756476Y-101504243D01*
X136756479Y-101504244D01*
X136890416Y-101575835D01*
X137007817Y-101672183D01*
X137104165Y-101789584D01*
X137175756Y-101923521D01*
X137175757Y-101923524D01*
X137219844Y-102068858D01*
X137231000Y-102182128D01*
X137231000Y-102817872D01*
X137219844Y-102931142D01*
X137194382Y-103015078D01*
X137175756Y-103076479D01*
X137104165Y-103210416D01*
X137104164Y-103210417D01*
X137007817Y-103327817D01*
X136930827Y-103391000D01*
X136890415Y-103424165D01*
X136756478Y-103495756D01*
X136756475Y-103495757D01*
X136611141Y-103539844D01*
X136460000Y-103554730D01*
X136308858Y-103539844D01*
X136163524Y-103495757D01*
X136163521Y-103495756D01*
X136029584Y-103424165D01*
X135974169Y-103378687D01*
X135912183Y-103327817D01*
X135815836Y-103210416D01*
X135800035Y-103180855D01*
X135744244Y-103076478D01*
X135744243Y-103076475D01*
X135700156Y-102931141D01*
X135689000Y-102817871D01*
X135689000Y-102182128D01*
X135700156Y-102068858D01*
X135744243Y-101923524D01*
X135744243Y-101923523D01*
X135815837Y-101789582D01*
X135912184Y-101672183D01*
X136029585Y-101575835D01*
X136163522Y-101504244D01*
X136163525Y-101504243D01*
X136308859Y-101460156D01*
X136460000Y-101445270D01*
X136611142Y-101460156D01*
G37*
G36*
X128991142Y-101460156D02*
G01*
X129136476Y-101504243D01*
X129136479Y-101504244D01*
X129270416Y-101575835D01*
X129387817Y-101672183D01*
X129484165Y-101789584D01*
X129555756Y-101923521D01*
X129555757Y-101923524D01*
X129599844Y-102068858D01*
X129611000Y-102182128D01*
X129611000Y-102817872D01*
X129599844Y-102931142D01*
X129574382Y-103015078D01*
X129555756Y-103076479D01*
X129484165Y-103210416D01*
X129484164Y-103210417D01*
X129387817Y-103327817D01*
X129310827Y-103391000D01*
X129270415Y-103424165D01*
X129136478Y-103495756D01*
X129136475Y-103495757D01*
X128991141Y-103539844D01*
X128840000Y-103554730D01*
X128688858Y-103539844D01*
X128543524Y-103495757D01*
X128543521Y-103495756D01*
X128409584Y-103424165D01*
X128354169Y-103378687D01*
X128292183Y-103327817D01*
X128195836Y-103210416D01*
X128180035Y-103180855D01*
X128124244Y-103076478D01*
X128124243Y-103076475D01*
X128080156Y-102931141D01*
X128069000Y-102817871D01*
X128069000Y-102182128D01*
X128080156Y-102068858D01*
X128124243Y-101923524D01*
X128124243Y-101923523D01*
X128195837Y-101789582D01*
X128292184Y-101672183D01*
X128409585Y-101575835D01*
X128543522Y-101504244D01*
X128543525Y-101504243D01*
X128688859Y-101460156D01*
X128840000Y-101445270D01*
X128991142Y-101460156D01*
G37*
G36*
X126451142Y-101460156D02*
G01*
X126596476Y-101504243D01*
X126596479Y-101504244D01*
X126730416Y-101575835D01*
X126847817Y-101672183D01*
X126944165Y-101789584D01*
X127015756Y-101923521D01*
X127015757Y-101923524D01*
X127059844Y-102068858D01*
X127071000Y-102182128D01*
X127071000Y-102817872D01*
X127059844Y-102931142D01*
X127034382Y-103015078D01*
X127015756Y-103076479D01*
X126944165Y-103210416D01*
X126944164Y-103210417D01*
X126847817Y-103327817D01*
X126770827Y-103391000D01*
X126730415Y-103424165D01*
X126596478Y-103495756D01*
X126596475Y-103495757D01*
X126451141Y-103539844D01*
X126300000Y-103554730D01*
X126148858Y-103539844D01*
X126003524Y-103495757D01*
X126003521Y-103495756D01*
X125869584Y-103424165D01*
X125814169Y-103378687D01*
X125752183Y-103327817D01*
X125655836Y-103210416D01*
X125640035Y-103180855D01*
X125584244Y-103076478D01*
X125584243Y-103076475D01*
X125540156Y-102931141D01*
X125529000Y-102817871D01*
X125529000Y-102182128D01*
X125540156Y-102068858D01*
X125584243Y-101923524D01*
X125584243Y-101923523D01*
X125655837Y-101789582D01*
X125752184Y-101672183D01*
X125869585Y-101575835D01*
X126003522Y-101504244D01*
X126003525Y-101504243D01*
X126148859Y-101460156D01*
X126300000Y-101445270D01*
X126451142Y-101460156D01*
G37*
G36*
X123911142Y-101460156D02*
G01*
X124056476Y-101504243D01*
X124056479Y-101504244D01*
X124190416Y-101575835D01*
X124307817Y-101672183D01*
X124404165Y-101789584D01*
X124475756Y-101923521D01*
X124475757Y-101923524D01*
X124519844Y-102068858D01*
X124531000Y-102182128D01*
X124531000Y-102817872D01*
X124519844Y-102931142D01*
X124494382Y-103015078D01*
X124475756Y-103076479D01*
X124404165Y-103210416D01*
X124404164Y-103210417D01*
X124307817Y-103327817D01*
X124230827Y-103391000D01*
X124190415Y-103424165D01*
X124056478Y-103495756D01*
X124056475Y-103495757D01*
X123911141Y-103539844D01*
X123760000Y-103554730D01*
X123608858Y-103539844D01*
X123463524Y-103495757D01*
X123463521Y-103495756D01*
X123329584Y-103424165D01*
X123274169Y-103378687D01*
X123212183Y-103327817D01*
X123115836Y-103210416D01*
X123100035Y-103180855D01*
X123044244Y-103076478D01*
X123044243Y-103076475D01*
X123000156Y-102931141D01*
X122989000Y-102817871D01*
X122989000Y-102182128D01*
X123000156Y-102068858D01*
X123044243Y-101923524D01*
X123044243Y-101923523D01*
X123115837Y-101789582D01*
X123212184Y-101672183D01*
X123329585Y-101575835D01*
X123463522Y-101504244D01*
X123463525Y-101504243D01*
X123608859Y-101460156D01*
X123760000Y-101445270D01*
X123911142Y-101460156D01*
G37*
G36*
X134071142Y-101460156D02*
G01*
X134216476Y-101504243D01*
X134216479Y-101504244D01*
X134350416Y-101575835D01*
X134467817Y-101672183D01*
X134564165Y-101789584D01*
X134635756Y-101923521D01*
X134635757Y-101923524D01*
X134679844Y-102068858D01*
X134691000Y-102182128D01*
X134691000Y-102817872D01*
X134679844Y-102931142D01*
X134654382Y-103015078D01*
X134635756Y-103076479D01*
X134564165Y-103210416D01*
X134564164Y-103210417D01*
X134467817Y-103327817D01*
X134390827Y-103391000D01*
X134350415Y-103424165D01*
X134216478Y-103495756D01*
X134216475Y-103495757D01*
X134071141Y-103539844D01*
X133920000Y-103554730D01*
X133768858Y-103539844D01*
X133623524Y-103495757D01*
X133623521Y-103495756D01*
X133489584Y-103424165D01*
X133434169Y-103378687D01*
X133372183Y-103327817D01*
X133275836Y-103210416D01*
X133260035Y-103180855D01*
X133204244Y-103076478D01*
X133204243Y-103076475D01*
X133160156Y-102931141D01*
X133149000Y-102817871D01*
X133149000Y-102182128D01*
X133160156Y-102068858D01*
X133204243Y-101923524D01*
X133204243Y-101923523D01*
X133275837Y-101789582D01*
X133372184Y-101672183D01*
X133489585Y-101575835D01*
X133623522Y-101504244D01*
X133623525Y-101504243D01*
X133768859Y-101460156D01*
X133920000Y-101445270D01*
X134071142Y-101460156D01*
G37*
G36*
X113751142Y-101460156D02*
G01*
X113896476Y-101504243D01*
X113896479Y-101504244D01*
X114030416Y-101575835D01*
X114147817Y-101672183D01*
X114244165Y-101789584D01*
X114315756Y-101923521D01*
X114315757Y-101923524D01*
X114359844Y-102068858D01*
X114371000Y-102182128D01*
X114371000Y-102817872D01*
X114359844Y-102931142D01*
X114334382Y-103015078D01*
X114315756Y-103076479D01*
X114244165Y-103210416D01*
X114244164Y-103210417D01*
X114147817Y-103327817D01*
X114070827Y-103391000D01*
X114030415Y-103424165D01*
X113896478Y-103495756D01*
X113896475Y-103495757D01*
X113751141Y-103539844D01*
X113600000Y-103554730D01*
X113448858Y-103539844D01*
X113303524Y-103495757D01*
X113303521Y-103495756D01*
X113169584Y-103424165D01*
X113114169Y-103378687D01*
X113052183Y-103327817D01*
X112955836Y-103210416D01*
X112940035Y-103180855D01*
X112884244Y-103076478D01*
X112884243Y-103076475D01*
X112840156Y-102931141D01*
X112829000Y-102817871D01*
X112829000Y-102182128D01*
X112840156Y-102068858D01*
X112884243Y-101923524D01*
X112884243Y-101923523D01*
X112955837Y-101789582D01*
X113052184Y-101672183D01*
X113169585Y-101575835D01*
X113303522Y-101504244D01*
X113303525Y-101504243D01*
X113448859Y-101460156D01*
X113600000Y-101445270D01*
X113751142Y-101460156D01*
G37*
G36*
X116291142Y-101460156D02*
G01*
X116436476Y-101504243D01*
X116436479Y-101504244D01*
X116570416Y-101575835D01*
X116687817Y-101672183D01*
X116784165Y-101789584D01*
X116855756Y-101923521D01*
X116855757Y-101923524D01*
X116899844Y-102068858D01*
X116911000Y-102182128D01*
X116911000Y-102817872D01*
X116899844Y-102931142D01*
X116874382Y-103015078D01*
X116855756Y-103076479D01*
X116784165Y-103210416D01*
X116784164Y-103210417D01*
X116687817Y-103327817D01*
X116610827Y-103391000D01*
X116570415Y-103424165D01*
X116436478Y-103495756D01*
X116436475Y-103495757D01*
X116291141Y-103539844D01*
X116140000Y-103554730D01*
X115988858Y-103539844D01*
X115843524Y-103495757D01*
X115843521Y-103495756D01*
X115709584Y-103424165D01*
X115654169Y-103378687D01*
X115592183Y-103327817D01*
X115495836Y-103210416D01*
X115480035Y-103180855D01*
X115424244Y-103076478D01*
X115424243Y-103076475D01*
X115380156Y-102931141D01*
X115369000Y-102817871D01*
X115369000Y-102182128D01*
X115380156Y-102068858D01*
X115424243Y-101923524D01*
X115424243Y-101923523D01*
X115495837Y-101789582D01*
X115592184Y-101672183D01*
X115709585Y-101575835D01*
X115843522Y-101504244D01*
X115843525Y-101504243D01*
X115988859Y-101460156D01*
X116140000Y-101445270D01*
X116291142Y-101460156D01*
G37*
G36*
X118831142Y-101460156D02*
G01*
X118976476Y-101504243D01*
X118976479Y-101504244D01*
X119110416Y-101575835D01*
X119227817Y-101672183D01*
X119324165Y-101789584D01*
X119395756Y-101923521D01*
X119395757Y-101923524D01*
X119439844Y-102068858D01*
X119451000Y-102182128D01*
X119451000Y-102817872D01*
X119439844Y-102931142D01*
X119414382Y-103015078D01*
X119395756Y-103076479D01*
X119324165Y-103210416D01*
X119324164Y-103210417D01*
X119227817Y-103327817D01*
X119150827Y-103391000D01*
X119110415Y-103424165D01*
X118976478Y-103495756D01*
X118976475Y-103495757D01*
X118831141Y-103539844D01*
X118680000Y-103554730D01*
X118528858Y-103539844D01*
X118383524Y-103495757D01*
X118383521Y-103495756D01*
X118249584Y-103424165D01*
X118194169Y-103378687D01*
X118132183Y-103327817D01*
X118035836Y-103210416D01*
X118020035Y-103180855D01*
X117964244Y-103076478D01*
X117964243Y-103076475D01*
X117920156Y-102931141D01*
X117909000Y-102817871D01*
X117909000Y-102182128D01*
X117920156Y-102068858D01*
X117964243Y-101923524D01*
X117964243Y-101923523D01*
X118035837Y-101789582D01*
X118132184Y-101672183D01*
X118249585Y-101575835D01*
X118383522Y-101504244D01*
X118383525Y-101504243D01*
X118528859Y-101460156D01*
X118680000Y-101445270D01*
X118831142Y-101460156D01*
G37*
G36*
X139771000Y-103551000D02*
G01*
X138229000Y-103551000D01*
X138229000Y-101449000D01*
X139771000Y-101449000D01*
X139771000Y-103551000D01*
G37*
G36*
X89417273Y-100454916D02*
G01*
X89567098Y-100484718D01*
X89849362Y-100601635D01*
X90103393Y-100771373D01*
X90319429Y-100987409D01*
X90489167Y-101241440D01*
X90598023Y-101504243D01*
X90606084Y-101523705D01*
X90665688Y-101823353D01*
X90665688Y-102128875D01*
X90649002Y-102212761D01*
X90606084Y-102428524D01*
X90489167Y-102710788D01*
X90319429Y-102964819D01*
X90103393Y-103180855D01*
X89849362Y-103350593D01*
X89567098Y-103467510D01*
X89417273Y-103497312D01*
X89267449Y-103527114D01*
X88961927Y-103527114D01*
X88812103Y-103497312D01*
X88662278Y-103467510D01*
X88380014Y-103350593D01*
X88125983Y-103180855D01*
X87909947Y-102964819D01*
X87740209Y-102710788D01*
X87623292Y-102428524D01*
X87580374Y-102212761D01*
X87563688Y-102128875D01*
X87563688Y-101823353D01*
X87623292Y-101523705D01*
X87631353Y-101504243D01*
X87740209Y-101241440D01*
X87909947Y-100987409D01*
X88125983Y-100771373D01*
X88380014Y-100601635D01*
X88662278Y-100484718D01*
X88812103Y-100454916D01*
X88961927Y-100425114D01*
X89267449Y-100425114D01*
X89417273Y-100454916D01*
G37*
G36*
X73719503Y-100454916D02*
G01*
X73869328Y-100484718D01*
X74151592Y-100601635D01*
X74405623Y-100771373D01*
X74621659Y-100987409D01*
X74791397Y-101241440D01*
X74900253Y-101504243D01*
X74908314Y-101523705D01*
X74967918Y-101823353D01*
X74967918Y-102128875D01*
X74951232Y-102212761D01*
X74908314Y-102428524D01*
X74791397Y-102710788D01*
X74621659Y-102964819D01*
X74405623Y-103180855D01*
X74151592Y-103350593D01*
X73869328Y-103467510D01*
X73719503Y-103497312D01*
X73569679Y-103527114D01*
X73264157Y-103527114D01*
X73114333Y-103497312D01*
X72964508Y-103467510D01*
X72682244Y-103350593D01*
X72428213Y-103180855D01*
X72212177Y-102964819D01*
X72042439Y-102710788D01*
X71925522Y-102428524D01*
X71882604Y-102212761D01*
X71865918Y-102128875D01*
X71865918Y-101823353D01*
X71925522Y-101523705D01*
X71933583Y-101504243D01*
X72042439Y-101241440D01*
X72212177Y-100987409D01*
X72428213Y-100771373D01*
X72682244Y-100601635D01*
X72964508Y-100484718D01*
X73114333Y-100454916D01*
X73264157Y-100425114D01*
X73569679Y-100425114D01*
X73719503Y-100454916D01*
G37*
G36*
X63616823Y-101701313D02*
G01*
X63777242Y-101749976D01*
X63851341Y-101789583D01*
X63925078Y-101828996D01*
X64054659Y-101935341D01*
X64161004Y-102064922D01*
X64161005Y-102064924D01*
X64240024Y-102212758D01*
X64288687Y-102373177D01*
X64305117Y-102540000D01*
X64288687Y-102706823D01*
X64240024Y-102867242D01*
X64187868Y-102964818D01*
X64161004Y-103015078D01*
X64054659Y-103144659D01*
X63925078Y-103251004D01*
X63925076Y-103251005D01*
X63777242Y-103330024D01*
X63616823Y-103378687D01*
X63491804Y-103391000D01*
X62508196Y-103391000D01*
X62383177Y-103378687D01*
X62222758Y-103330024D01*
X62074924Y-103251005D01*
X62074922Y-103251004D01*
X61945341Y-103144659D01*
X61838996Y-103015078D01*
X61812132Y-102964818D01*
X61759976Y-102867242D01*
X61711313Y-102706823D01*
X61694883Y-102540000D01*
X61711313Y-102373177D01*
X61759976Y-102212758D01*
X61838995Y-102064924D01*
X61838996Y-102064922D01*
X61945341Y-101935341D01*
X62074922Y-101828996D01*
X62148659Y-101789583D01*
X62222758Y-101749976D01*
X62383177Y-101701313D01*
X62508196Y-101689000D01*
X63491804Y-101689000D01*
X63616823Y-101701313D01*
G37*
G36*
X63616823Y-99161313D02*
G01*
X63777242Y-99209976D01*
X63909906Y-99280886D01*
X63925078Y-99288996D01*
X64054659Y-99395341D01*
X64161004Y-99524922D01*
X64161005Y-99524924D01*
X64240024Y-99672758D01*
X64288687Y-99833177D01*
X64305117Y-100000000D01*
X64288687Y-100166823D01*
X64240024Y-100327242D01*
X64187710Y-100425114D01*
X64161004Y-100475078D01*
X64054659Y-100604659D01*
X63925078Y-100711004D01*
X63925076Y-100711005D01*
X63777242Y-100790024D01*
X63616823Y-100838687D01*
X63491804Y-100851000D01*
X62508196Y-100851000D01*
X62383177Y-100838687D01*
X62222758Y-100790024D01*
X62074924Y-100711005D01*
X62074922Y-100711004D01*
X61945341Y-100604659D01*
X61838996Y-100475078D01*
X61812290Y-100425114D01*
X61759976Y-100327242D01*
X61711313Y-100166823D01*
X61694883Y-100000000D01*
X61711313Y-99833177D01*
X61759976Y-99672758D01*
X61838995Y-99524924D01*
X61838996Y-99524922D01*
X61945341Y-99395341D01*
X62074922Y-99288996D01*
X62090094Y-99280886D01*
X62222758Y-99209976D01*
X62383177Y-99161313D01*
X62508196Y-99149000D01*
X63491804Y-99149000D01*
X63616823Y-99161313D01*
G37*
G36*
X84441279Y-97582025D02*
G01*
X84591104Y-97611827D01*
X84873368Y-97728744D01*
X85127399Y-97898482D01*
X85343435Y-98114518D01*
X85513173Y-98368549D01*
X85630090Y-98650813D01*
X85689694Y-98950463D01*
X85689694Y-99255983D01*
X85630090Y-99555633D01*
X85513173Y-99837897D01*
X85343435Y-100091928D01*
X85127399Y-100307964D01*
X84873368Y-100477702D01*
X84591104Y-100594619D01*
X84540629Y-100604659D01*
X84291455Y-100654223D01*
X83985933Y-100654223D01*
X83736759Y-100604659D01*
X83686284Y-100594619D01*
X83404020Y-100477702D01*
X83149989Y-100307964D01*
X82933953Y-100091928D01*
X82764215Y-99837897D01*
X82647298Y-99555633D01*
X82587694Y-99255983D01*
X82587694Y-98950463D01*
X82647298Y-98650813D01*
X82764215Y-98368549D01*
X82933953Y-98114518D01*
X83149989Y-97898482D01*
X83404020Y-97728744D01*
X83686284Y-97611827D01*
X83836109Y-97582025D01*
X83985933Y-97552223D01*
X84291455Y-97552223D01*
X84441279Y-97582025D01*
G37*
G36*
X78695497Y-97582025D02*
G01*
X78845322Y-97611827D01*
X79127586Y-97728744D01*
X79381617Y-97898482D01*
X79597653Y-98114518D01*
X79767391Y-98368549D01*
X79884308Y-98650813D01*
X79943912Y-98950463D01*
X79943912Y-99255983D01*
X79884308Y-99555633D01*
X79767391Y-99837897D01*
X79597653Y-100091928D01*
X79381617Y-100307964D01*
X79127586Y-100477702D01*
X78845322Y-100594619D01*
X78794847Y-100604659D01*
X78545673Y-100654223D01*
X78240151Y-100654223D01*
X77990977Y-100604659D01*
X77940502Y-100594619D01*
X77658238Y-100477702D01*
X77404207Y-100307964D01*
X77188171Y-100091928D01*
X77018433Y-99837897D01*
X76901516Y-99555633D01*
X76841912Y-99255983D01*
X76841912Y-98950463D01*
X76901516Y-98650813D01*
X77018433Y-98368549D01*
X77188171Y-98114518D01*
X77404207Y-97898482D01*
X77658238Y-97728744D01*
X77940502Y-97611827D01*
X78090327Y-97582025D01*
X78240151Y-97552223D01*
X78545673Y-97552223D01*
X78695497Y-97582025D01*
G37*
G36*
X59846669Y-93127686D02*
G01*
X60023058Y-93145059D01*
X60362548Y-93248042D01*
X60362550Y-93248043D01*
X60675422Y-93415277D01*
X60949661Y-93640339D01*
X61174723Y-93914578D01*
X61334325Y-94213172D01*
X61341958Y-94227452D01*
X61444941Y-94566942D01*
X61479714Y-94920000D01*
X61444941Y-95273058D01*
X61341958Y-95612548D01*
X61341957Y-95612550D01*
X61174723Y-95925422D01*
X60949661Y-96199661D01*
X60675422Y-96424723D01*
X60362550Y-96591957D01*
X60362548Y-96591958D01*
X60023058Y-96694941D01*
X59846669Y-96712314D01*
X59758476Y-96721000D01*
X56081524Y-96721000D01*
X55993331Y-96712314D01*
X55816942Y-96694941D01*
X55477452Y-96591958D01*
X55477450Y-96591957D01*
X55164578Y-96424723D01*
X54890339Y-96199661D01*
X54665277Y-95925422D01*
X54498043Y-95612550D01*
X54498042Y-95612548D01*
X54395059Y-95273058D01*
X54360286Y-94920000D01*
X54395059Y-94566942D01*
X54498042Y-94227452D01*
X54505675Y-94213172D01*
X54665277Y-93914578D01*
X54890339Y-93640339D01*
X55164578Y-93415277D01*
X55477450Y-93248043D01*
X55477452Y-93248042D01*
X55816942Y-93145059D01*
X55993331Y-93127686D01*
X56081524Y-93119000D01*
X59758476Y-93119000D01*
X59846669Y-93127686D01*
G37*
G36*
X101421761Y-91199000D02*
G01*
X101579519Y-91230380D01*
X101861783Y-91347297D01*
X102115814Y-91517035D01*
X102331850Y-91733071D01*
X102501588Y-91987102D01*
X102618505Y-92269366D01*
X102618505Y-92269367D01*
X102678109Y-92569015D01*
X102678109Y-92874537D01*
X102670811Y-92911226D01*
X102618505Y-93174186D01*
X102501588Y-93456450D01*
X102331850Y-93710481D01*
X102115814Y-93926517D01*
X101861783Y-94096255D01*
X101579519Y-94213172D01*
X101507728Y-94227452D01*
X101279870Y-94272776D01*
X100974348Y-94272776D01*
X100746490Y-94227452D01*
X100674699Y-94213172D01*
X100392435Y-94096255D01*
X100138404Y-93926517D01*
X99922368Y-93710481D01*
X99752630Y-93456450D01*
X99635713Y-93174186D01*
X99583407Y-92911226D01*
X99576109Y-92874537D01*
X99576109Y-92569015D01*
X99635713Y-92269367D01*
X99635713Y-92269366D01*
X99752630Y-91987102D01*
X99922368Y-91733071D01*
X100138404Y-91517035D01*
X100392435Y-91347297D01*
X100674699Y-91230380D01*
X100832457Y-91199000D01*
X100974348Y-91170776D01*
X101279870Y-91170776D01*
X101421761Y-91199000D01*
G37*
G36*
X107167543Y-91199000D02*
G01*
X107325301Y-91230380D01*
X107607565Y-91347297D01*
X107861596Y-91517035D01*
X108077632Y-91733071D01*
X108247370Y-91987102D01*
X108364287Y-92269366D01*
X108364287Y-92269367D01*
X108423891Y-92569015D01*
X108423891Y-92874537D01*
X108416593Y-92911226D01*
X108364287Y-93174186D01*
X108247370Y-93456450D01*
X108077632Y-93710481D01*
X107861596Y-93926517D01*
X107607565Y-94096255D01*
X107325301Y-94213172D01*
X107253510Y-94227452D01*
X107025652Y-94272776D01*
X106720130Y-94272776D01*
X106492272Y-94227452D01*
X106420481Y-94213172D01*
X106138217Y-94096255D01*
X105884186Y-93926517D01*
X105668150Y-93710481D01*
X105498412Y-93456450D01*
X105381495Y-93174186D01*
X105329189Y-92911226D01*
X105321891Y-92874537D01*
X105321891Y-92569015D01*
X105381495Y-92269367D01*
X105381495Y-92269366D01*
X105498412Y-91987102D01*
X105668150Y-91733071D01*
X105884186Y-91517035D01*
X106138217Y-91347297D01*
X106420481Y-91230380D01*
X106578239Y-91199000D01*
X106720130Y-91170776D01*
X107025652Y-91170776D01*
X107167543Y-91199000D01*
G37*
G36*
X74100562Y-91078181D02*
G01*
X74135481Y-91088774D01*
X74167663Y-91105976D01*
X74195873Y-91129127D01*
X74219024Y-91157337D01*
X74236226Y-91189519D01*
X74246819Y-91224438D01*
X74251000Y-91266895D01*
X74251000Y-92733105D01*
X74246819Y-92775562D01*
X74236226Y-92810481D01*
X74219024Y-92842663D01*
X74195873Y-92870873D01*
X74167663Y-92894024D01*
X74135481Y-92911226D01*
X74100562Y-92921819D01*
X74058105Y-92926000D01*
X72916895Y-92926000D01*
X72874438Y-92921819D01*
X72839519Y-92911226D01*
X72807337Y-92894024D01*
X72779127Y-92870873D01*
X72755976Y-92842663D01*
X72738774Y-92810481D01*
X72728181Y-92775562D01*
X72724000Y-92733105D01*
X72724000Y-91266895D01*
X72728181Y-91224438D01*
X72738774Y-91189519D01*
X72755976Y-91157337D01*
X72779127Y-91129127D01*
X72807337Y-91105976D01*
X72839519Y-91088774D01*
X72874438Y-91078181D01*
X72916895Y-91074000D01*
X74058105Y-91074000D01*
X74100562Y-91078181D01*
G37*
G36*
X127588062Y-91078181D02*
G01*
X127622981Y-91088774D01*
X127655163Y-91105976D01*
X127683373Y-91129127D01*
X127706524Y-91157337D01*
X127723726Y-91189519D01*
X127734319Y-91224438D01*
X127738500Y-91266895D01*
X127738500Y-92733105D01*
X127734319Y-92775562D01*
X127723726Y-92810481D01*
X127706524Y-92842663D01*
X127683373Y-92870873D01*
X127655163Y-92894024D01*
X127622981Y-92911226D01*
X127588062Y-92921819D01*
X127545605Y-92926000D01*
X126404395Y-92926000D01*
X126361938Y-92921819D01*
X126327019Y-92911226D01*
X126294837Y-92894024D01*
X126266627Y-92870873D01*
X126243476Y-92842663D01*
X126226274Y-92810481D01*
X126215681Y-92775562D01*
X126211500Y-92733105D01*
X126211500Y-91266895D01*
X126215681Y-91224438D01*
X126226274Y-91189519D01*
X126243476Y-91157337D01*
X126266627Y-91129127D01*
X126294837Y-91105976D01*
X126327019Y-91088774D01*
X126361938Y-91078181D01*
X126404395Y-91074000D01*
X127545605Y-91074000D01*
X127588062Y-91078181D01*
G37*
G36*
X71125562Y-91078181D02*
G01*
X71160481Y-91088774D01*
X71192663Y-91105976D01*
X71220873Y-91129127D01*
X71244024Y-91157337D01*
X71261226Y-91189519D01*
X71271819Y-91224438D01*
X71276000Y-91266895D01*
X71276000Y-92733105D01*
X71271819Y-92775562D01*
X71261226Y-92810481D01*
X71244024Y-92842663D01*
X71220873Y-92870873D01*
X71192663Y-92894024D01*
X71160481Y-92911226D01*
X71125562Y-92921819D01*
X71083105Y-92926000D01*
X69941895Y-92926000D01*
X69899438Y-92921819D01*
X69864519Y-92911226D01*
X69832337Y-92894024D01*
X69804127Y-92870873D01*
X69780976Y-92842663D01*
X69763774Y-92810481D01*
X69753181Y-92775562D01*
X69749000Y-92733105D01*
X69749000Y-91266895D01*
X69753181Y-91224438D01*
X69763774Y-91189519D01*
X69780976Y-91157337D01*
X69804127Y-91129127D01*
X69832337Y-91105976D01*
X69864519Y-91088774D01*
X69899438Y-91078181D01*
X69941895Y-91074000D01*
X71083105Y-91074000D01*
X71125562Y-91078181D01*
G37*
G36*
X80613062Y-91078181D02*
G01*
X80647981Y-91088774D01*
X80680163Y-91105976D01*
X80708373Y-91129127D01*
X80731524Y-91157337D01*
X80748726Y-91189519D01*
X80759319Y-91224438D01*
X80763500Y-91266895D01*
X80763500Y-92733105D01*
X80759319Y-92775562D01*
X80748726Y-92810481D01*
X80731524Y-92842663D01*
X80708373Y-92870873D01*
X80680163Y-92894024D01*
X80647981Y-92911226D01*
X80613062Y-92921819D01*
X80570605Y-92926000D01*
X79429395Y-92926000D01*
X79386938Y-92921819D01*
X79352019Y-92911226D01*
X79319837Y-92894024D01*
X79291627Y-92870873D01*
X79268476Y-92842663D01*
X79251274Y-92810481D01*
X79240681Y-92775562D01*
X79236500Y-92733105D01*
X79236500Y-91266895D01*
X79240681Y-91224438D01*
X79251274Y-91189519D01*
X79268476Y-91157337D01*
X79291627Y-91129127D01*
X79319837Y-91105976D01*
X79352019Y-91088774D01*
X79386938Y-91078181D01*
X79429395Y-91074000D01*
X80570605Y-91074000D01*
X80613062Y-91078181D01*
G37*
G36*
X77638062Y-91078181D02*
G01*
X77672981Y-91088774D01*
X77705163Y-91105976D01*
X77733373Y-91129127D01*
X77756524Y-91157337D01*
X77773726Y-91189519D01*
X77784319Y-91224438D01*
X77788500Y-91266895D01*
X77788500Y-92733105D01*
X77784319Y-92775562D01*
X77773726Y-92810481D01*
X77756524Y-92842663D01*
X77733373Y-92870873D01*
X77705163Y-92894024D01*
X77672981Y-92911226D01*
X77638062Y-92921819D01*
X77595605Y-92926000D01*
X76454395Y-92926000D01*
X76411938Y-92921819D01*
X76377019Y-92911226D01*
X76344837Y-92894024D01*
X76316627Y-92870873D01*
X76293476Y-92842663D01*
X76276274Y-92810481D01*
X76265681Y-92775562D01*
X76261500Y-92733105D01*
X76261500Y-91266895D01*
X76265681Y-91224438D01*
X76276274Y-91189519D01*
X76293476Y-91157337D01*
X76316627Y-91129127D01*
X76344837Y-91105976D01*
X76377019Y-91088774D01*
X76411938Y-91078181D01*
X76454395Y-91074000D01*
X77595605Y-91074000D01*
X77638062Y-91078181D01*
G37*
G36*
X130638062Y-91078181D02*
G01*
X130672981Y-91088774D01*
X130705163Y-91105976D01*
X130733373Y-91129127D01*
X130756524Y-91157337D01*
X130773726Y-91189519D01*
X130784319Y-91224438D01*
X130788500Y-91266895D01*
X130788500Y-92733105D01*
X130784319Y-92775562D01*
X130773726Y-92810481D01*
X130756524Y-92842663D01*
X130733373Y-92870873D01*
X130705163Y-92894024D01*
X130672981Y-92911226D01*
X130638062Y-92921819D01*
X130595605Y-92926000D01*
X129454395Y-92926000D01*
X129411938Y-92921819D01*
X129377019Y-92911226D01*
X129344837Y-92894024D01*
X129316627Y-92870873D01*
X129293476Y-92842663D01*
X129276274Y-92810481D01*
X129265681Y-92775562D01*
X129261500Y-92733105D01*
X129261500Y-91266895D01*
X129265681Y-91224438D01*
X129276274Y-91189519D01*
X129293476Y-91157337D01*
X129316627Y-91129127D01*
X129344837Y-91105976D01*
X129377019Y-91088774D01*
X129411938Y-91078181D01*
X129454395Y-91074000D01*
X130595605Y-91074000D01*
X130638062Y-91078181D01*
G37*
G36*
X133613062Y-91078181D02*
G01*
X133647981Y-91088774D01*
X133680163Y-91105976D01*
X133708373Y-91129127D01*
X133731524Y-91157337D01*
X133748726Y-91189519D01*
X133759319Y-91224438D01*
X133763500Y-91266895D01*
X133763500Y-92733105D01*
X133759319Y-92775562D01*
X133748726Y-92810481D01*
X133731524Y-92842663D01*
X133708373Y-92870873D01*
X133680163Y-92894024D01*
X133647981Y-92911226D01*
X133613062Y-92921819D01*
X133570605Y-92926000D01*
X132429395Y-92926000D01*
X132386938Y-92921819D01*
X132352019Y-92911226D01*
X132319837Y-92894024D01*
X132291627Y-92870873D01*
X132268476Y-92842663D01*
X132251274Y-92810481D01*
X132240681Y-92775562D01*
X132236500Y-92733105D01*
X132236500Y-91266895D01*
X132240681Y-91224438D01*
X132251274Y-91189519D01*
X132268476Y-91157337D01*
X132291627Y-91129127D01*
X132319837Y-91105976D01*
X132352019Y-91088774D01*
X132386938Y-91078181D01*
X132429395Y-91074000D01*
X133570605Y-91074000D01*
X133613062Y-91078181D01*
G37*
G36*
X124613062Y-91078181D02*
G01*
X124647981Y-91088774D01*
X124680163Y-91105976D01*
X124708373Y-91129127D01*
X124731524Y-91157337D01*
X124748726Y-91189519D01*
X124759319Y-91224438D01*
X124763500Y-91266895D01*
X124763500Y-92733105D01*
X124759319Y-92775562D01*
X124748726Y-92810481D01*
X124731524Y-92842663D01*
X124708373Y-92870873D01*
X124680163Y-92894024D01*
X124647981Y-92911226D01*
X124613062Y-92921819D01*
X124570605Y-92926000D01*
X123429395Y-92926000D01*
X123386938Y-92921819D01*
X123352019Y-92911226D01*
X123319837Y-92894024D01*
X123291627Y-92870873D01*
X123268476Y-92842663D01*
X123251274Y-92810481D01*
X123240681Y-92775562D01*
X123236500Y-92733105D01*
X123236500Y-91266895D01*
X123240681Y-91224438D01*
X123251274Y-91189519D01*
X123268476Y-91157337D01*
X123291627Y-91129127D01*
X123319837Y-91105976D01*
X123352019Y-91088774D01*
X123386938Y-91078181D01*
X123429395Y-91074000D01*
X124570605Y-91074000D01*
X124613062Y-91078181D01*
G37*
G36*
X147051000Y-92801000D02*
G01*
X143949000Y-92801000D01*
X143949000Y-91199000D01*
X147051000Y-91199000D01*
X147051000Y-92801000D01*
G37*
G36*
X142051000Y-92801000D02*
G01*
X138949000Y-92801000D01*
X138949000Y-91199000D01*
X142051000Y-91199000D01*
X142051000Y-92801000D01*
G37*
G36*
X96453700Y-88327687D02*
G01*
X96603525Y-88357489D01*
X96885789Y-88474406D01*
X97139820Y-88644144D01*
X97355856Y-88860180D01*
X97525594Y-89114211D01*
X97642511Y-89396475D01*
X97702115Y-89696125D01*
X97702115Y-90001645D01*
X97642511Y-90301295D01*
X97525594Y-90583559D01*
X97355856Y-90837590D01*
X97139820Y-91053626D01*
X96885789Y-91223364D01*
X96603525Y-91340281D01*
X96453700Y-91370083D01*
X96303876Y-91399885D01*
X95998354Y-91399885D01*
X95848530Y-91370083D01*
X95698705Y-91340281D01*
X95416441Y-91223364D01*
X95162410Y-91053626D01*
X94946374Y-90837590D01*
X94776636Y-90583559D01*
X94659719Y-90301295D01*
X94600115Y-90001645D01*
X94600115Y-89696125D01*
X94659719Y-89396475D01*
X94776636Y-89114211D01*
X94946374Y-88860180D01*
X95162410Y-88644144D01*
X95416441Y-88474406D01*
X95698705Y-88357489D01*
X95848530Y-88327687D01*
X95998354Y-88297885D01*
X96303876Y-88297885D01*
X96453700Y-88327687D01*
G37*
G36*
X112151470Y-88327687D02*
G01*
X112301295Y-88357489D01*
X112583559Y-88474406D01*
X112837590Y-88644144D01*
X113053626Y-88860180D01*
X113223364Y-89114211D01*
X113340281Y-89396475D01*
X113399885Y-89696125D01*
X113399885Y-90001645D01*
X113340281Y-90301295D01*
X113223364Y-90583559D01*
X113053626Y-90837590D01*
X112837590Y-91053626D01*
X112583559Y-91223364D01*
X112301295Y-91340281D01*
X112151470Y-91370083D01*
X112001646Y-91399885D01*
X111696124Y-91399885D01*
X111546300Y-91370083D01*
X111396475Y-91340281D01*
X111114211Y-91223364D01*
X110860180Y-91053626D01*
X110644144Y-90837590D01*
X110474406Y-90583559D01*
X110357489Y-90301295D01*
X110297885Y-90001645D01*
X110297885Y-89696125D01*
X110357489Y-89396475D01*
X110474406Y-89114211D01*
X110644144Y-88860180D01*
X110860180Y-88644144D01*
X111114211Y-88474406D01*
X111396475Y-88357489D01*
X111546300Y-88327687D01*
X111696124Y-88297885D01*
X112001646Y-88297885D01*
X112151470Y-88327687D01*
G37*
G36*
X59846669Y-87287686D02*
G01*
X60023058Y-87305059D01*
X60362548Y-87408042D01*
X60362550Y-87408043D01*
X60675422Y-87575277D01*
X60852834Y-87720875D01*
X60949661Y-87800339D01*
X61174722Y-88074577D01*
X61341958Y-88387452D01*
X61444941Y-88726942D01*
X61479714Y-89080000D01*
X61444941Y-89433058D01*
X61341958Y-89772548D01*
X61341957Y-89772550D01*
X61174723Y-90085422D01*
X60949661Y-90359661D01*
X60675422Y-90584723D01*
X60362550Y-90751957D01*
X60362548Y-90751958D01*
X60023058Y-90854941D01*
X59846669Y-90872314D01*
X59758476Y-90881000D01*
X56081524Y-90881000D01*
X55993331Y-90872314D01*
X55816942Y-90854941D01*
X55477452Y-90751958D01*
X55477450Y-90751957D01*
X55164578Y-90584723D01*
X54890339Y-90359661D01*
X54665277Y-90085422D01*
X54498043Y-89772550D01*
X54498042Y-89772548D01*
X54395059Y-89433058D01*
X54360286Y-89080000D01*
X54395059Y-88726942D01*
X54498042Y-88387452D01*
X54665278Y-88074577D01*
X54890339Y-87800339D01*
X54987166Y-87720875D01*
X55164578Y-87575277D01*
X55477450Y-87408043D01*
X55477452Y-87408042D01*
X55816942Y-87305059D01*
X55993331Y-87287686D01*
X56081524Y-87279000D01*
X59758476Y-87279000D01*
X59846669Y-87287686D01*
G37*
G36*
X127588062Y-87078181D02*
G01*
X127622981Y-87088774D01*
X127655163Y-87105976D01*
X127683373Y-87129127D01*
X127706524Y-87157337D01*
X127723726Y-87189519D01*
X127734319Y-87224438D01*
X127738500Y-87266895D01*
X127738500Y-88733105D01*
X127734319Y-88775562D01*
X127723726Y-88810481D01*
X127706524Y-88842663D01*
X127683373Y-88870873D01*
X127655163Y-88894024D01*
X127622981Y-88911226D01*
X127588062Y-88921819D01*
X127545605Y-88926000D01*
X126404395Y-88926000D01*
X126361938Y-88921819D01*
X126327019Y-88911226D01*
X126294837Y-88894024D01*
X126266627Y-88870873D01*
X126243476Y-88842663D01*
X126226274Y-88810481D01*
X126215681Y-88775562D01*
X126211500Y-88733105D01*
X126211500Y-87266895D01*
X126215681Y-87224438D01*
X126226274Y-87189519D01*
X126243476Y-87157337D01*
X126266627Y-87129127D01*
X126294837Y-87105976D01*
X126327019Y-87088774D01*
X126361938Y-87078181D01*
X126404395Y-87074000D01*
X127545605Y-87074000D01*
X127588062Y-87078181D01*
G37*
G36*
X124613062Y-87078181D02*
G01*
X124647981Y-87088774D01*
X124680163Y-87105976D01*
X124708373Y-87129127D01*
X124731524Y-87157337D01*
X124748726Y-87189519D01*
X124759319Y-87224438D01*
X124763500Y-87266895D01*
X124763500Y-88733105D01*
X124759319Y-88775562D01*
X124748726Y-88810481D01*
X124731524Y-88842663D01*
X124708373Y-88870873D01*
X124680163Y-88894024D01*
X124647981Y-88911226D01*
X124613062Y-88921819D01*
X124570605Y-88926000D01*
X123429395Y-88926000D01*
X123386938Y-88921819D01*
X123352019Y-88911226D01*
X123319837Y-88894024D01*
X123291627Y-88870873D01*
X123268476Y-88842663D01*
X123251274Y-88810481D01*
X123240681Y-88775562D01*
X123236500Y-88733105D01*
X123236500Y-87266895D01*
X123240681Y-87224438D01*
X123251274Y-87189519D01*
X123268476Y-87157337D01*
X123291627Y-87129127D01*
X123319837Y-87105976D01*
X123352019Y-87088774D01*
X123386938Y-87078181D01*
X123429395Y-87074000D01*
X124570605Y-87074000D01*
X124613062Y-87078181D01*
G37*
G36*
X141328571Y-86202863D02*
G01*
X141407023Y-86210590D01*
X141507682Y-86241125D01*
X141558013Y-86256392D01*
X141697165Y-86330771D01*
X141819133Y-86430867D01*
X141919229Y-86552835D01*
X141993608Y-86691987D01*
X141993608Y-86691988D01*
X142039410Y-86842977D01*
X142054875Y-87000000D01*
X142039410Y-87157023D01*
X142029552Y-87189519D01*
X141993608Y-87308013D01*
X141919229Y-87447165D01*
X141819133Y-87569133D01*
X141697165Y-87669229D01*
X141558013Y-87743608D01*
X141507682Y-87758875D01*
X141407023Y-87789410D01*
X141328571Y-87797137D01*
X141289346Y-87801000D01*
X139710654Y-87801000D01*
X139671429Y-87797137D01*
X139592977Y-87789410D01*
X139492318Y-87758875D01*
X139441987Y-87743608D01*
X139302835Y-87669229D01*
X139180867Y-87569133D01*
X139080771Y-87447165D01*
X139006392Y-87308013D01*
X138970448Y-87189519D01*
X138960590Y-87157023D01*
X138945125Y-87000000D01*
X138960590Y-86842977D01*
X139006392Y-86691988D01*
X139006392Y-86691987D01*
X139080771Y-86552835D01*
X139180867Y-86430867D01*
X139302835Y-86330771D01*
X139441987Y-86256392D01*
X139492318Y-86241125D01*
X139592977Y-86210590D01*
X139671429Y-86202863D01*
X139710654Y-86199000D01*
X141289346Y-86199000D01*
X141328571Y-86202863D01*
G37*
G36*
X146328571Y-86202863D02*
G01*
X146407023Y-86210590D01*
X146507682Y-86241125D01*
X146558013Y-86256392D01*
X146697165Y-86330771D01*
X146819133Y-86430867D01*
X146919229Y-86552835D01*
X146993608Y-86691987D01*
X146993608Y-86691988D01*
X147039410Y-86842977D01*
X147054875Y-87000000D01*
X147039410Y-87157023D01*
X147029552Y-87189519D01*
X146993608Y-87308013D01*
X146919229Y-87447165D01*
X146819133Y-87569133D01*
X146697165Y-87669229D01*
X146558013Y-87743608D01*
X146507682Y-87758875D01*
X146407023Y-87789410D01*
X146328571Y-87797137D01*
X146289346Y-87801000D01*
X144710654Y-87801000D01*
X144671429Y-87797137D01*
X144592977Y-87789410D01*
X144492318Y-87758875D01*
X144441987Y-87743608D01*
X144302835Y-87669229D01*
X144180867Y-87569133D01*
X144080771Y-87447165D01*
X144006392Y-87308013D01*
X143970448Y-87189519D01*
X143960590Y-87157023D01*
X143945125Y-87000000D01*
X143960590Y-86842977D01*
X144006392Y-86691988D01*
X144006392Y-86691987D01*
X144080771Y-86552835D01*
X144180867Y-86430867D01*
X144302835Y-86330771D01*
X144441987Y-86256392D01*
X144492318Y-86241125D01*
X144592977Y-86210590D01*
X144671429Y-86202863D01*
X144710654Y-86199000D01*
X146289346Y-86199000D01*
X146328571Y-86202863D01*
G37*
G36*
X81641320Y-84278103D02*
G01*
X81675485Y-84288467D01*
X81706964Y-84305293D01*
X81734560Y-84327940D01*
X81757207Y-84355536D01*
X81774033Y-84387015D01*
X81784397Y-84421180D01*
X81788500Y-84462842D01*
X81788500Y-87537158D01*
X81784397Y-87578820D01*
X81774033Y-87612985D01*
X81757207Y-87644464D01*
X81734560Y-87672060D01*
X81706964Y-87694707D01*
X81675485Y-87711533D01*
X81641320Y-87721897D01*
X81599658Y-87726000D01*
X80350342Y-87726000D01*
X80308680Y-87721897D01*
X80274515Y-87711533D01*
X80243036Y-87694707D01*
X80215440Y-87672060D01*
X80192793Y-87644464D01*
X80175967Y-87612985D01*
X80165603Y-87578820D01*
X80161500Y-87537158D01*
X80161500Y-84462842D01*
X80165603Y-84421180D01*
X80175967Y-84387015D01*
X80192793Y-84355536D01*
X80215440Y-84327940D01*
X80243036Y-84305293D01*
X80274515Y-84288467D01*
X80308680Y-84278103D01*
X80350342Y-84274000D01*
X81599658Y-84274000D01*
X81641320Y-84278103D01*
G37*
G36*
X75666320Y-84278103D02*
G01*
X75700485Y-84288467D01*
X75731964Y-84305293D01*
X75759560Y-84327940D01*
X75782207Y-84355536D01*
X75799033Y-84387015D01*
X75809397Y-84421180D01*
X75813500Y-84462842D01*
X75813500Y-87537158D01*
X75809397Y-87578820D01*
X75799033Y-87612985D01*
X75782207Y-87644464D01*
X75759560Y-87672060D01*
X75731964Y-87694707D01*
X75700485Y-87711533D01*
X75666320Y-87721897D01*
X75624658Y-87726000D01*
X74375342Y-87726000D01*
X74333680Y-87721897D01*
X74299515Y-87711533D01*
X74268036Y-87694707D01*
X74240440Y-87672060D01*
X74217793Y-87644464D01*
X74200967Y-87612985D01*
X74190603Y-87578820D01*
X74186500Y-87537158D01*
X74186500Y-84462842D01*
X74190603Y-84421180D01*
X74200967Y-84387015D01*
X74217793Y-84355536D01*
X74240440Y-84327940D01*
X74268036Y-84305293D01*
X74299515Y-84288467D01*
X74333680Y-84278103D01*
X74375342Y-84274000D01*
X75624658Y-84274000D01*
X75666320Y-84278103D01*
G37*
G36*
X63616823Y-85701313D02*
G01*
X63777242Y-85749976D01*
X63909906Y-85820886D01*
X63925078Y-85828996D01*
X64054659Y-85935341D01*
X64161004Y-86064922D01*
X64161005Y-86064924D01*
X64240024Y-86212758D01*
X64288687Y-86373177D01*
X64305117Y-86540000D01*
X64288687Y-86706823D01*
X64240024Y-86867242D01*
X64169114Y-86999906D01*
X64161004Y-87015078D01*
X64054659Y-87144659D01*
X63925078Y-87251004D01*
X63925076Y-87251005D01*
X63777242Y-87330024D01*
X63616823Y-87378687D01*
X63491804Y-87391000D01*
X62508196Y-87391000D01*
X62383177Y-87378687D01*
X62222758Y-87330024D01*
X62074924Y-87251005D01*
X62074922Y-87251004D01*
X61945341Y-87144659D01*
X61838996Y-87015078D01*
X61830886Y-86999906D01*
X61759976Y-86867242D01*
X61711313Y-86706823D01*
X61694883Y-86540000D01*
X61711313Y-86373177D01*
X61759976Y-86212758D01*
X61838995Y-86064924D01*
X61838996Y-86064922D01*
X61945341Y-85935341D01*
X62074922Y-85828996D01*
X62090094Y-85820886D01*
X62222758Y-85749976D01*
X62383177Y-85701313D01*
X62508196Y-85689000D01*
X63491804Y-85689000D01*
X63616823Y-85701313D01*
G37*
G36*
X93531551Y-83341895D02*
G01*
X93730634Y-83381495D01*
X94012898Y-83498412D01*
X94266929Y-83668150D01*
X94482965Y-83884186D01*
X94652703Y-84138217D01*
X94769620Y-84420481D01*
X94829224Y-84720131D01*
X94829224Y-85025651D01*
X94769620Y-85325301D01*
X94652703Y-85607565D01*
X94482965Y-85861596D01*
X94266929Y-86077632D01*
X94012898Y-86247370D01*
X93730634Y-86364287D01*
X93580809Y-86394089D01*
X93430985Y-86423891D01*
X93125463Y-86423891D01*
X92975639Y-86394089D01*
X92825814Y-86364287D01*
X92543550Y-86247370D01*
X92289519Y-86077632D01*
X92073483Y-85861596D01*
X91903745Y-85607565D01*
X91786828Y-85325301D01*
X91727224Y-85025651D01*
X91727224Y-84720131D01*
X91786828Y-84420481D01*
X91903745Y-84138217D01*
X92073483Y-83884186D01*
X92289519Y-83668150D01*
X92543550Y-83498412D01*
X92825814Y-83381495D01*
X93024897Y-83341895D01*
X93125463Y-83321891D01*
X93430985Y-83321891D01*
X93531551Y-83341895D01*
G37*
G36*
X114975103Y-83341895D02*
G01*
X115174186Y-83381495D01*
X115456450Y-83498412D01*
X115710481Y-83668150D01*
X115926517Y-83884186D01*
X116096255Y-84138217D01*
X116213172Y-84420481D01*
X116272776Y-84720131D01*
X116272776Y-85025651D01*
X116213172Y-85325301D01*
X116096255Y-85607565D01*
X115926517Y-85861596D01*
X115710481Y-86077632D01*
X115456450Y-86247370D01*
X115174186Y-86364287D01*
X115024361Y-86394089D01*
X114874537Y-86423891D01*
X114569015Y-86423891D01*
X114419191Y-86394089D01*
X114269366Y-86364287D01*
X113987102Y-86247370D01*
X113733071Y-86077632D01*
X113517035Y-85861596D01*
X113347297Y-85607565D01*
X113230380Y-85325301D01*
X113170776Y-85025651D01*
X113170776Y-84720131D01*
X113230380Y-84420481D01*
X113347297Y-84138217D01*
X113517035Y-83884186D01*
X113733071Y-83668150D01*
X113987102Y-83498412D01*
X114269366Y-83381495D01*
X114468449Y-83341895D01*
X114569015Y-83321891D01*
X114874537Y-83321891D01*
X114975103Y-83341895D01*
G37*
G36*
X101580224Y-83201163D02*
G01*
X101730049Y-83230965D01*
X102012313Y-83347882D01*
X102266344Y-83517620D01*
X102482380Y-83733656D01*
X102652118Y-83987687D01*
X102769035Y-84269951D01*
X102828639Y-84569601D01*
X102828639Y-84875121D01*
X102769035Y-85174771D01*
X102652118Y-85457035D01*
X102482380Y-85711066D01*
X102266344Y-85927102D01*
X102012313Y-86096840D01*
X101730049Y-86213757D01*
X101580224Y-86243559D01*
X101430400Y-86273361D01*
X101124878Y-86273361D01*
X100975054Y-86243559D01*
X100825229Y-86213757D01*
X100542965Y-86096840D01*
X100288934Y-85927102D01*
X100072898Y-85711066D01*
X99903160Y-85457035D01*
X99786243Y-85174771D01*
X99726639Y-84875121D01*
X99726639Y-84569601D01*
X99786243Y-84269951D01*
X99903160Y-83987687D01*
X100072898Y-83733656D01*
X100288934Y-83517620D01*
X100542965Y-83347882D01*
X100825229Y-83230965D01*
X100975054Y-83201163D01*
X101124878Y-83171361D01*
X101430400Y-83171361D01*
X101580224Y-83201163D01*
G37*
G36*
X124613062Y-83078181D02*
G01*
X124647981Y-83088774D01*
X124680163Y-83105976D01*
X124708373Y-83129127D01*
X124731524Y-83157337D01*
X124748726Y-83189519D01*
X124759319Y-83224438D01*
X124763500Y-83266895D01*
X124763500Y-84733105D01*
X124759319Y-84775562D01*
X124748726Y-84810481D01*
X124731524Y-84842663D01*
X124708373Y-84870873D01*
X124680163Y-84894024D01*
X124647981Y-84911226D01*
X124613062Y-84921819D01*
X124570605Y-84926000D01*
X123429395Y-84926000D01*
X123386938Y-84921819D01*
X123352019Y-84911226D01*
X123319837Y-84894024D01*
X123291627Y-84870873D01*
X123268476Y-84842663D01*
X123251274Y-84810481D01*
X123240681Y-84775562D01*
X123236500Y-84733105D01*
X123236500Y-83266895D01*
X123240681Y-83224438D01*
X123251274Y-83189519D01*
X123268476Y-83157337D01*
X123291627Y-83129127D01*
X123319837Y-83105976D01*
X123352019Y-83088774D01*
X123386938Y-83078181D01*
X123429395Y-83074000D01*
X124570605Y-83074000D01*
X124613062Y-83078181D01*
G37*
G36*
X133588062Y-83078181D02*
G01*
X133622981Y-83088774D01*
X133655163Y-83105976D01*
X133683373Y-83129127D01*
X133706524Y-83157337D01*
X133723726Y-83189519D01*
X133734319Y-83224438D01*
X133738500Y-83266895D01*
X133738500Y-84733105D01*
X133734319Y-84775562D01*
X133723726Y-84810481D01*
X133706524Y-84842663D01*
X133683373Y-84870873D01*
X133655163Y-84894024D01*
X133622981Y-84911226D01*
X133588062Y-84921819D01*
X133545605Y-84926000D01*
X132404395Y-84926000D01*
X132361938Y-84921819D01*
X132327019Y-84911226D01*
X132294837Y-84894024D01*
X132266627Y-84870873D01*
X132243476Y-84842663D01*
X132226274Y-84810481D01*
X132215681Y-84775562D01*
X132211500Y-84733105D01*
X132211500Y-83266895D01*
X132215681Y-83224438D01*
X132226274Y-83189519D01*
X132243476Y-83157337D01*
X132266627Y-83129127D01*
X132294837Y-83105976D01*
X132327019Y-83088774D01*
X132361938Y-83078181D01*
X132404395Y-83074000D01*
X133545605Y-83074000D01*
X133588062Y-83078181D01*
G37*
G36*
X127588062Y-83078181D02*
G01*
X127622981Y-83088774D01*
X127655163Y-83105976D01*
X127683373Y-83129127D01*
X127706524Y-83157337D01*
X127723726Y-83189519D01*
X127734319Y-83224438D01*
X127738500Y-83266895D01*
X127738500Y-84733105D01*
X127734319Y-84775562D01*
X127723726Y-84810481D01*
X127706524Y-84842663D01*
X127683373Y-84870873D01*
X127655163Y-84894024D01*
X127622981Y-84911226D01*
X127588062Y-84921819D01*
X127545605Y-84926000D01*
X126404395Y-84926000D01*
X126361938Y-84921819D01*
X126327019Y-84911226D01*
X126294837Y-84894024D01*
X126266627Y-84870873D01*
X126243476Y-84842663D01*
X126226274Y-84810481D01*
X126215681Y-84775562D01*
X126211500Y-84733105D01*
X126211500Y-83266895D01*
X126215681Y-83224438D01*
X126226274Y-83189519D01*
X126243476Y-83157337D01*
X126266627Y-83129127D01*
X126294837Y-83105976D01*
X126327019Y-83088774D01*
X126361938Y-83078181D01*
X126404395Y-83074000D01*
X127545605Y-83074000D01*
X127588062Y-83078181D01*
G37*
G36*
X130613062Y-83078181D02*
G01*
X130647981Y-83088774D01*
X130680163Y-83105976D01*
X130708373Y-83129127D01*
X130731524Y-83157337D01*
X130748726Y-83189519D01*
X130759319Y-83224438D01*
X130763500Y-83266895D01*
X130763500Y-84733105D01*
X130759319Y-84775562D01*
X130748726Y-84810481D01*
X130731524Y-84842663D01*
X130708373Y-84870873D01*
X130680163Y-84894024D01*
X130647981Y-84911226D01*
X130613062Y-84921819D01*
X130570605Y-84926000D01*
X129429395Y-84926000D01*
X129386938Y-84921819D01*
X129352019Y-84911226D01*
X129319837Y-84894024D01*
X129291627Y-84870873D01*
X129268476Y-84842663D01*
X129251274Y-84810481D01*
X129240681Y-84775562D01*
X129236500Y-84733105D01*
X129236500Y-83266895D01*
X129240681Y-83224438D01*
X129251274Y-83189519D01*
X129268476Y-83157337D01*
X129291627Y-83129127D01*
X129319837Y-83105976D01*
X129352019Y-83088774D01*
X129386938Y-83078181D01*
X129429395Y-83074000D01*
X130570605Y-83074000D01*
X130613062Y-83078181D01*
G37*
G36*
X63616823Y-83161313D02*
G01*
X63777242Y-83209976D01*
X63832245Y-83239376D01*
X63925078Y-83288996D01*
X64054659Y-83395341D01*
X64161004Y-83524922D01*
X64161005Y-83524924D01*
X64240024Y-83672758D01*
X64288687Y-83833177D01*
X64305117Y-84000000D01*
X64288687Y-84166823D01*
X64240024Y-84327242D01*
X64169114Y-84459906D01*
X64161004Y-84475078D01*
X64054659Y-84604659D01*
X63925078Y-84711004D01*
X63925076Y-84711005D01*
X63777242Y-84790024D01*
X63616823Y-84838687D01*
X63491804Y-84851000D01*
X62508196Y-84851000D01*
X62383177Y-84838687D01*
X62222758Y-84790024D01*
X62074924Y-84711005D01*
X62074922Y-84711004D01*
X61945341Y-84604659D01*
X61838996Y-84475078D01*
X61830886Y-84459906D01*
X61759976Y-84327242D01*
X61711313Y-84166823D01*
X61694883Y-84000000D01*
X61711313Y-83833177D01*
X61759976Y-83672758D01*
X61838995Y-83524924D01*
X61838996Y-83524922D01*
X61945341Y-83395341D01*
X62074922Y-83288996D01*
X62167755Y-83239376D01*
X62222758Y-83209976D01*
X62383177Y-83161313D01*
X62508196Y-83149000D01*
X63491804Y-83149000D01*
X63616823Y-83161313D01*
G37*
G36*
X141328571Y-81202863D02*
G01*
X141407023Y-81210590D01*
X141507682Y-81241125D01*
X141558013Y-81256392D01*
X141697165Y-81330771D01*
X141819133Y-81430867D01*
X141919229Y-81552835D01*
X141993608Y-81691987D01*
X141993608Y-81691988D01*
X142039410Y-81842977D01*
X142054875Y-82000000D01*
X142039410Y-82157023D01*
X142008875Y-82257682D01*
X141993608Y-82308013D01*
X141919229Y-82447165D01*
X141819133Y-82569133D01*
X141697165Y-82669229D01*
X141558013Y-82743608D01*
X141507682Y-82758875D01*
X141407023Y-82789410D01*
X141328571Y-82797137D01*
X141289346Y-82801000D01*
X139710654Y-82801000D01*
X139671429Y-82797137D01*
X139592977Y-82789410D01*
X139492318Y-82758875D01*
X139441987Y-82743608D01*
X139302835Y-82669229D01*
X139180867Y-82569133D01*
X139080771Y-82447165D01*
X139006392Y-82308013D01*
X138991125Y-82257682D01*
X138960590Y-82157023D01*
X138945125Y-82000000D01*
X138960590Y-81842977D01*
X139006392Y-81691988D01*
X139006392Y-81691987D01*
X139080771Y-81552835D01*
X139180867Y-81430867D01*
X139302835Y-81330771D01*
X139441987Y-81256392D01*
X139492318Y-81241125D01*
X139592977Y-81210590D01*
X139671429Y-81202863D01*
X139710654Y-81199000D01*
X141289346Y-81199000D01*
X141328571Y-81202863D01*
G37*
G36*
X146328571Y-81202863D02*
G01*
X146407023Y-81210590D01*
X146507682Y-81241125D01*
X146558013Y-81256392D01*
X146697165Y-81330771D01*
X146819133Y-81430867D01*
X146919229Y-81552835D01*
X146993608Y-81691987D01*
X146993608Y-81691988D01*
X147039410Y-81842977D01*
X147054875Y-82000000D01*
X147039410Y-82157023D01*
X147008875Y-82257682D01*
X146993608Y-82308013D01*
X146919229Y-82447165D01*
X146819133Y-82569133D01*
X146697165Y-82669229D01*
X146558013Y-82743608D01*
X146507682Y-82758875D01*
X146407023Y-82789410D01*
X146328571Y-82797137D01*
X146289346Y-82801000D01*
X144710654Y-82801000D01*
X144671429Y-82797137D01*
X144592977Y-82789410D01*
X144492318Y-82758875D01*
X144441987Y-82743608D01*
X144302835Y-82669229D01*
X144180867Y-82569133D01*
X144080771Y-82447165D01*
X144006392Y-82308013D01*
X143991125Y-82257682D01*
X143960590Y-82157023D01*
X143945125Y-82000000D01*
X143960590Y-81842977D01*
X144006392Y-81691988D01*
X144006392Y-81691987D01*
X144080771Y-81552835D01*
X144180867Y-81430867D01*
X144302835Y-81330771D01*
X144441987Y-81256392D01*
X144492318Y-81241125D01*
X144592977Y-81210590D01*
X144671429Y-81202863D01*
X144710654Y-81199000D01*
X146289346Y-81199000D01*
X146328571Y-81202863D01*
G37*
G36*
X124613062Y-79078181D02*
G01*
X124647981Y-79088774D01*
X124680163Y-79105976D01*
X124708373Y-79129127D01*
X124731524Y-79157337D01*
X124748726Y-79189519D01*
X124759319Y-79224438D01*
X124763500Y-79266895D01*
X124763500Y-80733105D01*
X124759319Y-80775562D01*
X124748726Y-80810481D01*
X124731524Y-80842663D01*
X124708373Y-80870873D01*
X124680163Y-80894024D01*
X124647981Y-80911226D01*
X124613062Y-80921819D01*
X124570605Y-80926000D01*
X123429395Y-80926000D01*
X123386938Y-80921819D01*
X123352019Y-80911226D01*
X123319837Y-80894024D01*
X123291627Y-80870873D01*
X123268476Y-80842663D01*
X123251274Y-80810481D01*
X123240681Y-80775562D01*
X123236500Y-80733105D01*
X123236500Y-79266895D01*
X123240681Y-79224438D01*
X123251274Y-79189519D01*
X123268476Y-79157337D01*
X123291627Y-79129127D01*
X123319837Y-79105976D01*
X123352019Y-79088774D01*
X123386938Y-79078181D01*
X123429395Y-79074000D01*
X124570605Y-79074000D01*
X124613062Y-79078181D01*
G37*
G36*
X127588062Y-79078181D02*
G01*
X127622981Y-79088774D01*
X127655163Y-79105976D01*
X127683373Y-79129127D01*
X127706524Y-79157337D01*
X127723726Y-79189519D01*
X127734319Y-79224438D01*
X127738500Y-79266895D01*
X127738500Y-80733105D01*
X127734319Y-80775562D01*
X127723726Y-80810481D01*
X127706524Y-80842663D01*
X127683373Y-80870873D01*
X127655163Y-80894024D01*
X127622981Y-80911226D01*
X127588062Y-80921819D01*
X127545605Y-80926000D01*
X126404395Y-80926000D01*
X126361938Y-80921819D01*
X126327019Y-80911226D01*
X126294837Y-80894024D01*
X126266627Y-80870873D01*
X126243476Y-80842663D01*
X126226274Y-80810481D01*
X126215681Y-80775562D01*
X126211500Y-80733105D01*
X126211500Y-79266895D01*
X126215681Y-79224438D01*
X126226274Y-79189519D01*
X126243476Y-79157337D01*
X126266627Y-79129127D01*
X126294837Y-79105976D01*
X126327019Y-79088774D01*
X126361938Y-79078181D01*
X126404395Y-79074000D01*
X127545605Y-79074000D01*
X127588062Y-79078181D01*
G37*
G36*
X107005787Y-77752630D02*
G01*
X107174771Y-77786243D01*
X107457035Y-77903160D01*
X107711066Y-78072898D01*
X107927102Y-78288934D01*
X108096840Y-78542965D01*
X108213757Y-78825229D01*
X108273361Y-79124879D01*
X108273361Y-79430399D01*
X108213757Y-79730049D01*
X108096840Y-80012313D01*
X107927102Y-80266344D01*
X107711066Y-80482380D01*
X107457035Y-80652118D01*
X107174771Y-80769035D01*
X107024946Y-80798837D01*
X106875122Y-80828639D01*
X106569600Y-80828639D01*
X106419776Y-80798837D01*
X106269951Y-80769035D01*
X105987687Y-80652118D01*
X105733656Y-80482380D01*
X105517620Y-80266344D01*
X105347882Y-80012313D01*
X105230965Y-79730049D01*
X105171361Y-79430399D01*
X105171361Y-79124879D01*
X105230965Y-78825229D01*
X105347882Y-78542965D01*
X105517620Y-78288934D01*
X105733656Y-78072898D01*
X105987687Y-77903160D01*
X106269951Y-77786243D01*
X106438935Y-77752630D01*
X106569600Y-77726639D01*
X106875122Y-77726639D01*
X107005787Y-77752630D01*
G37*
G36*
X59846669Y-77127686D02*
G01*
X60023058Y-77145059D01*
X60362548Y-77248042D01*
X60362550Y-77248043D01*
X60675422Y-77415277D01*
X60949661Y-77640339D01*
X61174723Y-77914578D01*
X61294361Y-78138404D01*
X61341958Y-78227452D01*
X61444941Y-78566942D01*
X61479714Y-78920000D01*
X61444941Y-79273058D01*
X61351977Y-79579519D01*
X61341957Y-79612550D01*
X61174723Y-79925422D01*
X60949661Y-80199661D01*
X60675422Y-80424723D01*
X60531618Y-80501588D01*
X60362548Y-80591958D01*
X60023058Y-80694941D01*
X59866414Y-80710369D01*
X59758476Y-80721000D01*
X56081524Y-80721000D01*
X55973586Y-80710369D01*
X55816942Y-80694941D01*
X55477452Y-80591958D01*
X55308382Y-80501588D01*
X55164578Y-80424723D01*
X54890339Y-80199661D01*
X54665277Y-79925422D01*
X54498043Y-79612550D01*
X54488023Y-79579519D01*
X54395059Y-79273058D01*
X54360286Y-78920000D01*
X54395059Y-78566942D01*
X54498042Y-78227452D01*
X54545639Y-78138404D01*
X54665277Y-77914578D01*
X54890339Y-77640339D01*
X55164578Y-77415277D01*
X55477450Y-77248043D01*
X55477452Y-77248042D01*
X55816942Y-77145059D01*
X55993331Y-77127686D01*
X56081524Y-77119000D01*
X59758476Y-77119000D01*
X59846669Y-77127686D01*
G37*
G36*
X93580809Y-77605911D02*
G01*
X93730634Y-77635713D01*
X94012898Y-77752630D01*
X94266929Y-77922368D01*
X94482965Y-78138404D01*
X94652703Y-78392435D01*
X94769620Y-78674699D01*
X94829224Y-78974349D01*
X94829224Y-79279869D01*
X94769620Y-79579519D01*
X94652703Y-79861783D01*
X94482965Y-80115814D01*
X94266929Y-80331850D01*
X94012898Y-80501588D01*
X93730634Y-80618505D01*
X93580809Y-80648307D01*
X93430985Y-80678109D01*
X93125463Y-80678109D01*
X92975639Y-80648307D01*
X92825814Y-80618505D01*
X92543550Y-80501588D01*
X92289519Y-80331850D01*
X92073483Y-80115814D01*
X91903745Y-79861783D01*
X91786828Y-79579519D01*
X91727224Y-79279869D01*
X91727224Y-78974349D01*
X91786828Y-78674699D01*
X91903745Y-78392435D01*
X92073483Y-78138404D01*
X92289519Y-77922368D01*
X92543550Y-77752630D01*
X92825814Y-77635713D01*
X92975639Y-77605911D01*
X93125463Y-77576109D01*
X93430985Y-77576109D01*
X93580809Y-77605911D01*
G37*
G36*
X115024361Y-77605911D02*
G01*
X115174186Y-77635713D01*
X115456450Y-77752630D01*
X115710481Y-77922368D01*
X115926517Y-78138404D01*
X116096255Y-78392435D01*
X116213172Y-78674699D01*
X116272776Y-78974349D01*
X116272776Y-79279869D01*
X116213172Y-79579519D01*
X116096255Y-79861783D01*
X115926517Y-80115814D01*
X115710481Y-80331850D01*
X115456450Y-80501588D01*
X115174186Y-80618505D01*
X115024361Y-80648307D01*
X114874537Y-80678109D01*
X114569015Y-80678109D01*
X114419191Y-80648307D01*
X114269366Y-80618505D01*
X113987102Y-80501588D01*
X113733071Y-80331850D01*
X113517035Y-80115814D01*
X113347297Y-79861783D01*
X113230380Y-79579519D01*
X113170776Y-79279869D01*
X113170776Y-78974349D01*
X113230380Y-78674699D01*
X113347297Y-78392435D01*
X113517035Y-78138404D01*
X113733071Y-77922368D01*
X113987102Y-77752630D01*
X114269366Y-77635713D01*
X114419191Y-77605911D01*
X114569015Y-77576109D01*
X114874537Y-77576109D01*
X115024361Y-77605911D01*
G37*
G36*
X72811000Y-76811000D02*
G01*
X71189000Y-76811000D01*
X71189000Y-75189000D01*
X72811000Y-75189000D01*
X72811000Y-76811000D01*
G37*
G36*
X84736560Y-75220166D02*
G01*
X84884153Y-75281301D01*
X85016982Y-75370055D01*
X85129945Y-75483018D01*
X85218699Y-75615847D01*
X85279834Y-75763440D01*
X85311000Y-75920123D01*
X85311000Y-76079877D01*
X85279834Y-76236560D01*
X85218699Y-76384153D01*
X85129945Y-76516982D01*
X85016982Y-76629945D01*
X84884153Y-76718699D01*
X84884152Y-76718700D01*
X84884151Y-76718700D01*
X84736560Y-76779834D01*
X84579878Y-76811000D01*
X84420122Y-76811000D01*
X84263440Y-76779834D01*
X84115849Y-76718700D01*
X84115848Y-76718700D01*
X84115847Y-76718699D01*
X83983018Y-76629945D01*
X83870055Y-76516982D01*
X83781301Y-76384153D01*
X83720166Y-76236560D01*
X83689000Y-76079877D01*
X83689000Y-75920123D01*
X83720166Y-75763440D01*
X83781301Y-75615847D01*
X83870055Y-75483018D01*
X83983018Y-75370055D01*
X84115847Y-75281301D01*
X84263440Y-75220166D01*
X84420122Y-75189000D01*
X84579878Y-75189000D01*
X84736560Y-75220166D01*
G37*
G36*
X96453700Y-72629917D02*
G01*
X96603525Y-72659719D01*
X96885789Y-72776636D01*
X97139820Y-72946374D01*
X97355856Y-73162410D01*
X97525594Y-73416441D01*
X97642511Y-73698705D01*
X97642511Y-73698706D01*
X97702115Y-73998354D01*
X97702115Y-74303876D01*
X97672313Y-74453700D01*
X97642511Y-74603525D01*
X97525594Y-74885789D01*
X97355856Y-75139820D01*
X97139820Y-75355856D01*
X96885789Y-75525594D01*
X96603525Y-75642511D01*
X96453700Y-75672313D01*
X96303876Y-75702115D01*
X95998354Y-75702115D01*
X95848530Y-75672313D01*
X95698705Y-75642511D01*
X95416441Y-75525594D01*
X95162410Y-75355856D01*
X94946374Y-75139820D01*
X94776636Y-74885789D01*
X94659719Y-74603525D01*
X94629917Y-74453700D01*
X94600115Y-74303876D01*
X94600115Y-73998354D01*
X94659719Y-73698706D01*
X94659719Y-73698705D01*
X94776636Y-73416441D01*
X94946374Y-73162410D01*
X95162410Y-72946374D01*
X95416441Y-72776636D01*
X95698705Y-72659719D01*
X95848530Y-72629917D01*
X95998354Y-72600115D01*
X96303876Y-72600115D01*
X96453700Y-72629917D01*
G37*
G36*
X112151470Y-72629917D02*
G01*
X112301295Y-72659719D01*
X112583559Y-72776636D01*
X112837590Y-72946374D01*
X113053626Y-73162410D01*
X113223364Y-73416441D01*
X113340281Y-73698705D01*
X113340281Y-73698706D01*
X113399885Y-73998354D01*
X113399885Y-74303876D01*
X113370083Y-74453700D01*
X113340281Y-74603525D01*
X113223364Y-74885789D01*
X113053626Y-75139820D01*
X112837590Y-75355856D01*
X112583559Y-75525594D01*
X112301295Y-75642511D01*
X112151470Y-75672313D01*
X112001646Y-75702115D01*
X111696124Y-75702115D01*
X111546300Y-75672313D01*
X111396475Y-75642511D01*
X111114211Y-75525594D01*
X110860180Y-75355856D01*
X110644144Y-75139820D01*
X110474406Y-74885789D01*
X110357489Y-74603525D01*
X110327687Y-74453700D01*
X110297885Y-74303876D01*
X110297885Y-73998354D01*
X110357489Y-73698706D01*
X110357489Y-73698705D01*
X110474406Y-73416441D01*
X110644144Y-73162410D01*
X110860180Y-72946374D01*
X111114211Y-72776636D01*
X111396475Y-72659719D01*
X111546300Y-72629917D01*
X111696124Y-72600115D01*
X112001646Y-72600115D01*
X112151470Y-72629917D01*
G37*
G36*
X133356153Y-72825922D02*
G01*
X133448194Y-72864047D01*
X133578359Y-72917963D01*
X133778342Y-73051587D01*
X133948413Y-73221658D01*
X134082037Y-73421641D01*
X134174078Y-73643848D01*
X134221000Y-73879741D01*
X134221000Y-74120259D01*
X134174078Y-74356152D01*
X134082037Y-74578359D01*
X133948413Y-74778342D01*
X133778342Y-74948413D01*
X133578359Y-75082037D01*
X133448194Y-75135953D01*
X133356153Y-75174078D01*
X133281134Y-75189000D01*
X133120259Y-75221000D01*
X132879741Y-75221000D01*
X132718866Y-75189000D01*
X132643847Y-75174078D01*
X132551806Y-75135953D01*
X132421641Y-75082037D01*
X132221658Y-74948413D01*
X132051587Y-74778342D01*
X131917963Y-74578359D01*
X131825922Y-74356152D01*
X131779000Y-74120259D01*
X131779000Y-73879741D01*
X131825922Y-73643848D01*
X131917963Y-73421641D01*
X132051587Y-73221658D01*
X132221658Y-73051587D01*
X132421641Y-72917963D01*
X132551806Y-72864047D01*
X132643847Y-72825922D01*
X132879741Y-72779000D01*
X133120259Y-72779000D01*
X133356153Y-72825922D01*
G37*
G36*
X143356153Y-72825922D02*
G01*
X143448194Y-72864047D01*
X143578359Y-72917963D01*
X143778342Y-73051587D01*
X143948413Y-73221658D01*
X144082037Y-73421641D01*
X144174078Y-73643848D01*
X144221000Y-73879741D01*
X144221000Y-74120259D01*
X144174078Y-74356152D01*
X144082037Y-74578359D01*
X143948413Y-74778342D01*
X143778342Y-74948413D01*
X143578359Y-75082037D01*
X143448194Y-75135953D01*
X143356153Y-75174078D01*
X143281134Y-75189000D01*
X143120259Y-75221000D01*
X142879741Y-75221000D01*
X142718866Y-75189000D01*
X142643847Y-75174078D01*
X142551806Y-75135953D01*
X142421641Y-75082037D01*
X142221658Y-74948413D01*
X142051587Y-74778342D01*
X141917963Y-74578359D01*
X141825922Y-74356152D01*
X141779000Y-74120259D01*
X141779000Y-73879741D01*
X141825922Y-73643848D01*
X141917963Y-73421641D01*
X142051587Y-73221658D01*
X142221658Y-73051587D01*
X142421641Y-72917963D01*
X142551806Y-72864047D01*
X142643847Y-72825922D01*
X142879741Y-72779000D01*
X143120259Y-72779000D01*
X143356153Y-72825922D01*
G37*
G36*
X59846669Y-71287686D02*
G01*
X60023058Y-71305059D01*
X60362548Y-71408042D01*
X60362550Y-71408043D01*
X60675422Y-71575277D01*
X60949661Y-71800339D01*
X61124104Y-72012898D01*
X61174722Y-72074577D01*
X61341958Y-72387452D01*
X61444941Y-72726942D01*
X61479714Y-73080000D01*
X61444941Y-73433058D01*
X61341958Y-73772548D01*
X61341957Y-73772550D01*
X61174723Y-74085422D01*
X60949661Y-74359661D01*
X60675422Y-74584723D01*
X60362550Y-74751957D01*
X60362548Y-74751958D01*
X60023058Y-74854941D01*
X59846669Y-74872314D01*
X59758476Y-74881000D01*
X56081524Y-74881000D01*
X55993331Y-74872314D01*
X55816942Y-74854941D01*
X55477452Y-74751958D01*
X55477450Y-74751957D01*
X55164578Y-74584723D01*
X54890339Y-74359661D01*
X54665277Y-74085422D01*
X54498043Y-73772550D01*
X54498042Y-73772548D01*
X54395059Y-73433058D01*
X54360286Y-73080000D01*
X54395059Y-72726942D01*
X54498042Y-72387452D01*
X54665278Y-72074577D01*
X54715897Y-72012898D01*
X54890339Y-71800339D01*
X55164578Y-71575277D01*
X55477450Y-71408043D01*
X55477452Y-71408042D01*
X55816942Y-71305059D01*
X55993331Y-71287686D01*
X56081524Y-71279000D01*
X59758476Y-71279000D01*
X59846669Y-71287686D01*
G37*
G36*
X107109286Y-69743860D02*
G01*
X107325301Y-69786828D01*
X107607565Y-69903745D01*
X107861596Y-70073483D01*
X108077632Y-70289519D01*
X108247370Y-70543550D01*
X108364287Y-70825814D01*
X108394089Y-70975639D01*
X108401934Y-71015076D01*
X108423891Y-71125464D01*
X108423891Y-71430984D01*
X108364287Y-71730634D01*
X108247370Y-72012898D01*
X108077632Y-72266929D01*
X107861596Y-72482965D01*
X107607565Y-72652703D01*
X107325301Y-72769620D01*
X107278144Y-72779000D01*
X107025652Y-72829224D01*
X106720130Y-72829224D01*
X106467638Y-72779000D01*
X106420481Y-72769620D01*
X106138217Y-72652703D01*
X105884186Y-72482965D01*
X105668150Y-72266929D01*
X105498412Y-72012898D01*
X105381495Y-71730634D01*
X105321891Y-71430984D01*
X105321891Y-71125464D01*
X105343849Y-71015076D01*
X105351693Y-70975639D01*
X105381495Y-70825814D01*
X105498412Y-70543550D01*
X105668150Y-70289519D01*
X105884186Y-70073483D01*
X106138217Y-69903745D01*
X106420481Y-69786828D01*
X106636496Y-69743860D01*
X106720130Y-69727224D01*
X107025652Y-69727224D01*
X107109286Y-69743860D01*
G37*
G36*
X101363504Y-69743860D02*
G01*
X101579519Y-69786828D01*
X101861783Y-69903745D01*
X102115814Y-70073483D01*
X102331850Y-70289519D01*
X102501588Y-70543550D01*
X102618505Y-70825814D01*
X102648307Y-70975639D01*
X102656152Y-71015076D01*
X102678109Y-71125464D01*
X102678109Y-71430984D01*
X102618505Y-71730634D01*
X102501588Y-72012898D01*
X102331850Y-72266929D01*
X102115814Y-72482965D01*
X101861783Y-72652703D01*
X101579519Y-72769620D01*
X101532362Y-72779000D01*
X101279870Y-72829224D01*
X100974348Y-72829224D01*
X100721856Y-72779000D01*
X100674699Y-72769620D01*
X100392435Y-72652703D01*
X100138404Y-72482965D01*
X99922368Y-72266929D01*
X99752630Y-72012898D01*
X99635713Y-71730634D01*
X99576109Y-71430984D01*
X99576109Y-71125464D01*
X99598067Y-71015076D01*
X99605911Y-70975639D01*
X99635713Y-70825814D01*
X99752630Y-70543550D01*
X99922368Y-70289519D01*
X100138404Y-70073483D01*
X100392435Y-69903745D01*
X100674699Y-69786828D01*
X100890714Y-69743860D01*
X100974348Y-69727224D01*
X101279870Y-69727224D01*
X101363504Y-69743860D01*
G37*
G36*
X63616823Y-69701313D02*
G01*
X63721603Y-69733098D01*
X63766486Y-69746713D01*
X63777242Y-69749976D01*
X63871320Y-69800262D01*
X63925078Y-69828996D01*
X64054659Y-69935341D01*
X64161004Y-70064922D01*
X64161005Y-70064924D01*
X64240024Y-70212758D01*
X64288687Y-70373177D01*
X64305117Y-70540000D01*
X64288687Y-70706823D01*
X64240024Y-70867242D01*
X64169114Y-70999906D01*
X64161004Y-71015078D01*
X64054659Y-71144659D01*
X63925078Y-71251004D01*
X63925076Y-71251005D01*
X63777242Y-71330024D01*
X63616823Y-71378687D01*
X63491804Y-71391000D01*
X62508196Y-71391000D01*
X62383177Y-71378687D01*
X62222758Y-71330024D01*
X62074924Y-71251005D01*
X62074922Y-71251004D01*
X61945341Y-71144659D01*
X61838996Y-71015078D01*
X61830886Y-70999906D01*
X61759976Y-70867242D01*
X61711313Y-70706823D01*
X61694883Y-70540000D01*
X61711313Y-70373177D01*
X61759976Y-70212758D01*
X61838995Y-70064924D01*
X61838996Y-70064922D01*
X61945341Y-69935341D01*
X62074922Y-69828996D01*
X62128680Y-69800262D01*
X62222758Y-69749976D01*
X62233515Y-69746713D01*
X62278397Y-69733098D01*
X62383177Y-69701313D01*
X62508196Y-69689000D01*
X63491804Y-69689000D01*
X63616823Y-69701313D01*
G37*
G36*
X143238205Y-67802461D02*
G01*
X143356153Y-67825922D01*
X143448194Y-67864047D01*
X143578359Y-67917963D01*
X143778342Y-68051587D01*
X143948413Y-68221658D01*
X144082037Y-68421641D01*
X144104170Y-68475076D01*
X144157846Y-68604659D01*
X144174078Y-68643848D01*
X144221000Y-68879741D01*
X144221000Y-69120259D01*
X144174078Y-69356152D01*
X144082037Y-69578359D01*
X143948413Y-69778342D01*
X143778342Y-69948413D01*
X143578359Y-70082037D01*
X143448194Y-70135953D01*
X143356153Y-70174078D01*
X143120259Y-70221000D01*
X142879741Y-70221000D01*
X142643847Y-70174078D01*
X142551806Y-70135953D01*
X142421641Y-70082037D01*
X142221658Y-69948413D01*
X142051587Y-69778342D01*
X141917963Y-69578359D01*
X141825922Y-69356152D01*
X141779000Y-69120259D01*
X141779000Y-68879741D01*
X141825922Y-68643848D01*
X141842155Y-68604659D01*
X141895830Y-68475076D01*
X141917963Y-68421641D01*
X142051587Y-68221658D01*
X142221658Y-68051587D01*
X142421641Y-67917963D01*
X142551806Y-67864047D01*
X142643847Y-67825922D01*
X142761795Y-67802461D01*
X142879741Y-67779000D01*
X143120259Y-67779000D01*
X143238205Y-67802461D01*
G37*
G36*
X91784999Y-68199737D02*
G01*
X91794608Y-68202652D01*
X91803472Y-68207390D01*
X91811212Y-68213742D01*
X91811213Y-68213743D01*
X91811237Y-68213763D01*
X91817640Y-68221573D01*
X91817677Y-68221628D01*
X91825480Y-68231147D01*
X91825511Y-68231122D01*
X91836853Y-68244972D01*
X91855779Y-68260537D01*
X91877377Y-68272111D01*
X91900819Y-68279249D01*
X91925202Y-68281676D01*
X91949591Y-68279300D01*
X91973047Y-68272211D01*
X91994670Y-68260682D01*
X92013628Y-68245157D01*
X92029193Y-68226231D01*
X92031029Y-68223175D01*
X92032418Y-68221486D01*
X92032419Y-68221484D01*
X92038801Y-68213725D01*
X92046573Y-68207360D01*
X92046575Y-68207358D01*
X92055399Y-68202654D01*
X92055438Y-68202633D01*
X92065055Y-68199727D01*
X92065085Y-68199718D01*
X92081113Y-68198148D01*
X93218860Y-68198148D01*
X93234999Y-68199737D01*
X93244608Y-68202652D01*
X93253472Y-68207390D01*
X93261237Y-68213763D01*
X93267610Y-68221528D01*
X93272348Y-68230392D01*
X93275263Y-68240001D01*
X93276852Y-68256140D01*
X93276852Y-69743860D01*
X93275263Y-69759999D01*
X93272348Y-69769608D01*
X93267610Y-69778472D01*
X93261237Y-69786237D01*
X93253472Y-69792610D01*
X93244608Y-69797348D01*
X93234999Y-69800263D01*
X93218860Y-69801852D01*
X92081140Y-69801852D01*
X92065001Y-69800263D01*
X92055392Y-69797348D01*
X92046528Y-69792610D01*
X92038763Y-69786237D01*
X92028116Y-69773263D01*
X92021947Y-69764032D01*
X92004619Y-69746706D01*
X91984244Y-69733093D01*
X91961605Y-69723717D01*
X91937572Y-69718937D01*
X91913068Y-69718938D01*
X91889035Y-69723720D01*
X91866396Y-69733098D01*
X91846022Y-69746713D01*
X91828696Y-69764041D01*
X91821825Y-69773317D01*
X91817640Y-69778427D01*
X91811275Y-69786199D01*
X91803516Y-69792581D01*
X91794661Y-69797326D01*
X91791623Y-69798251D01*
X91785085Y-69800242D01*
X91785082Y-69800242D01*
X91785050Y-69800252D01*
X91775000Y-69801247D01*
X91774935Y-69801247D01*
X91768825Y-69801852D01*
X90781140Y-69801852D01*
X90765001Y-69800263D01*
X90755392Y-69797348D01*
X90746528Y-69792610D01*
X90738763Y-69786237D01*
X90732390Y-69778472D01*
X90727652Y-69769608D01*
X90724737Y-69759999D01*
X90723148Y-69743860D01*
X90723148Y-68256140D01*
X90724737Y-68240001D01*
X90727652Y-68230392D01*
X90732390Y-68221528D01*
X90738763Y-68213763D01*
X90746528Y-68207390D01*
X90755392Y-68202652D01*
X90765001Y-68199737D01*
X90781140Y-68198148D01*
X91768860Y-68198148D01*
X91784999Y-68199737D01*
G37*
G36*
X63616823Y-67161313D02*
G01*
X63777242Y-67209976D01*
X63909906Y-67280886D01*
X63925078Y-67288996D01*
X64054659Y-67395341D01*
X64161004Y-67524922D01*
X64161005Y-67524924D01*
X64240024Y-67672758D01*
X64288687Y-67833177D01*
X64305117Y-68000000D01*
X64288687Y-68166823D01*
X64240024Y-68327242D01*
X64169114Y-68459906D01*
X64161004Y-68475078D01*
X64054659Y-68604659D01*
X63925078Y-68711004D01*
X63925076Y-68711005D01*
X63777242Y-68790024D01*
X63616823Y-68838687D01*
X63491804Y-68851000D01*
X62508196Y-68851000D01*
X62383177Y-68838687D01*
X62222758Y-68790024D01*
X62074924Y-68711005D01*
X62074922Y-68711004D01*
X61945341Y-68604659D01*
X61838996Y-68475078D01*
X61830886Y-68459906D01*
X61759976Y-68327242D01*
X61711313Y-68166823D01*
X61694883Y-68000000D01*
X61711313Y-67833177D01*
X61759976Y-67672758D01*
X61838995Y-67524924D01*
X61838996Y-67524922D01*
X61945341Y-67395341D01*
X62074922Y-67288996D01*
X62090094Y-67280886D01*
X62222758Y-67209976D01*
X62383177Y-67161313D01*
X62508196Y-67149000D01*
X63491804Y-67149000D01*
X63616823Y-67161313D01*
G37*
G36*
X125638062Y-66078181D02*
G01*
X125672981Y-66088774D01*
X125705163Y-66105976D01*
X125733373Y-66129127D01*
X125756524Y-66157337D01*
X125773726Y-66189519D01*
X125784319Y-66224438D01*
X125788500Y-66266895D01*
X125788500Y-67733105D01*
X125784319Y-67775562D01*
X125773726Y-67810481D01*
X125756524Y-67842663D01*
X125733373Y-67870873D01*
X125705163Y-67894024D01*
X125672981Y-67911226D01*
X125638062Y-67921819D01*
X125595605Y-67926000D01*
X124454395Y-67926000D01*
X124411938Y-67921819D01*
X124377019Y-67911226D01*
X124344837Y-67894024D01*
X124316627Y-67870873D01*
X124293476Y-67842663D01*
X124276274Y-67810481D01*
X124265681Y-67775562D01*
X124261500Y-67733105D01*
X124261500Y-66266895D01*
X124265681Y-66224438D01*
X124276274Y-66189519D01*
X124293476Y-66157337D01*
X124316627Y-66129127D01*
X124344837Y-66105976D01*
X124377019Y-66088774D01*
X124411938Y-66078181D01*
X124454395Y-66074000D01*
X125595605Y-66074000D01*
X125638062Y-66078181D01*
G37*
G36*
X128613062Y-66078181D02*
G01*
X128647981Y-66088774D01*
X128680163Y-66105976D01*
X128708373Y-66129127D01*
X128731524Y-66157337D01*
X128748726Y-66189519D01*
X128759319Y-66224438D01*
X128763500Y-66266895D01*
X128763500Y-67733105D01*
X128759319Y-67775562D01*
X128748726Y-67810481D01*
X128731524Y-67842663D01*
X128708373Y-67870873D01*
X128680163Y-67894024D01*
X128647981Y-67911226D01*
X128613062Y-67921819D01*
X128570605Y-67926000D01*
X127429395Y-67926000D01*
X127386938Y-67921819D01*
X127352019Y-67911226D01*
X127319837Y-67894024D01*
X127291627Y-67870873D01*
X127268476Y-67842663D01*
X127251274Y-67810481D01*
X127240681Y-67775562D01*
X127236500Y-67733105D01*
X127236500Y-66266895D01*
X127240681Y-66224438D01*
X127251274Y-66189519D01*
X127268476Y-66157337D01*
X127291627Y-66129127D01*
X127319837Y-66105976D01*
X127352019Y-66088774D01*
X127386938Y-66078181D01*
X127429395Y-66074000D01*
X128570605Y-66074000D01*
X128613062Y-66078181D01*
G37*
G36*
X122588062Y-66078181D02*
G01*
X122622981Y-66088774D01*
X122655163Y-66105976D01*
X122683373Y-66129127D01*
X122706524Y-66157337D01*
X122723726Y-66189519D01*
X122734319Y-66224438D01*
X122738500Y-66266895D01*
X122738500Y-67733105D01*
X122734319Y-67775562D01*
X122723726Y-67810481D01*
X122706524Y-67842663D01*
X122683373Y-67870873D01*
X122655163Y-67894024D01*
X122622981Y-67911226D01*
X122588062Y-67921819D01*
X122545605Y-67926000D01*
X121404395Y-67926000D01*
X121361938Y-67921819D01*
X121327019Y-67911226D01*
X121294837Y-67894024D01*
X121266627Y-67870873D01*
X121243476Y-67842663D01*
X121226274Y-67810481D01*
X121215681Y-67775562D01*
X121211500Y-67733105D01*
X121211500Y-66266895D01*
X121215681Y-66224438D01*
X121226274Y-66189519D01*
X121243476Y-66157337D01*
X121266627Y-66129127D01*
X121294837Y-66105976D01*
X121327019Y-66088774D01*
X121361938Y-66078181D01*
X121404395Y-66074000D01*
X122545605Y-66074000D01*
X122588062Y-66078181D01*
G37*
G36*
X119613062Y-66078181D02*
G01*
X119647981Y-66088774D01*
X119680163Y-66105976D01*
X119708373Y-66129127D01*
X119731524Y-66157337D01*
X119748726Y-66189519D01*
X119759319Y-66224438D01*
X119763500Y-66266895D01*
X119763500Y-67733105D01*
X119759319Y-67775562D01*
X119748726Y-67810481D01*
X119731524Y-67842663D01*
X119708373Y-67870873D01*
X119680163Y-67894024D01*
X119647981Y-67911226D01*
X119613062Y-67921819D01*
X119570605Y-67926000D01*
X118429395Y-67926000D01*
X118386938Y-67921819D01*
X118352019Y-67911226D01*
X118319837Y-67894024D01*
X118291627Y-67870873D01*
X118268476Y-67842663D01*
X118251274Y-67810481D01*
X118240681Y-67775562D01*
X118236500Y-67733105D01*
X118236500Y-66266895D01*
X118240681Y-66224438D01*
X118251274Y-66189519D01*
X118268476Y-66157337D01*
X118291627Y-66129127D01*
X118319837Y-66105976D01*
X118352019Y-66088774D01*
X118386938Y-66078181D01*
X118429395Y-66074000D01*
X119570605Y-66074000D01*
X119613062Y-66078181D01*
G37*
G36*
X84736560Y-65220166D02*
G01*
X84884153Y-65281301D01*
X85016982Y-65370055D01*
X85129945Y-65483018D01*
X85216787Y-65612985D01*
X85218700Y-65615849D01*
X85279834Y-65763440D01*
X85311000Y-65920122D01*
X85311000Y-66079878D01*
X85295592Y-66157337D01*
X85279834Y-66236560D01*
X85218699Y-66384153D01*
X85129945Y-66516982D01*
X85016982Y-66629945D01*
X84884153Y-66718699D01*
X84884152Y-66718700D01*
X84884151Y-66718700D01*
X84736560Y-66779834D01*
X84579878Y-66811000D01*
X84420122Y-66811000D01*
X84263440Y-66779834D01*
X84115849Y-66718700D01*
X84115848Y-66718700D01*
X84115847Y-66718699D01*
X83983018Y-66629945D01*
X83870055Y-66516982D01*
X83781301Y-66384153D01*
X83720166Y-66236560D01*
X83704408Y-66157337D01*
X83689000Y-66079878D01*
X83689000Y-65920122D01*
X83720166Y-65763440D01*
X83781300Y-65615849D01*
X83783214Y-65612985D01*
X83870055Y-65483018D01*
X83983018Y-65370055D01*
X84115847Y-65281301D01*
X84263440Y-65220166D01*
X84420122Y-65189000D01*
X84579878Y-65189000D01*
X84736560Y-65220166D01*
G37*
G36*
X72236560Y-65220166D02*
G01*
X72384153Y-65281301D01*
X72516982Y-65370055D01*
X72629945Y-65483018D01*
X72716787Y-65612985D01*
X72718700Y-65615849D01*
X72779834Y-65763440D01*
X72811000Y-65920122D01*
X72811000Y-66079878D01*
X72795592Y-66157337D01*
X72779834Y-66236560D01*
X72718699Y-66384153D01*
X72629945Y-66516982D01*
X72516982Y-66629945D01*
X72384153Y-66718699D01*
X72384152Y-66718700D01*
X72384151Y-66718700D01*
X72236560Y-66779834D01*
X72079878Y-66811000D01*
X71920122Y-66811000D01*
X71763440Y-66779834D01*
X71615849Y-66718700D01*
X71615848Y-66718700D01*
X71615847Y-66718699D01*
X71483018Y-66629945D01*
X71370055Y-66516982D01*
X71281301Y-66384153D01*
X71220166Y-66236560D01*
X71204408Y-66157337D01*
X71189000Y-66079878D01*
X71189000Y-65920122D01*
X71220166Y-65763440D01*
X71281300Y-65615849D01*
X71283214Y-65612985D01*
X71370055Y-65483018D01*
X71483018Y-65370055D01*
X71615847Y-65281301D01*
X71763440Y-65220166D01*
X71920122Y-65189000D01*
X72079878Y-65189000D01*
X72236560Y-65220166D01*
G37*
G36*
X104801000Y-63159499D02*
G01*
X104801000Y-64840501D01*
X100399000Y-65864222D01*
X100399000Y-62135778D01*
X104801000Y-63159499D01*
G37*
G36*
X111201000Y-65864222D02*
G01*
X106799000Y-64840501D01*
X106799000Y-63159499D01*
X111201000Y-62135778D01*
X111201000Y-65864222D01*
G37*
G36*
X97653820Y-62278103D02*
G01*
X97687985Y-62288467D01*
X97719464Y-62305293D01*
X97747060Y-62327940D01*
X97769707Y-62355536D01*
X97786533Y-62387015D01*
X97796897Y-62421180D01*
X97801000Y-62462842D01*
X97801000Y-65537158D01*
X97796897Y-65578820D01*
X97786533Y-65612985D01*
X97769707Y-65644464D01*
X97747060Y-65672060D01*
X97719464Y-65694707D01*
X97687985Y-65711533D01*
X97653820Y-65721897D01*
X97612158Y-65726000D01*
X96362842Y-65726000D01*
X96321180Y-65721897D01*
X96287015Y-65711533D01*
X96255536Y-65694707D01*
X96227940Y-65672060D01*
X96205293Y-65644464D01*
X96188467Y-65612985D01*
X96178103Y-65578820D01*
X96174000Y-65537158D01*
X96174000Y-62462842D01*
X96178103Y-62421180D01*
X96188467Y-62387015D01*
X96205293Y-62355536D01*
X96227940Y-62327940D01*
X96255536Y-62305293D01*
X96287015Y-62288467D01*
X96321180Y-62278103D01*
X96362842Y-62274000D01*
X97612158Y-62274000D01*
X97653820Y-62278103D01*
G37*
G36*
X91678820Y-62278103D02*
G01*
X91712985Y-62288467D01*
X91744464Y-62305293D01*
X91772060Y-62327940D01*
X91794707Y-62355536D01*
X91811533Y-62387015D01*
X91821897Y-62421180D01*
X91826000Y-62462842D01*
X91826000Y-65537158D01*
X91821897Y-65578820D01*
X91811533Y-65612985D01*
X91794707Y-65644464D01*
X91772060Y-65672060D01*
X91744464Y-65694707D01*
X91712985Y-65711533D01*
X91678820Y-65721897D01*
X91637158Y-65726000D01*
X90387842Y-65726000D01*
X90346180Y-65721897D01*
X90312015Y-65711533D01*
X90280536Y-65694707D01*
X90252940Y-65672060D01*
X90230293Y-65644464D01*
X90213467Y-65612985D01*
X90203103Y-65578820D01*
X90199000Y-65537158D01*
X90199000Y-62462842D01*
X90203103Y-62421180D01*
X90213467Y-62387015D01*
X90230293Y-62355536D01*
X90252940Y-62327940D01*
X90280536Y-62305293D01*
X90312015Y-62288467D01*
X90346180Y-62278103D01*
X90387842Y-62274000D01*
X91637158Y-62274000D01*
X91678820Y-62278103D01*
G37*
G36*
X133238205Y-62802461D02*
G01*
X133356153Y-62825922D01*
X133448194Y-62864047D01*
X133578359Y-62917963D01*
X133778342Y-63051587D01*
X133948413Y-63221658D01*
X134082037Y-63421641D01*
X134135953Y-63551806D01*
X134174078Y-63643847D01*
X134221000Y-63879742D01*
X134221000Y-64120258D01*
X134174078Y-64356153D01*
X134145675Y-64424723D01*
X134082037Y-64578359D01*
X133948413Y-64778342D01*
X133778342Y-64948413D01*
X133578359Y-65082037D01*
X133448194Y-65135953D01*
X133356153Y-65174078D01*
X133281134Y-65189000D01*
X133120259Y-65221000D01*
X132879741Y-65221000D01*
X132718866Y-65189000D01*
X132643847Y-65174078D01*
X132551806Y-65135953D01*
X132421641Y-65082037D01*
X132221658Y-64948413D01*
X132051587Y-64778342D01*
X131917963Y-64578359D01*
X131854325Y-64424723D01*
X131825922Y-64356153D01*
X131779000Y-64120258D01*
X131779000Y-63879742D01*
X131825922Y-63643847D01*
X131864047Y-63551806D01*
X131917963Y-63421641D01*
X132051587Y-63221658D01*
X132221658Y-63051587D01*
X132421641Y-62917963D01*
X132551806Y-62864047D01*
X132643847Y-62825922D01*
X132761795Y-62802461D01*
X132879741Y-62779000D01*
X133120259Y-62779000D01*
X133238205Y-62802461D01*
G37*
G36*
X143238205Y-62802461D02*
G01*
X143356153Y-62825922D01*
X143448194Y-62864047D01*
X143578359Y-62917963D01*
X143778342Y-63051587D01*
X143948413Y-63221658D01*
X144082037Y-63421641D01*
X144135953Y-63551806D01*
X144174078Y-63643847D01*
X144221000Y-63879742D01*
X144221000Y-64120258D01*
X144174078Y-64356153D01*
X144145675Y-64424723D01*
X144082037Y-64578359D01*
X143948413Y-64778342D01*
X143778342Y-64948413D01*
X143578359Y-65082037D01*
X143448194Y-65135953D01*
X143356153Y-65174078D01*
X143281134Y-65189000D01*
X143120259Y-65221000D01*
X142879741Y-65221000D01*
X142718866Y-65189000D01*
X142643847Y-65174078D01*
X142551806Y-65135953D01*
X142421641Y-65082037D01*
X142221658Y-64948413D01*
X142051587Y-64778342D01*
X141917963Y-64578359D01*
X141854325Y-64424723D01*
X141825922Y-64356153D01*
X141779000Y-64120258D01*
X141779000Y-63879742D01*
X141825922Y-63643847D01*
X141864047Y-63551806D01*
X141917963Y-63421641D01*
X142051587Y-63221658D01*
X142221658Y-63051587D01*
X142421641Y-62917963D01*
X142551806Y-62864047D01*
X142643847Y-62825922D01*
X142761795Y-62802461D01*
X142879741Y-62779000D01*
X143120259Y-62779000D01*
X143238205Y-62802461D01*
G37*
G36*
X59846669Y-61127686D02*
G01*
X60023058Y-61145059D01*
X60362548Y-61248042D01*
X60362550Y-61248043D01*
X60675422Y-61415277D01*
X60949661Y-61640339D01*
X61174723Y-61914578D01*
X61304481Y-62157337D01*
X61341958Y-62227452D01*
X61444941Y-62566942D01*
X61479714Y-62920000D01*
X61444941Y-63273058D01*
X61341958Y-63612548D01*
X61341957Y-63612550D01*
X61174723Y-63925422D01*
X60949661Y-64199661D01*
X60675422Y-64424723D01*
X60387990Y-64578359D01*
X60362548Y-64591958D01*
X60023058Y-64694941D01*
X59846669Y-64712314D01*
X59758476Y-64721000D01*
X56081524Y-64721000D01*
X55993331Y-64712314D01*
X55816942Y-64694941D01*
X55477452Y-64591958D01*
X55452010Y-64578359D01*
X55164578Y-64424723D01*
X54890339Y-64199661D01*
X54665277Y-63925422D01*
X54498043Y-63612550D01*
X54498042Y-63612548D01*
X54395059Y-63273058D01*
X54360286Y-62920000D01*
X54395059Y-62566942D01*
X54498042Y-62227452D01*
X54535519Y-62157337D01*
X54665277Y-61914578D01*
X54890339Y-61640339D01*
X55164578Y-61415277D01*
X55477450Y-61248043D01*
X55477452Y-61248042D01*
X55816942Y-61145059D01*
X55993331Y-61127686D01*
X56081524Y-61119000D01*
X59758476Y-61119000D01*
X59846669Y-61127686D01*
G37*
G36*
X122588062Y-62078181D02*
G01*
X122622981Y-62088774D01*
X122655163Y-62105976D01*
X122683373Y-62129127D01*
X122706524Y-62157337D01*
X122723726Y-62189519D01*
X122734319Y-62224438D01*
X122738500Y-62266895D01*
X122738500Y-63733105D01*
X122734319Y-63775562D01*
X122723726Y-63810481D01*
X122706524Y-63842663D01*
X122683373Y-63870873D01*
X122655163Y-63894024D01*
X122622981Y-63911226D01*
X122588062Y-63921819D01*
X122545605Y-63926000D01*
X121404395Y-63926000D01*
X121361938Y-63921819D01*
X121327019Y-63911226D01*
X121294837Y-63894024D01*
X121266627Y-63870873D01*
X121243476Y-63842663D01*
X121226274Y-63810481D01*
X121215681Y-63775562D01*
X121211500Y-63733105D01*
X121211500Y-62266895D01*
X121215681Y-62224438D01*
X121226274Y-62189519D01*
X121243476Y-62157337D01*
X121266627Y-62129127D01*
X121294837Y-62105976D01*
X121327019Y-62088774D01*
X121361938Y-62078181D01*
X121404395Y-62074000D01*
X122545605Y-62074000D01*
X122588062Y-62078181D01*
G37*
G36*
X119613062Y-62078181D02*
G01*
X119647981Y-62088774D01*
X119680163Y-62105976D01*
X119708373Y-62129127D01*
X119731524Y-62157337D01*
X119748726Y-62189519D01*
X119759319Y-62224438D01*
X119763500Y-62266895D01*
X119763500Y-63733105D01*
X119759319Y-63775562D01*
X119748726Y-63810481D01*
X119731524Y-63842663D01*
X119708373Y-63870873D01*
X119680163Y-63894024D01*
X119647981Y-63911226D01*
X119613062Y-63921819D01*
X119570605Y-63926000D01*
X118429395Y-63926000D01*
X118386938Y-63921819D01*
X118352019Y-63911226D01*
X118319837Y-63894024D01*
X118291627Y-63870873D01*
X118268476Y-63842663D01*
X118251274Y-63810481D01*
X118240681Y-63775562D01*
X118236500Y-63733105D01*
X118236500Y-62266895D01*
X118240681Y-62224438D01*
X118251274Y-62189519D01*
X118268476Y-62157337D01*
X118291627Y-62129127D01*
X118319837Y-62105976D01*
X118352019Y-62088774D01*
X118386938Y-62078181D01*
X118429395Y-62074000D01*
X119570605Y-62074000D01*
X119613062Y-62078181D01*
G37*
G36*
X128588062Y-62078181D02*
G01*
X128622981Y-62088774D01*
X128655163Y-62105976D01*
X128683373Y-62129127D01*
X128706524Y-62157337D01*
X128723726Y-62189519D01*
X128734319Y-62224438D01*
X128738500Y-62266895D01*
X128738500Y-63733105D01*
X128734319Y-63775562D01*
X128723726Y-63810481D01*
X128706524Y-63842663D01*
X128683373Y-63870873D01*
X128655163Y-63894024D01*
X128622981Y-63911226D01*
X128588062Y-63921819D01*
X128545605Y-63926000D01*
X127404395Y-63926000D01*
X127361938Y-63921819D01*
X127327019Y-63911226D01*
X127294837Y-63894024D01*
X127266627Y-63870873D01*
X127243476Y-63842663D01*
X127226274Y-63810481D01*
X127215681Y-63775562D01*
X127211500Y-63733105D01*
X127211500Y-62266895D01*
X127215681Y-62224438D01*
X127226274Y-62189519D01*
X127243476Y-62157337D01*
X127266627Y-62129127D01*
X127294837Y-62105976D01*
X127327019Y-62088774D01*
X127361938Y-62078181D01*
X127404395Y-62074000D01*
X128545605Y-62074000D01*
X128588062Y-62078181D01*
G37*
G36*
X125613062Y-62078181D02*
G01*
X125647981Y-62088774D01*
X125680163Y-62105976D01*
X125708373Y-62129127D01*
X125731524Y-62157337D01*
X125748726Y-62189519D01*
X125759319Y-62224438D01*
X125763500Y-62266895D01*
X125763500Y-63733105D01*
X125759319Y-63775562D01*
X125748726Y-63810481D01*
X125731524Y-63842663D01*
X125708373Y-63870873D01*
X125680163Y-63894024D01*
X125647981Y-63911226D01*
X125613062Y-63921819D01*
X125570605Y-63926000D01*
X124429395Y-63926000D01*
X124386938Y-63921819D01*
X124352019Y-63911226D01*
X124319837Y-63894024D01*
X124291627Y-63870873D01*
X124268476Y-63842663D01*
X124251274Y-63810481D01*
X124240681Y-63775562D01*
X124236500Y-63733105D01*
X124236500Y-62266895D01*
X124240681Y-62224438D01*
X124251274Y-62189519D01*
X124268476Y-62157337D01*
X124291627Y-62129127D01*
X124319837Y-62105976D01*
X124352019Y-62088774D01*
X124386938Y-62078181D01*
X124429395Y-62074000D01*
X125570605Y-62074000D01*
X125613062Y-62078181D01*
G37*
M02*
