M48
; DRILL file {KiCad (5.1.5)-3} date 20.06.2020 22:53:00
; FORMAT={-:-/ absolute / inch / decimal}
; #@! TF.CreationDate,2020-06-20T22:53:00+02:00
; #@! TF.GenerationSoftware,Kicad,Pcbnew,(5.1.5)-3
; #@! TF.FileFunction,Plated,1,2,PTH
FMAT,2
INCH
T1C0.0157
T2C0.0319
T3C0.0350
T4C0.0394
T5C0.0453
T6C0.0512
T7C0.0591
T8C0.0791
%
G90
G05
T1
X2.8543Y-3.3268
X2.874Y-5.1772
X3.3661Y-3.3268
X4.4094Y-6.122
X4.4291Y-2.4803
T2
X2.8346Y-2.5984
X2.8346Y-2.9921
X3.3268Y-2.5984
X3.3268Y-2.9921
X2.8346Y-5.6299
X2.8346Y-6.0236
X3.3268Y-5.6299
X3.3268Y-6.0236
T3
X2.4803Y-3.937
X2.4803Y-4.037
X2.4803Y-3.3071
X2.4803Y-3.4071
X2.4835Y-5.3512
X2.4835Y-5.4512
X2.4803Y-2.6772
X2.4803Y-2.7772
X2.4803Y-4.7244
X2.4803Y-4.8244
X2.4803Y-5.9843
X2.4803Y-6.0843
T4
X4.3724Y-4.0354
X4.3724Y-4.6354
X4.4724Y-4.0354
X4.4724Y-4.6354
X4.5724Y-4.0354
X4.5724Y-4.6354
X4.6724Y-4.0354
X4.6724Y-4.6354
X4.7724Y-4.0354
X4.7724Y-4.6354
X4.8724Y-4.0354
X4.8724Y-4.6354
X4.9724Y-4.0354
X4.9724Y-4.6354
X5.0724Y-4.0354
X5.0724Y-4.6354
X5.1724Y-4.0354
X5.1724Y-4.6354
X5.2724Y-4.0354
X5.2724Y-4.6354
X5.3724Y-4.0354
X5.3724Y-4.6354
X5.4724Y-4.0354
X5.4724Y-4.6354
T5
X5.5315Y-5.0394
X5.5315Y-5.2362
X5.5315Y-5.4331
X5.7283Y-5.0394
X5.7283Y-5.2362
X5.7283Y-5.4331
X5.5315Y-3.2283
X5.5315Y-3.4252
X5.5315Y-3.622
X5.7283Y-3.2283
X5.7283Y-3.4252
X5.7283Y-3.622
T6
X5.2362Y-5.748
X5.2362Y-6.1417
X5.6299Y-5.748
X5.6299Y-5.9449
X5.6299Y-6.1417
X5.2362Y-2.5197
X5.2362Y-2.9134
X5.6299Y-2.5197
X5.6299Y-2.7165
X5.6299Y-2.9134
T7
X2.7773Y-4.2107
X2.7773Y-4.4369
X2.8904Y-4.0148
X2.8904Y-4.6328
X3.0682Y-4.248
X3.0863Y-3.9017
X3.0863Y-4.7459
X3.1994Y-4.4754
X3.3125Y-3.9017
X3.3125Y-4.7459
X3.3307Y-4.248
X3.5085Y-4.0148
X3.5085Y-4.6328
X3.6216Y-4.2107
X3.6216Y-4.4369
X3.6724Y-3.1152
X3.6724Y-3.3415
X3.7855Y-2.9193
X3.7855Y-3.5374
X3.9814Y-2.8062
X3.9814Y-3.6505
X3.9873Y-3.3355
X4.2017Y-3.1212
X4.2076Y-2.8062
X4.2076Y-3.6505
X4.4035Y-2.9193
X4.4035Y-3.5374
X4.5166Y-3.1152
X4.5166Y-3.3415
X3.6724Y-5.2806
X3.6724Y-5.5068
X3.7855Y-5.0847
X3.7855Y-5.7027
X3.9814Y-4.9716
X3.9814Y-5.8158
X3.9873Y-5.5009
X4.2017Y-5.2865
X4.2076Y-4.9716
X4.2076Y-5.8158
X4.4035Y-5.0847
X4.4035Y-5.7027
X4.5166Y-5.2806
X4.5166Y-5.5068
T8
X2.2803Y-3.737
X2.2803Y-4.137
X2.2803Y-3.1071
X2.2803Y-3.5071
X2.2835Y-5.1512
X2.2835Y-5.5512
X2.2803Y-2.4772
X2.2803Y-2.8772
X2.2803Y-4.5244
X2.2803Y-4.9244
X2.2803Y-5.7843
X2.2803Y-6.1843
T0
M30
